<?xml version="1.0" encoding="utf-8"?>
<!-- Generator: Adobe Illustrator 23.1.0, SVG Export Plug-In . SVG Version: 6.00 Build 0)  -->
<svg version="1.1" id="Outline" xmlns="http://www.w3.org/2000/svg" xmlns:xlink="http://www.w3.org/1999/xlink" x="0px" y="0px"
	 viewBox="0 0 512 126.5" style="enable-background:new 0 0 512 126.5;" xml:space="preserve">
<style type="text/css">
	.st0{fill:#FFFFFF;}
</style>
<path class="st0" d="M444.3,4.6c-3.8,3.8-3.8,10,0,13.8l35.6,35.2L10.1,51.9c-5.4,0-9.8,4.4-9.8,9.8l0,0c0,5.4,4.4,9.8,9.8,9.8
	l469.7,1.7l-35.5,35.5c-3.8,3.8-3.9,10-0.1,13.9c0,0,0,0,0.1,0.1c3.8,3.8,10,3.8,13.8,0l38.4-38.3c6-6,14.5-15.4,14.5-21.7
	c0-4.3-9-14.3-14.5-19.9L458.1,4.6C454.3,0.8,448.1,0.8,444.3,4.6z"/>
</svg>
