<svg width="142" height="122" viewBox="0 0 142 122" fill="none" xmlns="http://www.w3.org/2000/svg">
<g clip-path="url(#clip0_1762_1118)">
<path d="M103.01 35.8721L103.191 35.7896C112.264 32.0701 119.623 30.3875 122.036 29.8389C122.326 29.774 122.522 29.7386 122.616 29.7091C123.252 29.5101 123.522 28.8047 123.525 28.1569C123.231 27.5504 122.483 27.0603 121.819 27.0871C115.041 28.5618 108.495 30.6108 102.393 33.1675L102.228 33.2191C101.993 33.2928 101.739 33.5535 101.601 33.8554C101.495 34.0954 101.426 34.4532 101.623 34.8316L101.691 34.9655L101.735 35.1069C101.89 35.6015 102.207 35.787 102.362 35.8679C102.517 35.9488 102.773 36.0238 103.01 35.8721Z" fill="#333333"/>
<path d="M113.259 7.5697C113.544 7.32519 113.627 7.01448 113.631 6.78037C113.646 6.41374 113.52 6.0133 113.275 5.72774C112.847 5.18899 111.971 5.28206 111.449 5.67832C107.134 9.64204 103.94 13.3065 101.475 17.2342L101.427 17.327C101.259 17.5346 101.222 17.9086 101.309 18.2693C101.345 18.4652 101.479 18.8111 101.819 18.9892L101.943 19.0539L102.043 19.126C102.251 19.2938 102.524 19.3379 102.798 19.3039C103.165 19.2405 103.521 18.9738 103.786 18.5806C106.343 14.7014 109.602 10.9133 113.179 7.6463L113.259 7.5697Z" fill="#333333"/>
<path d="M122.926 53.1802C118.814 53.0962 114.419 51.7815 110.587 49.4623L110.456 49.374C110.248 49.2063 109.874 49.1681 109.514 49.2551C109.318 49.2905 108.972 49.4246 108.794 49.7648L108.73 49.8885L108.658 49.9887C108.49 50.1963 108.453 50.5703 108.54 50.931C108.576 51.1268 108.71 51.4728 109.05 51.6508L109.143 51.6994L109.243 51.7715C113.285 54.5941 118.175 56.1679 123.038 56.172C123.39 56.1395 124.248 55.7417 124.258 54.7036L124.275 54.5947C124.31 53.963 123.651 53.2639 122.926 53.1802Z" fill="#333333"/>
<path d="M59.9155 71.1705C60.2976 70.7404 60.3838 70.2736 60.3421 69.9762C60.3079 69.7024 60.2077 69.6302 60.1458 69.5979L60.0072 69.486C59.5693 69.0798 59.0715 68.9769 58.7506 69.0256C58.4768 69.0596 58.4049 69.1597 58.3726 69.2216L58.3006 69.3217L58.2212 69.3983C56.7571 70.9949 55.7794 72.9049 55.4905 74.7028C55.6458 75.1975 55.7938 75.6686 55.9491 76.1633L56.4221 75.446L57.3981 76.3306C57.5757 75.9904 57.6726 75.8049 57.7427 75.369L57.7602 75.2601L57.8012 75.1437C58.1573 73.9716 58.5732 72.4961 59.9155 71.1705Z" fill="#333333"/>
<path d="M98.0348 75.9507L98.1317 75.7652C98.7326 74.8786 98.6776 73.5505 98.632 72.5817C98.6125 72.355 98.6005 72.1518 98.6193 71.9648C97.6577 64.8667 95.6148 59.3489 93.4375 53.4852L93.303 53.1392L93.2673 52.9434C93.1215 51.9025 92.786 50.9985 92.3603 49.89C92.1371 49.2613 91.8681 48.5694 91.6166 47.7685C89.3929 41.4277 87.4147 34.8807 85.5105 28.5692C84.5578 25.4525 83.6803 22.4933 82.7706 19.596L82.741 19.5018C81.5725 14.8745 78.0688 12.1164 74.2403 12.7715C70.2557 13.4237 67.1298 16.3166 65.1262 18.4184L65.0233 18.5024L32.4219 48.343L32.0997 48.4697C29.2466 49.5956 26.7715 50.5256 24.7835 51.2772C21.4992 52.5122 18.6548 53.5836 17.9901 54.1021L17.8871 54.1861C13.2012 57.4638 10.4094 62.2442 10.4282 66.9985L10.4356 67.0221C10.3807 69.7298 11.2475 72.4078 13.1528 75.5109L13.2207 75.6449C13.7641 76.7166 15.0568 78.6921 17.5927 80.0973C18.0743 80.2311 18.4692 80.418 18.7551 80.5872C18.8788 80.652 19.0954 80.7653 19.1499 80.7741L20.1307 80.9327L20.5369 81.8146C23.3136 87.7753 25.3624 94.3002 27.3373 100.59C28.3062 103.675 29.3047 106.855 30.353 109.865L30.3752 109.935C31.2923 112.856 32.7195 115.178 34.4589 116.599C35.4228 117.281 36.5011 117.668 37.3608 117.605C38.0954 117.557 38.5455 117.26 39.3515 116.698L39.4618 116.637L50.3292 109.821L50.5646 109.747C50.5646 109.747 50.9414 109.629 51.0834 109.093L51.1332 108.922L51.2139 108.768C51.763 107.716 51.6629 106.739 51.5541 105.815C51.5198 105.542 51.493 105.291 51.4896 105.034C49.3596 97.344 46.2745 88.9186 42.0553 79.2701L40.7863 76.3817L43.942 76.7133C44.69 76.7896 45.4145 76.8733 46.1155 76.9643C47.6189 77.1405 49.0444 77.3152 50.371 77.3398L50.527 77.3427C64.0833 78.8427 77.8356 78.4963 91.1271 78.1647L93.0013 78.1213L93.1647 78.1478C93.5697 78.2021 94.5929 78.1664 95.5583 77.8643C96.7753 77.4574 97.59 76.8402 98.0348 75.9507ZM18.6418 77.6734C17.4351 77.0422 16.217 75.716 15.3017 74.0363L15.2411 73.9259L15.0905 73.6108C14.03 71.304 13.03 69.1075 13.0471 66.7738C12.8412 62.9059 15.2057 58.906 19.3917 56.0953C20.6875 55.1981 27.0416 52.9505 27.6538 52.7589L29.4197 52.2061L36.2909 74.0893L25.9542 77.3248C24.4237 77.8039 22.6813 78.3493 20.9438 78.1688C20.1547 78.2088 19.2607 77.9971 18.6418 77.6734ZM44.704 91.247L42.6084 91.903L41.2568 92.8693C40.9951 93.1065 40.7939 93.454 40.7636 93.8516C40.7285 94.0695 40.7292 94.4833 40.9814 94.7924C41.4475 95.3709 42.4283 95.5295 42.9194 95.1171L43.1885 94.9035L45.5902 94.1517L47.2766 99.5224L45.5106 100.075C44.9926 100.237 44.6865 100.333 44.5116 100.517L44.4087 100.601L44.3057 100.685C43.9263 100.959 43.6175 101.211 43.3086 101.463C42.9601 101.753 42.6116 102.043 42.1689 102.363L42.066 102.447L41.9557 102.507C41.3569 102.824 40.9828 103.692 41.0957 104.381C41.3465 104.768 41.9525 105.38 43.0357 105.041C43.6479 104.849 44.3126 104.331 44.914 103.858C45.1435 103.683 45.3729 103.507 45.5788 103.339L47.6657 101.832L49.4557 107.533L37.3741 114.6L36.4767 114.131C34.9296 113.322 33.7506 111.543 32.8187 108.575C31.6876 105.385 30.6609 102.033 29.655 98.8292C27.9922 93.4512 26.2702 87.8847 23.9965 82.6202L23.1707 80.7314L25.125 80.1197C25.7372 79.9281 26.5452 79.701 27.4709 79.4372C29.8712 78.7634 33.1502 77.8406 36.3329 76.6115L37.8971 75.9925L38.6516 77.4897C39.5494 79.2783 40.4856 81.1067 41.203 83.3916L41.7578 85.1583L39.8505 85.7552L36.5506 87.4349C35.9828 87.7679 35.641 88.5734 36.0176 89.361C36.3511 89.9292 37.1644 90.2956 37.9838 89.858L43.4096 87.1248L44.704 91.247ZM93.1106 75.4224L92.9458 75.474L92.6646 75.4844C89.5728 75.5208 86.0909 75.55 82.3647 75.7074L79.17 75.8278C79.17 75.8278 76.5505 75.6388 76.5713 75.7875L74.8794 75.6703C73.865 75.6515 72.8506 75.6327 71.8361 75.614L68.0595 75.5284L67.3263 75.4992L64.7511 75.4515C64.2829 75.4429 63.7205 75.4637 63.1817 75.4771C62.5884 75.4817 61.9479 75.5011 61.4017 75.491L59.2403 75.4432L56.2744 74.9745C55.6985 74.8702 55.0272 74.8734 54.3013 74.8677C53.4974 74.8606 52.639 74.8448 51.8143 74.689L49.4404 74.2937L52.0628 68.4798C52.4343 67.7685 52.2124 67.0619 51.5007 66.6896C50.82 66.3335 50.0665 66.5694 49.7112 67.2497L46.1583 74.0534L44.8505 73.8419C43.3484 73.5877 42.1833 73.2538 41.0492 72.9362L40.8164 72.8538L38.7742 71.7856L38.545 71.0554C38.5154 70.9611 38.3634 70.7241 38.2645 70.574C38.0742 70.2972 37.8764 69.9969 37.7581 69.6201L32.2256 52.0004L33.0357 51.2036C34.4089 49.8942 37.129 47.4387 40.9034 44.0583C45.788 39.6836 52.4722 33.7107 60.2707 26.5094L62.3571 24.5887L63.2783 27.2755C66.8314 37.5206 72.9051 52.7459 77.1707 61.966C77.6254 62.755 78.3687 62.6517 78.7925 62.519C79.2164 62.3863 79.5575 62.0726 79.7277 61.7089C79.8657 61.407 79.8476 61.1022 79.7043 60.8107C75.2476 51.8057 68.3905 34.4972 65.0178 23.7558L64.6775 22.6723L67.1622 20.2906C67.5343 19.993 67.9063 19.6954 68.2548 19.4053C70.465 17.5493 72.5796 15.8008 75.1877 15.2949C77.7677 14.6167 79.7598 17.6667 80.4772 19.9516C81.4684 23.1081 82.4581 26.3426 83.3799 29.4431C85.2693 35.7075 87.2327 42.2074 89.486 48.6424L89.5008 48.6895C89.7671 49.5375 90.104 50.3634 90.4631 51.26C90.8222 52.1565 91.2196 53.0928 91.5228 54.0586L91.814 54.8212C94.0788 61.0457 95.8897 65.9893 96.4759 73.1273L96.5135 73.6588L95.9159 74.803L95.186 75.0315C94.6209 75.2084 94.0114 75.2439 93.5109 75.2971C93.3374 75.4032 93.1887 75.4239 93.1106 75.4224Z" fill="#333333"/>
<path d="M78.27 72.7974C78.6521 72.3674 78.7383 71.9006 78.6966 71.6032C78.6624 71.3293 78.5621 71.2572 78.5003 71.2248L78.3617 71.113C77.9238 70.7068 77.426 70.6039 77.1051 70.6526C76.8313 70.6865 76.7593 70.7867 76.727 70.8485L76.6551 70.9487L76.5757 71.0253C75.1116 72.6219 74.1339 74.5319 73.845 76.3298C74.0003 76.8244 74.1483 77.2956 74.3036 77.7902L74.7766 77.073L75.7526 77.9576C75.9302 77.6174 76.0271 77.4318 76.0972 76.996L76.1147 76.887L76.1557 76.7707C76.5118 75.5985 76.9277 74.123 78.27 72.7974Z" fill="#333333"/>
<path d="M68.5737 71.9791C68.9558 71.549 69.042 71.0822 69.0003 70.7848C68.9661 70.511 68.8659 70.4388 68.804 70.4065L68.6654 70.2946C68.2275 69.8884 67.7297 69.7855 67.4088 69.8342C67.135 69.8682 67.0631 69.9683 67.0308 70.0302L66.9588 70.1303L66.8794 70.2069C65.4153 71.8035 64.4376 73.7135 64.1487 75.5114C64.304 76.0061 64.452 76.4772 64.6073 76.9719L65.0803 76.2546L66.0563 77.1392C66.2339 76.799 66.3308 76.6135 66.4009 76.1776L66.4184 76.0686L66.4594 75.9523C66.8155 74.7802 67.2314 73.3047 68.5737 71.9791Z" fill="#333333"/>
</g>
<defs>
<clipPath id="clip0_1762_1118">
<rect width="120.171" height="89.2104" fill="white" transform="matrix(0.95434 -0.298722 0.299574 0.954073 0 35.8984)"/>
</clipPath>
</defs>
</svg>
