<?xml version="1.0" encoding="utf-8"?>
<!-- Generator: Adobe Illustrator 23.1.0, SVG Export Plug-In . SVG Version: 6.00 Build 0)  -->
<svg version="1.1" id="e73e2821-510d-456e-b3bd-9363037e93e3"
	 xmlns="http://www.w3.org/2000/svg" xmlns:xlink="http://www.w3.org/1999/xlink" x="0px" y="0px" viewBox="0 0 35 35"
	 style="enable-background:new 0 0 35 35;" xml:space="preserve">
<style type="text/css">
	.st0{fill:#C41135;}
</style>
<path class="st0" d="M11.9,15.1H3.5c-1.8,0-3.2-1.4-3.2-3.2V3.5c0-1.8,1.4-3.2,3.2-3.2h8.5c1.8,0,3.2,1.4,3.2,3.2v8.3
	C15.2,13.6,13.7,15.1,11.9,15.1z M3.5,2.8c-0.4,0-0.7,0.3-0.7,0.7v8.3c0,0.4,0.3,0.7,0.7,0.7h8.5c0.4,0,0.7-0.3,0.7-0.7V3.5
	c0-0.4-0.3-0.7-0.7-0.7H3.5z"/>
<path class="st0" d="M12,34.8H3.5c-1.8,0-3.2-1.4-3.2-3.2v-8.3c0-1.8,1.4-3.2,3.2-3.2H12c1.8,0,3.2,1.4,3.2,3.2v8.3
	C15.2,33.3,13.8,34.7,12,34.8z M3.5,22.4c-0.4,0-0.7,0.3-0.7,0.7v8.3c0,0.4,0.3,0.7,0.7,0.7H12c0.4,0,0.7-0.3,0.7-0.7v-8.3
	c0-0.4-0.3-0.7-0.7-0.7H3.5z"/>
<path class="st0" d="M31.5,34.8h-8.5c-1.8,0-3.2-1.4-3.2-3.2v-8.3c0-1.8,1.4-3.2,3.2-3.2h8.5c1.8,0,3.2,1.4,3.2,3.2v8.3
	C34.7,33.3,33.3,34.7,31.5,34.8z M23.1,22.5c-0.4,0-0.7,0.3-0.7,0.7v8.3c0,0.4,0.3,0.7,0.7,0.7h8.5c0.4,0,0.7-0.3,0.7-0.7v-8.4
	c0-0.4-0.3-0.7-0.7-0.7L23.1,22.5z"/>
<path class="st0" d="M27.3,15.1c-4.1,0-7.4-3.4-7.3-7.5s3.4-7.4,7.5-7.3c4.1,0,7.3,3.3,7.3,7.4C34.7,11.8,31.4,15.1,27.3,15.1z
	 M27.3,2.8c-2.7,0-4.9,2.2-4.8,5s2.2,4.9,5,4.8c2.7,0,4.8-2.2,4.8-4.9C32.2,4.9,30,2.7,27.3,2.8L27.3,2.8z"/>
</svg>
