<svg width="80" height="80" viewBox="0 0 80 80" fill="none" xmlns="http://www.w3.org/2000/svg">
<g opacity="0.9">
<path d="M33.094 5.24023C33.2614 5.34209 33.431 5.44084 33.5962 5.54659C34.5799 6.17719 34.8732 7.54568 34.1703 8.50285C31.9688 11.5019 31.9473 14.7155 33.2962 18.0528C34.0688 19.9648 35.1769 21.6855 36.5154 23.19C39.6429 26.7061 42.8451 30.1491 46.0332 33.6054C49.2429 37.0849 52.3414 40.6554 54.6814 44.8674C56.8695 48.8058 58.1154 53.0014 57.868 57.6193C57.6036 62.5506 55.9643 66.9461 53.1651 70.8665C52.231 72.1751 51.1562 73.3834 50.0658 74.556C49.431 75.2387 48.6377 75.7581 47.9154 76.3513C47.6066 76.3513 47.2977 76.3513 46.9888 76.3513C46.6399 76.1181 46.2414 75.9377 45.9532 75.6399C45.2717 74.9362 45.2088 73.9254 45.7621 73.1082C47.8799 69.9785 47.9829 66.6879 46.4969 63.2667C45.3769 60.6875 43.7399 58.4731 41.9043 56.439C39.0703 53.2992 36.1428 50.2528 33.2673 47.1535C30.4347 44.1008 27.7643 40.9144 25.5473 37.319C20.0377 28.3818 21.4621 18.265 26.7095 10.8378C27.728 9.39626 28.9347 8.09308 30.1229 6.79534C30.6754 6.19196 31.3925 5.7542 32.0347 5.24101C32.3888 5.24023 32.7414 5.24023 33.094 5.24023ZM28.4132 15.6999C28.3843 15.7605 28.3584 15.8227 28.3266 15.8818C26.9562 18.4594 26.0621 21.1878 25.9414 24.1628C25.7769 28.2022 27.0636 31.7921 29.0554 35.1543C31.388 39.0926 34.4169 42.4252 37.4821 45.722C40.8369 49.3298 44.3354 52.7985 47.2569 56.8262C49.0999 59.3665 50.6266 62.077 51.3014 65.2378C51.3451 65.4407 51.3954 65.6421 51.4762 65.9889C53.3777 62.4573 54.3495 58.8743 53.934 54.9585C53.5666 51.4961 52.2006 48.4388 50.3851 45.5797C47.951 41.7464 44.9103 38.4589 41.8488 35.1908C38.6814 31.8108 35.4221 28.5171 32.6806 24.7273C30.7317 22.033 29.1369 19.1545 28.4132 15.6999Z" fill="#C41135"/>
<path d="M38.6324 67.1577C38.5753 69.0075 38.1398 70.7259 36.9946 72.1791C36.3516 72.994 35.4546 73.2102 34.622 72.8027C33.8035 72.4023 33.3294 71.5244 33.4798 70.5921C33.5294 70.2842 33.6472 69.9561 33.825 69.7081C34.9324 68.1615 34.965 66.503 33.9613 64.993C33.025 63.584 31.902 62.2809 30.7109 61.0974C28.2642 58.6645 25.6561 56.4088 23.2309 53.9533C21.3124 52.0102 19.7679 49.7319 19.1627 46.9343C18.942 45.9134 18.8835 44.8256 18.9339 43.7774C18.982 42.7658 19.9116 42.0435 20.862 42.0528C21.8465 42.0622 22.7561 42.8288 22.7827 43.8777C22.8605 46.9164 24.2679 49.2833 26.242 51.2839C28.3953 53.4673 30.7442 55.4384 32.9205 57.5984C34.3872 59.054 35.7842 60.6076 37.0598 62.2482C38.1383 63.6354 38.6213 65.3398 38.6324 67.1577Z" fill="#C41135"/>
<path d="M44.2369 8.55078C45.2887 8.62543 45.8828 8.97844 46.2561 9.67746C46.6324 10.3811 46.6569 11.1315 46.1895 11.7745C44.8369 13.6352 45.1221 15.4282 46.3028 17.2104C47.5791 19.1356 49.3147 20.5772 50.9887 22.0802C53.4176 24.2612 55.9243 26.3552 57.9384 28.9942C59.6984 31.2996 60.9347 33.8384 61.0724 36.8545C61.088 37.1982 61.091 37.5535 61.0265 37.8879C60.8354 38.8855 59.948 39.5899 59.011 39.5285C58.0458 39.4655 57.1939 38.7004 57.1695 37.6834C57.1013 34.8095 55.8391 32.5119 53.9776 30.5843C52.0821 28.621 50.005 26.8513 48.0591 24.9393C46.4687 23.3772 44.8428 21.8298 43.4324 20.0967C41.3947 17.5914 40.728 14.6709 41.8487 11.4837C42.111 10.7388 42.5147 10.0095 43.0006 9.40298C43.3532 8.96366 43.948 8.7405 44.2369 8.55078Z" fill="#C41135"/>
</g>
</svg>
