<svg width="448" height="106" viewBox="0 0 448 106" fill="none" xmlns="http://www.w3.org/2000/svg">
<path d="M57.4898 106H10.8968C10.7629 105.97 10.629 105.921 10.4889 105.908C4.55588 105.264 0.00618001 100.191 0.00618001 94.2055C-2.51337e-07 67.4131 0 40.6229 0 13.8244C0.00618026 8.61854 3.48979 3.96044 8.49683 2.54159C9.47743 2.26771 10.5136 2.17607 11.5313 2H56.8563C57.2158 2.04222 57.5815 2.07928 57.9409 2.1215C63.8627 2.84019 68.3516 7.89985 68.3516 13.8553V94.1807C68.3516 99.1127 65.2687 103.564 60.6397 105.232C59.6282 105.598 58.5373 105.751 57.4898 106ZM23.5849 48.3195C23.7312 48.0518 23.8167 47.8994 23.8949 47.747C26.5082 42.7965 29.3222 37.9736 32.4536 33.3289C36.7293 26.9781 41.6333 21.1627 47.5787 16.31C50.984 13.5268 54.584 10.9764 58.0985 8.33333C58.6537 7.91941 59.2254 7.53535 59.7858 7.13997C59.7682 7.09776 59.7425 7.06069 59.7188 7.02465C52.7928 10.2938 46.0676 13.9171 39.7514 18.2889C33.4167 22.6731 27.8915 27.9645 22.6228 33.5173C18.7725 29.3102 13.7294 27.6237 8.45459 26.3685C14.2836 33.1209 20.0034 39.9227 23.5849 48.3195ZM49.0167 92.8855C49.0888 92.9102 49.132 92.9338 49.1804 92.9338C51.4826 92.9338 53.7858 93.0069 56.0879 92.9091C58.7073 92.799 60.3574 91.515 61.0764 88.9996C61.4544 87.6662 61.6254 86.2535 61.7346 84.8656C61.9107 82.6374 61.8623 80.4083 61.3813 78.2161C60.9549 76.2856 60.0536 74.6721 58.0501 74.0214C57.2951 73.7774 56.4721 73.6682 55.6749 73.6435C53.6405 73.5951 51.6 73.6311 49.5646 73.6311H49.0167V92.8855ZM18.2616 84.1531C18.377 85.1333 18.4749 86.9908 18.822 88.8112C19.2917 91.2411 20.7657 92.8062 23.2924 93.2139C24.6026 93.4209 25.9118 93.3962 27.2034 93.0615C28.7258 92.6661 29.8651 91.7765 30.4738 90.334C30.8271 89.5062 31.1444 88.6104 31.2175 87.7218C31.3813 85.6152 31.4544 83.49 31.4431 81.371C31.4307 80.1591 31.267 78.9235 31.0043 77.7302C30.548 75.6173 29.3964 74.0162 27.1664 73.5107C26.2218 73.2975 25.2237 73.2306 24.2493 73.2543C21.3981 73.3336 19.6563 74.7401 18.8766 77.4861C18.3348 79.3796 18.3646 81.3339 18.2616 84.1531ZM46.3087 83.3427C46.3581 80.6162 46.3973 79.7143 46.081 77.9423C45.7215 75.8964 44.6864 74.2706 42.5655 73.6064C42.0536 73.4427 41.5118 73.3387 40.9761 73.2842C39.5629 73.138 38.1682 73.2172 36.8405 73.7835C34.9772 74.5805 34.1294 76.1641 33.7772 78.0329C33.1437 81.406 33.1797 84.8038 33.703 88.1893C33.9657 89.8521 34.5806 91.3801 36.0783 92.3603C37.4606 93.2736 39.0324 93.426 40.629 93.3107C43.8386 93.0728 45.496 91.6664 46.0985 88.5002C46.4282 86.8075 46.3087 85.402 46.3087 83.3427ZM6.30386 50.5847V71.1291C7.29064 71.1291 8.24034 71.1415 9.18489 71.1291C11.6941 71.0993 14.2043 71.0993 16.7145 71.0076C17.9506 70.9592 19.1269 70.5628 20.1621 69.8441C21.7514 68.7486 22.3303 67.1475 22.3427 65.3024C22.3612 62.788 20.9418 60.9851 18.5243 60.3642C18.4203 60.3395 18.3348 60.2973 18.2009 60.2427C18.2864 60.2005 18.3348 60.1758 18.3842 60.1634C21.0644 59.2687 22.2088 56.3033 21.223 53.7024C20.5226 51.8511 18.9569 51.0418 17.142 50.8163C15.4609 50.6032 13.749 50.6217 12.0494 50.5909C10.1542 50.5548 8.25373 50.5847 6.30386 50.5847ZM6.22455 73.6497V92.9091H10.1542V84.5793H16.5806V81.3401H10.1851V76.8344H16.9885V73.6497H6.22455ZM25.4555 50.6094V71.0921H27.4105V66.5925V62.0806C27.5815 62.0683 27.6659 62.0559 27.7576 62.0559C30.1936 62.0497 32.6369 62.0374 35.0791 62.0374C36.3832 62.0374 37.4678 62.4822 38.0642 63.7116C38.3207 64.2408 38.5215 64.8256 38.6009 65.3981C38.7657 66.5791 38.8079 67.7725 38.9418 68.9545C39.0026 69.563 39.1303 70.1664 39.2642 70.7626C39.2941 70.9026 39.4651 71.1034 39.5804 71.1096C40.2324 71.1394 40.8845 71.1281 41.4015 71.1281C41.2069 70.1417 40.9627 69.216 40.8412 68.278C40.6826 67.0425 40.6888 65.7873 40.5003 64.5641C40.2448 62.8529 39.3373 61.6595 37.5461 61.3002C37.4668 61.2816 37.3937 61.2271 37.4246 61.2394C38.0343 60.8862 38.7585 60.6062 39.3188 60.1315C40.9391 58.7672 41.2676 56.9046 40.9813 54.9195C40.7011 52.9467 39.4949 51.6432 37.6192 51.0655C36.6809 50.7731 35.6642 50.6269 34.6774 50.6032C31.784 50.5425 28.8845 50.5847 25.9849 50.5847C25.8149 50.5847 25.6439 50.597 25.4555 50.6094ZM59.8352 63.3296C59.8167 63.4511 59.8105 63.518 59.7991 63.5849C59.5313 65.3446 58.904 66.9519 57.5701 68.1761C54.5913 70.9036 49.5358 70.2704 47.281 66.8304C45.2343 63.7003 45.0757 60.2911 46.2881 56.8449C47.5427 53.2648 50.5154 51.4619 54.274 51.9675C56.8687 52.3207 58.6053 53.8188 59.4149 56.3393C59.4757 56.5278 59.622 56.8264 59.7559 56.8377C60.3224 56.8933 60.9003 56.8624 61.5224 56.8624C61.3761 55.4013 60.8642 54.1771 59.9753 53.1176C58.4457 51.2972 56.4299 50.4076 54.103 50.213C50.467 49.9031 46.8361 51.3332 44.9233 55.0605C43.6017 57.6357 43.3154 60.3694 43.784 63.1947C44.4721 67.4203 47.2079 71.0066 52.1109 71.5008C55.8139 71.8787 59.177 70.5021 60.8889 66.818C61.3947 65.7214 61.6934 64.5652 61.8088 63.3296H59.8352ZM20.2898 98.7729C20.3876 98.7122 20.4361 98.67 20.4968 98.6329C21.1911 98.1706 21.4527 97.3242 21.2158 96.344C21.0448 95.6439 20.5267 95.1929 19.681 95.1383C18.7725 95.0714 17.8599 95.0827 16.9514 95.0951C16.8422 95.0951 16.6352 95.3144 16.6352 95.4359C16.6167 97.6218 16.6228 99.8139 16.629 102.006C16.629 102.128 16.7145 102.341 16.7691 102.347C17.1894 102.372 17.6158 102.401 18.0175 102.311C18.1092 102.292 18.1277 101.811 18.1339 101.544C18.1463 100.819 18.1339 100.089 18.1339 99.3763C19.5039 99.2363 19.7233 99.4247 19.748 100.685C19.7542 101.124 19.7603 101.562 19.8211 101.994C19.8386 102.14 20.0282 102.353 20.1559 102.365C20.6009 102.409 21.051 102.384 21.3744 102.384C21.3198 101.671 21.2766 101.026 21.2282 100.375C21.1849 99.6986 21.1179 99.0345 20.2898 98.7729ZM56.9902 98.6751C56.9902 99.7593 57.0026 100.849 56.984 101.939C56.984 102.28 57.0943 102.409 57.4414 102.39C58.1964 102.36 58.9514 102.39 59.7003 102.329C60.7973 102.244 61.3391 101.774 61.6069 100.697C61.9241 99.4185 61.9118 98.116 61.6615 96.8372C61.4421 95.7046 60.8755 95.2238 59.7116 95.126C58.9628 95.0652 58.2015 95.1074 57.4517 95.0714C57.0561 95.0528 56.982 95.2238 56.982 95.5708C57.0026 96.6055 56.9902 97.6403 56.9902 98.6751ZM47.2985 102.384C46.7444 100.302 46.2139 98.323 45.6906 96.344C45.3497 95.0652 45.3497 95.0827 44.0395 95.0652C43.613 95.059 43.473 95.2238 43.3751 95.5944C42.8333 97.7011 42.2668 99.7964 41.7188 101.896C41.6755 102.036 41.6704 102.182 41.6395 102.383C42.0659 102.383 42.4378 102.371 42.7973 102.389C43.0898 102.408 43.2052 102.273 43.2536 102.011C43.3257 101.621 43.4235 101.238 43.509 100.866C44.1425 100.866 44.776 100.726 45.2755 100.921C45.531 101.019 45.5382 101.725 45.6845 102.145C45.7143 102.243 45.8668 102.364 45.9636 102.371C46.3797 102.395 46.799 102.384 47.2985 102.384ZM56.1064 95.0765H53.4747C52.0378 95.0765 52.0378 95.0765 52.0378 96.5314C52.0378 98.322 52.0316 100.111 52.0501 101.902C52.0501 102.061 52.2026 102.358 52.2881 102.358C53.5859 102.388 54.8766 102.383 56.1868 102.383V101.098H53.5973V99.2229H55.9674V97.9688H53.6034V96.3121H56.1075V95.0765H56.1064ZM11.7868 95.1198V102.347H15.91V101.111H13.2783V99.2353H15.6175V97.9688H13.2783V96.3121H15.8184V95.1187H11.7868V95.1198ZM9.49597 99.5946C9.44137 99.99 9.41047 100.357 9.33734 100.709C9.25185 101.098 9.05099 101.367 8.5885 101.379C8.12601 101.391 7.91794 101.124 7.83966 100.727C7.76034 100.349 7.66867 99.9653 7.68103 99.5884C7.70575 98.6267 7.75416 97.664 7.85202 96.7147C7.88807 96.3121 8.16206 96.0629 8.6194 96.0866C9.04584 96.1113 9.24052 96.3605 9.31365 96.7445C9.36824 97.0123 9.40532 97.28 9.44756 97.5425H10.8979C10.8979 97.3963 10.904 97.2933 10.8979 97.1894C10.8546 95.8261 10.216 95.0827 8.94901 94.9489C7.53579 94.8026 6.61597 95.3937 6.33579 96.7147C6.04326 98.1026 6.0618 99.503 6.36052 100.891C6.48824 101.457 6.76223 101.957 7.30506 102.218C8.23725 102.657 9.19932 102.699 10.0584 102.115C10.9298 101.518 10.936 100.556 10.9535 99.5946H9.49597ZM41.4026 97.5487C41.5787 96.2153 40.9823 95.2588 39.8369 95.022C38.3269 94.6997 37.2361 95.2536 36.9198 96.5808C36.5789 97.9935 36.6211 99.4309 36.9013 100.856C37.0115 101.404 37.2731 101.872 37.7665 102.177C38.5401 102.659 39.9286 102.652 40.6239 102.116C41.4458 101.471 41.5066 100.557 41.4706 99.608H40.046C39.9852 100.01 39.9605 100.381 39.875 100.734C39.7957 101.1 39.5949 101.355 39.1622 101.38C38.6987 101.397 38.4608 101.155 38.3825 100.759C38.1085 99.401 38.1085 98.0429 38.3949 96.692C38.4803 96.2833 38.7358 96.0588 39.1859 96.0887C39.6494 96.1257 39.807 96.4357 39.8802 96.8197C39.9234 97.0565 39.9348 97.3006 39.9657 97.5508H41.4026V97.5487ZM29.5859 95.1136V102.341H31.0785V99.2301H33.4537V97.9822H31.096V96.308H33.6299V95.1146H29.5859V95.1136ZM23.2625 96.3368V96.9577C23.2625 98.4311 23.2501 99.9045 23.2625 101.379C23.2749 102.536 23.0493 102.359 24.3039 102.395C24.6819 102.401 24.7849 102.268 24.7787 101.908C24.7664 100.258 24.7725 98.6082 24.7725 96.9577V96.3368H26.3557C26.3557 96.0876 26.331 95.8982 26.3619 95.7159C26.4288 95.2104 26.2455 95.0456 25.7284 95.0642C24.7169 95.1002 23.6941 95.0765 22.6764 95.0765C21.5681 95.0765 21.5434 95.1064 21.7143 96.2338C21.7205 96.2462 21.738 96.2586 21.7864 96.3368H23.2625ZM48.4254 96.3368V102.334H49.9179V96.3183H51.4342V95.1126H46.8474V96.3358H48.4254V96.3368ZM28.4766 95.1074H27.0397V102.347H28.4766V95.1074ZM35.7559 95.1311H34.3365V102.353H35.7559V95.1311Z" fill="#333333"/>
<path d="M52.9812 76.4805C53.8701 76.5289 54.7354 76.499 55.5635 76.6514C56.6543 76.846 57.2507 77.6501 57.4639 78.6726C57.6586 79.6106 57.8049 80.5784 57.8049 81.535C57.7925 83.4707 57.6772 85.4136 57.5855 87.3555C57.5731 87.6294 57.4701 87.9033 57.3846 88.1721C57.0313 89.316 56.2763 89.9739 55.0516 90.0172C54.3759 90.0357 53.693 90.0172 52.9812 90.0172V76.4805Z" fill="#333333"/>
<path d="M22.6517 78.2778C22.6754 78.041 22.7722 77.8032 22.8567 77.5777C23.2306 76.5975 23.8816 76.1527 24.9312 76.1465C25.9808 76.1465 26.74 76.5666 26.9872 77.5715C27.2766 78.734 27.4826 79.9397 27.5187 81.133C27.5784 83.0574 27.5187 84.9932 27.4218 86.9176C27.3796 87.6723 27.1746 88.4332 26.9336 89.1519C26.6318 90.0291 25.9252 90.3947 25.0208 90.4183C24.0855 90.4369 23.3563 90.1136 22.9587 89.2126C22.422 88.0193 22.4045 86.7353 22.3437 85.4627C22.3077 84.7255 22.3375 83.9893 22.3375 83.252" fill="#333333"/>
<path d="M42.1699 88.5516C41.932 89.9282 41.1162 90.4513 39.7813 90.4152C38.8563 90.3905 38.1682 89.9519 37.9056 89.0808C37.6377 88.1984 37.406 87.2728 37.3885 86.3595C37.3452 84.0026 37.406 81.6406 37.4791 79.2714C37.4966 78.6742 37.6862 78.0657 37.8932 77.4994C38.2465 76.5377 38.9222 76.1413 39.977 76.1485C40.9638 76.1547 41.7064 76.5624 41.9989 77.5118C42.2431 78.2912 42.4316 79.1077 42.4923 79.917C42.5717 81.0311 42.6561 84.0706 42.5995 85.195" fill="#333333"/>
<path d="M8.28662 69.4035V61.33C8.41435 61.3177 8.53589 61.293 8.65229 61.293C11.0039 61.2991 13.3555 61.2744 15.6998 61.3414C16.4734 61.3599 17.2717 61.5421 18.002 61.8047C19.5306 62.3525 20.3649 63.6436 20.3536 65.2447C20.3412 67.0044 19.5553 68.3563 18.0329 68.8917C17.1553 69.1965 16.1932 69.3787 15.2672 69.4035C13.0197 69.4827 10.7711 69.4282 8.52971 69.4282C8.45658 69.4271 8.39581 69.4148 8.28662 69.4035Z" fill="#333333"/>
<path d="M8.28882 59.5483V52.3635C8.33723 52.3336 8.36813 52.3027 8.398 52.3027C10.9443 52.3274 13.4905 52.2966 16.0306 52.3933C17.3161 52.4417 18.5038 52.936 19.1125 54.1839C20.0807 56.1443 19.6605 58.7318 16.5961 59.4134C16.2428 59.4865 15.872 59.5411 15.5063 59.5411C13.1135 59.5545 10.7321 59.5483 8.28882 59.5483Z" fill="#333333"/>
<path d="M27.4404 60.2654V52.3557C27.5125 52.331 27.562 52.2949 27.6104 52.2949C30.2236 52.3196 32.843 52.2589 35.45 52.3866C38.4773 52.5317 40.0976 55.7895 38.5196 58.3842C37.8315 59.5107 36.7654 60.1923 35.4923 60.2355C32.8306 60.3323 30.1628 60.2654 27.4404 60.2654Z" fill="#333333"/>
<path d="M18.1577 98.236V96.2501C18.6872 96.1945 19.2908 96.0554 19.5771 96.5849C19.7533 96.9134 19.7533 97.4625 19.6018 97.8158C19.3454 98.4122 18.7242 98.2113 18.1577 98.236Z" fill="#333333"/>
<path d="M58.5518 96.242C59.7765 96.1328 60.1483 96.382 60.2451 97.563C60.3193 98.4577 60.2884 99.3772 60.2029 100.278C60.1236 101.1 59.6786 101.314 58.5518 101.222V96.242Z" fill="#333333"/>
<path d="M45.1076 99.558H43.7727C43.9797 98.584 44.1868 97.6532 44.3887 96.709H44.4917C44.6936 97.6408 44.8944 98.5726 45.1076 99.558Z" fill="#333333"/>
<path d="M297.995 69.5937C295.801 65.915 293.608 62.2465 291.415 58.5766C284.096 46.2771 276.777 33.9877 269.459 21.697C269.401 21.5924 269.324 21.4965 269.249 21.3615C268.463 22.7208 267.698 24.0439 266.931 25.3655C260.695 36.0369 254.479 46.7084 248.233 57.3697C246.805 59.8038 245.321 62.1971 243.587 64.4293C240.962 67.7914 237.936 70.7032 234.228 72.8599C231.316 74.546 228.194 75.6469 224.84 76.0303C223.594 76.174 222.341 76.251 221.085 76.2597C214.6 76.2786 208.124 76.2684 201.649 76.2684H201.14V43.586H207.548V69.6227H208.036C212.452 69.6227 216.879 69.585 221.294 69.6416C224.657 69.6895 227.807 68.914 230.817 67.4864C234.629 65.6652 237.741 63.0598 239.965 59.4291C241.469 56.9674 242.341 54.2749 242.695 51.4109C243.087 48.2304 242.916 45.0876 241.957 42.0233C240.673 37.8755 238.155 34.6093 234.648 32.0794C231.83 30.0578 228.718 28.6883 225.317 28.0174C224.493 27.8547 223.641 27.769 222.797 27.769C206.215 27.7501 189.624 27.7603 173.043 27.7603H172.63V76.251H166.415V21.3513C166.529 21.3426 166.654 21.3324 166.769 21.3324C184.835 21.3324 202.892 21.3411 220.958 21.3324C224.887 21.3324 228.737 21.8683 232.416 23.2858C238.393 25.5848 242.818 29.6468 245.894 35.2222C247.168 37.5313 248.145 39.9741 248.719 42.5592C248.729 42.6071 248.758 42.6463 248.796 42.7422C248.883 42.6173 248.94 42.5127 249.007 42.4256C253.326 35.5185 257.646 28.6317 261.948 21.7246C262.14 21.437 262.331 21.3223 262.677 21.3223C267.112 21.3411 271.546 21.331 275.983 21.331C276.223 21.331 276.365 21.3978 276.491 21.6084C284.96 35.3064 293.427 49.0059 301.895 62.6938C302.028 62.9044 302.039 63.0482 301.904 63.2689C300.659 65.2905 299.433 67.3208 298.197 69.3512C298.149 69.4368 298.062 69.5051 297.987 69.5908H297.995V69.5937Z" fill="#333333"/>
<path d="M181.203 36.5489V43.5417H198.732V50.1802H174.774V30.1211C174.889 30.1123 175.014 30.1022 175.128 30.1022C190.666 30.1022 206.205 30.092 221.741 30.1022C226.416 30.1109 230.61 31.5298 234.203 34.5462C237.461 37.2765 239.472 40.7722 240.277 44.9403C240.977 48.5521 240.794 52.1248 239.376 55.5348C236.876 61.5604 232.355 65.2768 226.033 66.7523C224.968 67.0007 223.857 67.0588 222.766 67.0689C218.646 67.098 214.517 67.0878 210.39 67.0878C210.284 67.0878 210.169 67.0689 210.044 67.0689V43.5897H216.673V60.612C216.758 60.6309 216.806 60.6599 216.864 60.6599C219.03 60.6498 221.204 60.6788 223.369 60.6309C225.036 60.583 226.531 59.9701 227.929 59.0987C230.946 57.2398 233.034 54.6344 233.801 51.1474C234.731 46.9227 233.572 43.2455 230.487 40.2378C227.967 37.7863 224.912 36.5489 221.368 36.5489C208.149 36.5489 194.91 36.5489 181.681 36.5489H181.203Z" fill="#333333"/>
<path d="M269.249 27.7402C277.334 40.8646 285.381 53.9397 293.456 67.0539H260.053V60.6551H281.663C277.506 53.9019 273.395 47.2155 269.257 40.4914C269.172 40.6352 269.105 40.731 269.047 40.8458C262.361 52.5324 255.674 64.2379 248.998 75.9332C248.854 76.183 248.71 76.2789 248.413 76.2789C245.674 76.2701 242.935 76.2789 240.194 76.2789H239.773C249.611 60.08 259.411 43.929 269.249 27.7402Z" fill="#333333"/>
<path d="M198.741 52.9727V59.3628H181.193V76.2515H174.774V52.9727H198.741Z" fill="#333333"/>
<path d="M297.987 69.5879C297.949 69.7026 297.92 69.8174 297.852 69.9234C296.626 71.945 295.4 73.9651 294.183 75.9867C294.05 76.1973 293.915 76.2743 293.666 76.2743C282.584 76.2656 271.5 76.2656 260.426 76.2656H260.053V69.6271H260.541H297.489C297.65 69.6271 297.824 69.5995 297.996 69.5893H297.987V69.5879Z" fill="#333333"/>
<path d="M386.766 66.7982L386.808 66.3241L382.26 65.9121L382.216 66.3879L382.173 66.8612L386.722 67.274L386.766 66.7982Z" fill="#333333"/>
<path d="M384.092 71.1161L384.487 71.1042L384.878 71.0923L384.818 69.0937L385.857 69.0631L385.924 71.3561L386.332 71.3442L386.735 71.3323L386.639 68.0859L382.072 68.2213L382.087 68.6996L382.1 69.1746L384.033 69.1176L384.092 71.1161Z" fill="#333333"/>
<path d="M387.452 74.9351L387.36 74.5002L384.223 75.1632L386.981 72.7076L386.878 72.219L386.775 71.7305L382.305 72.6736L382.398 73.1111L382.49 73.5452L385.713 72.8651L382.878 75.3862L382.977 75.851L383.076 76.3157L387.545 75.3718L387.452 74.9351Z" fill="#333333"/>
<path d="M388.473 77.7102L388.256 77.2012L383.42 77.5025L383.613 77.957L383.806 78.4081L384.778 78.3196L385.456 79.9121L384.722 80.559L384.92 81.0246L385.117 81.4894L388.689 78.2175L388.473 77.7102ZM385.605 78.2566L387.532 78.0958L386.08 79.3717L385.605 78.2566Z" fill="#333333"/>
<path d="M389.047 82.6156C388.879 82.179 388.788 81.8802 388.771 81.7228C388.754 81.5627 388.803 81.4444 388.918 81.3687C389.077 81.2631 389.238 81.2384 389.403 81.2938C389.566 81.3482 389.716 81.4776 389.849 81.6785C390.003 81.9126 390.076 82.1364 390.066 82.3509C390.054 82.5663 389.964 82.7399 389.792 82.8735L390.305 83.6481C390.667 83.3664 390.872 83.0174 390.919 82.6012C390.967 82.1849 390.849 81.7645 390.566 81.338C390.264 80.8827 389.917 80.5924 389.524 80.469C389.129 80.3447 388.748 80.4052 388.378 80.6494C388.047 80.8682 387.872 81.1295 387.85 81.4342C387.828 81.7423 387.948 82.242 388.214 82.9348C388.36 83.3102 388.431 83.5698 388.43 83.7145C388.43 83.8618 388.359 83.9835 388.215 84.0779C388.07 84.1733 387.91 84.1775 387.733 84.0899C387.556 84.0013 387.384 83.8303 387.216 83.5766C387.053 83.3298 386.98 83.1025 386.997 82.8923C387.014 82.682 387.121 82.5067 387.317 82.3637L386.809 81.5976C386.411 81.8879 386.19 82.242 386.146 82.6608C386.103 83.0795 386.242 83.5289 386.561 84.0107C386.878 84.4908 387.235 84.8006 387.631 84.9436C388.028 85.0857 388.405 85.0389 388.763 84.8031C389.119 84.5682 389.315 84.3044 389.352 84.0116C389.391 83.7171 389.29 83.2515 389.047 82.6156Z" fill="#333333"/>
<path d="M391.131 86.0875L389.967 84.7461L389.334 85.2951L390.498 86.6374L391.131 86.0875Z" fill="#333333"/>
<path d="M393.646 85.2653L393.309 84.9316L390.105 88.1857L390.445 88.521L390.785 88.8547L393.989 85.6007L393.646 85.2653Z" fill="#333333"/>
<path d="M397.118 88.1501L396.764 87.882L394.82 90.4312L395.306 86.7712L394.907 86.4682L394.509 86.166L391.741 89.7971L392.097 90.0669L392.451 90.3376L394.447 87.7177L393.949 91.4773L394.327 91.7642L394.705 92.0527L397.473 88.4225L397.118 88.1501Z" fill="#333333"/>
<path d="M400.845 90.8393C400.723 90.3618 400.383 89.9805 399.825 89.6937L398.509 89.0178L398.086 88.8008L395.997 92.86L396.42 93.0779L397.667 93.7163C398.248 94.0159 398.784 94.0619 399.271 93.855C399.758 93.6482 400.182 93.1971 400.539 92.5C400.864 91.8692 400.965 91.3151 400.845 90.8393ZM399.673 92.0974C399.434 92.5629 399.169 92.8685 398.877 93.0132C398.584 93.1579 398.266 93.1409 397.921 92.9647L397.205 92.5961L398.575 89.9354L399.36 90.338C399.682 90.504 399.87 90.7338 399.92 91.0266C399.972 91.3185 399.89 91.676 399.673 92.0974Z" fill="#333333"/>
<path d="M402.541 90.8744L402.094 90.7109L400.52 94.9957L400.97 95.1591L401.416 95.3243L402.99 91.0395L402.541 90.8744Z" fill="#333333"/>
<path d="M405.495 91.7568L404.956 91.6309L402.341 95.7063L402.822 95.8186L403.301 95.931L403.804 95.0951L405.491 95.4901L405.579 96.4646L406.072 96.5795L406.565 96.6953L406.034 91.8828L405.495 91.7568ZM404.242 94.3903L405.25 92.7433L405.422 94.667L404.242 94.3903Z" fill="#333333"/>
<path d="M424.759 73.6317H426.873L425.815 70.4355L424.759 73.6317Z" fill="#333333"/>
<path d="M409.968 73.6317H412.082L411.024 70.4355L409.968 73.6317Z" fill="#333333"/>
<path d="M426.635 37.6012L425.69 36.9628C425.69 36.9628 423.149 35.635 421.867 33.0815C422.515 32.6312 422.94 31.8839 422.94 31.0362C422.94 29.8352 422.09 28.8342 420.96 28.5967L420.951 28.0085C421.679 27.7728 422.208 27.0986 422.208 26.2926C422.208 25.4678 421.653 24.7792 420.896 24.5596L420.757 15.653C421.083 15.7866 421.439 15.8624 421.813 15.8624C422.766 15.8624 423.605 15.3849 424.111 14.658C423.658 14.9729 423.109 15.161 422.516 15.161C420.968 15.161 419.715 13.9072 419.715 12.3624C419.715 11.7691 419.903 11.221 420.218 10.769C419.49 11.2737 419.012 12.113 419.012 13.0654C419.012 13.9694 419.448 14.7652 420.115 15.2768L419.949 24.5434C419.164 24.7426 418.58 25.4474 418.58 26.2943C418.58 27.114 419.13 27.7992 419.878 28.023L419.865 28.618C418.766 28.8801 417.947 29.8607 417.947 31.0387C417.947 31.8022 418.299 32.478 418.84 32.936C418.488 33.5488 417.997 34.2706 417.41 34.7847C416.449 34.3251 414.526 33.1215 413.17 30.4225C413.951 29.796 414.46 28.8461 414.46 27.7685C414.46 26.1232 413.297 24.752 411.747 24.426L411.736 23.6199C412.732 23.2965 413.458 22.373 413.458 21.2681C413.458 20.1378 412.697 19.1947 411.661 18.8942L411.47 6.69274C411.918 6.87489 412.404 6.97958 412.916 6.97958C414.222 6.97958 415.373 6.32503 416.065 5.32916C415.444 5.76071 414.693 6.01776 413.879 6.01776C411.759 6.01776 410.042 4.30095 410.042 2.1841C410.042 1.37123 410.298 0.620502 410.73 0C409.733 0.692851 409.079 1.84108 409.079 3.14592C409.079 4.38437 409.677 5.47471 410.59 6.17608L410.362 18.8713C409.286 19.1445 408.488 20.1097 408.488 21.269C408.488 22.3925 409.239 23.3314 410.264 23.6378L410.248 24.4532C408.743 24.8116 407.62 26.1556 407.62 27.7694C407.62 28.8691 408.149 29.8377 408.958 30.4625C408.271 31.6788 406.949 33.5309 404.76 34.9192C387.835 37.8744 375 52.0804 375 69.1728C375 88.4066 391.251 104 411.299 104C431.347 104 447.599 88.4075 447.599 69.1728C447.599 55.1932 439.016 43.1474 426.635 37.6012ZM420.298 54.6799C422.275 45.3349 422.123 47.3837 422.123 47.3837C422.123 47.3837 423.035 46.9453 423.19 51.471C423.34 55.9924 423.19 61.828 425.931 62.1242C428.67 62.4187 432.026 62.2723 433.85 60.6679C433.85 60.6679 429.893 58.4719 427.912 59.4992C426.182 60.3912 425.846 61.062 425.788 61.2169C425.898 60.8687 427.261 56.7125 429.74 56.4316C432.331 56.1422 434.919 58.3323 436.746 59.0643C438.569 59.7895 441.161 59.6473 441.161 59.6473L439.335 62.4204C439.335 62.4204 436.953 62.1132 434.918 62.8562C431.719 64.0257 427.302 65.4872 425.017 64.4607C422.73 63.4393 421.965 61.2526 421.965 52.4907C421.965 52.4907 420.905 58.6208 419.378 61.5429C417.86 64.4607 413.597 67.2346 407.655 66.3545C407.655 66.3528 418.315 64.0189 420.298 54.6799ZM436.317 75.2075V75.9106V76.6196H430.693V68.6629H431.522H432.356V75.2067H436.317V75.2075ZM429.62 76.6196H428.738H427.856L427.317 75.0007H424.296L423.774 76.6196H422.918H422.057L424.874 68.6629H425.838H426.803L429.62 76.6196ZM421.526 75.2075V75.9106V76.6196H415.901V68.6629H416.73H417.565V75.2067H421.526V75.2075ZM401.479 73.0141V76.6196H400.65H399.816V68.6629H400.645H401.479V71.6445H404.595V68.6629H405.424H406.259V76.6196H405.43H404.596V73.0141H401.479ZM403.39 66.7937C399.734 66.6456 398.21 64.6079 398.059 62.5592C397.905 60.5189 398.97 58.6191 400.342 57.0138C400.342 57.0138 397.905 61.6884 400.193 63.1516C402.475 64.6079 406.438 64.3092 408.414 62.5592C410.397 60.8151 407.351 46.3563 407.351 46.3563C407.351 46.3563 408.414 44.7519 408.724 44.0216C408.724 44.0216 409.482 46.6491 410.545 47.2356C410.545 47.2356 409.785 48.4042 409.785 50.4436C409.785 52.489 410.855 60.3759 410.243 61.834C409.632 63.2929 407.044 66.941 403.39 66.7937ZM414.829 76.6196H413.948H413.065L412.527 75.0007H409.507L408.984 76.6196H408.129H407.267L410.084 68.6629H411.049H412.013L414.829 76.6196ZM410.855 49.1362C410.855 49.1362 418.316 51.4719 417.403 59.6465C417.403 59.6465 416.488 55.9933 414.814 54.8272C413.134 53.6594 411.006 53.9556 410.855 51.7587C410.7 49.5712 410.855 49.1362 410.855 49.1362ZM411.298 100.019C393.54 100.019 379.144 86.2072 379.144 69.1685C379.144 52.1307 393.54 38.3179 411.298 38.3179C413.864 38.3179 416.354 38.615 418.746 39.1589C404.625 39.3325 393.231 50.2572 393.231 63.7159C393.231 77.2835 404.806 88.2815 419.084 88.2815C430.154 88.2815 439.593 81.6696 443.28 72.3765C441.608 87.907 427.928 100.019 411.298 100.019Z" fill="#333333"/>
</svg>
