<?xml version="1.0" encoding="utf-8"?>
<!-- Generator: Adobe Illustrator 23.1.0, SVG Export Plug-In . SVG Version: 6.00 Build 0)  -->
<svg version="1.1" id="Layer_1" xmlns="http://www.w3.org/2000/svg" xmlns:xlink="http://www.w3.org/1999/xlink" x="0px" y="0px"
	 viewBox="0 0 515 106" style="enable-background:new 0 0 515 106;" xml:space="preserve">
<style type="text/css">
	.st0{fill-rule:evenodd;clip-rule:evenodd;fill:#333333;}
	.st1{fill:#333333;}
</style>
<path class="st0" d="M24.2,69.4c3,0,6.1,0,9.1,0c4.5,0,9.1,0,13.6,0.1c5,0,9.9,0,14.9,0c7.3,0.1,14.6,0.1,21.9,0.1
	c2.4,0,4.8,0,7.3,0c7.3,0.1,14.6,0,21.9,0.1c2.9,0,5.9,0,8.9,0.1c-0.1,0.5-0.1,1,0,1.4c0,0.4-0.3,0.6-0.7,0.7
	c-0.5,0.1-1,0.1-1.4,0.1h-7.8c-0.1,0-0.3,0-0.4,0c-25.9,0-51.8,0-77.6,0c-0.2,0-0.4-0.1-0.5,0.1h-6.9c-0.1-0.2-0.3-0.1-0.4-0.1
	c-1.4-0.2-2.9-0.5-4.1-1.3C22.6,70.3,23.4,69.8,24.2,69.4z"/>
<path class="st0" d="M131.1,16.6c-0.3,0.7-0.2,1.5-0.4,2.2c-0.4,2.4-0.8,4.8-2,7c-1.6,2.9-4.1,4-7.4,3.7c-0.1,0-0.2,0-0.4,0
	c0-0.6-0.1-1.1-0.3-1.6c1.9-3.3,4.8-5.8,7.5-8.5c1.2-1.2,2.3-2.4,3-4L131.1,16.6L131.1,16.6z"/>
<path class="st0" d="M107.7,58.4c-1.7,3-3.8,5.4-7.6,5.8c-0.9,0.1-1.8,0.2-2.6,0c-0.9-0.2-1.3-0.5-1.3-1.4c0-2-0.2-4-0.2-6
	c0-0.2,0-0.3-0.1-0.5c-0.6,0.8-1.2,1.6-1.9,2.3c-2,2.2-4.3,4.2-7.3,5.2c-1.5,0.5-3,0.6-4.6,0.3c-1.3-0.3-2.2-1-2.7-2.1
	c-0.6-1.2-0.7-2.5-0.5-3.8c0.9-6.1,3.9-11.1,8.9-15c2.1-1.7,4.7-2.4,7.4-2.7c2.8-0.3,5.7-0.3,8.5-0.3c0.9,0,0.8-0.2,0.6,0.7
	c-0.6,2.8-1.3,5.6-2,8.4c-0.8,3.1-1.4,6.2-2,9.4c-0.1,0.6-0.1,1.2-0.1,1.7c0.1,1.1,0.9,1.6,2.1,1.3c0.9-0.2,1.7-0.6,2.4-1.3
	c0.7-0.7,1.5-1.3,2.5-1.8C107.3,58.6,107.4,58.4,107.7,58.4z M84.1,56.6c0,1.6,0.1,2.7,0.2,3.8c0,0.5,0.3,0.6,0.8,0.5
	c1-0.2,2-0.5,2.9-1.1c4.2-2.4,7.2-5.7,9.3-9.8c0.7-1.4,1.2-3,1-4.6c-0.1-1.2-0.8-2-1.9-2.3c-1.1-0.3-2.2-0.3-3.3-0.1
	c-3.4,0.4-5.8,2.2-7.3,5.2C84.5,51,84.2,54,84.1,56.6z"/>
<path class="st0" d="M36.2,32.8c0.2,0,0.3,0,0.5,0c8.3,0,16.6,0,25,0c10.3,0.1,20.6,0.1,30.8,0.1c5,0,10.1,0,15.1,0
	c5.2,0.1,10.4,0,15.6,0c1.2,0,2.4,0,3.5,0c0.4,0,0.8,0.1,1.3,0.2c0.7,0.2,1.3,0.5,1.6,1.2c-1,0.4-2.1,0.5-3.1,0.6
	c-3.8,0.4-7.6,0.5-11.3,0.6c-6.7,0.2-13.3,0.1-20,0.1c-3,0-6,0-9,0c-3.8,0-7.5-0.1-11.3-0.2c-2.6-0.1-5.1,0-7.7-0.1
	c-3.6,0-7.3-0.1-10.9-0.1c-4.1,0-8.3-0.1-12.4-0.1c-2.7,0-5.4,0-8.1,0.2c-0.9-0.2-1.8-0.1-2.8-0.1c-0.8,0-1-0.2-1-0.9
	c0-0.4,0.1-0.7,0.1-1.1v0c0.8,0,1.5,0,2.3-0.2C35,32.9,35.7,33.1,36.2,32.8z"/>
<path class="st0" d="M110.6,41.6c0.7-0.2,1.5-0.5,2.3-0.8c3.6-1.2,7.2-2.4,10.8-3.6c0.6-0.2,0.6-0.2,0.5,0.4c-0.7,4.4-2,8.6-3,12.9
	c-0.9,3.7-1.6,7.3-1.9,11.1c0,0.5,0,1,0.1,1.4c0.3,1.1,1.2,1.6,2.4,1.5c1.5-0.1,2.7-0.9,3.8-1.8c0.4-0.3,0.8-0.7,1.2-1.1
	c0,1.2-0.6,2.2-1.4,3c-2.1,2.1-4.6,3.2-7.7,3.2c-0.7,0-1.3-0.1-1.9-0.4c-1.1-0.4-1.8-1.2-2-2.4c-0.4-1.8-0.3-3.7-0.1-5.5
	c0.5-3.5,1.5-6.9,2.2-10.4c0.4-1.7,0.7-3.4,0.8-5.1c0-0.4-0.2-0.6-0.5-0.8c-1.2-0.7-2.6-1-4-1.2c-0.5-0.1-1-0.2-1.6-0.4
	C110.6,41.7,110.6,41.7,110.6,41.6z"/>
<path class="st0" d="M32.1,33.2c0,0.4-0.1,0.7-0.1,1.1c0,0.7,0.2,0.9,1,0.9c0.9,0,1.8-0.1,2.8,0.1c-0.3,2-0.5,3.9-0.8,5.9
	c-0.5,3.2-1.1,6.4-1.7,9.6c-0.7,3.4-1.4,6.7-2.8,9.9c-1.4,3.1-3.3,5.8-5.8,8.2c-0.1,0.1-0.3,0.3-0.4,0.5c-0.8,0.5-1.6,1-2.4,1.4
	c-3.2,0.4-6.4,0.7-9.6,1.1c-0.1-0.2,0.1-0.3,0.1-0.5c0.3-0.5,0.7-1,1-1.6c0.1-0.1,0.1-0.2,0.2-0.2c0.2-0.2,0.3-0.4,0.5-0.6
	c0.5-0.7,1.2-0.9,2-0.8c1.8,0.3,3.5,0.3,5.3,0c0.8-0.1,1.3-0.6,1.8-1.1c1.7-1.7,2.7-3.9,3.5-6.1c1.3-3.4,2-6.9,2.6-10.4
	c0.5-3,0.8-6.1,1.2-9.2c0.2-2,0.5-4.1,0.7-6.1c0-0.4-0.2-0.3-0.4-0.3c-1.1,0.1-2.2,0.1-3.3,0.2c-0.6,0-1,0-1.2-0.7
	c-0.1-0.4-0.4-0.8-0.5-1.2c0,0,0-0.1,0-0.1c0.6,0.2,1.2,0,1.9-0.1c1.2-0.1,2.4-0.1,3.6-0.1C31.5,33.2,31.8,33.2,32.1,33.2z"/>
<path class="st0" d="M70.3,57.9c0.1,1.2-0.4,2.3-1.4,3.1c-1.7,1.4-3.4,2.7-5.6,3.3c-2.5,0.7-4.9,0.4-7.3-0.4
	c-0.6-0.2-1.2-0.4-1.8-0.4c-0.4,0-0.5-0.2-0.3-0.5c0.6-0.9,1.4-1.7,2.3-2.3c0.3-0.2,0.7-0.1,1,0c1.2,0.4,2.4,0.9,3.7,1.2
	c1.1,0.2,2.1,0.4,3.2,0.1c2-0.6,2.6-1.6,2.5-3.5c-0.1-1.7-1-3-2.2-4.2c-1.2-1.2-2.4-2.2-3.5-3.5c-2.3-2.6-1.6-6.7,1.1-8.5
	c2.1-1.4,4.4-2.5,7-2.9c0.7-0.1,1.4-0.1,2.1,0.1c1.2,0.3,1.9,1.2,2,2.4c0.1,1.1-0.2,2.1-0.5,3.1c-0.1,0.4-0.2,0.4-0.5,0.1
	c-0.8-0.9-1.6-1.9-2.6-2.7c-1.3-1-2.8-1.3-4.5-0.8c-1.3,0.4-1.7,1.3-1.7,2.9c0,2.2,1,3.9,2.7,5.4c1.3,1.1,2.5,2.3,3.3,3.9
	C69.9,55.1,70.3,56.5,70.3,57.9z"/>
<path class="st0" d="M53,45.4c-0.9-1-1.7-2-2.7-2.9c-1.4-1.1-2.9-1.4-4.6-0.9c-1.1,0.3-1.6,1-1.7,2.3c-0.1,2.3,0.7,4.3,2.5,5.9
	c1.1,1,2.2,1.9,3,3.2c1.1,1.8,1.7,3.7,1.4,5.8c-0.1,0.7-0.5,1.4-1,1.9c-1.7,1.6-3.6,2.9-5.9,3.6c-2.5,0.8-5,0.3-7.5-0.5
	c-0.5-0.2-1-0.3-1.6-0.3c-0.5,0-0.6-0.2-0.3-0.6c0.6-0.9,1.4-1.6,2.2-2.2c0.3-0.2,0.7-0.2,1.1-0.1c1.4,0.4,2.8,1.1,4.2,1.3
	c0.9,0.1,1.9,0.2,2.8-0.1c2.2-0.7,2.6-1.9,2.3-4c-0.2-1.7-1.3-2.9-2.5-4c-0.9-0.9-1.9-1.8-2.8-2.8c-1.9-2-2.3-4.5-1-7
	c0.5-0.9,1.2-1.5,2.1-2.1c2-1.4,4.3-2.3,6.7-2.7c0.7-0.1,1.4-0.1,2.1,0.1c1.1,0.3,1.9,1.1,2,2.2C53.9,43,53.6,44.2,53,45.4z"/>
<path class="st0" d="M36.2,32.8C35.7,33,35,32.9,34.4,33c-0.7,0.1-1.5,0.1-2.3,0.2c0.1-1.8,0.7-3.5,1.4-5.1c1.8-3.9,4.6-6.8,8.8-8.4
	c2.5-0.9,5.1-1.1,7.7-0.9c0.5,0.1,1,0.1,1.5,0.2c0,0,0.1,0,0.1,0.1c-0.7,1-1.4,2-2.5,2.5c-0.7,0.4-1.4,0.3-2.1,0.1
	c-0.7-0.2-1.4-0.5-2.1-0.6c-2.1-0.4-4.6,0.8-5.8,2.7c-1,1.6-1.5,3.4-2,5.2C36.8,30.3,36.5,31.5,36.2,32.8z"/>
<path class="st0" d="M120.6,27.9c0.2,0.5,0.3,1,0.3,1.6c-0.3,1.3-1,2.3-2.5,2.6c-1.2,0.2-2.2-0.2-3-1.1c-0.7-0.9-0.9-1.9-0.4-3
	c0.5-1,1.4-1.6,2.6-1.7C119,26.3,120,26.9,120.6,27.9z"/>
<path class="st1" d="M0,78.6h1.3v9.7h4.2v1.2H0L0,78.6L0,78.6z"/>
<path class="st1" d="M8.3,79.5c0,0.5-0.3,0.9-0.8,0.9c-0.5,0-0.8-0.4-0.8-0.9c0-0.5,0.3-0.9,0.8-0.9C8,78.6,8.3,79,8.3,79.5z
	 M6.9,89.5v-7.8h1.3v7.8H6.9z"/>
<path class="st1" d="M15.4,89.2c-0.3,0.2-1.1,0.4-2,0.4c-2.1,0-3.5-1.6-3.5-4c0-2.4,1.5-4.1,3.8-4.1c0.8,0,1.4,0.2,1.8,0.4L15.2,83
	c-0.3-0.2-0.8-0.4-1.5-0.4c-1.6,0-2.5,1.3-2.5,2.9c0,1.8,1.1,2.9,2.5,2.9c0.7,0,1.2-0.2,1.6-0.4L15.4,89.2z"/>
<path class="st1" d="M20.1,89.5V78.6h1.4l3.2,5.5c0.7,1.3,1.3,2.4,1.8,3.5l0,0c-0.1-1.4-0.1-2.8-0.1-4.5v-4.5h1.2v10.8h-1.3L23.1,84
	c-0.7-1.2-1.4-2.4-1.9-3.6l0,0c0.1,1.4,0.1,2.7,0.1,4.5v4.6H20.1z"/>
<path class="st1" d="M36.2,85.5c0,2.9-1.8,4.1-3.5,4.1c-1.9,0-3.4-1.5-3.4-4c0-2.6,1.6-4.1,3.5-4.1C34.8,81.5,36.2,83.1,36.2,85.5z
	 M30.5,85.6c0,1.7,0.9,3,2.2,3c1.2,0,2.2-1.3,2.2-3c0-1.3-0.6-3-2.1-3C31.2,82.6,30.5,84.1,30.5,85.6z"/>
<path class="st1" d="M37.5,88.6c0-0.6,0.4-1,0.9-1s0.9,0.4,0.9,1c0,0.6-0.3,1-0.9,1C37.9,89.6,37.5,89.2,37.5,88.6z"/>
<path class="st1" d="M44.7,80.3L44.7,80.3l-1.7,1l-0.3-1.1l2.1-1.2H46v10.5h-1.3L44.7,80.3L44.7,80.3z"/>
<path class="st1" d="M54.9,84.1c0,3.6-1.2,5.5-3.3,5.5c-1.9,0-3.1-1.9-3.2-5.4c0-3.5,1.4-5.4,3.3-5.4C53.8,78.8,54.9,80.8,54.9,84.1
	z M49.7,84.3c0,2.7,0.8,4.3,1.9,4.3c1.3,0,2-1.7,2-4.4c0-2.6-0.6-4.3-1.9-4.3C50.5,79.9,49.7,81.4,49.7,84.3z"/>
<path class="st1" d="M62.4,84.1c0,3.6-1.2,5.5-3.3,5.5c-1.9,0-3.1-1.9-3.2-5.4c0-3.5,1.4-5.4,3.3-5.4C61.3,78.8,62.4,80.8,62.4,84.1
	z M57.3,84.3c0,2.7,0.8,4.3,1.9,4.3c1.3,0,2-1.7,2-4.4c0-2.6-0.6-4.3-1.9-4.3C58.1,79.9,57.3,81.4,57.3,84.3z"/>
<path class="st1" d="M66.1,80.3L66.1,80.3l-1.7,1l-0.3-1.1l2.1-1.2h1.1l0,10.5h-1.3L66.1,80.3z"/>
<path class="st1" d="M75.7,80.2H72l-0.4,2.7c0.2,0,0.4-0.1,0.8-0.1c0.7,0,1.5,0.2,2.1,0.6c0.8,0.5,1.4,1.4,1.4,2.7
	c0,2-1.5,3.6-3.6,3.6c-1,0-1.9-0.3-2.4-0.6l0.3-1.1c0.4,0.3,1.2,0.6,2,0.6c1.2,0,2.3-0.9,2.3-2.3c0-1.3-0.8-2.3-2.8-2.3
	c-0.5,0-1,0.1-1.3,0.1l0.6-5h4.6L75.7,80.2L75.7,80.2z"/>
<path class="st1" d="M83.9,84.1c0,3.6-1.2,5.5-3.3,5.5c-1.9,0-3.1-1.9-3.2-5.4c0-3.5,1.4-5.4,3.3-5.4C82.7,78.8,83.9,80.8,83.9,84.1
	z M78.7,84.3c0,2.7,0.8,4.3,1.9,4.3c1.3,0,2-1.7,2-4.4c0-2.6-0.6-4.3-1.9-4.3C79.5,79.9,78.7,81.4,78.7,84.3z"/>
<path class="st1" d="M85.1,89.5v-0.9l1-1.1c2.4-2.5,3.5-3.9,3.6-5.5c0-1.1-0.5-2-1.9-2c-0.9,0-1.6,0.5-2,0.9l-0.4-1
	c0.7-0.6,1.6-1.1,2.7-1.1c2.1,0,2.9,1.5,2.9,3c0,1.9-1.3,3.5-3.3,5.6l-0.8,0.8v0h4.3v1.2H85.1z"/>
<path class="st1" d="M95.1,80.3L95.1,80.3l-1.7,1l-0.3-1.1l2.1-1.2h1.1v10.5h-1.3L95.1,80.3L95.1,80.3z"/>
<path class="st1" d="M105,84.1c0,3.6-1.2,5.5-3.3,5.5c-1.9,0-3.1-1.9-3.2-5.4c0-3.5,1.4-5.4,3.3-5.4C103.8,78.8,105,80.8,105,84.1z
	 M99.8,84.3c0,2.7,0.8,4.3,1.9,4.3c1.3,0,2-1.7,2-4.4c0-2.6-0.6-4.3-1.9-4.3C100.6,79.9,99.8,81.4,99.8,84.3z"/>
<path class="st1" d="M112.5,84.1c0,3.6-1.2,5.5-3.3,5.5c-1.9,0-3.1-1.9-3.2-5.4c0-3.5,1.4-5.4,3.3-5.4
	C111.4,78.8,112.5,80.8,112.5,84.1z M107.3,84.3c0,2.7,0.8,4.3,1.9,4.3c1.3,0,2-1.7,2-4.4c0-2.6-0.6-4.3-1.9-4.3
	C108.2,79.9,107.3,81.4,107.3,84.3z"/>
<path class="st1" d="M116.2,80.3L116.2,80.3l-1.7,1l-0.3-1.1l2.1-1.2h1.1v10.5h-1.3L116.2,80.3L116.2,80.3z"/>
<path class="st1" d="M125.9,79V80l-4.2,9.5h-1.3l4.2-9.2v0h-4.7V79H125.9z"/>
<path class="st1" d="M126.9,87.8c0.4,0.3,1.2,0.7,2.1,0.7c1.7,0,2.2-1.1,2.2-2c0-1.5-1.2-2.1-2.4-2.1l-0.7,0l0-1.1l0.7,0
	c0.9,0,2.1-0.5,2.2-1.7c0-0.8-0.5-1.6-1.6-1.6c-0.8,0-1.5,0.3-1.9,0.7l-0.3-1c0.5-0.4,1.5-0.8,2.5-0.8c1.9,0,2.7,1.3,2.7,2.5
	c0,1.1-0.6,2-1.8,2.4v0c1.2,0.3,2.1,1.3,2.1,2.7c0,1.7-1.3,3.1-3.6,3.1c-1.1,0-2-0.4-2.5-0.8L126.9,87.8z"/>
<path class="st1" d="M140.3,84.1c0,3.6-1.2,5.5-3.3,5.5c-1.9,0-3.1-1.9-3.2-5.4c0-3.5,1.4-5.4,3.3-5.4
	C139.1,78.8,140.3,80.8,140.3,84.1z M135.1,84.3c0,2.7,0.8,4.3,1.9,4.3c1.3,0,2-1.7,2-4.4c0-2.6-0.6-4.3-1.9-4.3
	C135.9,79.9,135.1,81.4,135.1,84.3z"/>
<path class="st1" d="M273.5,76.7c-0.2-0.1-0.5-0.2-0.9-0.2c-0.3,0-0.5,0-0.7,0v3.5h0.6c0.4,0,0.8-0.1,1-0.2c0.3-0.1,0.4-0.3,0.6-0.6
	c0.1-0.3,0.2-0.6,0.2-1c0-0.4-0.1-0.8-0.2-1C273.9,77,273.7,76.8,273.5,76.7z"/>
<path class="st1" d="M257.9,66.2c0-0.6-0.1-1-0.4-1.3c-0.3-0.3-0.7-0.4-1.2-0.4c-0.4,0-0.6,0-0.7,0V68h0.6c0.3,0,0.6,0,0.9-0.1
	c0.2-0.1,0.4-0.2,0.5-0.4c0.1-0.2,0.2-0.3,0.3-0.6C257.9,66.7,257.9,66.5,257.9,66.2z"/>
<path class="st1" d="M287.7,41.9c0.9,0,1.6-0.2,2.3-0.7c0.6-0.5,1.1-1.1,1.5-1.9c0.4-0.8,0.7-1.8,0.8-2.9c0.2-1.1,0.3-2.4,0.3-3.7
	c0-2.2-0.2-4-0.5-5.5c-0.4-1.5-0.9-2.6-1.6-3.4c-0.7-0.8-1.7-1.1-2.8-1.1c-1.7,0-2.9,0.8-3.7,2.3c-0.8,1.5-1.2,3.9-1.2,7.1
	c0,3.3,0.4,5.8,1.2,7.4C284.7,41.1,286,41.9,287.7,41.9z"/>
<path class="st1" d="M285.1,49.4c-0.2-0.4-0.4-0.7-0.6-0.9c-0.2-0.2-0.5-0.3-0.8-0.3c-0.3,0-0.6,0.1-0.9,0.3c-0.2,0.2-0.4,0.6-0.6,1
	c-0.1,0.4-0.3,1-0.3,1.7c-0.1,0.7-0.1,1.5-0.1,2.4c0,1.4,0.1,2.5,0.2,3.3c0.1,0.8,0.3,1.4,0.6,1.8c0.3,0.4,0.6,0.6,1.1,0.6
	c0.2,0,0.5-0.1,0.7-0.2c0.2-0.1,0.4-0.3,0.5-0.6c0.2-0.2,0.3-0.6,0.4-1c0.1-0.4,0.2-0.9,0.2-1.5c0.1-0.6,0.1-1.3,0.1-2.1
	c0-1.1,0-2.1-0.1-2.9C285.4,50.4,285.3,49.8,285.1,49.4z"/>
<path class="st1" d="M252.6,76.9c-0.3-0.3-0.6-0.4-1.1-0.4c-0.6,0-1.1,0.3-1.4,0.9c-0.3,0.6-0.5,1.5-0.5,2.7c0,1.3,0.2,2.2,0.5,2.8
	c0.3,0.6,0.8,0.9,1.4,0.9c0.3,0,0.6-0.1,0.9-0.3c0.2-0.2,0.4-0.4,0.6-0.7c0.1-0.3,0.3-0.7,0.3-1.1c0.1-0.4,0.1-0.9,0.1-1.4
	c0-0.8-0.1-1.5-0.2-2.1C253,77.6,252.8,77.2,252.6,76.9z"/>
<path class="st1" d="M270,48.6c-0.2,0.2-0.4,0.6-0.6,1c-0.1,0.4-0.3,1-0.3,1.7c-0.1,0.7-0.1,1.5-0.1,2.4c0,1.4,0.1,2.5,0.2,3.3
	c0.1,0.8,0.3,1.4,0.6,1.8c0.3,0.4,0.6,0.6,1.1,0.6c0.2,0,0.5-0.1,0.7-0.2c0.2-0.1,0.4-0.3,0.5-0.6c0.2-0.2,0.3-0.6,0.4-1
	c0.1-0.4,0.2-0.9,0.2-1.6c0-0.6,0.1-1.3,0.1-2.1c0-1.1,0-2.1-0.1-2.9c-0.1-0.8-0.2-1.4-0.4-1.8c-0.2-0.4-0.4-0.7-0.6-0.9
	c-0.2-0.2-0.5-0.3-0.8-0.3C270.6,48.3,270.3,48.4,270,48.6z"/>
<path class="st1" d="M302,64.9c-0.4-0.2-0.9-0.4-1.4-0.4c-0.3,0-0.5,0-0.6,0v7c0.1,0,0.3,0,0.6,0c0.5,0,0.9-0.1,1.2-0.2
	c0.2-0.1,0.4-0.2,0.6-0.4c0.3-0.3,0.5-0.7,0.6-1.1c0.2-0.5,0.2-1.1,0.2-1.8c0-0.8-0.1-1.4-0.3-2C302.8,65.5,302.4,65.2,302,64.9z"/>
<path class="st1" d="M278.8,81h2.3l-1-3.5L278.8,81z"/>
<path class="st1" d="M300.8,40.9v-2h8.4v-2.6h-8.4v-2h8.4v-2.6h-8.4v-2h8.4v-2.6h-8.4v-2h8.4v-1.7c0-4.2-3.6-7.7-8-7.7h-60.6
	c-4.4,0-8,3.4-8,7.7v1.7h8.5v2h-8.5v2.6h8.5v2h-8.5v2.6h8.5v2h-8.5v2.6h8.5v2h-8.5v40.6c0,4.2,3.6,7.7,8,7.7h60.6c4.4,0,8-3.4,8-7.7
	V40.9H300.8z M301.5,53.7c0,2.2-0.4,3.9-1.3,5.1c-0.8,1.1-2.1,1.7-3.7,1.7c-1,0-1.9-0.2-2.6-0.7c-0.7-0.4-1.2-1.1-1.6-2.1
	c-0.4-1-0.6-2.2-0.6-3.8c0-1.4,0.2-2.7,0.6-3.7c0.4-1,0.9-1.8,1.7-2.3c0.7-0.5,1.6-0.8,2.7-0.8c1.6,0,2.8,0.5,3.6,1.6
	C301.1,49.8,301.5,51.5,301.5,53.7z M289.7,64.9c0-0.1,0-0.2-0.1-0.3c0-0.1-0.1-0.2-0.2-0.2c-0.1-0.1-0.2-0.1-0.4-0.1v-0.4h6.4v2
	h-0.9c-0.1-0.4-0.3-0.7-0.4-0.8c-0.1-0.1-0.2-0.2-0.4-0.3c-0.1-0.1-0.4-0.1-0.7-0.1h-1.4v3h0.9c0.2,0,0.3,0,0.4-0.1
	c0.1-0.1,0.2-0.1,0.3-0.3c0.1-0.1,0.1-0.3,0.2-0.6h0.7v2.5h-0.7c-0.1-0.2-0.1-0.4-0.2-0.6c-0.1-0.1-0.2-0.2-0.3-0.3
	c-0.1-0.1-0.3-0.1-0.5-0.1h-0.9v3.3h1.4c0.2,0,0.3,0,0.4,0c0.1,0,0.2-0.1,0.3-0.1c0.1,0,0.2-0.1,0.2-0.2c0.1-0.1,0.1-0.2,0.2-0.3
	c0.1-0.1,0.1-0.2,0.2-0.4c0.1-0.1,0.1-0.4,0.2-0.6h0.9l-0.1,2.3h-6.4v-0.4c0.2,0,0.3-0.1,0.4-0.1c0.1,0,0.2-0.1,0.2-0.2
	c0-0.1,0.1-0.2,0.1-0.3c0-0.1,0-0.3,0-0.5v-5.4C289.8,65.2,289.8,65,289.7,64.9z M278.4,26.2c0.8-1.8,2-3.1,3.6-4
	c1.6-0.9,3.5-1.4,5.7-1.4c3.4,0,6,0.9,7.7,2.8c1.7,1.9,2.6,4.7,2.6,8.4c0,2.1-0.3,3.9-0.8,5.4c-0.5,1.5-1.2,2.7-2.2,3.7
	c-0.9,1-2.1,1.7-3.4,2.1c-1.3,0.5-2.8,0.7-4.4,0.7c-3.4,0-5.9-0.9-7.6-2.8c-1.7-1.9-2.5-4.7-2.5-8.5C277.2,30,277.6,27.9,278.4,26.2
	z M286.6,71.2c0,0.1,0,0.2,0,0.3c0,0.1,0.1,0.1,0.1,0.2c0.1,0.1,0.1,0.1,0.2,0.1c0.1,0,0.2,0.1,0.3,0.1v0.4h-3.4v-0.4
	c0.2,0,0.3-0.1,0.4-0.1c0.1,0,0.2-0.1,0.2-0.2c0-0.1,0.1-0.2,0.1-0.3c0-0.1,0-0.3,0-0.5v-5.4c0-0.2,0-0.4,0-0.5c0-0.1,0-0.2-0.1-0.3
	c0-0.1-0.1-0.2-0.2-0.2c-0.1,0-0.2-0.1-0.4-0.1v-0.4h3.4v0.4c-0.2,0-0.3,0.1-0.4,0.1c-0.1,0.1-0.2,0.1-0.2,0.2
	c0,0.1-0.1,0.2-0.1,0.3c0,0.1,0,0.3,0,0.5v5.4C286.6,70.9,286.6,71.1,286.6,71.2z M283.6,60.5c-1,0-1.9-0.2-2.6-0.7
	c-0.7-0.4-1.2-1.1-1.6-2.1c-0.4-1-0.6-2.2-0.6-3.8c0-1.4,0.2-2.7,0.6-3.7c0.4-1,0.9-1.8,1.7-2.3c0.7-0.5,1.6-0.8,2.7-0.8
	c1.6,0,2.8,0.5,3.6,1.6c0.8,1.1,1.2,2.7,1.2,4.9c0,2.2-0.4,3.9-1.3,5.1C286.5,59.9,285.3,60.5,283.6,60.5z M275.9,71.9
	c0.2,0,0.3-0.1,0.4-0.1c0.1-0.1,0.2-0.1,0.2-0.2c0-0.1,0.1-0.2,0.1-0.3c0-0.1,0-0.3,0-0.5v-5.4c0-0.2,0-0.4,0-0.5
	c0-0.1,0-0.2-0.1-0.3c0-0.1-0.1-0.2-0.2-0.2c-0.1-0.1-0.2-0.1-0.4-0.1v-0.4h6.3v2h-0.9c-0.1-0.4-0.3-0.7-0.4-0.8
	c-0.1-0.1-0.2-0.2-0.4-0.3c-0.1-0.1-0.4-0.1-0.7-0.1h-1.3v3.2h0.8c0.2,0,0.4,0,0.5-0.1c0.1-0.1,0.2-0.2,0.3-0.3
	c0.1-0.1,0.1-0.3,0.2-0.6h0.7v2.7h-0.7c-0.1-0.3-0.1-0.5-0.2-0.6c-0.1-0.1-0.2-0.2-0.3-0.3c-0.1-0.1-0.3-0.1-0.5-0.1h-0.8v2.3
	c0,0.2,0,0.4,0,0.5s0,0.2,0.1,0.3c0,0.1,0.1,0.1,0.1,0.2c0.1,0,0.1,0.1,0.2,0.1c0.1,0,0.2,0.1,0.4,0.1v0.4h-3.5V71.9z M275.8,53.7
	c0,2.2-0.4,3.9-1.3,5.1c-0.8,1.1-2.1,1.7-3.7,1.7c-1,0-1.9-0.2-2.6-0.7c-0.7-0.4-1.2-1.1-1.6-2.1c-0.4-1-0.6-2.2-0.6-3.8
	c0-1.4,0.2-2.7,0.6-3.7c0.4-1,0.9-1.8,1.7-2.3c0.7-0.5,1.6-0.8,2.7-0.8c1.6,0,2.8,0.5,3.6,1.6C275.4,49.8,275.8,51.5,275.8,53.7z
	 M273.4,71.2c0,0.1,0,0.2,0,0.3c0,0.1,0.1,0.1,0.1,0.2c0,0.1,0.1,0.1,0.2,0.1c0.1,0,0.2,0.1,0.3,0.1v0.4h-3.4v-0.4
	c0.2,0,0.3-0.1,0.4-0.1c0.1,0,0.2-0.1,0.2-0.2c0-0.1,0.1-0.2,0.1-0.3c0-0.1,0-0.3,0-0.5v-5.4c0-0.2,0-0.4,0-0.5c0-0.1,0-0.2-0.1-0.3
	c0-0.1-0.1-0.2-0.2-0.2c-0.1,0-0.2-0.1-0.4-0.1v-0.4h3.4v0.4c-0.2,0-0.3,0.1-0.4,0.1c-0.1,0.1-0.1,0.1-0.2,0.2
	c0,0.1-0.1,0.2-0.1,0.3c0,0.1,0,0.3,0,0.5v5.4C273.4,70.9,273.4,71.1,273.4,71.2z M257.2,38.1h2.4c0.3,1.3,0.8,2.3,1.4,2.9
	c0.7,0.6,1.7,1,2.9,1c0.7,0,1.3-0.1,1.8-0.3c0.5-0.2,1-0.6,1.3-1.1c0.3-0.5,0.5-1.1,0.5-1.8c0-0.7-0.1-1.3-0.4-1.8
	c-0.3-0.5-0.7-1-1.3-1.4c-0.6-0.5-1.4-0.9-2.4-1.4c-0.9-0.4-1.7-0.9-2.4-1.3c-0.7-0.5-1.3-1-1.8-1.5c-0.5-0.6-0.9-1.2-1.2-1.8
	c-0.3-0.7-0.4-1.4-0.4-2.2c0-1.4,0.4-2.5,1-3.5c0.7-0.9,1.7-1.7,3-2.2c1.3-0.5,2.9-0.7,4.6-0.7c1,0,2,0.1,2.9,0.2
	c0.9,0.1,2,0.3,3.2,0.6v4.8H270c-0.2-0.9-0.5-1.6-0.8-2.1c-0.3-0.5-0.8-0.9-1.3-1.1c-0.5-0.2-1.1-0.4-1.9-0.4
	c-0.7,0-1.2,0.1-1.8,0.3c-0.5,0.2-0.9,0.5-1.2,1c-0.3,0.4-0.4,1-0.4,1.6c0,0.6,0.1,1.2,0.4,1.7c0.3,0.5,0.7,0.9,1.3,1.4
	c0.6,0.4,1.5,1,2.6,1.5c1.4,0.7,2.5,1.4,3.3,2.1c0.8,0.7,1.4,1.4,1.8,2.2c0.4,0.8,0.6,1.7,0.6,2.8c0,1.4-0.3,2.5-1,3.5
	c-0.7,1-1.6,1.8-2.9,2.3c-1.2,0.5-2.7,0.8-4.3,0.8c-1.2,0-2.4-0.1-3.7-0.2c-1.3-0.1-2.5-0.3-3.6-0.6L257.2,38.1L257.2,38.1z
	 M253.1,59.7c0.3-0.6,0.7-1.3,1.2-2c0.5-0.7,1.2-1.5,1.9-2.3c0.7-0.8,1.3-1.5,1.6-2c0.4-0.5,0.6-1,0.8-1.5c0.2-0.5,0.3-0.9,0.3-1.4
	c0-0.7-0.2-1.2-0.5-1.6c-0.3-0.4-0.8-0.6-1.3-0.6c-0.5,0-1,0.2-1.3,0.5c-0.3,0.4-0.6,0.9-0.8,1.7h-1.8v-2.2c0.8-0.3,1.4-0.5,1.9-0.7
	c0.5-0.1,0.9-0.2,1.4-0.3c0.4-0.1,0.9-0.1,1.5-0.1c1,0,1.8,0.1,2.4,0.4c0.6,0.2,1.1,0.6,1.3,1c0.3,0.4,0.4,0.9,0.4,1.5
	c0,0.5-0.1,1-0.3,1.4c-0.2,0.4-0.5,0.9-1,1.5c-0.5,0.6-1.3,1.3-2.4,2.4c-0.5,0.5-1,1-1.4,1.4c-0.4,0.5-0.8,0.9-1,1.1V58h3.5
	c0.4,0,0.7,0,1-0.1c0.2-0.1,0.4-0.2,0.5-0.3c0.1-0.2,0.2-0.4,0.3-0.7h1.1l-0.2,3.4h-9.1L253.1,59.7L253.1,59.7z M243.6,42.5
	c0.4-0.1,0.8-0.2,1-0.4c0.2-0.1,0.4-0.3,0.6-0.5c0.1-0.2,0.2-0.5,0.2-0.9c0-0.4,0-0.8,0-1.3V25.2c0-0.5,0-1,0-1.3
	c0-0.3-0.1-0.6-0.2-0.8c-0.1-0.2-0.3-0.4-0.6-0.5c-0.2-0.1-0.6-0.3-1-0.4V21h9v1.1c-0.5,0.1-0.8,0.3-1,0.4c-0.2,0.1-0.4,0.3-0.5,0.5
	c-0.1,0.2-0.2,0.5-0.2,0.8c0,0.3-0.1,0.8-0.1,1.4v14.3c0,0.4,0,0.7,0,1.1c0,0.3,0.1,0.6,0.1,0.8c0.1,0.2,0.2,0.4,0.3,0.5
	c0.1,0.1,0.3,0.3,0.5,0.4c0.2,0.1,0.5,0.2,0.8,0.3v1.1h-9V42.5z M245.2,64.9c0-0.1,0-0.2-0.1-0.3c0-0.1-0.1-0.2-0.2-0.2
	c-0.1-0.1-0.2-0.1-0.4-0.1v-0.4h6.4v2h-0.9c-0.1-0.4-0.3-0.7-0.4-0.8c-0.1-0.1-0.2-0.2-0.4-0.3c-0.1-0.1-0.4-0.1-0.7-0.1h-1.4v3h0.9
	c0.2,0,0.3,0,0.5-0.1c0.1-0.1,0.2-0.1,0.3-0.3c0.1-0.1,0.1-0.3,0.2-0.6h0.7v2.5h-0.7c-0.1-0.2-0.1-0.4-0.2-0.6
	c-0.1-0.1-0.2-0.2-0.3-0.3c-0.1-0.1-0.3-0.1-0.5-0.1h-0.9v3.3h1.4c0.2,0,0.3,0,0.4,0c0.1,0,0.2-0.1,0.3-0.1c0.1,0,0.2-0.1,0.2-0.2
	c0.1-0.1,0.1-0.2,0.2-0.3c0.1-0.1,0.1-0.2,0.2-0.4c0.1-0.1,0.1-0.4,0.2-0.6h0.9l-0.1,2.3h-6.4v-0.4c0.2,0,0.3-0.1,0.4-0.1
	c0.1,0,0.2-0.1,0.2-0.2c0-0.1,0.1-0.2,0.1-0.3c0-0.1,0-0.3,0-0.5v-5.4C245.3,65.2,245.3,65,245.2,64.9z M240.3,59.7
	c0.3-0.6,0.7-1.3,1.2-2c0.5-0.7,1.2-1.5,1.9-2.3c0.7-0.8,1.3-1.5,1.6-2c0.4-0.5,0.6-1,0.8-1.5c0.2-0.5,0.3-0.9,0.3-1.4
	c0-0.7-0.2-1.2-0.5-1.6c-0.3-0.4-0.8-0.6-1.3-0.6c-0.5,0-1,0.2-1.3,0.5c-0.3,0.4-0.6,0.9-0.8,1.7h-1.8v-2.2c0.8-0.3,1.4-0.5,1.9-0.7
	c0.5-0.1,0.9-0.2,1.4-0.3c0.4-0.1,0.9-0.1,1.5-0.1c1,0,1.8,0.1,2.4,0.4c0.6,0.2,1.1,0.6,1.3,1c0.3,0.4,0.4,0.9,0.4,1.5
	c0,0.5-0.1,1-0.3,1.4c-0.2,0.4-0.5,0.9-1,1.5c-0.5,0.6-1.3,1.3-2.4,2.4c-0.5,0.5-1,1-1.4,1.4c-0.4,0.5-0.8,0.9-1,1.1V58h3.5
	c0.4,0,0.7,0,1-0.1c0.2-0.1,0.4-0.2,0.5-0.3c0.1-0.2,0.2-0.4,0.3-0.7h1.1l-0.2,3.4h-9.1L240.3,59.7L240.3,59.7z M236.8,70.6
	c-0.3-0.6-0.4-1.4-0.4-2.4c0-0.9,0.2-1.7,0.5-2.4c0.3-0.7,0.8-1.2,1.4-1.5c0.6-0.4,1.4-0.5,2.2-0.5c0.4,0,0.8,0,1.2,0.1
	c0.4,0,0.7,0.1,1.1,0.2v1.8h-0.9c-0.1-0.5-0.3-0.8-0.5-1c-0.2-0.2-0.5-0.3-0.9-0.3c-0.7,0-1.2,0.3-1.6,0.9c-0.4,0.6-0.5,1.6-0.5,2.8
	c0,1.2,0.2,2,0.5,2.6c0.3,0.6,0.8,0.9,1.4,0.9c0.3,0,0.6-0.1,0.8-0.2c0.2-0.1,0.4-0.3,0.5-0.5c0.1-0.2,0.2-0.5,0.3-0.9h0.9v1.9
	c-0.5,0.1-0.9,0.2-1.3,0.2c-0.4,0.1-0.8,0.1-1.2,0.1c-0.9,0-1.6-0.2-2.2-0.5C237.5,71.7,237.1,71.2,236.8,70.6z M246,77.8h-0.9
	c-0.1-0.5-0.3-0.8-0.5-1c-0.2-0.2-0.5-0.3-0.9-0.3c-0.7,0-1.2,0.3-1.6,0.9c-0.4,0.6-0.5,1.6-0.5,2.8c0,1.2,0.2,2,0.5,2.6
	c0.3,0.6,0.8,0.9,1.4,0.9c0.3,0,0.6-0.1,0.8-0.2c0.2-0.1,0.4-0.3,0.5-0.5c0.1-0.2,0.2-0.5,0.3-0.9h0.9v1.9c-0.5,0.1-0.9,0.2-1.3,0.2
	c-0.4,0.1-0.8,0.1-1.2,0.1c-0.9,0-1.6-0.2-2.2-0.5c-0.6-0.3-1-0.8-1.3-1.4c-0.3-0.6-0.4-1.4-0.4-2.4c0-0.9,0.2-1.7,0.5-2.4
	c0.3-0.7,0.8-1.2,1.4-1.5c0.6-0.4,1.4-0.5,2.2-0.5c0.4,0,0.8,0,1.2,0.1c0.4,0,0.7,0.1,1.1,0.2V77.8z M255.2,82
	c-0.2,0.6-0.5,1-0.8,1.4c-0.4,0.4-0.8,0.6-1.3,0.8c-0.5,0.2-1,0.3-1.7,0.3c-1.3,0-2.2-0.4-2.9-1.1c-0.6-0.7-1-1.8-1-3.2
	c0-0.9,0.2-1.7,0.5-2.4c0.3-0.7,0.8-1.2,1.4-1.5c0.6-0.3,1.3-0.5,2.2-0.5c1.3,0,2.3,0.4,2.9,1.1c0.7,0.7,1,1.8,1,3.2
	C255.4,80.8,255.4,81.5,255.2,82z M256.8,69.1c-0.1-0.1-0.2-0.2-0.3-0.3c-0.1-0.1-0.3-0.1-0.5-0.1h-0.4v2c0,0.3,0,0.5,0,0.7
	c0,0.1,0.1,0.2,0.2,0.3c0.1,0.1,0.2,0.1,0.5,0.2v0.4h-3.4v-0.4c0.2,0,0.3-0.1,0.4-0.1c0.1,0,0.2-0.1,0.2-0.2c0-0.1,0.1-0.2,0.1-0.3
	c0-0.1,0-0.3,0-0.5v-5.4c0-0.2,0-0.4,0-0.5c0-0.1,0-0.2-0.1-0.3c0-0.1-0.1-0.2-0.2-0.2c-0.1-0.1-0.2-0.1-0.4-0.1v-0.4h3.8
	c0.5,0,0.9,0,1.3,0.1c0.4,0.1,0.7,0.2,0.9,0.3c0.2,0.1,0.4,0.3,0.6,0.4c0.2,0.2,0.3,0.4,0.4,0.6c0.1,0.2,0.1,0.5,0.1,0.8
	c0,0.4-0.1,0.8-0.2,1c-0.2,0.3-0.3,0.5-0.6,0.7c-0.3,0.2-0.6,0.4-1,0.5v0.1c0.3,0.1,0.6,0.3,0.8,0.5c0.2,0.2,0.4,0.5,0.6,0.8
	l0.4,0.8c0.2,0.4,0.4,0.7,0.5,0.9c0.2,0.2,0.4,0.3,0.6,0.3v0.4h-2.5c-0.3-0.3-0.5-0.8-0.9-1.5l-0.5-1.1
	C257,69.5,256.9,69.2,256.8,69.1z M267.3,76.3c-0.2,0.1-0.4,0.1-0.5,0.2c-0.1,0.1-0.1,0.2-0.2,0.3c0,0.1,0,0.3,0,0.7v5.4
	c0,0.2,0,0.5,0,0.6c0,0.2,0.1,0.3,0.2,0.3c0.1,0.1,0.2,0.2,0.5,0.2v0.4H264v-0.4c0.2,0,0.3-0.1,0.4-0.1c0.1,0,0.1-0.1,0.2-0.2
	c0-0.1,0.1-0.2,0.1-0.3c0-0.1,0-0.3,0-0.6v-3.1c0-0.3,0-0.7,0-1.2c0-0.5,0-0.8,0-1h-0.1c-0.1,0.2-0.1,0.3-0.2,0.5
	c-0.1,0.2-0.2,0.4-0.3,0.9l-1.7,4.5h-1.1l-1.8-5.1c-0.1-0.3-0.2-0.6-0.3-0.9H259c0,0.7,0.1,1.5,0.1,2.4v2.9c0,0.3,0,0.5,0.1,0.6
	c0,0.1,0.1,0.2,0.2,0.3c0.1,0.1,0.2,0.1,0.5,0.2v0.4h-2.5v-0.4c0.2,0,0.3-0.1,0.4-0.1c0.1-0.1,0.2-0.1,0.2-0.2
	c0-0.1,0.1-0.2,0.1-0.3c0-0.1,0-0.3,0-0.5v-5.4c0-0.3,0-0.5,0-0.7c0-0.1-0.1-0.2-0.2-0.3c-0.1-0.1-0.2-0.1-0.5-0.2v-0.4h3.2l1.8,5.1
	l2-5.1h3L267.3,76.3L267.3,76.3z M269.1,66h-0.9c-0.1-0.3-0.1-0.5-0.2-0.6c0-0.1-0.1-0.2-0.2-0.3c-0.1-0.1-0.1-0.2-0.2-0.2
	c-0.1-0.1-0.1-0.1-0.2-0.2c-0.1,0-0.2-0.1-0.3-0.1c-0.1,0-0.3,0-0.4,0h-0.5v6.2c0,0.2,0,0.4,0,0.5c0,0.1,0,0.2,0.1,0.3
	c0,0.1,0.1,0.1,0.1,0.2c0,0,0.1,0.1,0.2,0.1c0.1,0,0.2,0.1,0.4,0.1v0.4h-3.6v-0.4c0.2,0,0.3-0.1,0.4-0.1c0.1,0,0.2-0.1,0.2-0.2
	c0-0.1,0.1-0.2,0.1-0.3c0-0.1,0-0.3,0-0.5v-6.2h-0.5c-0.3,0-0.5,0-0.6,0.1c-0.1,0.1-0.3,0.2-0.4,0.3c-0.1,0.1-0.2,0.3-0.3,0.5
	c-0.1,0.2-0.1,0.4-0.2,0.6h-0.9v-2.2h7.6L269.1,66L269.1,66z M274.7,80.5c-0.5,0.2-1.1,0.3-1.8,0.3c-0.4,0-0.8,0-1,0v2
	c0,0.3,0,0.5,0,0.6c0,0.1,0.1,0.2,0.1,0.3c0,0.1,0.1,0.1,0.2,0.2c0.1,0,0.2,0.1,0.4,0.1v0.4h-3.5v-0.4c0.2,0,0.3-0.1,0.4-0.1
	c0.1,0,0.2-0.1,0.2-0.2c0-0.1,0.1-0.2,0.1-0.3c0-0.1,0-0.3,0-0.5v-5.4c0-0.2,0-0.4,0-0.5c0-0.1,0-0.2-0.1-0.3c0-0.1-0.1-0.2-0.2-0.2
	c-0.1,0-0.2-0.1-0.4-0.1v-0.4h3.8c1.1,0,1.9,0.2,2.5,0.6c0.5,0.4,0.8,1,0.8,1.7c0,0.6-0.1,1-0.4,1.4C275.6,80,275.2,80.3,274.7,80.5
	z M284.6,84.4H281V84c0.2,0,0.4-0.1,0.5-0.2c0.1-0.1,0.2-0.2,0.2-0.4c0-0.1,0-0.3,0-0.4c0-0.2-0.1-0.4-0.2-0.6l-0.2-0.6h-2.8
	l-0.2,0.6c-0.1,0.2-0.1,0.3-0.1,0.5c0,0.2-0.1,0.3-0.1,0.5c0,0.4,0.2,0.6,0.7,0.7v0.4H276V84c0.2,0,0.3-0.1,0.4-0.2
	c0.1-0.1,0.2-0.2,0.3-0.4c0.1-0.2,0.2-0.4,0.3-0.7l2.7-6.9h1.7l2.1,7c0.1,0.3,0.2,0.5,0.2,0.7c0.1,0.1,0.2,0.2,0.3,0.3
	c0.1,0.1,0.3,0.1,0.4,0.2L284.6,84.4L284.6,84.4z M293.8,76.3c-0.2,0.1-0.3,0.1-0.4,0.1c-0.1,0-0.1,0.1-0.2,0.2
	c0,0.1-0.1,0.2-0.1,0.3c0,0.1,0,0.3,0,0.6v7h-1.6l-2.9-4.9c-0.4-0.7-0.7-1.2-0.9-1.5h-0.1c0,0.9,0.1,1.8,0.1,2.8v2
	c0,0.3,0,0.5,0,0.7c0,0.1,0.1,0.2,0.2,0.3c0.1,0.1,0.2,0.1,0.5,0.2v0.4h-2.4v-0.4c0.2,0,0.3-0.1,0.4-0.1c0.1-0.1,0.2-0.1,0.2-0.2
	c0-0.1,0.1-0.2,0.1-0.3c0-0.1,0-0.3,0-0.5v-5.4c0-0.3,0-0.5,0-0.6c0-0.1-0.1-0.2-0.2-0.3c-0.1-0.1-0.2-0.1-0.5-0.2v-0.4h2.6l2.3,3.8
	c0.1,0.2,0.3,0.6,0.6,1c0.2,0.4,0.4,0.8,0.6,1.2h0.1c0-1-0.1-2.1-0.1-3.3v-1.2c0-0.3,0-0.5,0-0.6c0-0.1-0.1-0.2-0.1-0.3
	c0-0.1-0.1-0.1-0.2-0.2c-0.1,0-0.2-0.1-0.4-0.1v-0.4h2.5V76.3z M303,76.3c-0.1,0-0.2,0.1-0.3,0.1c-0.1,0-0.2,0.1-0.3,0.2
	c-0.1,0.1-0.2,0.2-0.3,0.4c-0.1,0.2-0.3,0.4-0.4,0.7l-1.9,3.4v1.7c0,0.2,0,0.4,0,0.5c0,0.1,0,0.2,0.1,0.3c0,0.1,0.1,0.1,0.1,0.2
	c0,0,0.1,0.1,0.2,0.1c0.1,0,0.2,0.1,0.4,0.1v0.4H297V84c0.2,0,0.3-0.1,0.4-0.1c0.1,0,0.2-0.1,0.2-0.2c0-0.1,0.1-0.2,0.1-0.3
	c0-0.1,0-0.3,0-0.5v-1.7l-1.8-3.6c-0.2-0.3-0.3-0.5-0.4-0.7c-0.1-0.2-0.2-0.3-0.3-0.4c-0.1-0.1-0.1-0.1-0.2-0.2
	c-0.1,0-0.1,0-0.2-0.1v-0.4h3.5v0.4c-0.3,0-0.5,0.2-0.5,0.5c0,0.1,0,0.2,0.1,0.4c0.1,0.2,0.1,0.3,0.3,0.6l1.1,2.3l1.2-2.3
	c0.1-0.2,0.2-0.4,0.2-0.6c0-0.2,0.1-0.3,0.1-0.5c0-0.1,0-0.3-0.1-0.4c-0.1-0.1-0.2-0.1-0.4-0.1v-0.4h2.6L303,76.3L303,76.3z
	 M305.2,69.6c-0.2,0.5-0.4,1-0.7,1.3c-0.3,0.3-0.6,0.6-1,0.8c-0.4,0.2-0.9,0.4-1.4,0.4c-0.5,0.1-1,0.1-1.7,0.1h-2.9v-0.4
	c0.2,0,0.3-0.1,0.4-0.1c0.1,0,0.2-0.1,0.2-0.2c0-0.1,0.1-0.2,0.1-0.3c0-0.1,0-0.3,0-0.5v-5.4c0-0.2,0-0.4,0-0.5c0-0.1,0-0.2-0.1-0.3
	c0-0.1-0.1-0.2-0.2-0.2c-0.1-0.1-0.2-0.1-0.4-0.1v-0.4h3.4c0.7,0,1.3,0.1,1.8,0.2c0.5,0.1,0.9,0.3,1.3,0.5c0.4,0.2,0.7,0.5,0.9,0.8
	c0.2,0.3,0.4,0.7,0.5,1.1c0.1,0.4,0.2,0.9,0.2,1.4C305.4,68.5,305.3,69.1,305.2,69.6z"/>
<path class="st1" d="M295.7,48.6c-0.2,0.2-0.4,0.6-0.6,1c-0.1,0.4-0.3,1-0.3,1.7c-0.1,0.7-0.1,1.5-0.1,2.4c0,1.4,0.1,2.5,0.2,3.3
	c0.1,0.8,0.3,1.4,0.6,1.8c0.3,0.4,0.6,0.6,1.1,0.6c0.3,0,0.5-0.1,0.7-0.2c0.2-0.1,0.4-0.3,0.5-0.6c0.2-0.2,0.3-0.6,0.4-1
	c0.1-0.4,0.2-0.9,0.2-1.6c0-0.6,0.1-1.3,0.1-2.1c0-1.1,0-2.1-0.1-2.9c-0.1-0.8-0.2-1.4-0.4-1.8c-0.2-0.4-0.4-0.7-0.6-0.9
	c-0.2-0.2-0.5-0.3-0.8-0.3C296.3,48.3,296,48.4,295.7,48.6z"/>
<path class="st1" d="M418.2,18.7v4.5h-1.9c-0.3-0.9-0.6-1.5-0.8-1.8c-0.2-0.3-0.5-0.5-0.7-0.7c-0.3-0.2-0.8-0.3-1.5-0.3h-3v6.7h1.8
	c0.4,0,0.7-0.1,1-0.2c0.2-0.1,0.4-0.3,0.6-0.6c0.1-0.3,0.3-0.7,0.4-1.3h1.6v5.7H414c-0.1-0.5-0.3-1-0.4-1.2
	c-0.2-0.3-0.3-0.5-0.6-0.6c-0.2-0.1-0.5-0.2-1-0.2h-1.8v7.5h3c0.3,0,0.6,0,0.8-0.1c0.2,0,0.4-0.1,0.6-0.2c0.2-0.1,0.4-0.2,0.5-0.4
	c0.2-0.2,0.3-0.4,0.4-0.6c0.1-0.2,0.2-0.5,0.4-0.8c0.1-0.3,0.3-0.8,0.5-1.4h1.9l-0.3,5.1h-13.6V37c0.3-0.1,0.6-0.2,0.8-0.3
	c0.2-0.1,0.3-0.3,0.5-0.5c0.1-0.2,0.1-0.4,0.2-0.7c0-0.3,0-0.7,0-1.1V22.3c0-0.4,0-0.8,0-1.1c0-0.3-0.1-0.5-0.2-0.7
	c-0.1-0.2-0.2-0.3-0.4-0.5c-0.2-0.1-0.5-0.2-0.8-0.3v-0.9H418.2z"/>
<path class="st1" d="M429,18.7v0.9c-0.4,0-0.7,0.1-0.9,0.3c-0.2,0.2-0.3,0.4-0.3,0.7c0,0.2,0,0.4,0.1,0.5c0.1,0.2,0.2,0.4,0.3,0.7
	c0.2,0.3,0.4,0.7,0.8,1.3l1.3,2.2l1.7-2.5c0.4-0.5,0.6-1,0.7-1.3c0.1-0.3,0.2-0.6,0.2-0.9c0-0.3-0.1-0.5-0.3-0.7
	c-0.2-0.2-0.5-0.3-0.9-0.3v-0.9h5.7v0.9c-0.3,0.1-0.5,0.2-0.8,0.4c-0.2,0.2-0.5,0.4-0.8,0.8c-0.3,0.4-0.8,1.1-1.5,2.1l-3,4.3
	l4.5,7.5c0.2,0.2,0.3,0.5,0.5,0.8c0.1,0.2,0.3,0.5,0.5,0.7c0.1,0.2,0.3,0.3,0.4,0.4c0.1,0.1,0.2,0.2,0.3,0.2
	c0.1,0.1,0.2,0.1,0.3,0.1v0.9h-7.7V37c0.4-0.1,0.7-0.2,0.9-0.3c0.2-0.1,0.3-0.4,0.3-0.7c0-0.1,0-0.2-0.1-0.4c0-0.1-0.1-0.3-0.2-0.5
	c-0.1-0.2-0.1-0.4-0.2-0.5c-0.1-0.1-0.2-0.4-0.5-0.8l-1.9-3.2l-2.3,3.4c-0.2,0.3-0.3,0.5-0.4,0.8c-0.1,0.2-0.2,0.4-0.2,0.6
	c-0.1,0.2-0.1,0.4-0.1,0.7c0,0.2,0.1,0.5,0.3,0.7c0.2,0.2,0.5,0.3,0.9,0.3v0.9h-5.7V37c0.3-0.1,0.6-0.2,0.8-0.4
	c0.2-0.2,0.5-0.5,0.8-0.8c0.3-0.4,0.7-0.9,1.2-1.7l3.6-5.2l-3.5-5.9c-0.4-0.6-0.7-1.1-1-1.6c-0.3-0.4-0.5-0.8-0.7-1
	c-0.2-0.2-0.4-0.4-0.5-0.5c-0.1-0.1-0.3-0.2-0.5-0.2v-0.9L429,18.7L429,18.7z"/>
<path class="st1" d="M446.4,34.4c0,0.6,0,1.1,0.1,1.3c0.1,0.3,0.1,0.5,0.2,0.6c0.1,0.1,0.3,0.3,0.5,0.4c0.2,0.1,0.5,0.2,0.9,0.3v0.9
	h-7.5V37c0.4-0.1,0.6-0.2,0.8-0.3c0.2-0.1,0.4-0.3,0.4-0.5c0.1-0.2,0.2-0.4,0.2-0.7c0-0.3,0-0.7,0-1.1V22.3c0-0.4,0-0.8,0-1.1
	c0-0.3-0.1-0.5-0.2-0.7c-0.1-0.2-0.3-0.3-0.4-0.5c-0.2-0.1-0.5-0.2-0.8-0.3v-0.9h8.1c2.3,0,4.1,0.4,5.2,1.3c1.2,0.9,1.8,2.1,1.8,3.9
	c0,1.2-0.3,2.3-0.8,3.2c-0.5,0.9-1.4,1.6-2.4,2.1c-1,0.5-2.3,0.7-3.9,0.7c-0.9,0-1.6,0-2.2,0V34.4z M446.4,28.3h1.2
	c0.9,0,1.7-0.1,2.2-0.4c0.5-0.3,0.9-0.7,1.2-1.3c0.3-0.6,0.4-1.4,0.4-2.4c0-1-0.1-1.7-0.4-2.3c-0.3-0.6-0.7-1-1.2-1.2
	c-0.5-0.2-1.1-0.4-1.9-0.4c-0.7,0-1.1,0-1.5,0V28.3z"/>
<path class="st1" d="M467.3,38.1c-2.7,0-4.7-0.8-6.1-2.4c-1.4-1.6-2-4-2-7.2c0-2.1,0.3-3.9,1-5.4c0.7-1.5,1.6-2.6,2.9-3.4
	c1.3-0.8,2.8-1.2,4.6-1.2c2.7,0,4.8,0.8,6.2,2.4c1.4,1.6,2.1,4,2.1,7.2c0,1.8-0.2,3.3-0.6,4.6c-0.4,1.3-1,2.3-1.8,3.1
	c-0.8,0.8-1.7,1.4-2.7,1.8C469.8,37.9,468.6,38.1,467.3,38.1z M463.6,28.1c0,2.8,0.3,4.9,1,6.3c0.7,1.4,1.7,2.1,3.1,2.1
	c0.7,0,1.3-0.2,1.8-0.6c0.5-0.4,0.9-0.9,1.2-1.6c0.3-0.7,0.5-1.5,0.7-2.5c0.1-1,0.2-2,0.2-3.1c0-1.9-0.2-3.4-0.5-4.7
	c-0.3-1.2-0.7-2.2-1.3-2.8c-0.6-0.7-1.3-1-2.2-1c-1.4,0-2.3,0.7-3,1.9C463.9,23.4,463.6,25.4,463.6,28.1z"/>
<path class="st1" d="M487.1,37.9h-7.3V37c0.3-0.1,0.6-0.2,0.8-0.3c0.2-0.1,0.3-0.3,0.4-0.5c0.1-0.2,0.1-0.4,0.2-0.7
	c0-0.3,0-0.7,0-1.1V22.3c0-0.4,0-0.8,0-1.1c0-0.3-0.1-0.5-0.2-0.7c-0.1-0.2-0.2-0.3-0.4-0.5c-0.2-0.1-0.5-0.2-0.8-0.3v-0.9h8.1
	c1.1,0,2,0.1,2.8,0.2c0.8,0.1,1.4,0.4,2,0.7c0.5,0.3,0.9,0.6,1.2,1c0.3,0.4,0.6,0.9,0.8,1.4c0.2,0.5,0.3,1.1,0.3,1.8
	c0,0.9-0.2,1.7-0.5,2.4c-0.3,0.7-0.8,1.2-1.3,1.6c-0.5,0.4-1.3,0.8-2.2,1.2v0.1c0.7,0.3,1.2,0.7,1.7,1.2c0.4,0.5,0.9,1.1,1.2,1.9
	l0.9,1.9c0.4,0.9,0.8,1.5,1.2,1.9c0.4,0.4,0.8,0.7,1.4,0.8v0.9H492c-0.5-0.8-1.1-1.9-1.8-3.4l-1.1-2.4c-0.3-0.7-0.6-1.2-0.8-1.5
	c-0.2-0.3-0.5-0.5-0.7-0.6c-0.2-0.1-0.6-0.2-1.1-0.2h-0.8v4.5c0,0.7,0.1,1.2,0.1,1.5c0.1,0.3,0.2,0.5,0.4,0.7c0.2,0.2,0.5,0.3,1,0.5
	L487.1,37.9L487.1,37.9z M485.6,20.4v7.8h1.4c0.7,0,1.3-0.1,1.8-0.3c0.5-0.2,0.9-0.5,1.2-0.8c0.3-0.4,0.5-0.8,0.6-1.3
	c0.1-0.5,0.1-1,0.1-1.6c0-1.3-0.3-2.2-0.9-2.9c-0.6-0.6-1.5-1-2.6-1C486.4,20.4,485.9,20.4,485.6,20.4z"/>
<path class="st1" d="M502.5,37.9V37c0.4-0.1,0.7-0.2,0.9-0.3c0.2-0.1,0.4-0.3,0.5-0.5c0.1-0.2,0.2-0.4,0.2-0.8c0-0.3,0-0.7,0-1.1
	v-14h-1.1c-0.5,0-1,0.1-1.3,0.2c-0.3,0.1-0.6,0.3-0.8,0.6c-0.2,0.3-0.4,0.7-0.6,1.1c-0.2,0.5-0.3,0.9-0.4,1.3h-1.9v-4.9h16.3v4.9
	h-1.9c-0.2-0.6-0.3-1.1-0.4-1.4c-0.1-0.3-0.2-0.5-0.3-0.8c-0.1-0.2-0.2-0.4-0.4-0.5c-0.1-0.1-0.3-0.3-0.5-0.3
	c-0.2-0.1-0.3-0.2-0.6-0.2c-0.2,0-0.5-0.1-0.9-0.1h-1v14c0,0.5,0,0.9,0,1.1c0,0.3,0.1,0.5,0.2,0.6c0.1,0.2,0.2,0.3,0.3,0.4
	c0.1,0.1,0.2,0.2,0.4,0.3c0.2,0.1,0.4,0.1,0.8,0.2v0.9L502.5,37.9L502.5,37.9z"/>
<path class="st1" d="M415.1,60.7l0.8,1.1c0.2,0.3,0.4,0.5,0.6,0.7c0.2,0.2,0.4,0.4,0.6,0.5c0.2,0.2,0.4,0.3,0.6,0.3
	c0.2,0.1,0.4,0.1,0.6,0.1c0.3,0,0.5,0,0.7-0.1c0.2,0,0.4-0.1,0.6-0.2c0.2-0.1,0.4-0.3,0.7-0.5l0.9,1.1c-0.6,0.5-1,0.9-1.5,1.2
	c-0.4,0.3-0.9,0.5-1.2,0.6c-0.4,0.1-0.9,0.2-1.4,0.2c-0.6,0-1.1-0.1-1.6-0.2c-0.5-0.1-0.9-0.4-1.4-0.7c-0.4-0.3-0.8-0.8-1.2-1.4
	l-1.5-2.3c-1.4-0.1-2.5-0.5-3.4-1.2c-0.9-0.6-1.6-1.6-2.1-2.8c-0.5-1.2-0.8-2.8-0.8-4.7c0-1.9,0.3-3.5,0.9-4.8
	c0.6-1.3,1.5-2.4,2.6-3.1c1.2-0.7,2.5-1.1,4.1-1.1c2.5,0,4.4,0.7,5.6,2.2c1.2,1.4,1.9,3.6,1.9,6.4c0,2.3-0.4,4.2-1.2,5.7
	C418,59.2,416.8,60.2,415.1,60.7z M408.9,52.1c0,2.5,0.3,4.4,0.9,5.7c0.6,1.2,1.5,1.9,2.8,1.9c0.6,0,1.2-0.2,1.6-0.5
	c0.4-0.3,0.8-0.8,1.1-1.5c0.3-0.6,0.5-1.4,0.6-2.2c0.1-0.9,0.2-1.8,0.2-2.8c0-1.7-0.1-3.1-0.4-4.2c-0.3-1.1-0.7-2-1.2-2.6
	c-0.5-0.6-1.2-0.9-2-0.9c-1.2,0-2.1,0.6-2.7,1.7C409.2,47.8,408.9,49.6,408.9,52.1z"/>
<path class="st1" d="M434.6,46.8c0-0.6,0-1.1-0.1-1.3c0-0.2-0.2-0.4-0.3-0.6c-0.2-0.2-0.5-0.3-0.9-0.4v-0.8h5.5v0.8
	c-0.3,0.1-0.5,0.2-0.7,0.3c-0.2,0.1-0.3,0.2-0.4,0.4c-0.1,0.2-0.1,0.4-0.2,0.7c0,0.3,0,0.6,0,1v7.9c0,1-0.1,1.9-0.2,2.6
	c-0.2,0.7-0.4,1.3-0.8,1.8c-0.4,0.5-0.8,0.9-1.3,1.2c-0.5,0.3-1.1,0.5-1.8,0.6c-0.7,0.1-1.4,0.2-2.2,0.2c-1.2,0-2.2-0.1-3-0.4
	c-0.8-0.2-1.5-0.6-2-1.1c-0.5-0.5-0.9-1.1-1.1-1.8c-0.2-0.7-0.4-1.6-0.4-2.8v-8.2c0-0.4,0-0.7,0-1c0-0.3-0.1-0.5-0.2-0.7
	c-0.1-0.2-0.2-0.3-0.4-0.4c-0.2-0.1-0.4-0.2-0.8-0.3v-0.8h6.6v0.8c-0.3,0.1-0.6,0.2-0.7,0.3c-0.2,0.1-0.3,0.2-0.4,0.4
	c-0.1,0.2-0.1,0.4-0.2,0.6c0,0.2,0,0.6,0,1.1v8.3c0,0.7,0,1.3,0.1,1.8c0.1,0.5,0.3,1,0.5,1.4c0.2,0.4,0.5,0.7,0.9,0.9
	c0.4,0.2,0.9,0.3,1.5,0.3c0.9,0,1.5-0.2,1.9-0.5c0.4-0.4,0.7-0.8,0.9-1.5c0.2-0.6,0.3-1.5,0.3-2.8L434.6,46.8L434.6,46.8z"/>
<path class="st1" d="M449.4,55.5h-5.3l-0.4,1.2c-0.1,0.3-0.2,0.7-0.3,1c-0.1,0.3-0.1,0.7-0.1,1c0,0.8,0.4,1.3,1.3,1.3v0.8h-5.3V60
	c0.3,0,0.6-0.1,0.8-0.3c0.2-0.2,0.4-0.4,0.6-0.8c0.2-0.3,0.4-0.8,0.6-1.4l5.2-14h3.3l4.1,14.1c0.2,0.6,0.3,1.1,0.5,1.4
	c0.1,0.3,0.3,0.5,0.5,0.6c0.2,0.2,0.5,0.3,0.8,0.4v0.8h-6.9V60c0.4-0.1,0.8-0.2,1-0.4c0.2-0.2,0.3-0.5,0.3-0.8c0-0.3,0-0.6-0.1-0.9
	c-0.1-0.3-0.2-0.7-0.3-1.2L449.4,55.5z M444.6,54.1h4.5l-2-7.1L444.6,54.1z"/>
<path class="st1" d="M464.8,43.6v0.8c-0.3,0.1-0.5,0.2-0.7,0.3c-0.2,0.1-0.3,0.2-0.4,0.4c-0.1,0.2-0.1,0.4-0.2,0.6c0,0.3,0,0.6,0,1
	v12.6h2.4c0.5,0,0.9-0.1,1.1-0.2c0.3-0.2,0.5-0.4,0.8-0.7c0.2-0.3,0.4-0.7,0.5-1.2c0.2-0.5,0.3-1,0.4-1.4h1.7l-0.3,5.1h-11.9v-0.8
	c0.3-0.1,0.5-0.2,0.7-0.3c0.2-0.1,0.3-0.2,0.4-0.4c0.1-0.2,0.1-0.4,0.2-0.7c0-0.3,0.1-0.6,0.1-1V46.8c0-0.4,0-0.7,0-1
	c0-0.3-0.1-0.5-0.2-0.7c-0.1-0.2-0.2-0.3-0.4-0.4c-0.2-0.1-0.4-0.2-0.7-0.3v-0.8L464.8,43.6L464.8,43.6z"/>
<path class="st1" d="M478.5,57.7c0,0.3,0,0.6,0,0.8c0,0.3,0,0.5,0.1,0.6c0.1,0.2,0.1,0.3,0.2,0.4c0.1,0.1,0.2,0.2,0.4,0.3
	c0.2,0.1,0.4,0.1,0.6,0.2v0.8h-6.6V60c0.3-0.1,0.6-0.2,0.8-0.3c0.2-0.1,0.3-0.2,0.4-0.4c0.1-0.2,0.1-0.4,0.2-0.7c0-0.3,0-0.6,0-1
	V46.8c0-0.4,0-0.7,0-1c0-0.3-0.1-0.5-0.2-0.7c-0.1-0.2-0.2-0.3-0.4-0.4c-0.2-0.1-0.4-0.2-0.8-0.3v-0.8h6.6v0.8
	c-0.3,0.1-0.6,0.2-0.8,0.3c-0.2,0.1-0.3,0.2-0.4,0.4c-0.1,0.1-0.1,0.4-0.2,0.6c0,0.2,0,0.6,0,1.1V57.7z"/>
<path class="st1" d="M486.8,60.9V60c0.3-0.1,0.6-0.1,0.8-0.2c0.2-0.1,0.4-0.2,0.4-0.4c0.1-0.2,0.2-0.4,0.2-0.7c0-0.3,0-0.6,0-1V45.1
	h-1c-0.5,0-0.9,0.1-1.2,0.2c-0.3,0.1-0.5,0.3-0.7,0.6c-0.2,0.3-0.4,0.6-0.5,1c-0.1,0.4-0.2,0.8-0.3,1.2h-1.7v-4.4h14.7v4.4h-1.7
	c-0.1-0.6-0.3-1-0.4-1.2c-0.1-0.3-0.2-0.5-0.3-0.7c-0.1-0.2-0.2-0.3-0.3-0.5c-0.1-0.1-0.3-0.2-0.4-0.3c-0.1-0.1-0.3-0.1-0.5-0.2
	c-0.2,0-0.5-0.1-0.8-0.1h-0.9v12.6c0,0.4,0,0.8,0.1,1c0,0.2,0.1,0.4,0.1,0.6c0.1,0.1,0.1,0.2,0.3,0.3c0.1,0.1,0.2,0.2,0.4,0.2
	c0.2,0.1,0.4,0.1,0.7,0.2v0.8H486.8z"/>
<path class="st1" d="M508.9,54.3v3.5c0,0.4,0,0.8,0.1,1c0,0.2,0.1,0.4,0.1,0.6c0.1,0.1,0.2,0.2,0.2,0.3c0.1,0.1,0.2,0.2,0.4,0.2
	c0.2,0.1,0.4,0.1,0.7,0.2v0.8h-6.9V60c0.3-0.1,0.6-0.1,0.8-0.2c0.2-0.1,0.4-0.2,0.5-0.4c0.1-0.2,0.2-0.4,0.2-0.7
	c0-0.3,0.1-0.6,0.1-1v-3.5l-3.4-7.2c-0.3-0.6-0.5-1.1-0.7-1.4c-0.2-0.3-0.4-0.6-0.5-0.8c-0.1-0.2-0.3-0.3-0.4-0.3
	c-0.1-0.1-0.3-0.1-0.5-0.1v-0.8h6.6v0.8c-0.6,0.1-1,0.4-1,1c0,0.2,0.1,0.5,0.2,0.8c0.1,0.3,0.3,0.7,0.5,1.2l2.1,4.7l2.3-4.6
	c0.2-0.5,0.4-0.8,0.5-1.2c0.1-0.3,0.1-0.6,0.1-0.9c0-0.3-0.1-0.5-0.3-0.7c-0.2-0.2-0.4-0.3-0.7-0.3v-0.8h5v0.8
	c-0.2,0-0.4,0.1-0.5,0.2c-0.1,0.1-0.3,0.2-0.5,0.4c-0.2,0.2-0.4,0.5-0.6,0.9c-0.2,0.4-0.5,0.9-0.8,1.5L508.9,54.3z"/>
<path class="st1" d="M410.8,81.1c0,0.5,0,0.8,0.1,1c0,0.2,0.1,0.4,0.2,0.5c0.1,0.1,0.2,0.2,0.4,0.3c0.2,0.1,0.4,0.2,0.7,0.2v0.7
	h-5.9v-0.7c0.3-0.1,0.5-0.2,0.7-0.2c0.2-0.1,0.3-0.2,0.3-0.4c0.1-0.2,0.1-0.4,0.2-0.6c0-0.2,0-0.5,0-0.9v-9.6c0-0.4,0-0.7,0-0.9
	c0-0.2-0.1-0.4-0.2-0.6c-0.1-0.2-0.2-0.3-0.4-0.4c-0.1-0.1-0.4-0.2-0.7-0.2v-0.8h6.4c1.9,0,3.3,0.3,4.2,1c0.9,0.7,1.4,1.7,1.4,3.1
	c0,1-0.2,1.9-0.7,2.6c-0.4,0.7-1.1,1.3-1.9,1.7c-0.8,0.4-1.9,0.6-3.1,0.6c-0.7,0-1.3,0-1.8-0.1L410.8,81.1L410.8,81.1z M410.8,76.2
	h0.9c0.8,0,1.3-0.1,1.8-0.3c0.4-0.2,0.8-0.6,1-1c0.2-0.5,0.3-1.1,0.3-1.9c0-0.8-0.1-1.4-0.3-1.9c-0.2-0.4-0.5-0.8-0.9-1
	c-0.4-0.2-0.9-0.3-1.6-0.3c-0.5,0-0.9,0-1.2,0L410.8,76.2L410.8,76.2z"/>
<path class="st1" d="M426.8,83.8H421v-0.7c0.3-0.1,0.5-0.2,0.7-0.2c0.1-0.1,0.3-0.2,0.3-0.4c0.1-0.2,0.1-0.4,0.2-0.6
	c0-0.2,0-0.5,0-0.9v-9.6c0-0.3,0-0.6,0-0.9c0-0.2-0.1-0.4-0.1-0.6c-0.1-0.2-0.2-0.3-0.4-0.4c-0.2-0.1-0.4-0.2-0.7-0.2v-0.8h6.5
	c0.9,0,1.6,0.1,2.2,0.2c0.6,0.1,1.1,0.3,1.6,0.6c0.4,0.2,0.7,0.5,1,0.8c0.3,0.3,0.5,0.7,0.6,1.1c0.1,0.4,0.2,0.9,0.2,1.5
	c0,0.7-0.1,1.4-0.4,1.9c-0.3,0.5-0.6,1-1,1.3c-0.4,0.4-1,0.7-1.7,1V77c0.5,0.2,1,0.6,1.4,0.9c0.4,0.4,0.7,0.9,1,1.5l0.7,1.5
	c0.3,0.7,0.6,1.2,0.9,1.5c0.3,0.3,0.7,0.5,1.1,0.6v0.7h-4.2c-0.4-0.6-0.9-1.5-1.5-2.7l-0.8-1.9c-0.3-0.6-0.5-1-0.7-1.2
	c-0.2-0.2-0.4-0.4-0.6-0.5c-0.2-0.1-0.5-0.1-0.9-0.1h-0.6V81c0,0.6,0,1,0.1,1.2c0,0.2,0.1,0.4,0.3,0.5c0.1,0.1,0.4,0.2,0.8,0.4
	L426.8,83.8L426.8,83.8z M425.6,69.9v6.2h1.1c0.6,0,1.1-0.1,1.5-0.2c0.4-0.2,0.7-0.4,0.9-0.7c0.2-0.3,0.4-0.6,0.5-1
	c0.1-0.4,0.1-0.8,0.1-1.3c0-1-0.2-1.8-0.7-2.3c-0.5-0.5-1.2-0.8-2.1-0.8C426.2,69.9,425.8,69.9,425.6,69.9z"/>
<path class="st1" d="M443,84c-2.2,0-3.8-0.6-4.9-1.9c-1.1-1.3-1.6-3.2-1.6-5.8c0-1.7,0.3-3.1,0.8-4.3c0.5-1.2,1.3-2.1,2.3-2.7
	c1-0.6,2.2-0.9,3.7-0.9c2.2,0,3.9,0.6,5,1.9c1.1,1.3,1.7,3.2,1.7,5.7c0,1.4-0.2,2.6-0.5,3.6c-0.3,1-0.8,1.8-1.4,2.5
	c-0.6,0.6-1.3,1.1-2.2,1.4C445,83.9,444,84,443,84z M440,76c0,2.2,0.3,3.9,0.8,5c0.5,1.1,1.4,1.7,2.5,1.7c0.6,0,1.1-0.2,1.5-0.5
	c0.4-0.3,0.7-0.7,1-1.3c0.2-0.5,0.4-1.2,0.5-2c0.1-0.8,0.2-1.6,0.2-2.5c0-1.5-0.1-2.7-0.4-3.7c-0.2-1-0.6-1.8-1-2.3
	c-0.5-0.5-1.1-0.8-1.8-0.8c-1.1,0-1.9,0.5-2.4,1.5C440.3,72.3,440,73.9,440,76z"/>
<path class="st1" d="M458.8,68.6c1.2,0,2.3,0.1,3.1,0.3c0.8,0.2,1.6,0.5,2.2,0.9c0.6,0.4,1.1,0.9,1.5,1.5c0.4,0.6,0.7,1.2,0.9,2
	c0.2,0.8,0.3,1.6,0.3,2.6c0,1.2-0.1,2.2-0.4,3.1c-0.3,0.9-0.7,1.7-1.2,2.4c-0.5,0.6-1.1,1.1-1.8,1.4c-0.7,0.4-1.5,0.7-2.4,0.8
	c-0.8,0.1-1.8,0.2-3,0.2h-5v-0.7c0.3-0.1,0.5-0.2,0.6-0.2c0.2-0.1,0.3-0.2,0.4-0.4c0.1-0.2,0.1-0.4,0.2-0.6c0-0.2,0-0.5,0-0.9v-9.6
	c0-0.4,0-0.7,0-0.9c0-0.2-0.1-0.4-0.1-0.6c-0.1-0.2-0.2-0.3-0.3-0.4c-0.2-0.1-0.4-0.2-0.7-0.2v-0.8L458.8,68.6L458.8,68.6z
	 M457.6,82.5c0.1,0,0.5,0,1,0c0.8,0,1.5-0.1,2-0.4c0.4-0.2,0.8-0.4,1.1-0.7c0.5-0.5,0.8-1.2,1.1-2c0.3-0.9,0.4-2,0.4-3.3
	c0-1.4-0.2-2.6-0.6-3.5c-0.4-0.9-0.9-1.6-1.6-2.1c-0.7-0.4-1.5-0.7-2.4-0.7c-0.5,0-0.8,0-1,0L457.6,82.5L457.6,82.5z"/>
<path class="st1" d="M479.6,71.4c0-0.6,0-0.9-0.1-1.2c-0.1-0.2-0.1-0.4-0.3-0.5c-0.1-0.1-0.4-0.3-0.8-0.4v-0.7h4.9v0.7
	c-0.3,0.1-0.5,0.1-0.6,0.2c-0.1,0.1-0.3,0.2-0.4,0.4c-0.1,0.2-0.1,0.3-0.1,0.6c0,0.2,0,0.5,0,0.9v7c0,0.9-0.1,1.7-0.2,2.3
	c-0.1,0.6-0.4,1.1-0.7,1.6c-0.3,0.4-0.7,0.8-1.2,1c-0.5,0.3-1,0.5-1.6,0.6c-0.6,0.1-1.2,0.2-1.9,0.2c-1,0-1.9-0.1-2.7-0.3
	c-0.7-0.2-1.3-0.5-1.8-1c-0.5-0.4-0.8-1-1-1.6c-0.2-0.6-0.3-1.5-0.3-2.5v-7.2c0-0.4,0-0.6,0-0.9c0-0.2-0.1-0.4-0.1-0.6
	c-0.1-0.1-0.2-0.3-0.4-0.4c-0.2-0.1-0.4-0.2-0.6-0.2v-0.7h5.8v0.7c-0.3,0.1-0.5,0.2-0.7,0.3c-0.1,0.1-0.3,0.2-0.3,0.3
	c-0.1,0.1-0.1,0.3-0.2,0.5c0,0.2,0,0.5,0,0.9v7.4c0,0.6,0,1.1,0.1,1.6c0.1,0.5,0.2,0.9,0.4,1.2c0.2,0.4,0.5,0.6,0.8,0.8
	c0.3,0.2,0.8,0.3,1.3,0.3c0.8,0,1.3-0.2,1.7-0.5c0.4-0.3,0.6-0.7,0.8-1.3c0.2-0.5,0.2-1.4,0.2-2.5L479.6,71.4L479.6,71.4z"/>
<path class="st1" d="M497.1,68.9v3.2h-1.5c-0.2-0.8-0.5-1.5-0.8-1.9c-0.4-0.4-0.9-0.6-1.5-0.6c-1.2,0-2,0.6-2.6,1.7
	c-0.6,1.1-0.9,2.8-0.9,5c0,2.1,0.3,3.6,0.8,4.7c0.5,1.1,1.3,1.6,2.4,1.6c0.5,0,1-0.1,1.3-0.3c0.3-0.2,0.6-0.5,0.8-0.8
	c0.2-0.4,0.4-0.9,0.5-1.5h1.5v3.4c-0.8,0.2-1.6,0.3-2.2,0.4c-0.7,0.1-1.4,0.1-2.1,0.1c-1.5,0-2.8-0.3-3.8-0.8
	c-1-0.5-1.7-1.4-2.1-2.5c-0.5-1.1-0.7-2.6-0.7-4.3c0-1.6,0.3-3,0.8-4.2c0.5-1.2,1.3-2.1,2.4-2.8c1.1-0.6,2.3-1,3.8-1
	c0.7,0,1.4,0.1,2,0.1C495.8,68.6,496.4,68.7,497.1,68.9z"/>
<path class="st1" d="M503.1,83.8v-0.7c0.3-0.1,0.6-0.1,0.7-0.2c0.2-0.1,0.3-0.2,0.4-0.4c0.1-0.2,0.1-0.4,0.2-0.6c0-0.2,0-0.5,0-0.9
	V69.9h-0.9c-0.4,0-0.8,0.1-1,0.2c-0.2,0.1-0.4,0.3-0.6,0.5c-0.2,0.2-0.3,0.5-0.5,0.9c-0.1,0.4-0.2,0.7-0.3,1.1h-1.5v-3.9h13v3.9
	h-1.5c-0.1-0.5-0.3-0.9-0.3-1.1c-0.1-0.2-0.2-0.4-0.3-0.6c-0.1-0.2-0.2-0.3-0.3-0.4c-0.1-0.1-0.2-0.2-0.3-0.3
	c-0.1-0.1-0.3-0.1-0.5-0.2c-0.2,0-0.4-0.1-0.7-0.1h-0.8V81c0,0.4,0,0.7,0,0.9c0,0.2,0,0.4,0.1,0.5c0,0.1,0.1,0.2,0.2,0.3
	c0.1,0.1,0.2,0.2,0.4,0.2c0.1,0.1,0.3,0.1,0.6,0.2v0.7L503.1,83.8L503.1,83.8z"/>
</svg>
