<?xml version="1.0" encoding="utf-8"?>
<!-- Generator: Adobe Illustrator 23.1.0, SVG Export Plug-In . SVG Version: 6.00 Build 0)  -->
<svg version="1.1" id="Layer_1" xmlns="http://www.w3.org/2000/svg" xmlns:xlink="http://www.w3.org/1999/xlink" x="0px" y="0px"
	 viewBox="0 0 55 60" style="enable-background:new 0 0 55 60;" xml:space="preserve">
<style type="text/css">
	.st0{fill:none;stroke:#C41135;stroke-miterlimit:10;}
	.st1{fill:none;stroke:#C41135;stroke-linecap:round;stroke-miterlimit:10;}
</style>
<g>
	<path class="st0" d="M20.6,20.9c0-0.7-0.2-1.8-0.5-2.4c-0.4-1-1-1.9-1.9-2.6c-0.9-0.7-1.9-1.1-2.9-1.2c-1.1-0.1-2.2,0-3.1,0.4
		c-1,0.4-1.8,1.1-2.5,2c-0.5,0.7-0.9,1.6-1,2.5"/>
	<path class="st1" d="M34.4,20.9c-0.1-0.9-0.3-2-0.7-2.7c-0.5-1.1-1.4-2.1-2.4-2.8c-1-0.7-2.3-1.1-3.5-1.1c-1.2,0-2.5,0.2-3.6,0.8
		c-1.1,0.6-2,1.5-2.6,2.6c-0.6,1-0.9,2.1-1,3.2"/>
	<path class="st1" d="M44.7,20.1c0.1-0.8,0.2-2.1,0-2.8c-0.2-1.1-0.7-2.1-1.5-2.9c-0.7-0.8-1.7-1.4-2.7-1.7
		c-1.1-0.3-2.2-0.3-3.2-0.1s-2,0.8-2.8,1.6c-0.6,0.6-1.1,1.9-1.4,2.8"/>
	<path class="st1" d="M13.9,14.4c0.4-1,1.3-2.3,2.1-3.1c0.8-0.8,1.8-1.3,2.9-1.7c1.1-0.3,2.2-0.4,3.4-0.1c1.2,0.2,2.3,0.8,3.2,1.5
		c0.9,0.8,1.6,1.8,2,2.9"/>
	<path class="st1" d="M38.3,12.4c-1-2.2-3.4-3.6-6.2-3.5c-2.2,0.1-4.5,1.3-5.5,3.1"/>
	<path class="st0" d="M43.1,14.3c1.5,0.2,3,0.5,4.2,0.8c0.1,0,0.2,0.1,0.3,0.1c2.9,0.8,4.5,1.8,4.5,2.8c0,2.7-11.2,4.9-25,4.9
		s-25-2.2-25-4.9c0-1.8,4.8-3.3,11.9-4.2"/>
	<path class="st0" d="M52.1,17.7c0.7,2.3,1.5,4.8,1.5,7.3c0,14-11.8,25.3-26.3,25.3S1,39,1,25c0-2.5,0.5-4.9,1.2-7.2"/>
	<path class="st1" d="M37.9,14.2c0,0,3.7-0.5,4.9,3.4"/>
	<path class="st1" d="M31.6,11.2c0,0,1.7-1,3.1,0.6"/>
	<path class="st1" d="M10.1,16.6c-2.2,0.5-3.4,1-3.4,1.6c0,0.4,0.7,0.9,2,1.2c2.4,0.7,6.7,1.2,11.9,1.5c2,0.1,4.1,0.1,6.3,0.1"/>
</g>
</svg>
