<svg width="120" height="120" viewBox="0 0 120 120" fill="none" xmlns="http://www.w3.org/2000/svg">
<path d="M31.2076 81.2802C31.2076 81.2802 14.752 75.3923 11.8056 79.4263C9.12776 83.0928 5.54034 94.5027 5.54034 94.5027L31.2076 81.2802Z" fill="#C41135"/>
<path d="M112.725 26.7887L81.0805 45.0586C65.8789 53.8336 63.6592 62.9743 63.3148 69.0863C63.2011 71.1165 63.1748 73.3131 63.1451 75.6432C63.0363 84.6043 62.8996 95.7588 57.0447 99.6181C53.7407 101.798 48.8564 103.815 35.5992 103.815H35.5976C29.128 103.815 20.9645 103.342 10.6405 102.372C9.68642 102.283 9.21678 101.645 9.10308 101.126H9.10143C8.96301 100.485 9.2794 99.9048 9.99128 99.4928C12.5735 98.0032 17.4018 95.8263 22.993 93.3067C41.1691 85.1201 55.2122 78.3918 57.0216 72.5419C57.249 71.8069 57.4566 70.8825 57.6989 69.813C59.1836 63.2297 61.9504 50.9745 76.7236 42.4451L110.376 23.0167L108.18 19.4902L74.6505 38.8462C58.3053 48.2852 55.1628 62.2064 53.6517 68.8984C53.5083 69.5345 53.3798 70.1047 53.2562 70.5924C43.0311 79.14 27.5428 86.8009 10.2006 94.6794C9.33708 95.1177 8.56422 95.5248 7.91991 95.8988H7.92155C5.65243 97.2105 4.52858 99.6082 5.05096 102.011C5.58652 104.458 7.67767 106.264 10.2566 106.506C20.7091 107.488 29.0012 107.968 35.6025 107.968H35.6042C47.2036 107.968 54.0785 106.554 59.3352 103.084C67.0275 98.0098 67.1791 85.6375 67.301 75.6943C67.3274 73.4136 67.3554 71.2565 67.4642 69.3203C67.6685 65.7296 68.1414 57.3254 83.1602 48.6543L114.925 30.3168L112.725 26.7887Z" fill="#C41135"/>
</svg>
