<?xml version="1.0" encoding="utf-8"?>
<!-- Generator: Adobe Illustrator 23.1.0, SVG Export Plug-In . SVG Version: 6.00 Build 0)  -->
<svg version="1.1" id="Layer_1" xmlns="http://www.w3.org/2000/svg" xmlns:xlink="http://www.w3.org/1999/xlink" x="0px" y="0px"
	 viewBox="0 0 55 60" style="enable-background:new 0 0 55 60;" xml:space="preserve">
<style type="text/css">
	.st0{fill:none;stroke:#C41135;stroke-linecap:round;stroke-miterlimit:10;}
	.st1{fill:none;stroke:#C41135;stroke-miterlimit:10;}
</style>
<path class="st0" d="M32.8,30.6l8.8-18.7c0,0,1.5-2.8,3.9-2.3c0,0,2.3,0,2.8,2.5l-1.3,16.6"/>
<path class="st1" d="M47.4,23.1l0.3,0.1c2.8,0.8,4.5,1.8,4.5,2.8c0,2.7-11.1,4.9-24.7,4.9S2.8,28.7,2.8,26c0-2.7,11.1-4.9,24.7-4.9
	c3.2,0,6.3,0.1,9.2,0.3l0.4,0"/>
<path class="st0" d="M27.4,28.7c-11.1,0-20-1.3-20-2.8c0-1.5,9-2.8,20-2.8c2.6,0,5,0.1,7.3,0.2"/>
<path class="st1" d="M52.1,25.7c0.7,2.3,1.5,4.7,1.5,7.2c0,13.7-11.7,24.9-26.1,24.9c-14.4,0-26.1-11.1-26.1-24.9
	c0-2.5,0.5-4.9,1.2-7.1"/>
<path class="st1" d="M34.7,5.3c0.1,0,0.2,0.1,0.3,0.1c0.1,0.1,0.1,0.2,0.2,0.3c0.5,2.9-0.7,6.4-3.4,9.1c-2.6,2.6-6,3.8-8.8,3.4
	c-0.1,0-0.2-0.1-0.3-0.1c-0.1-0.1-0.1-0.2-0.1-0.3c-0.4-3,0.8-6.4,3.5-9C28.6,6.3,31.8,5.1,34.7,5.3z"/>
<path class="st1" d="M13.8,2.5c-0.1,0-0.1,0-0.2,0.1c-0.1,0-0.1,0.1-0.1,0.2c-0.4,1.8,0.3,4,2,5.7c1.6,1.6,3.7,2.3,5.4,2
	c0.1,0,0.1,0,0.2-0.1c0,0,0.1-0.1,0.1-0.2c0.3-1.8-0.4-4-2.1-5.6C17.6,3,15.6,2.3,13.8,2.5z"/>
</svg>
