<?xml version="1.0" encoding="utf-8"?>
<!-- Generator: Adobe Illustrator 23.1.0, SVG Export Plug-In . SVG Version: 6.00 Build 0)  -->
<svg version="1.1" id="Layer_1" xmlns="http://www.w3.org/2000/svg" xmlns:xlink="http://www.w3.org/1999/xlink" x="0px" y="0px"
	 viewBox="0 0 55 60" style="enable-background:new 0 0 55 60;" xml:space="preserve">
<style type="text/css">
	.st0{fill:none;stroke:#C41135;stroke-linecap:round;stroke-miterlimit:10;}
	.st1{fill:none;stroke:#C41135;stroke-miterlimit:10;}
</style>
<g>
	<path class="st0" d="M13.2,16.8c-4.1,0.4-6.7,1-6.7,1.8c0,1.4,9.2,2.7,20.5,2.9"/>
	<path class="st1" d="M19.2,52.7l10.5-16.6c0.5-0.8,1.8-0.8,2.4,0l10.5,16.6c0.5,0.8-0.1,1.9-1.2,1.9c-4.9,0-16-0.1-20.9-0.1
		C19.3,54.6,18.6,53.6,19.2,52.7z"/>
	<path class="st1" d="M41,50.2l4.7-8.2c0.1-0.1,0.2-0.2,0.3-0.3c0.1-0.1,0.3-0.1,0.4-0.1c0.1,0,0.3,0,0.4,0.1
		c0.1,0.1,0.2,0.2,0.3,0.3l6.5,11.3c0.1,0.1,0.1,0.3,0.1,0.4c0,0.2,0,0.3-0.1,0.4c-0.1,0.1-0.2,0.2-0.3,0.3
		c-0.1,0.1-0.3,0.1-0.4,0.1c-2.5,0-7.7,0-11.1-0.1"/>
	<path class="st0" d="M10.9,20.1L23.7,5.9c1.1-1.2,2.4-1.3,3.3,0l12.6,14.2"/>
	<path class="st1" d="M34.9,14.6c2.1,0.3,6.3,0.7,8.6,1.3c0.1,0,0.2,0.1,0.3,0.1c2.6,0.7,4.2,1.7,4.2,2.6c0,2.5-10.3,4.6-22.9,4.6
		c-12.6,0-22.9-2.1-22.9-4.6c0-1.8,6.2-3.4,13.8-4.2"/>
	<path class="st1" d="M2.1,18.5C1.5,20.6,1,22.9,1,25.2c0,12.5,8.3,22.2,20.9,23.1"/>
	<path class="st1" d="M47.9,18.4c0.7,2.2,1.4,4.4,1.4,6.8c0,8.4-4.5,15.7-11.2,19.9"/>
</g>
</svg>
