<?xml version="1.0" encoding="utf-8"?>
<!-- Generator: Adobe Illustrator 23.1.0, SVG Export Plug-In . SVG Version: 6.00 Build 0)  -->
<svg version="1.1" id="Layer_1" xmlns="http://www.w3.org/2000/svg" xmlns:xlink="http://www.w3.org/1999/xlink" x="0px" y="0px"
	 viewBox="0 0 110 110" style="enable-background:new 0 0 110 110;" xml:space="preserve">
<style type="text/css">
	.st0{fill:#C41135;}
</style>
<path class="st0" d="M8.8,86.7c1.5-1.6,2.8-3,4.1-4.5c2.7-3.2,5.3-6.5,7.9-9.7c2.9-3.6,5.9-7.1,8.9-10.6c2-2.3,4.1-4.6,6-7
	c3.3-3.9,6.6-7.8,9.9-11.8c3.3-4,7.5-5.4,12.5-4.3c2.3,0.5,4.3,1.8,5.9,3.6c2.1,2.3,4.2,4.7,6.2,7.1c2.3,2.7,4.5,5.6,6.8,8.3
	c1.5,1.8,3.1,3.4,4.5,5.2c1.6,1.9,3.1,4,4.7,5.9c2.4,2.8,4.8,5.5,7.2,8.3c2.6,3.1,5.1,6.2,7.8,9.4C70.5,86.7,39.8,86.7,8.8,86.7z
	 M31.8,82.4c1.4,0,2.7-1.4,2.7-2.8c0-1.4-1.4-2.7-2.8-2.7c-1.4,0-2.6,1.3-2.6,2.7C29.1,81,30.4,82.4,31.8,82.4z M41.9,65.6
	c-1.4,0-2.6,1.2-2.7,2.6c0,1.4,1.3,2.7,2.7,2.7c1.4,0,2.7-1.3,2.7-2.6C44.6,66.9,43.3,65.6,41.9,65.6z M55.7,51.7
	c0-1.5-1.1-2.7-2.7-2.7c-1.5,0-2.6,1.1-2.6,2.6c0,1.5,1.1,2.7,2.7,2.7C54.6,54.3,55.7,53.2,55.7,51.7z M53.5,68.3
	c0-1.4-1.3-2.7-2.7-2.7c-1.5,0-2.4,1.1-2.4,2.7c0,1.6,0.9,2.6,2.4,2.6C52.1,71,53.5,69.7,53.5,68.3z M55.3,58
	c-1.3,0-2.6,1.4-2.5,2.6c0.1,1.3,1.5,2.6,2.8,2.5c1.3-0.1,2.6-1.4,2.6-2.6C58.1,59.3,56.5,57.9,55.3,58z M67,60.6
	c0-1.2-1.4-2.4-2.7-2.4c-1.3,0-2.7,1.3-2.7,2.4c0,1.4,1.3,2.6,2.7,2.6C65.7,63.2,67,61.9,67,60.6z M59.7,65.6
	c-1.3,0-2.6,1.4-2.5,2.8c0.1,1.4,1.3,2.6,2.6,2.5c1.3,0,2.6-1.4,2.5-2.8C62.3,66.9,61,65.6,59.7,65.6z M74.6,69.6
	c0-1.4-1.3-2.7-2.6-2.7c-1.2,0-2.5,1.3-2.5,2.6c0,1.4,1,2.4,2.5,2.4C73.4,72,74.6,71,74.6,69.6z M50.2,58.2c0-1.3-1.2-2.7-2.4-2.8
	c-1.4,0-2.7,1.3-2.7,2.7c0,1.3,1.1,2.4,2.6,2.4C49,60.7,50.2,59.6,50.2,58.2z"/>
<path class="st0" d="M33.8,90.9c10.2,0,20.4,0,30.6,0c1.1,0,2.1,0.2,2.7,1.3c0.9,1.5,0.2,3.2-1.5,3.5c-0.5,0.1-1.1,0.1-1.6,0.1
	c-20.1,0-40.2,0-60.3,0c-0.5,0-1.1,0-1.6-0.1c-1.2-0.2-2.1-1.3-2-2.4c0.1-1.2,1-2.2,2.3-2.3c0.5,0,1.1,0,1.7,0
	C13.9,90.9,23.9,90.9,33.8,90.9z"/>
<path class="st0" d="M97.4,90.9c3.2,0,6.4,0,9.6,0c1.8,0,3,1.1,3,2.5c0,1.2-1.3,2.3-2.9,2.3c-6.5,0-13,0-19.6,0
	c-1.8,0-2.9-1-2.9-2.4c0.1-1.4,1.2-2.4,3-2.4C90.8,90.9,94.1,90.9,97.4,90.9z"/>
<path class="st0" d="M76.7,95.8c-0.4,0-0.8,0-1.2-0.1c-1.3-0.2-2.2-1.2-2.2-2.4c0.1-1.3,1.1-2.3,2.4-2.4c0.6,0,1.3,0,1.9,0
	c1.5,0,2.6,1,2.7,2.4c0.1,1.2-1.1,2.3-2.5,2.4C77.4,95.8,77,95.7,76.7,95.8C76.7,95.8,76.7,95.8,76.7,95.8z"/>
<path class="st0" d="M54.3,31c0,1.3-1.5,2.6-2.8,2.5c-1.3-0.1-2.5-1.4-2.5-2.7c0-1.4,1.3-2.6,2.7-2.5C53.1,28.5,54.4,29.8,54.3,31z"
	/>
<path class="st0" d="M51.7,24.7c-1.3,0-2.6-1.2-2.6-2.5c0-1.4,1.2-2.6,2.6-2.6c1.4,0,2.7,1.2,2.6,2.6C54.3,23.5,53,24.7,51.7,24.7z"
	/>
<path class="st0" d="M55.2,2.5c1.6,0,2.5,0.9,2.5,2.3c0,1.4-1.2,2.7-2.6,2.6c-1.3,0-2.5-1.3-2.5-2.6C52.5,3.4,53.6,2.5,55.2,2.5z"/>
<path class="st0" d="M60.1,27.3c-1.2,0-2.4-1.2-2.4-2.3c0-1.2,1.2-2.5,2.4-2.5c1.2,0,2.5,1.3,2.5,2.5C62.6,26.1,61.3,27.3,60.1,27.3
	z"/>
</svg>
