<?xml version="1.0" encoding="utf-8"?>
<!-- Generator: Adobe Illustrator 23.1.0, SVG Export Plug-In . SVG Version: 6.00 Build 0)  -->
<svg version="1.1" id="Layer_1" xmlns="http://www.w3.org/2000/svg" xmlns:xlink="http://www.w3.org/1999/xlink" x="0px" y="0px"
	 viewBox="0 0 110 110" style="enable-background:new 0 0 110 110;" xml:space="preserve">
<style type="text/css">
	.st0{fill:#C41135;}
</style>
<path class="st0" d="M54.2,105c-3.9-5.1-7.7-10.1-11.4-15.1c-5.5-7.5-11.1-15-16.3-22.6c-3.5-5-6.3-10.5-8-16.4
	c-3.1-10.6-1.1-20.5,5.1-29.4C31.4,10,42.6,4.6,56.4,5c20,0.6,36.1,17.4,36,37.4c0,4.6-1.6,8.7-3.5,12.8
	c-3.6,7.7-8.5,14.7-13.5,21.5c-6.1,8.3-12.4,16.4-18.6,24.7C55.8,102.5,55,103.8,54.2,105z M54.6,58.5c9.5,0,17-7.4,17-16.7
	c0-9.1-7.6-16.7-16.8-16.7c-9.4,0-17,7.4-17,16.6C37.8,51,45.3,58.5,54.6,58.5z"/>
</svg>
