<svg width="120" height="121" viewBox="0 0 120 121" fill="none" xmlns="http://www.w3.org/2000/svg">
<path d="M112.286 66.8978C113.821 65.0903 114.769 62.8583 115 60.4985C114.77 58.1387 113.822 55.9067 112.286 54.1007C111.429 53.025 110.776 51.8002 110.361 50.4887C110.23 49.0646 110.367 47.6283 110.764 46.2529C111.478 44.0452 111.498 41.6717 110.819 39.4518C109.711 37.3765 107.997 35.6877 105.906 34.612C104.68 33.9334 103.587 33.0388 102.679 31.9722C102.031 30.7201 101.622 29.3583 101.469 27.9571C101.264 25.6307 100.363 23.4215 98.8845 21.614C97.077 20.1351 94.8678 19.2344 92.5414 19.029C91.1386 18.8769 89.7784 18.4661 88.5262 17.8194C87.4582 16.9111 86.5635 15.8187 85.8865 14.5924C84.8093 12.5019 83.1219 10.7887 81.0466 9.67951C78.8268 9.00093 76.4533 9.02071 74.2441 9.73428C72.8702 10.1314 71.4339 10.2683 70.0083 10.1375C68.6937 9.72211 67.4689 9.06331 66.3978 8.19454C64.5857 6.67154 62.3552 5.73279 59.9985 5.5C57.6432 5.73279 55.4127 6.67154 53.6007 8.19454C52.5295 9.06331 51.3047 9.72211 49.9887 10.1375C48.5646 10.2683 47.1283 10.1314 45.7529 9.73428C43.5452 9.02071 41.1717 9.00093 38.9518 9.67951C36.8765 10.7871 35.1877 12.5019 34.112 14.5924C33.4334 15.8202 32.5388 16.9126 31.4722 17.8194C30.2201 18.4676 28.8583 18.8769 27.4571 19.029C25.1307 19.2344 22.9215 20.1351 21.114 21.614C19.6351 23.4215 18.7344 25.6307 18.529 27.9571C18.3769 29.3583 17.9661 30.7201 17.3194 31.9722C16.4111 33.0403 15.3187 33.9334 14.0924 34.612C12.0019 35.6877 10.2887 37.3765 9.17951 39.4518C8.50093 41.6717 8.52071 44.0452 9.23428 46.2529C9.63139 47.6268 9.76832 49.063 9.63747 50.4887C9.22211 51.8002 8.56939 53.025 7.7128 54.1007C6.17763 55.9067 5.22974 58.1387 5 60.4985C5.22974 62.8583 6.17763 65.0903 7.7128 66.8978C8.56939 67.9735 9.22211 69.1968 9.63747 70.5083C9.76984 71.9324 9.63139 73.3687 9.23428 74.7441C8.52071 76.9533 8.50093 79.3268 9.17951 81.5466C10.2871 83.6219 12.0019 85.3093 14.0924 86.3865C15.3202 87.0635 16.4126 87.9597 17.3194 89.0262C17.9676 90.2784 18.3769 91.6386 18.529 93.0414C18.7344 95.3678 19.6351 97.577 21.114 99.3845C22.9215 100.863 25.1307 101.764 27.4571 101.969C28.8583 102.122 30.2201 102.532 31.4722 103.179C32.5403 104.087 33.4334 105.18 34.112 106.406C35.1877 108.498 36.8765 110.211 38.9518 111.319C41.1717 111.998 43.5452 111.978 45.7529 111.264C47.1268 110.867 48.563 110.73 49.9887 110.861C51.3032 111.278 52.5295 111.937 53.6007 112.804C55.4127 114.327 57.6432 115.267 59.9985 115.5C62.3552 115.267 64.5857 114.328 66.3978 112.804C67.4689 111.935 68.6937 111.276 70.0083 110.861C71.4324 110.732 72.8687 110.867 74.2441 111.264C76.4533 111.978 78.8268 111.998 81.0466 111.319C83.1219 110.211 84.8093 108.497 85.8865 106.406C86.565 105.18 87.4597 104.087 88.5262 103.179C89.7784 102.531 91.1386 102.122 92.5414 101.969C94.8678 101.764 97.077 100.863 98.8845 99.3845C100.363 97.577 101.264 95.3678 101.469 93.0414C101.622 91.6386 102.032 90.2784 102.679 89.0262C103.586 87.9582 104.68 87.0635 105.906 86.3865C107.998 85.3093 109.711 83.6219 110.819 81.5466C111.498 79.3268 111.478 76.9533 110.764 74.7441C110.367 73.3702 110.23 71.9339 110.361 70.5083C110.776 69.1968 111.429 67.9735 112.286 66.8978ZM109.259 64.8438C108.102 66.3136 107.253 68.0039 106.767 69.813C106.516 71.7148 106.653 73.6486 107.17 75.4957C107.666 76.9974 107.762 78.6026 107.446 80.153C106.563 81.4995 105.343 82.5934 103.907 83.3252C102.255 84.2442 100.802 85.4842 99.6361 86.9738C98.6852 88.6322 98.0811 90.4656 97.8575 92.3644C97.7403 93.9543 97.2017 95.4849 96.2995 96.801C94.9849 97.7032 93.4528 98.2418 91.8628 98.359C89.964 98.5827 88.1307 99.1882 86.4722 100.138C84.9873 101.312 83.7412 102.762 82.8055 104.408C82.0858 105.846 80.9979 107.068 79.653 107.947C78.1026 108.264 76.4974 108.17 74.9957 107.672C73.1471 107.159 71.2163 107.015 69.313 107.251C67.5055 107.75 65.8166 108.603 64.3438 109.762C63.1084 110.832 61.6067 111.547 59.9985 111.833C58.3903 111.547 56.8886 110.831 55.6547 109.762C54.1803 108.605 52.4915 107.751 50.6855 107.251C50.1591 107.156 49.625 107.108 49.091 107.103C47.7125 107.155 46.3432 107.345 45.0028 107.67C43.5011 108.166 41.8944 108.262 40.3455 107.946C38.999 107.063 37.9051 105.843 37.1732 104.407C36.2543 102.748 35.0066 101.297 33.5065 100.136C31.8557 99.1821 30.0284 98.5781 28.1356 98.3575C26.5442 98.2403 25.0136 97.7017 23.699 96.7995C22.7968 95.4849 22.2582 93.9528 22.141 92.3628C21.9204 90.4701 21.3148 88.6413 20.3624 86.9905C19.1939 85.4949 17.7409 84.2427 16.0901 83.3055C14.6523 82.5858 13.432 81.4979 12.5511 80.153C12.2362 78.6026 12.3305 76.9974 12.8265 75.4957C13.3438 73.6486 13.4807 71.7148 13.2297 69.813C12.7443 68.0039 11.8953 66.3151 10.736 64.8438C9.66638 63.6084 8.95129 62.1067 8.66373 60.4985C8.95129 58.8903 9.66638 57.3886 10.736 56.1547C11.8953 54.6849 12.7443 52.993 13.2297 51.1855C13.4807 49.2836 13.3423 47.3498 12.8265 45.5028C12.3305 44.0011 12.2362 42.3944 12.5511 40.8455C13.4336 39.499 14.6538 38.4051 16.0901 37.6732C17.7424 36.7543 19.1954 35.5142 20.3624 34.0247C21.3133 32.3663 21.9173 30.5329 22.141 28.6356C22.2582 27.0442 22.7968 25.5136 23.699 24.199C25.0136 23.2968 26.5442 22.7582 28.1356 22.641C30.0329 22.4173 31.8678 21.8118 33.5247 20.8624C35.0097 19.6878 36.2558 18.2363 37.1915 16.5901C37.9111 15.1523 38.999 13.932 40.344 13.0511C41.8929 12.7362 43.4995 12.8305 45.0012 13.3265C46.8483 13.8408 48.7806 13.9838 50.684 13.7479C52.49 13.2489 54.1788 12.3953 55.6531 11.236C56.8886 10.1664 58.3887 9.45129 59.997 9.16373C61.6052 9.45129 63.1069 10.1664 64.3423 11.236C65.8151 12.3938 67.5039 13.2474 69.3115 13.7479C71.2148 13.9838 73.1456 13.8392 74.9942 13.3265C76.4959 12.8305 78.1011 12.7362 79.6514 13.0511C80.9979 13.9336 82.0919 15.1538 82.8237 16.5901C83.7427 18.2485 84.9903 19.7015 86.4905 20.8624C88.1413 21.8148 89.9701 22.4204 91.8628 22.641C93.4528 22.7582 94.9834 23.2968 96.2995 24.199C97.2017 25.5136 97.7403 27.0442 97.8575 28.6356C98.0781 30.5284 98.6836 32.3572 99.6361 34.0065C100.805 35.5021 102.256 36.7558 103.907 37.6915C105.345 38.4111 106.566 39.499 107.446 40.844C107.762 42.3929 107.668 43.9995 107.17 45.5012C106.653 47.3483 106.518 49.2821 106.767 51.184C107.253 52.9915 108.102 54.6819 109.261 56.1531C110.331 57.3886 111.046 58.8887 111.332 60.497C111.046 62.1067 110.329 63.6069 109.259 64.8438ZM59.997 20.164C49.2994 20.164 39.0401 24.4135 31.4768 31.9783C23.9135 39.5416 19.664 49.8009 19.664 60.4985C19.664 71.196 23.9135 81.4554 31.4783 89.0186C39.0416 96.5834 49.3009 100.831 59.9985 100.831C70.696 100.831 80.9554 96.5834 88.5186 89.0186C96.0834 81.4554 100.331 71.1945 100.331 60.4985C100.319 49.8055 96.0667 39.5538 88.5049 31.9935C80.9417 24.4318 70.6899 20.1792 59.997 20.164ZM47.1648 75.1656C47.1617 76.1773 46.3432 76.9959 45.3314 76.9989H41.6646C40.6529 76.9959 39.8343 76.1773 39.8313 75.1656V51.3316C39.8343 50.3198 40.6529 49.5012 41.6646 49.4982H45.3314C46.3432 49.5027 47.1617 50.3213 47.1648 51.3316V75.1656ZM80.1657 71.4988C80.1611 72.9564 79.5799 74.3531 78.5499 75.3831C77.5198 76.4132 76.1231 76.9944 74.6656 76.9989H59.9985C56.7334 77.113 53.517 76.1682 50.8316 74.3044V53.9531C52.0822 52.8211 53.412 51.7804 54.8087 50.8356C58.4207 48.2871 61.8319 45.9044 61.8319 38.4963C61.9612 37.5424 62.7113 36.7923 63.6652 36.663C66.5621 36.663 67.332 40.2567 67.332 42.1631C67.3609 45.0265 66.8056 47.8641 65.701 50.5054C65.4104 51.0729 65.4362 51.7515 65.7695 52.2947C66.1027 52.8378 66.696 53.168 67.3335 53.1649H74.6671C76.1246 53.1695 77.5214 53.7507 78.5514 54.7808C79.5815 55.8108 80.1627 57.2075 80.1672 58.6651L80.1657 71.4988Z" fill="#C41135"/>
</svg>
