<?xml version="1.0" encoding="utf-8"?>
<!-- Generator: Adobe Illustrator 23.1.0, SVG Export Plug-In . SVG Version: 6.00 Build 0)  -->
<svg version="1.1" id="Layer_1" xmlns="http://www.w3.org/2000/svg" xmlns:xlink="http://www.w3.org/1999/xlink" x="0px" y="0px"
	 viewBox="0 0 55 60" style="enable-background:new 0 0 55 60;" xml:space="preserve">
<style type="text/css">
	.st0{fill:none;stroke:#C41135;stroke-linecap:round;stroke-miterlimit:10;}
	.st1{fill:none;stroke:#C41135;stroke-miterlimit:10;}
</style>
<g>
	<path class="st0" d="M32.8,26.4l8.9-19.1c0,0,1.5-2.8,3.9-2.4c0,0,2.4,0,2.8,2.6l-1.4,16.9"/>
	<path class="st1" d="M47.5,18.8l0.3,0.1c2.9,0.8,4.6,1.8,4.6,2.9c0,2.7-11.2,5-25.1,5c-13.8,0-25.1-2.2-25.1-5c0-2.7,11.2-5,25.1-5
		c3.3,0,6.4,0.1,9.3,0.4l0.4,0"/>
	<path class="st0" d="M27.3,24.5C16.1,24.5,7,23.2,7,21.6s9.1-2.9,20.3-2.9c2.6,0,5.1,0.1,7.4,0.2"/>
	<path class="st1" d="M52.4,21.5c0.7,2.3,1.6,4.8,1.6,7.4c0,14-11.8,25.4-26.4,25.4S1,42.8,1,28.8c0-2.5,0.5-5,1.2-7.3"/>
</g>
</svg>
