<svg width="110" height="110" viewBox="0 0 110 110" fill="none" xmlns="http://www.w3.org/2000/svg">
<path d="M54.945 105.025C39.3839 105.025 24.6183 97.5303 15.4087 84.9589L16.3983 84.25C25.377 96.4894 39.7977 103.794 54.945 103.794V105.025Z" fill="#C41135"/>
<path d="M52.9291 109.366C41.1836 109.366 29.65 104.925 20.9231 96.7802L21.7122 95.9141C32.3156 105.805 47.1261 110.117 61.348 107.412L61.5645 108.564C58.7031 109.101 55.8081 109.366 52.9291 109.366Z" fill="#C41135"/>
<path d="M99.3031 83.5547L98.2349 82.9339C105.677 69.7177 106.386 53.5905 100.111 39.7632L101.228 39.2676C107.651 53.4189 106.926 69.9792 99.3031 83.5547Z" fill="#C41135"/>
<path d="M104.432 35.1484C104.219 35.5302 103.948 35.8959 103.659 36.2391C109.313 47.1328 110.432 60.0395 106.46 71.8314L107.576 72.2035C111.725 59.9288 110.465 46.4592 104.432 35.1484Z" fill="#C41135"/>
<path d="M54.9016 56.1704L54.9112 56.1319H77.722C92.0096 54.9739 95.4436 47.1308 96.1429 42.0657C93.4772 43.1788 90.5693 43.7963 87.5139 43.7963H87.2781C79.528 48.5615 67.8997 54.5152 57.0092 55.0589L55.2529 55.8288V55.7839L71.2502 39.809C71.7282 39.2268 72.1885 38.6445 72.6055 38.0848C70.4451 36.1665 68.6824 33.8312 67.3816 31.2088C65.0207 38.8947 61.3718 47.5687 55.8239 53.7148L55.2545 55.1439V33.0357C53.511 11.6299 36.824 14.5923 36.824 14.5923C36.824 14.5923 53.256 35.3196 54.1766 53.7598L54.9754 55.577L38.9107 39.5283C22.5701 25.6288 12.8472 39.5283 12.8472 39.5283C12.8472 39.5283 39.1047 42.5757 52.8101 54.9466L54.9995 55.7935L54.9738 55.832H32.1726C10.7829 57.569 13.7293 74.2657 13.7293 74.2657C13.7293 74.2657 34.4534 57.8481 52.8935 56.9034L54.6402 56.1432V56.172L38.6524 72.1694C24.7754 88.5357 38.6524 98.2361 38.6524 98.2361C38.6524 98.2361 41.6999 71.9785 54.0804 58.2828L54.6402 56.8248V78.9523C56.3932 100.344 73.0867 97.378 73.0867 97.378C73.0867 97.378 56.6836 76.6603 55.726 58.201L54.9369 56.403L70.9872 72.4469C87.3342 86.3463 97.0475 72.4469 97.0475 72.4469C97.0475 72.4469 70.7963 69.3995 57.0877 57.0253L54.9016 56.1704Z" fill="#C41135"/>
<path fill-rule="evenodd" clip-rule="evenodd" d="M83.0535 31.468C81.9997 32.9228 81.0117 34.2845 80.0253 35.6863C78.9908 34.9164 77.9835 34.1658 76.965 33.4248C77.9578 32.0214 78.941 30.65 79.9691 29.2129C78.3235 29.4166 76.7838 29.6075 75.1783 29.8112C75.0885 28.9675 74.9906 28.1447 74.8671 27.2882C75.5263 27.2113 76.1278 27.123 76.7437 27.0428C78.4134 26.8263 80.1199 26.629 81.8056 26.3965C81.9131 26.3836 82.0671 26.3034 82.136 26.212C82.8578 25.1999 83.5988 24.1847 84.3318 23.1453C84.3478 23.1261 84.3671 23.0716 84.4152 22.9898C83.7592 22.77 83.124 22.5631 82.4969 22.3594C81.9307 22.1718 81.3645 21.9937 80.8016 21.7868C80.5915 21.7259 80.4423 21.7451 80.2514 21.8606C78.3588 22.924 76.4662 23.9826 74.5463 25.0331C74.4485 25.1037 74.333 25.147 74.2031 25.2016C73.8085 24.4766 73.4044 23.75 72.9809 22.9898C74.3811 22.2039 75.7557 21.4436 77.2313 20.6192C75.552 20.0755 73.9705 19.5446 72.3506 19.0121C72.7451 17.7899 73.1141 16.5998 73.5182 15.3664C75.1221 15.8877 76.7036 16.417 78.3989 16.9735C77.69 15.4562 77.0244 14.0079 76.3411 12.5387C77.1142 12.173 77.8456 11.8234 78.6379 11.4641C78.7117 11.6229 78.7774 11.7688 78.8352 11.9164C79.7414 13.8732 80.662 15.8203 81.5426 17.7771C81.6436 17.9711 81.7655 18.0754 81.9724 18.1492C83.0919 18.5117 84.2083 18.8838 85.3326 19.2527C85.4128 19.2783 85.4978 19.3168 85.6037 19.3296V17.8717C85.6037 17.089 85.6037 16.2967 85.6133 15.4947C85.6197 15.2493 85.5267 15.0905 85.3647 14.9349C83.7608 13.4273 82.1553 11.8939 80.5578 10.3734C80.4904 10.3189 80.4439 10.2708 80.3348 10.2146C80.9427 9.56186 81.5121 8.95558 82.1039 8.32525C83.2491 9.42873 84.4007 10.5017 85.594 11.6501V6.5H89.3889V11.6598C90.6239 10.5017 91.7595 9.43034 92.9367 8.32525C93.5061 8.93313 94.0563 9.55705 94.7251 10.2467C94.6016 10.3205 94.4765 10.3462 94.4107 10.4248C92.8132 11.9324 91.2318 13.4433 89.6359 14.9494C89.4739 15.0921 89.3905 15.2397 89.3905 15.4642C89.4162 16.6287 89.3905 17.7771 89.3905 18.9319V19.3393C89.753 19.2286 90.0738 19.1292 90.3801 19.0153C91.2671 18.7346 92.1556 18.4427 93.0394 18.1492C93.2495 18.1043 93.357 17.9711 93.4596 17.7931C94.3883 15.7786 95.3105 13.7753 96.2504 11.7704C96.2889 11.671 96.3547 11.5828 96.4028 11.4657C97.1534 11.825 97.9008 12.1746 98.6739 12.5403C97.9987 13.9951 97.3314 15.445 96.6289 16.9751C98.2793 16.4186 99.8512 15.8909 101.5 15.368C101.895 16.5806 102.273 17.7771 102.668 19.0137C101.064 19.5446 99.4727 20.061 97.7966 20.6208C99.2449 21.4356 100.624 22.2055 102.028 22.9914C101.614 23.7452 101.229 24.467 100.809 25.2208C100.281 24.9305 99.7614 24.6354 99.2593 24.3643C97.7549 23.5399 96.2616 22.6882 94.7764 21.8606C94.608 21.7868 94.3883 21.7612 94.2231 21.8125C93.1356 22.1493 92.0498 22.5182 90.9623 22.8631C90.8549 22.9176 90.733 22.9465 90.5934 23.009C90.749 23.2544 90.9046 23.4677 91.065 23.6746C91.6536 24.5023 92.2487 25.3251 92.8662 26.1623C92.9464 26.2858 93.1051 26.3852 93.2351 26.3981C95.4436 26.6916 97.6217 26.9578 99.8239 27.2513C99.9137 27.2642 100.018 27.2898 100.132 27.3091C100.052 28.1335 99.9442 28.9515 99.8367 29.8128C98.2553 29.6283 96.6931 29.4182 95.0491 29.2145C96.0676 30.6404 97.0475 32.0117 98.0532 33.3975C97.0315 34.1674 96.0355 34.8988 94.9833 35.6879C93.9969 34.3037 93.0169 32.9228 91.9712 31.4696C91.6568 33.1281 91.3505 34.6855 91.0682 36.2701C90.2085 36.1049 89.3953 35.9622 88.5869 35.7873C88.8035 34.6871 89.0072 33.582 89.2077 32.5138C89.421 31.3173 89.6664 30.1015 89.8909 28.9098C89.9037 28.7767 89.9037 28.6147 89.8396 28.5056C89.0825 27.4278 88.3159 26.3868 87.5236 25.2641C87.4273 25.3876 87.3455 25.4678 87.2878 25.5656C86.6093 26.5007 85.9613 27.4262 85.2765 28.35C85.1273 28.5569 85.1049 28.751 85.153 28.9836C85.5732 31.213 86.003 33.4793 86.4217 35.7023C86.4217 35.7023 86.4056 35.7472 86.4056 35.7889C85.6229 35.9638 84.8178 36.1065 83.9789 36.2717C83.6613 34.6983 83.3774 33.1361 83.0535 31.468Z" fill="#C41135"/>
<path d="M7.30908 36.4484L6.15747 36.041C11.3076 21.3749 23.2936 9.91818 38.2019 5.41602L38.5452 6.58366C24.025 10.98 12.355 22.1528 7.30908 36.4484Z" fill="#C41135"/>
<path d="M1.15802 41.1424L0 40.9708C2.27113 26.3015 11.4631 13.4285 24.6184 6.54297L25.1717 7.56466C12.3373 14.3027 3.365 26.85 1.15802 41.1424Z" fill="#C41135"/>
<path d="M87.5152 42.5194C75.8515 42.5194 66.3708 33.0387 66.3708 21.3943C66.3708 9.73391 75.8515 0.25 87.5152 0.25C99.1627 0.25 108.631 9.73391 108.631 21.3943C108.631 33.0387 99.1627 42.5194 87.5152 42.5194ZM87.5152 1.98062C76.7994 1.98062 68.0918 10.6979 68.0918 21.3943C68.0918 32.0779 76.7994 40.7855 87.5152 40.7855C98.1988 40.7855 106.91 32.0779 106.91 21.3943C106.91 10.6979 98.1988 1.98062 87.5152 1.98062Z" fill="#C41135"/>
</svg>
