<?xml version="1.0" encoding="utf-8"?>
<!-- Generator: Adobe Illustrator 23.1.0, SVG Export Plug-In . SVG Version: 6.00 Build 0)  -->
<svg version="1.1" id="Layer_1" xmlns="http://www.w3.org/2000/svg" xmlns:xlink="http://www.w3.org/1999/xlink" x="0px" y="0px"
	 viewBox="0 0 110 110" style="enable-background:new 0 0 110 110;" xml:space="preserve">
<style type="text/css">
	.st0{fill:#C41135;}
	.st1{fill:#3CA637;}
	.st2{fill:#3AA637;}
	.st3{fill:#3CA737;}
	.st4{fill:#3BA636;}
	.st5{fill:#3BA737;}
	.st6{fill:#3BA635;}
	.st7{fill:#3CA536;}
	.st8{fill:#3AA635;}
	.st9{fill:#43A841;}
	.st10{fill:#40A83D;}
	.st11{fill:#46AB44;}
	.st12{fill:#FFFFFF;}
	.st13{fill:#4BAD48;}
</style>
<path class="st0" d="M45.1,3c1.3,0,2.4,1.1,2.4,2.4v53c0,1.3-1.1,2.4-2.4,2.4h-8.6c-1.3,0-2.4-1.1-2.4-2.4v-53
	c0-1.3,1.1-2.4,2.4-2.4L45.1,3L45.1,3z M45.1,2.5h-8.6c-1.6,0-2.9,1.3-2.9,2.9v53c0,1.6,1.3,2.9,2.9,2.9h8.6c1.6,0,2.9-1.3,2.9-2.9
	v-53C48,3.8,46.7,2.5,45.1,2.5z"/>
<path class="st0" d="M57.1,94.7c-0.3,7.4-6.2,14-13.6,15.1c-8.9,1.4-16.9-4.1-18.8-13c-1.4-6.8,1.9-14,8.1-17.4
	c0.5-0.3,0.7-0.6,0.7-1.1c0-8.1,0-16.2,0-24.3h0.2c0,7.7,0,15.5,0,23.2v0.1c0-0.1,0-0.2,0-0.3c0-7.7,0-15.3,0-23H48
	c0,2.4,0,4.7,0,7.1c0,5.6,0,11.2,0,16.9c0,0.2,0,0.5,0.2,0.7c0,0.4,0.2,0.6,0.6,0.8C54.5,82.8,57.4,87.9,57.1,94.7z"/>
<path class="st0" d="M71.4,24.8c0.9,3.5,1.1,6.9-1,10.1c-0.3,0.4-0.5,0.8-0.6,1.2c-0.3,0.7-0.5,1.3-1.3,1.5
	c-0.4,0.1-0.5,0.6-0.7,0.9c-0.3,0.6-0.8,0.8-1.5,0.8c-0.3,0-0.4-0.2-0.2-0.4c0.4-0.3,0.5-0.7,0.5-1.2c0-0.3,0.1-0.6,0.3-0.7
	c0.6-0.4,0.6-1,0.6-1.6c-0.1-0.7,0.1-1.4,0.4-2.1c0.3-1,0.4-1.9,0.1-3c-0.4-1.8-0.2-3.5,0.4-5.2c0.1-0.2,0.3-0.4,0.1-0.7
	C69.4,23.9,70.8,24,71.4,24.8z"/>
<path class="st0" d="M84.6,3.7c0.8,2.9,1.1,5.9-0.2,8.8c-0.5,1.1-1.1,2.3-1.8,3.3c-0.6,0.8-1.5,1.5-2.2,2.3
	c-0.1,0.2-0.5,0.2-0.7,0.2c-0.2,0-0.4,0.1-0.5-0.1c-0.1-0.2,0.1-0.3,0.2-0.4c0.3-0.2,0.4-0.5,0.4-0.8c0.1-0.5,0.2-1,0.7-1.3
	c0.3-0.2,0.3-0.5,0.2-0.7c-0.1-1,0.1-1.9,0.4-2.8c0.3-0.9,0.3-1.8,0.1-2.7c-0.5-2-0.2-4,0.7-5.8c0-0.1,0-0.2,0-0.2
	C82.6,2.8,84.1,3,84.6,3.7z"/>
<path class="st0" d="M71.5,3.4c0.8,3,1.1,5.9-0.3,8.8c-0.5,1.1-1.1,2.3-1.7,3.3c-0.6,0.8-1.5,1.5-2.2,2.3c-0.1,0.2-0.5,0.2-0.7,0.2
	c-0.2,0-0.4,0-0.5-0.1c-0.1-0.2,0.1-0.3,0.2-0.4c0.3-0.2,0.4-0.5,0.4-0.8c0.1-0.5,0.2-1,0.7-1.3c0.3-0.2,0.3-0.5,0.2-0.7
	c-0.1-1,0.1-1.9,0.4-2.8c0.3-0.9,0.3-1.8,0.1-2.7c-0.4-1.7-0.3-3.4,0.4-5.1c0.1-0.3,0.2-0.6,0.3-0.8c0.1-0.2,0.2-0.4,0.4-0.4
	c0.5,0.1,1-0.2,1.6,0C71.1,2.9,71.4,3.1,71.5,3.4z"/>
<path class="st0" d="M77.8,24.8c0.9,3.4,1.1,6.8-0.9,10c-0.3,0.4-0.5,0.8-0.7,1.2c-0.3,0.7-0.6,1.4-1.4,1.7
	c-0.3,0.1-0.5,0.5-0.6,0.8c-0.2,0.4-0.5,0.7-0.9,0.8c-0.3,0.1-0.6,0.2-0.8,0c-0.2-0.3,0.2-0.4,0.3-0.6c0.2-0.2,0.2-0.5,0.2-0.8
	c0-0.3,0.1-0.7,0.3-0.9c0.6-0.4,0.6-0.9,0.5-1.5c-0.1-0.9,0.2-1.7,0.5-2.5c0.2-0.8,0.3-1.6,0.1-2.5c-0.5-2-0.2-4,0.6-5.9
	c0-0.1,0-0.1,0-0.2c0.3-0.5,0.9-0.3,1.4-0.4C76.9,24.1,77.6,24.1,77.8,24.8z"/>
<path class="st0" d="M65,3.3c0.9,3.4,1.1,6.7-0.8,9.9c-0.4,0.7-0.6,1.4-1.1,2c-0.6,0.9-1.6,1.6-2.3,2.5c-0.2,0.3-0.7,0.3-1.3,0
	c0.7-0.4,0.8-1.1,0.9-1.8c0-0.1,0-0.2,0.1-0.2c0.9-0.5,0.7-1.4,0.7-2.2c0,0,0-0.1,0-0.1c0.8-2,0.6-4,0.3-6c-0.2-1.5,0.3-2.8,0.9-4.2
	C63.1,2.5,64.5,2.5,65,3.3z"/>
<path class="st0" d="M65,71.1c0.6,2.1,0.7,4.2,0.5,6.3c-0.1,1.3-0.6,2.4-1.2,3.5c-0.3,0.6-0.7,1.1-0.9,1.7c-0.3,0.7-0.6,1.3-1.3,1.6
	c-0.4,0.1-0.5,0.6-0.7,0.9c-0.3,0.6-0.8,0.8-1.4,0.8c-0.1,0-0.3,0-0.3-0.1c-0.1-0.1,0-0.2,0.1-0.3c0.4-0.3,0.5-0.7,0.5-1.1
	c0-0.3,0.1-0.6,0.3-0.7c0.7-0.4,0.6-1,0.6-1.7c-0.1-0.7,0.2-1.4,0.4-2c0.3-1,0.4-1.9,0.1-2.9c-0.5-2-0.2-4,0.7-5.8
	c0.1-0.3,0.3-0.6,0.6-0.3c0.1,0.1,0.1,0,0.2,0C63.9,70.3,64.4,70.8,65,71.1z"/>
<path class="st0" d="M65,46.7c0.8,3.4,1.1,6.8-0.9,9.9c-0.3,0.5-0.6,1-0.8,1.5c-0.2,0.6-0.5,1.1-1.2,1.4c-0.4,0.2-0.6,0.6-0.8,1
	c-0.3,0.6-0.8,0.8-1.4,0.8c-0.1,0-0.3,0-0.3-0.1c-0.1-0.1,0-0.2,0.1-0.3c0.4-0.3,0.5-0.7,0.5-1.2c0-0.3,0.1-0.6,0.3-0.7
	c0.6-0.4,0.6-0.9,0.5-1.5c-0.1-0.8,0.2-1.5,0.4-2.2c0.3-0.9,0.3-1.9,0.1-2.8c-0.5-2-0.2-4,0.7-5.8c0.1-0.3,0.3-0.6,0.6-0.2
	c0.1,0.1,0,0.1,0.1,0c0.6-0.3,1.4-0.3,1.9,0.1C65,46.6,65,46.7,65,46.7z"/>
<path class="st0" d="M65,24.8c0.8,3.2,1.1,6.3-0.5,9.4C64,35,63.6,36,63,36.8c-0.6,0.9-1.6,1.6-2.3,2.4c-0.1,0.1-0.4,0.1-0.6,0.2
	c-0.2,0-0.4,0.1-0.6-0.1c-0.2-0.2,0.1-0.3,0.3-0.4c0.2-0.2,0.3-0.5,0.4-0.9c0-0.5,0.2-0.9,0.6-1.1c0.3-0.2,0.3-0.5,0.3-0.8
	c-0.1-1,0.1-1.9,0.4-2.8c0.3-0.9,0.3-1.8,0.1-2.7c-0.5-2-0.2-3.9,0.7-5.8c0-0.1,0-0.2,0.1-0.3c0.6,0,1.1-0.5,1.8-0.2
	C64.6,24.3,64.9,24.5,65,24.8z"/>
<path class="st0" d="M71.6,52.5c0,1.1-0.3,2.1-0.8,3c-0.6,1.1-1.1,2.3-1.7,3.2c-0.6,0.8-1.5,1.5-2.1,2.3c-0.1,0.1-0.4,0.2-0.6,0.2
	c-0.2,0-0.4,0.1-0.5-0.1c-0.1-0.2,0.2-0.3,0.3-0.5c0.2-0.2,0.3-0.4,0.3-0.7c0.1-0.5,0.2-1.1,0.7-1.4c0.3-0.2,0.3-0.5,0.2-0.7
	c-0.1-1,0.1-1.9,0.4-2.8c0.3-0.9,0.3-1.7,0.1-2.6c-0.6-2.1-0.2-4,0.7-5.9c0.4-0.5,1-0.5,1.6-0.5c0.3,0,0.7,0.1,1,0.4
	c0.1,0.1,0,0.2,0.1,0.3c0.5,1.1,0.5,2.2,0.5,3.4C71.5,50.9,71.6,51.7,71.6,52.5z"/>
<path class="st0" d="M78.6,9.9c-0.1,1.2-0.5,2.2-1.1,3.3c-0.5,0.8-0.8,1.8-1.3,2.5c-0.6,0.9-1.5,1.6-2.3,2.4c-0.2,0.3-0.8,0.3-1.3,0
	c0.7-0.4,0.8-1,0.9-1.6c0-0.1,0.1-0.3,0.2-0.4c0.8-0.5,0.7-1.2,0.6-1.9c0-0.7,0.2-1.3,0.4-2c0.3-0.9,0.3-1.8,0.1-2.8
	c-0.4-1.7-0.3-3.4,0.4-5.1c0.1-0.3,0.2-0.6,0.3-0.8c0.1-0.3,0.3-0.4,0.7-0.4c0.4,0.1,0.8-0.2,1.3,0c0.3,0.1,0.6,0.2,0.7,0.5
	c0.4,1,0.5,2,0.5,3.1C78.6,7.8,78.6,8.8,78.6,9.9z"/>
<path class="st0" d="M55.2,77.8c-0.9,0-1.8,0-2.7,0c-0.6,0-0.6-0.3-0.6-0.7c0-0.4-0.1-0.8,0.6-0.8c1.9,0,3.7,0,5.6,0
	c0.7,0,0.6,0.4,0.6,0.8c0,0.5-0.1,0.7-0.6,0.7C57,77.8,56.1,77.8,55.2,77.8z"/>
<path class="st0" d="M55.1,32.8c-0.9,0-1.8,0-2.7,0c-0.7,0-0.5-0.4-0.5-0.8c0-0.4,0-0.7,0.5-0.7c1.9,0,3.8,0,5.6,0
	c0.7,0,0.5,0.4,0.5,0.8c0,0.4,0,0.7-0.5,0.7C57,32.7,56.1,32.8,55.1,32.8z"/>
<path class="st0" d="M52,55.2c-0.3-0.4-0.1-0.8-0.1-1.2c0-0.3,0.2-0.3,0.4-0.3c1.9,0,3.9,0,5.8,0c0.4,0,0.5,0.2,0.4,0.6
	c0,0.7-0.3,0.9-1,0.8c-1.6-0.1-3.2,0-4.8,0C52.4,55.1,52.2,55.1,52,55.2z"/>
<path class="st0" d="M58.5,10.2c-0.2,0.2-0.5,0.1-0.7,0.1c-1.6,0-3.3,0-4.9,0c-1.1,0-1.3-0.3-0.9-1.5c0.4,0.2,0.9,0.1,1.4,0.1
	c1.4,0,2.7,0,4.1,0c0.6,0,1.1,0.1,1,0.8c0,0.1,0,0.1,0,0.1c-0.2,0.3-0.5,0.2-0.8,0.2c-1.7,0-3.3,0-5,0c-0.1,0,0,0.2,0,0.1
	c0,0,0-0.1,0-0.1C54.7,10.1,56.6,10,58.5,10.2z"/>
<path class="st0" d="M53.3,41.8c-0.2,0-0.3,0-0.5,0c-1,0-0.9,0-1-1c0-0.5,0.1-0.7,0.6-0.6c0.6,0,1.2,0,1.8,0c0.8,0,0.5,0.6,0.5,1
	c0,0.4,0,0.7-0.5,0.6C53.9,41.8,53.6,41.8,53.3,41.8z"/>
<path class="st0" d="M53.2,37.2c-0.1,0-0.3,0-0.4,0c-0.9,0-1.1-0.3-0.9-1.2c0.1-0.3,0.2-0.3,0.4-0.3c0.7,0,1.4,0,2.1,0
	c0.6,0,0.5,0.4,0.4,0.7c0,0.3,0.2,0.8-0.5,0.8C53.9,37.2,53.6,37.2,53.2,37.2z"/>
<path class="st0" d="M53.3,73.3c-0.2,0-0.4,0-0.6,0c-0.7,0.1-0.9-0.2-0.9-0.9c0-0.5,0.2-0.6,0.7-0.6c0.5,0,0.9,0,1.4,0
	c1,0,0.9,0,0.9,0.9c0,0.4-0.1,0.6-0.5,0.6C53.9,73.3,53.6,73.3,53.3,73.3z"/>
<path class="st0" d="M53.3,14.8c-0.2,0-0.4,0-0.6,0c-0.7,0.1-0.9-0.2-0.9-0.8c0-0.5,0.1-0.7,0.6-0.7c0.6,0,1.2,0,1.8,0
	c0.6,0,0.5,0.4,0.5,0.7c0,0.3,0.1,0.8-0.5,0.8C53.9,14.7,53.6,14.8,53.3,14.8z"/>
<path class="st0" d="M53.3,19.2c-0.2,0-0.4,0-0.6,0c-0.7,0.1-0.9-0.2-0.9-0.8c0-0.5,0.1-0.7,0.6-0.7c0.6,0,1.2,0,1.8,0
	c0.6,0,0.5,0.4,0.5,0.7c0,0.3,0.1,0.8-0.5,0.8C53.9,19.2,53.6,19.2,53.3,19.2z"/>
<path class="st0" d="M53.3,22.3c0.2,0,0.4,0,0.7,0c0.9,0,0.9,0.1,0.9,1c0,0.3-0.1,0.5-0.5,0.5c-0.7,0-1.3,0-2,0
	c-0.8,0-0.4-0.7-0.5-1.1c-0.1-0.5,0.2-0.5,0.6-0.4C52.7,22.4,53,22.3,53.3,22.3C53.3,22.3,53.3,22.3,53.3,22.3z"/>
<path class="st0" d="M53.3,26.8c0.2,0,0.4,0,0.7,0c0.7-0.1,0.8,0.2,0.8,0.8c0,0.5-0.2,0.7-0.7,0.7c-0.6,0-1.2,0-1.8,0
	c-0.7,0-0.5-0.4-0.5-0.8c0-0.4,0-0.8,0.5-0.7C52.7,26.8,53,26.8,53.3,26.8z"/>
<path class="st0" d="M53.3,44.8c0.2,0,0.3,0,0.5,0c1,0,1.1,0.1,1,1.1c0,0.3-0.1,0.4-0.4,0.4c-0.7,0-1.4,0-2.1,0
	c-0.6,0-0.4-0.4-0.4-0.7c0-0.3-0.2-0.8,0.4-0.7C52.6,44.8,52.9,44.8,53.3,44.8C53.3,44.8,53.3,44.8,53.3,44.8z"/>
<path class="st0" d="M53.3,49.3c0.2,0,0.4,0,0.6,0c0.7-0.1,0.9,0.1,0.9,0.8c0,0.5-0.2,0.7-0.7,0.7c-0.5,0-1.1-0.1-1.6,0
	c-0.7,0.1-0.7-0.3-0.7-0.8c0-0.6,0.2-0.8,0.7-0.7C52.8,49.3,53.1,49.3,53.3,49.3z"/>
<path class="st0" d="M53.4,58.3c0.1,0,0.3,0,0.4,0c1,0,1.1,0.1,1,1.1c0,0.3-0.1,0.4-0.4,0.4c-0.7,0-1.4,0-2.1,0
	c-0.6,0-0.4-0.4-0.4-0.7c0-0.3-0.2-0.8,0.4-0.7C52.6,58.3,53,58.3,53.4,58.3z"/>
<path class="st0" d="M53.3,64.3c-0.2,0-0.4,0-0.6,0c-0.7,0.1-0.9-0.2-0.9-0.8c0-0.5,0.2-0.7,0.7-0.7c0.6,0,1.1,0,1.7,0
	c0.6-0.1,0.6,0.3,0.6,0.7c0,0.4,0.1,0.8-0.6,0.8C53.9,64.3,53.6,64.3,53.3,64.3z"/>
<path class="st0" d="M53.3,68.8c-0.2,0-0.4,0-0.6,0c-0.9,0-0.9,0-0.9-0.9c0-0.4,0.1-0.6,0.5-0.5c0.6,0,1.3,0,1.9,0
	c0.7,0,0.5,0.5,0.5,0.9c0,0.4-0.1,0.7-0.6,0.6C53.9,68.7,53.6,68.8,53.3,68.8z"/>
<path class="st1" d="M71.5,3.7c-0.3-0.5-0.9-0.2-1.3-0.6C70.2,3,70.1,3.1,70,3.2c-0.2,0.1-0.4,0.8-0.7,0.1c-0.2,0.1-0.3,0.2-0.5,0.3
	c-0.1,0-0.3,0-0.2,0C69,3,68.9,2.1,69.8,2.1c0.4,0,0.3-0.3,0.4-0.6c0.1-0.4,0.2-0.9,0.4-1.3c0.1-0.2,0.3-0.3,0.5-0.2
	c0.2,0.2,0,0.3-0.1,0.4c-0.2,0.3-0.3,0.6-0.4,0.9c-0.1,0.4-0.1,0.7,0.4,0.9c0.5,0.2,0.6,0.8,0.8,1.2C71.8,3.6,71.6,3.6,71.5,3.7z"/>
<path class="st2" d="M65,3.6c-0.3-0.4-0.9-0.2-1.3-0.6c0,0-0.1,0-0.1,0c-0.3,0.6-0.9,0.2-1.3,0.5c-0.1,0-0.4,0.1-0.3-0.1
	c0.3-0.5,0.4-1.3,1.3-1.4c0.3,0,0.3-0.3,0.3-0.5c0.1-0.4,0.2-0.9,0.4-1.3c0.1-0.2,0.3-0.3,0.5-0.2c0.2,0.2,0,0.3-0.1,0.4
	c-0.2,0.3-0.3,0.6-0.4,0.9c-0.1,0.4-0.1,0.7,0.4,0.9c0.5,0.2,0.6,0.8,0.8,1.2C65.2,3.6,65.1,3.6,65,3.6z"/>
<path class="st3" d="M65,24.8c-0.3-0.4-0.9-0.2-1.3-0.6c0,0-0.1,0-0.1,0c-0.3,0.6-0.8,0.2-1.2,0.4c-0.2,0-0.2,0-0.2-0.2
	c0.2-0.6,0.4-1.2,1.2-1.2c0.2,0,0.2-0.4,0.3-0.6c0.1-0.4,0.2-0.9,0.4-1.3c0.1-0.2,0.3-0.3,0.4-0.2c0.3,0.1,0.1,0.3,0,0.4
	c-0.3,0.3-0.4,0.6-0.4,1c-0.1,0.4,0,0.6,0.4,0.8c0.5,0.2,0.6,0.8,0.8,1.2C65.2,24.8,65.1,24.8,65,24.8z"/>
<path class="st1" d="M65,71.2c-0.4-0.2-0.9-0.1-1.2-0.4c0,0-0.1-0.1-0.1-0.1c-0.3,0.5-0.9,0.2-1.3,0.5c-0.1,0-0.2-0.1-0.3-0.1
	c0.3-0.5,0.3-1.2,1.1-1.3c0.4,0,0.4-0.3,0.5-0.6c0.1-0.4,0.2-0.9,0.4-1.3c0.2-0.3,0.4-0.4,0.6-0.1c-0.3,0.3-0.5,0.6-0.6,1.1
	c-0.1,0.5-0.1,0.8,0.4,1.1C64.8,70.2,65.1,70.6,65,71.2z"/>
<path class="st4" d="M71,46.6c-0.9-0.6-1.7-0.3-2.6,0c-0.1,0-0.2-0.1-0.3-0.1c0.4-0.5,0.4-1.2,1.1-1.4c0.4-0.1,0.5-0.2,0.5-0.6
	c0.1-0.4,0.2-0.9,0.4-1.3c0.1-0.2,0.2-0.4,0.4-0.2c0.3,0.2,0,0.3-0.1,0.4c-0.2,0.3-0.3,0.6-0.4,0.9c-0.1,0.4-0.1,0.7,0.3,0.9
	c0.4,0.2,0.5,0.7,0.7,1.1C71.2,46.6,71.1,46.6,71,46.6z"/>
<path class="st5" d="M71.4,24.8c-0.3-0.4-0.9-0.2-1.3-0.5c0,0-0.1,0-0.1,0c-0.3,0.6-1,0.1-1.4,0.4c0-0.6,0.2-1.2,0.9-1.4
	c0.4-0.1,0.5-0.3,0.6-0.7c0.1-0.4,0.2-0.9,0.4-1.3c0.1-0.2,0.3-0.2,0.4-0.1c0.2,0.1,0,0.3-0.1,0.4c-0.2,0.2-0.4,0.5-0.4,0.8
	c-0.1,0.5-0.2,0.8,0.4,1.2C71.2,23.7,71.6,24.2,71.4,24.8z"/>
<path class="st6" d="M65,46.7c-0.9-0.6-1.8-0.4-2.7-0.1c-0.1,0-0.3,0-0.3-0.1c0.4-0.5,0.4-1.3,1.2-1.4c0.4,0,0.3-0.4,0.4-0.6
	c0.1-0.4,0.2-0.7,0.3-1c0.1-0.3,0.3-0.4,0.6-0.2C64.2,43.6,64,44,64,44.5c-0.1,0.3-0.2,0.6,0.2,0.7c0.7,0.2,0.7,0.9,1.1,1.4
	C65.2,46.7,65.1,46.7,65,46.7z"/>
<path class="st4" d="M77.8,24.8c-0.4-0.3-1.2-0.7-1.4-0.4c-0.4,0.4-1-0.1-1.3,0.4c-0.2-0.4,0.1-1.3,0.7-1.5c0.6-0.1,0.7-0.4,0.7-0.9
	c0-0.4,0.3-0.7,0.4-1.1c0.1-0.1,0.2-0.2,0.3-0.1c0.1,0.1,0.2,0.2,0,0.3c-0.2,0.3-0.4,0.6-0.4,1c0,0.5,0.1,0.7,0.5,1
	C77.6,23.8,78.1,24.2,77.8,24.8z"/>
<path class="st7" d="M84.6,3.7c-0.3-0.5-0.9-0.2-1.3-0.6c0,0-0.1,0-0.2,0c-0.3,0.1-0.4,0.7-0.8,0.1c-0.1,0.1-0.3,0.2-0.4,0.3
	c-0.1-0.1-0.3,0-0.3-0.1c0.2-0.4,0.3-1.1,0.7-1.2c0.9-0.2,0.8-0.9,1.1-1.5c0.3,0,0.3,0.2,0.2,0.4c0,0.1,0,0.2,0,0.2
	c-0.1,0.2-0.1,0.5,0,0.7c0.7,0.2,0.9,0.9,1.2,1.4C84.9,3.6,84.7,3.7,84.6,3.7z"/>
<path class="st8" d="M78.1,3.6c-0.3-0.4-0.9-0.1-1.2-0.5c0,0-0.1,0-0.1,0c-0.3,0.6-0.9,0.2-1.3,0.4c-0.1,0-0.3,0-0.2,0
	c0.3-0.4,0.3-1.1,0.8-1.3c0.5-0.1,0.7-0.4,0.8-0.8c0.1-0.1,0.1-0.1,0.2,0c0.1,0.2-0.1,0.5,0.1,0.7C77.8,2.3,78,3,78.3,3.6
	C78.2,3.6,78.1,3.6,78.1,3.6z"/>
<path class="st0" d="M58.5,9.7C58.4,9,57.9,8.9,57.3,9c-1.7,0-3.4,0-5.1,0.1C52,9,52,8.9,52,8.8c1.9,0,3.8,0,5.7,0
	C58.4,8.8,58.7,9,58.5,9.7z"/>
<path class="st0" d="M52,55.2c0.2-0.2,0.5-0.1,0.8-0.2c1.5,0,3.1,0,4.6,0c0.6,0,1.1,0,1.2-0.8c0.1,0.7-0.1,1-0.8,0.9
	C55.8,55.2,53.9,55.2,52,55.2z"/>
<path class="st0" d="M58.5,10.2c-2,0-3.9,0-5.9,0c0,0,0-0.1,0-0.1c1.7,0,3.3,0,5,0c0.3,0,0.6,0,0.9-0.1C58.5,10,58.5,10.1,58.5,10.2
	z"/>
<path class="st0" d="M78.6,8.6c-0.2-1-0.2-2.1,0-3.1C78.8,6.5,78.8,7.5,78.6,8.6z"/>
<path class="st9" d="M77,1.4c-0.1,0-0.1,0-0.2,0c-0.1-0.5,0.2-0.8,0.4-1.2c0.1-0.2,0.3-0.3,0.5-0.2c0.2,0.2,0,0.3-0.1,0.4
	c-0.2,0.3-0.3,0.6-0.4,0.9C77,1.5,77,1.5,77,1.4z"/>
<path class="st0" d="M71.6,52.5c-0.2-0.8-0.2-1.6,0-2.4C71.7,50.9,71.7,51.7,71.6,52.5z"/>
<path class="st10" d="M83.7,1.1c0-0.2-0.1-0.3-0.2-0.4c0-0.1,0.1-0.2,0.1-0.3c0.1-0.2,0.2-0.7,0.6-0.4c0.3,0.2-0.1,0.4-0.2,0.6
	C83.9,0.8,83.8,1,83.7,1.1z"/>
<path class="st11" d="M64.2,45.2c-0.5-0.1-0.3-0.4-0.2-0.7C64,44.8,63.9,45,64.2,45.2z"/>
<path class="st12" d="M62.2,24.4c0.1,0.1,0.1,0.1,0.2,0.2c0,0.1-0.1,0.1-0.1,0.2c-0.1,0-0.2-0.1-0.3-0.1
	C62.1,24.6,62.1,24.5,62.2,24.4z"/>
<path class="st13" d="M77,1.4c0,0,0.1,0,0.1,0c0,0.2,0,0.5,0,0.7C76.8,1.9,77,1.6,77,1.4z"/>
<path class="st10" d="M83.6,2.1c-0.2-0.2-0.2-0.5,0-0.7C83.6,1.6,83.6,1.9,83.6,2.1z"/>
<path class="st12" d="M71,46.6c0.1-0.1,0.1-0.1,0.2-0.2c0.3,0.2,0.2,0.3-0.1,0.4C71,46.7,71,46.7,71,46.6z"/>
<path class="st12" d="M38.5,103.9c-4.2-0.8-7.1-5.2-5.9-9.1c0.2-0.6,0.5-1.1,0.8-1.6c0.4-0.6,0.8-1.2,1-1.9c0.2-0.1,0.3-0.1,0.5-0.1
	c1-0.2,1.1-0.2,1.4,0.8c0.2,0.5,0.6,1,0.5,1.6c0,0.2-0.3,0.4-0.1,0.7c0,0.2,0,0.4,0,0.6c2.3-1.7,3-4.1,2-6.6c-1.3-3.1,0-6.1,3.1-7.2
	c-0.2,0.4-0.4,0.7-0.6,1c-1,1.9-0.8,3.5,0.6,5.1c0.8,1,1.8,1.7,2.7,2.6c1.5,1.5,2.2,3.3,2.1,5.5c0,0.3-0.1,0.5-0.2,0.8
	c-0.1,0.1-0.1,0.3-0.3,0.4c-0.3,0.2-0.7,0.3-0.7,0.8c0,0.2-0.1,0.4-0.3,0.4c-0.3,0-0.2-0.2-0.3-0.4c0-0.3,0-0.5,0-0.8
	c-0.8-0.2-1.6,0.4-2.3-0.3c-0.2-0.2-0.4,0.1-0.6,0c-1.1-0.9-1.2-1.7-0.6-3.1c-0.8,0.1-1.1,0.7-1.5,1.2c-0.6,0.3-0.4,1-0.7,1.5
	c0,0,0,0,0,0c0.3-0.1,0.3-0.1,0.4,0.1c0.1,0.3,0.1,0.7,0.1,1c-0.1,0.6,0.1,1,0.4,1.4l0,0c-0.5,0.6-0.6,0.5-0.9-0.2
	c-0.2-0.5-0.3-0.9-0.6-1.3c-0.2-0.2-0.4-0.4-0.8-0.4c-0.4,0.1-0.2,0.4-0.2,0.6c0,0.1,0,0.2-0.1,0.2c-0.7,0.5-0.4,1-0.1,1.5
	c-1.1,2.1-0.7,3.5,1.3,5C38.9,104,38.7,103.9,38.5,103.9z"/>
<path class="st12" d="M46.6,97c0.9-1.7,1.2-3.4,0.5-5.3c-0.3-0.8-0.2-1.7,0.2-2.4c0.4,0.3,0,0.8,0.2,1.2c0.2,1.1,0.9,2,1.7,2.8
	c0.7,0.8,1.4,1.7,1.6,2.9c0.3,1.5-0.1,2.8-1.1,4c-1.3,1.6-3,2.8-5,3.5c-0.2,0.1-0.4,0.1-0.7,0c1.2-0.9,2.3-1.8,2.1-3.5
	C46.1,99.1,46,98,46.6,97z"/>
<path class="st12" d="M46.6,97c0.2,0.5-0.4,0.9-0.3,1.5c0,0.1-0.3,0.3,0,0.4c0.1,0,0.3,0.4-0.1,0.5c-0.2,0.1,0,0.5-0.1,0.7
	c-0.3-0.7-0.9-1.3-1.3-1.9c-0.2-0.2-0.2-0.5-0.4-0.8c-0.1-0.1,0-0.3-0.3-0.1c-0.1,0.3,0,0.6,0.1,0.9c0.2,0.6,0.2,1.2,0,1.9
	c-0.4-0.4,0-0.9-0.2-1.3c-0.2-1.2-1.2-1.8-2-2.7c0.3-0.3,0.5-0.4,0.9,0c0.2,0.2,0.4,0.3,0.7,0.1c0.5-0.3,1.1,0.3,1.6-0.1
	c0,0.5,0,1-0.1,1.4c0.3-0.7,0.6-1.3,1.4-1.5c0,0.3-0.1,0.6-0.2,0.8C46.3,97.1,46.5,97,46.6,97z"/>
<path class="st12" d="M36.8,94.2c-0.5-0.1-0.4-0.1-0.2-0.5c0.1-0.2,0.4-0.7-0.2-1c-0.2-0.1-0.3-0.8-0.4-1.1
	c-0.1-0.6-0.3-0.5-0.7-0.3c-0.2,0.1-0.6,0.2-0.8,0c0-0.8,0.1-1.5-0.5-2.2C35.9,89.5,37.3,92.2,36.8,94.2z"/>
<path class="st12" d="M37.6,98.6c-0.2-0.2-0.3-0.4-0.5-0.5c-0.2-0.3-0.2-0.5,0.1-0.7c0.2-0.1,0.5-0.3,0.4-0.6c0-0.2-0.4-0.5,0-0.6
	c0.3-0.1,0.8-0.1,1.1,0.2c0.5,0.6,0.8,1.3,0.9,2.1c0.3,0.1,0.4-0.2,0.6-0.3c-0.1,0.5-0.4,0.8-0.8,1.2c-0.5-0.2,0-0.7-0.3-1.1
	c-0.2-0.7-0.7-1.1-1.3-1.6c0.1,0.6,0.3,1,0,1.5c-0.1,0.1-0.2,0.2-0.2,0.3C37.7,98.5,37.6,98.6,37.6,98.6z"/>
<path class="st12" d="M40.2,98.2c-0.4-0.2-0.8-0.4-0.6-1.1c0.1-0.3,0-1-0.1-1.4c-0.2,0.1,0,0.3-0.2,0.4c-0.1-0.6,0.1-1.2,0.2-1.7
	c0-0.3,0.3-0.4,0.5-0.2c-0.2,0.8-0.1,1.6,0.2,2.4C40.5,97.1,40.5,97.7,40.2,98.2z"/>
<path class="st12" d="M44.1,98.8c0.3,0.4,0,0.9,0.2,1.3c0,0.2,0,0.4-0.4,0.5C44.2,99.9,44.1,99.4,44.1,98.8z"/>
<path class="st12" d="M47.5,90.5c-0.3-0.3,0-0.8-0.2-1.2c0-0.1,0.1-0.2,0.1-0.2c0.1,0,0.1,0.1,0.1,0.2C47.5,89.6,47.5,90,47.5,90.5z
	"/>
<path class="st12" d="M39.2,98.3c0.3,0.3-0.1,0.8,0.3,1.1c-0.1,0.2-0.2,0.4-0.3,0C39.1,99,39.2,98.7,39.2,98.3z"/>
<path class="st0" d="M44.3,97.3c0-0.2,0-0.4,0.2-0.4c0.2,0.1,0.1,0.3,0.1,0.5C44.4,97.4,44.3,97.4,44.3,97.3z"/>
<path class="st12" d="M37.7,98.5c-0.1-0.1-0.1-0.2-0.1-0.3c0.1-0.1,0.1-0.1,0.2,0C37.9,98.3,37.8,98.4,37.7,98.5z"/>
</svg>
