<svg width="120" height="120" viewBox="0 0 120 120" fill="none" xmlns="http://www.w3.org/2000/svg">
<g clip-path="url(#clip0_2196_502)">
<path d="M46.5529 92.7694C42.6987 92.7694 38.9961 92.7694 35.1655 92.7694C35.1655 93.3077 35.1724 93.8015 35.1641 94.2966C35.114 97.0923 33.0736 99.1843 30.2931 99.2037C25.9702 99.2343 21.6459 99.2357 17.3215 99.2023C14.6065 99.1815 12.5326 97.0687 12.4881 94.3578C12.47 93.2771 12.4756 92.1964 12.4909 91.1156C12.5299 88.4103 14.6218 86.2892 17.3229 86.2739C21.6125 86.2502 25.9034 86.2613 30.193 86.2711C32.1556 86.2753 33.5952 87.1724 34.5952 88.8554C34.7649 89.1419 35.1558 89.4799 35.4492 89.4827C39.0934 89.5258 42.739 89.5105 46.5515 89.5105C46.5515 89.032 46.5431 88.6106 46.5529 88.1891C46.5821 86.8525 47.1384 86.2753 48.4751 86.2711C52.7313 86.2586 56.9874 86.2627 61.2436 86.2627C76.6465 86.2641 92.0509 86.2655 107.454 86.2669C109.319 86.2669 109.799 86.7287 109.775 88.5953C109.745 91.1601 109.895 93.75 109.587 96.2828C108.7 103.574 102.565 108.915 95.1929 108.939C85.33 108.972 75.4657 108.969 65.6013 108.926C63.0435 108.915 60.4272 109.003 57.943 108.51C51.2986 107.192 46.6071 101.241 46.5515 94.4816C46.5487 93.9461 46.5529 93.4106 46.5529 92.7694ZM49.7659 89.5355C49.7659 91.213 49.7631 92.7652 49.7659 94.3161C49.7798 100.65 54.8204 105.719 61.1518 105.726C72.4989 105.737 83.8459 105.731 95.1929 105.726C99.9749 105.723 104.206 102.748 105.874 98.2635C106.932 95.4177 106.461 92.4843 106.554 89.5508C94.592 89.5508 82.761 89.5508 70.8506 89.5508C70.8506 91.4397 70.8645 93.2576 70.8479 95.0755C70.8186 98.0576 68.7559 100.414 65.8656 100.796C63.0866 101.164 60.4772 99.3526 59.6997 96.5193C59.6316 96.2703 59.53 96.0297 59.4313 95.7529C57.5035 96.2342 55.8344 95.8781 54.4324 94.4997C53.0317 93.1241 52.9469 91.3423 53.0484 89.5328C51.887 89.5355 50.8883 89.5355 49.7659 89.5355ZM23.8129 95.9615C25.9076 95.9615 28.0023 95.9768 30.097 95.956C31.2348 95.9448 31.8746 95.3245 31.908 94.2187C31.9386 93.2061 31.94 92.1908 31.8996 91.1782C31.8593 90.1531 31.2501 89.5314 30.2264 89.5272C25.9688 89.5077 21.7112 89.5077 17.4551 89.5328C16.3646 89.5397 15.7915 90.1545 15.7512 91.2561C15.7178 92.1671 15.7289 93.081 15.7415 93.992C15.7609 95.3704 16.3451 95.9518 17.7318 95.9588C19.7584 95.9699 21.785 95.9629 23.8129 95.9615ZM62.8432 89.6065C62.8432 91.608 62.7639 93.5553 62.8724 95.4914C62.9391 96.6723 64.0366 97.5263 65.1479 97.5472C66.2523 97.5666 67.3998 96.7446 67.4777 95.5637C67.6056 93.5998 67.5125 91.6205 67.5125 89.6065C65.9296 89.6065 64.4316 89.6065 62.8432 89.6065ZM56.3532 89.6009C56.3421 90.7136 56.0319 91.8472 57.1516 92.4078C57.5842 92.6234 58.3811 92.5552 58.7901 92.284C59.7512 91.6469 59.4758 90.601 59.3798 89.6023C58.3631 89.6009 57.4089 89.6009 56.3532 89.6009Z" fill="#C41135"/>
<path d="M52.4781 75.3784C52.4781 75.0738 52.4447 74.7651 52.485 74.466C52.5601 73.911 52.9997 73.5369 53.5213 73.5313C54.0401 73.5257 54.5199 73.8957 54.5686 74.4479C54.6229 75.0724 54.6229 75.7081 54.5672 76.3312C54.5172 76.8834 54.0331 77.2464 53.5101 77.2353C52.9872 77.2242 52.5532 76.8458 52.4809 76.2909C52.4419 75.9918 52.4739 75.6831 52.4739 75.3784C52.4753 75.3784 52.4767 75.3784 52.4781 75.3784Z" fill="#C41135"/>
<path d="M54.5854 81.0143C54.5854 81.3175 54.6187 81.6263 54.577 81.9239C54.4963 82.4998 54.0958 82.8322 53.5408 82.8377C52.983 82.8419 52.5449 82.5178 52.4934 81.9448C52.4378 81.3217 52.4392 80.6874 52.4948 80.0643C52.5463 79.5037 53.0067 79.163 53.5505 79.1741C54.0944 79.1838 54.5033 79.5343 54.5784 80.1032C54.6187 80.4023 54.5854 80.7111 54.5854 81.0143Z" fill="#C41135"/>
<path d="M50.7826 77.1488C51.0469 77.1488 51.3112 77.1293 51.574 77.1529C52.1485 77.203 52.5185 77.5827 52.5519 78.128C52.5852 78.669 52.2598 79.1725 51.7131 79.2268C51.0525 79.2922 50.3737 79.2922 49.713 79.224C49.165 79.167 48.852 78.6732 48.8854 78.121C48.9188 77.5841 49.2957 77.1988 49.8688 77.1529C50.172 77.1279 50.478 77.1488 50.7826 77.1488Z" fill="#C41135"/>
<path d="M56.3629 77.1498C56.6467 77.1484 56.9332 77.1275 57.2142 77.1539C57.7817 77.2068 58.1516 77.599 58.1767 78.1415C58.2003 78.6923 57.8818 79.1735 57.3268 79.2264C56.6662 79.2904 55.9874 79.2904 55.3267 79.218C54.7843 79.1582 54.4574 78.645 54.5158 78.1039C54.5756 77.5503 54.8886 77.211 55.4519 77.1567C55.7523 77.1261 56.0583 77.1511 56.3629 77.1498Z" fill="#C41135"/>
<path d="M116.777 89.9331C116.777 89.6285 116.744 89.3197 116.784 89.0207C116.859 88.4657 117.299 88.0916 117.82 88.086C118.339 88.0804 118.819 88.4504 118.868 89.0026C118.922 89.6271 118.922 90.2628 118.866 90.8859C118.816 91.4381 118.332 91.8011 117.809 91.79C117.286 91.7789 116.852 91.4005 116.78 90.8456C116.741 90.5465 116.773 90.2377 116.773 89.9331C116.774 89.9331 116.776 89.9331 116.777 89.9331Z" fill="#C41135"/>
<path d="M118.884 95.5709C118.884 95.8741 118.918 96.1829 118.876 96.4806C118.795 97.0564 118.395 97.3888 117.84 97.3944C117.282 97.3986 116.844 97.0745 116.792 96.5014C116.737 95.8783 116.738 95.244 116.794 94.6209C116.845 94.0604 117.306 93.7196 117.849 93.7307C118.393 93.7405 118.802 94.091 118.877 94.6599C118.918 94.9589 118.886 95.2663 118.884 95.5709Z" fill="#C41135"/>
<path d="M115.082 91.7035C115.346 91.7035 115.61 91.684 115.873 91.7076C116.447 91.7577 116.817 92.1374 116.851 92.6827C116.884 93.2237 116.559 93.7272 116.012 93.7815C115.351 93.8468 114.673 93.8468 114.012 93.7787C113.464 93.7217 113.151 93.2279 113.184 92.6757C113.218 92.1388 113.595 91.7535 114.168 91.7076C114.471 91.6826 114.777 91.7035 115.082 91.7035Z" fill="#C41135"/>
<path d="M120.662 91.7044C120.946 91.7031 121.232 91.6822 121.513 91.7086C122.081 91.7615 122.451 92.1537 122.476 92.6962C122.499 93.247 122.181 93.7282 121.626 93.7811C120.965 93.8451 120.286 93.8451 119.626 93.7727C119.083 93.7129 118.756 93.1997 118.815 92.6586C118.875 92.105 119.187 91.7656 119.751 91.7114C120.051 91.6822 120.357 91.7058 120.662 91.7044Z" fill="#C41135"/>
<path d="M100.79 74.4292C100.79 74.1246 100.757 73.8158 100.797 73.5168C100.872 72.9618 101.312 72.5877 101.833 72.5821C102.352 72.5765 102.832 72.9465 102.881 73.4987C102.935 74.1232 102.935 74.7589 102.879 75.382C102.829 75.9342 102.345 76.2972 101.822 76.2861C101.299 76.275 100.865 75.8966 100.793 75.3417C100.754 75.0426 100.786 74.7338 100.786 74.4292C100.787 74.4292 100.789 74.4292 100.79 74.4292Z" fill="#C41135"/>
<path d="M102.897 80.067C102.897 80.3702 102.931 80.679 102.889 80.9767C102.808 81.5525 102.408 81.8849 101.853 81.8905C101.295 81.8947 100.857 81.5706 100.805 80.9975C100.75 80.3744 100.751 79.7401 100.807 79.117C100.858 78.5565 101.319 78.2157 101.862 78.2268C102.406 78.2366 102.815 78.5871 102.89 79.156C102.931 79.455 102.897 79.7624 102.897 80.067Z" fill="#C41135"/>
<path d="M99.0945 76.1989C99.3588 76.1989 99.6231 76.1795 99.8859 76.2031C100.46 76.2532 100.83 76.6329 100.864 77.1781C100.897 77.7192 100.572 78.2227 100.025 78.277C99.3643 78.3423 98.6856 78.3423 98.0249 78.2742C97.4769 78.2172 97.1639 77.7234 97.1973 77.1712C97.2307 76.6343 97.6076 76.249 98.1807 76.2031C98.4839 76.1795 98.7899 76.1989 99.0945 76.1989Z" fill="#C41135"/>
<path d="M104.675 76.2025C104.959 76.2011 105.245 76.1802 105.526 76.2067C106.094 76.2595 106.464 76.6518 106.489 77.1942C106.512 77.745 106.194 78.2263 105.639 78.2791C104.978 78.3431 104.299 78.3431 103.639 78.2708C103.096 78.211 102.769 77.6977 102.828 77.1566C102.888 76.6031 103.2 76.2637 103.764 76.2094C104.064 76.1788 104.37 76.2025 104.675 76.2025Z" fill="#C41135"/>
<path d="M66.4914 54.5562C66.4914 54.2516 66.4581 53.9428 66.4984 53.6437C66.5735 53.0888 67.013 52.7146 67.5346 52.709C68.0534 52.7035 68.5333 53.0735 68.582 53.6257C68.6362 54.2502 68.6362 54.8858 68.5806 55.5089C68.5305 56.0611 68.0465 56.4242 67.5235 56.413C67.0005 56.4019 66.5666 56.0236 66.4942 55.4686C66.4553 55.1696 66.4873 54.8608 66.4873 54.5562C66.4887 54.5562 66.4901 54.5562 66.4914 54.5562Z" fill="#C41135"/>
<path d="M68.5987 60.192C68.5987 60.4952 68.6321 60.804 68.5904 61.1017C68.5097 61.6775 68.1091 62.0099 67.5542 62.0155C66.9964 62.0197 66.5583 61.6956 66.5068 61.1225C66.4512 60.4994 66.4526 59.8651 66.5082 59.242C66.5597 58.6815 67.02 58.3407 67.5639 58.3518C68.1077 58.3616 68.5167 58.7121 68.5918 59.2823C68.6321 59.5814 68.6001 59.8888 68.5987 60.192Z" fill="#C41135"/>
<path d="M64.796 56.3265C65.0603 56.3265 65.3245 56.307 65.5874 56.3307C66.1619 56.3808 66.5318 56.7605 66.5652 57.3057C66.5986 57.8468 66.2731 58.3503 65.7265 58.4045C65.0658 58.4699 64.3871 58.4699 63.7264 58.4017C63.1784 58.3447 62.8654 57.8509 62.8988 57.2988C62.9322 56.7619 63.3091 56.3766 63.8822 56.3307C64.1868 56.3056 64.4928 56.3265 64.796 56.3265Z" fill="#C41135"/>
<path d="M70.3763 56.3275C70.6601 56.3261 70.9466 56.3052 71.2275 56.3317C71.795 56.3845 72.165 56.7768 72.1901 57.3192C72.2137 57.87 71.8952 58.3513 71.3402 58.4041C70.6795 58.4681 70.0008 58.4681 69.3401 58.3958C68.7976 58.336 68.4708 57.8227 68.5292 57.2817C68.589 56.7281 68.9019 56.3887 69.4653 56.3344C69.7657 56.3038 70.0731 56.3289 70.3763 56.3275Z" fill="#C41135"/>
<path d="M108.248 48.4351C108.248 48.1305 108.215 47.8217 108.255 47.5226C108.33 46.9677 108.77 46.5935 109.291 46.588C109.81 46.5824 110.29 46.9524 110.339 47.5046C110.393 48.1291 110.393 48.7647 110.337 49.3879C110.287 49.94 109.803 50.3031 109.28 50.2919C108.757 50.2808 108.323 49.9025 108.251 49.3475C108.212 49.0485 108.244 48.7397 108.244 48.4351C108.245 48.4351 108.247 48.4351 108.248 48.4351Z" fill="#C41135"/>
<path d="M110.355 54.0729C110.355 54.3761 110.389 54.6849 110.347 54.9825C110.266 55.5583 109.866 55.8908 109.311 55.8963C108.753 55.9005 108.315 55.5764 108.263 55.0034C108.208 54.3802 108.209 53.746 108.265 53.1229C108.316 52.5623 108.777 52.2216 109.32 52.2327C109.864 52.2424 110.273 52.5929 110.348 53.1632C110.389 53.4609 110.357 53.7682 110.355 54.0729Z" fill="#C41135"/>
<path d="M106.553 50.2048C106.817 50.2048 107.081 50.1853 107.344 50.209C107.918 50.2591 108.288 50.6388 108.322 51.184C108.355 51.7251 108.03 52.2286 107.483 52.2828C106.822 52.3482 106.144 52.3482 105.483 52.28C104.935 52.223 104.622 51.7292 104.655 51.177C104.689 50.6402 105.066 50.2549 105.639 50.209C105.943 50.1853 106.249 50.2048 106.553 50.2048Z" fill="#C41135"/>
<path d="M112.133 50.2084C112.417 50.207 112.703 50.1861 112.984 50.2125C113.552 50.2654 113.922 50.6576 113.947 51.2001C113.97 51.7509 113.652 52.2321 113.097 52.285C112.436 52.349 111.757 52.349 111.097 52.2766C110.554 52.2168 110.227 51.7036 110.286 51.1625C110.346 50.6089 110.658 50.2696 111.222 50.2153C111.522 50.1847 111.83 50.2084 112.133 50.2084Z" fill="#C41135"/>
<path d="M81.5787 84.0683C81.8778 83.5426 82.1866 83.0224 82.4731 82.4896C83.2158 81.1126 83.839 79.6814 84.2437 78.1681C84.5358 77.0776 84.8418 75.9858 85.0254 74.8758C85.2104 73.7631 85.2744 72.6281 85.3509 71.5001C85.4636 69.8199 85.3217 68.1438 85.1464 66.4761C85.0073 65.1506 84.8112 63.8278 84.5789 62.5148C84.2799 60.8276 83.9349 59.1488 83.583 57.4728C83.2673 55.9692 82.9098 54.474 82.5844 52.9718C82.2965 51.6421 81.9891 50.3138 81.7568 48.9743C81.4424 47.1578 81.1476 45.3357 80.9236 43.5067C80.708 41.7472 80.6204 39.971 80.7595 38.2003C80.8513 37.0292 81.0293 35.8622 81.2129 34.7008C81.4647 33.1152 81.9265 31.5796 82.5844 30.1178C83.2047 28.738 83.985 27.4431 84.8738 26.2121C86.2397 24.3233 87.8935 22.7237 89.7573 21.3105C89.6391 21.5164 89.5236 21.725 89.3998 21.9281C88.7085 23.0673 88.0826 24.244 87.6445 25.5C87.2314 26.6836 86.8948 27.8965 86.5721 29.1094C86.1451 30.7131 85.981 32.3571 85.9726 34.0109C85.9671 35.1403 85.9851 36.2739 86.0755 37.3992C86.1938 38.8763 86.3579 40.3521 86.5707 41.8181C86.7752 43.2201 87.0478 44.6124 87.3288 46.0006C87.6028 47.3511 87.9255 48.692 88.2273 50.0384C88.5625 51.5378 88.9158 53.0344 89.2287 54.538C89.5306 55.9887 89.8185 57.4422 90.0661 58.9026C90.3387 60.5119 90.4889 62.1379 90.5431 63.7722C90.603 65.5832 90.4764 67.3844 90.2789 69.1842C90.0939 70.8742 89.7684 72.5363 89.226 74.1442C88.9547 74.9468 88.5847 75.7159 88.2384 76.4907C87.7836 77.5088 87.3051 78.5172 86.6514 79.4296C85.7821 80.6425 84.6999 81.6495 83.565 82.6009C82.9391 83.1267 82.2756 83.6065 81.6288 84.1073C81.6107 84.0948 81.5954 84.0822 81.5787 84.0683Z" fill="#C41135"/>
<path d="M75.513 76.2762C75.6632 75.9243 75.7773 75.6489 75.8983 75.3749C76.5395 73.9172 76.8469 72.3817 76.9888 70.8044C77.114 69.4163 76.9582 68.049 76.7384 66.6804C76.4519 64.8916 75.9664 63.1572 75.4031 61.4422C74.9066 59.9303 74.378 58.4295 73.9065 56.9106C73.4879 55.56 73.0942 54.1997 72.7535 52.8269C72.3209 51.0827 72.1067 49.3065 72.2193 47.5039C72.4085 44.4968 73.5477 41.8888 75.545 39.6453C75.819 39.3365 76.1111 39.043 76.4519 38.7773C76.3489 39.0138 76.2446 39.2489 76.1431 39.4867C75.6855 40.5535 75.3739 41.6579 75.1806 42.8068C74.9636 44.0906 74.9386 45.3772 75.054 46.6624C75.1375 47.5832 75.2724 48.5081 75.4908 49.4053C75.858 50.9228 76.2878 52.4249 76.7342 53.9216C77.0458 54.9661 77.4464 55.9829 77.7774 57.0219C78.2642 58.5547 78.7761 60.0833 79.1836 61.6369C79.7483 63.7914 79.8332 66.0016 79.6913 68.2145C79.6204 69.3175 79.3464 70.3857 78.9722 71.4303C78.6815 72.2426 78.388 73.0465 77.8789 73.7517C77.2155 74.6711 76.4407 75.4876 75.513 76.2762Z" fill="#C41135"/>
<path d="M96.5643 60.176C96.435 59.418 96.3585 58.6488 96.1929 57.8991C95.9231 56.6709 95.6185 55.4497 95.293 54.2355C94.866 52.6457 94.3889 51.0698 93.9619 49.48C93.5377 47.8971 93.1594 46.2989 92.9577 44.6702C92.7477 42.9775 92.7588 41.2875 93.0606 39.5975C93.5516 36.8463 94.9161 34.5875 96.8814 32.6541C97.072 32.4664 97.2709 32.2897 97.5101 32.1367C97.3585 32.4566 97.2083 32.7779 97.0553 33.0978C96.4823 34.301 96.1331 35.5667 95.9203 36.8825C95.688 38.3165 95.6894 39.7519 95.8591 41.1832C95.9913 42.2945 96.1679 43.4072 96.4308 44.4935C96.8842 46.3601 97.4239 48.2073 97.9205 50.0627C98.3155 51.5371 98.7313 53.0073 99.0791 54.4928C99.36 55.6931 99.5423 56.9185 99.5381 58.1564C99.5339 59.2678 99.52 60.3833 99.4282 61.4904C99.3475 62.478 99.1152 63.4461 98.7383 64.371C98.4087 65.1833 98.1319 66.0179 97.6256 66.7495C96.912 67.7815 96.0163 68.6342 95.0454 69.4145C95.0218 69.4339 94.9884 69.4437 94.8869 69.4937C96.2458 66.9971 96.7813 64.3835 96.6909 61.6963L96.5643 60.176Z" fill="#C41135"/>
</g>
<defs>
<clipPath id="clip0_2196_502">
<rect width="120" height="120" fill="white"/>
</clipPath>
</defs>
</svg>
