<?xml version="1.0" encoding="utf-8"?>
<!-- Generator: Adobe Illustrator 23.1.0, SVG Export Plug-In . SVG Version: 6.00 Build 0)  -->
<svg version="1.1" id="Layer_1" xmlns="http://www.w3.org/2000/svg" xmlns:xlink="http://www.w3.org/1999/xlink" x="0px" y="0px"
	 viewBox="0 0 55 60" style="enable-background:new 0 0 55 60;" xml:space="preserve">
<style type="text/css">
	.st0{fill:#C41135;}
	.st1{fill:none;stroke:#C41135;stroke-linecap:round;stroke-miterlimit:10;}
	.st2{fill:none;stroke:#C41135;stroke-miterlimit:10;}
</style>
<g>
	<path class="st0" d="M27.4,4.6c0,0.2-0.1,0.4-0.1,0.5c-0.1,0.1-0.2,0.3-0.4,0.3c-0.2,0.1-0.3,0.1-0.5,0.1c-0.2,0-0.3-0.1-0.4-0.2
		c-0.1-0.1-0.2-0.3-0.2-0.5c0-0.2,0-0.4,0-0.5c0.1-0.2,0.2-0.3,0.3-0.4c0.1-0.1,0.3-0.2,0.5-0.2c0.2,0,0.5,0.1,0.6,0.3
		C27.3,4.1,27.4,4.4,27.4,4.6z"/>
	<path class="st0" d="M25.9,1.9c0,0.2-0.1,0.4-0.1,0.5c-0.1,0.1-0.2,0.3-0.4,0.3c-0.2,0.1-0.3,0.1-0.5,0.1c-0.2,0-0.3-0.1-0.4-0.2
		c-0.1-0.1-0.2-0.3-0.2-0.5c0-0.2,0-0.4,0-0.5c0.1-0.2,0.2-0.3,0.3-0.4C24.7,1.1,24.9,1,25,1c0.2,0,0.5,0.1,0.6,0.3
		S25.9,1.7,25.9,1.9z"/>
	<path class="st0" d="M29,1.9c0,0.2-0.1,0.4-0.1,0.5c-0.1,0.1-0.2,0.3-0.4,0.3s-0.3,0.1-0.5,0.1c-0.2,0-0.3-0.1-0.4-0.2
		c-0.1-0.1-0.2-0.3-0.2-0.5c0-0.2,0-0.4,0-0.5c0.1-0.2,0.2-0.3,0.3-0.4C27.7,1.1,27.9,1,28.1,1c0.2,0,0.5,0.1,0.6,0.3
		C28.9,1.4,29,1.7,29,1.9z"/>
	<path class="st0" d="M7.8,24.6c0,0.2-0.1,0.4-0.1,0.5c-0.1,0.1-0.2,0.3-0.4,0.3c-0.2,0.1-0.3,0.1-0.5,0.1c-0.2,0-0.3-0.1-0.4-0.2
		c-0.1-0.1-0.2-0.3-0.2-0.5c0-0.2,0-0.4,0-0.5c0.1-0.2,0.2-0.3,0.3-0.4c0.1-0.1,0.3-0.2,0.5-0.2c0.2,0,0.5,0.1,0.6,0.3
		C7.7,24.1,7.8,24.3,7.8,24.6z"/>
	<path class="st0" d="M5.2,26.1c0,0.2-0.1,0.4-0.1,0.5c-0.1,0.1-0.2,0.3-0.4,0.3C4.5,27,4.3,27.1,4.1,27c-0.2,0-0.3-0.1-0.4-0.2
		c-0.1-0.1-0.2-0.3-0.2-0.5c0-0.2,0-0.4,0-0.5c0.1-0.2,0.2-0.3,0.3-0.4c0.1-0.1,0.3-0.2,0.5-0.2c0.2,0,0.5,0.1,0.6,0.3
		C5.1,25.7,5.2,25.9,5.2,26.1z"/>
	<path class="st0" d="M5.2,23c0,0.2-0.1,0.4-0.1,0.5c-0.1,0.1-0.2,0.3-0.4,0.3c-0.2,0.1-0.3,0.1-0.5,0.1c-0.2,0-0.3-0.1-0.4-0.2
		c-0.1-0.1-0.2-0.3-0.2-0.5c0-0.2,0-0.4,0-0.5c0.1-0.2,0.2-0.3,0.3-0.4c0.1-0.1,0.3-0.2,0.5-0.2c0.2,0,0.5,0.1,0.6,0.3
		C5.1,22.5,5.2,22.8,5.2,23z"/>
	<path class="st0" d="M15.9,5.6C16,5.8,16.1,6,16.1,6.1c0,0.2,0,0.4-0.1,0.5c-0.1,0.1-0.2,0.3-0.4,0.3C15.4,7,15.2,7.1,15,7
		c-0.2,0-0.3-0.1-0.4-0.2c-0.1-0.1-0.2-0.3-0.2-0.5c0-0.2,0-0.4,0-0.5c0.1-0.2,0.2-0.3,0.3-0.4c0.2-0.1,0.4-0.2,0.7-0.1
		C15.6,5.3,15.8,5.4,15.9,5.6z"/>
	<path class="st0" d="M13.3,4.3c0.1,0.1,0.1,0.3,0.1,0.5c0,0.2,0,0.4-0.1,0.5c-0.1,0.1-0.2,0.3-0.4,0.3c-0.2,0.1-0.3,0.1-0.5,0.1
		c-0.2,0-0.3-0.1-0.4-0.2S11.8,5.2,11.7,5s0-0.4,0-0.5c0.1-0.2,0.2-0.3,0.3-0.4c0.2-0.1,0.4-0.2,0.7-0.1C13,4,13.2,4.1,13.3,4.3z"/>
	<path class="st0" d="M15.9,2.5C16,2.6,16.1,2.8,16.1,3c0,0.2,0,0.4-0.1,0.5c-0.1,0.1-0.2,0.3-0.4,0.3c-0.2,0.1-0.3,0.1-0.5,0.1
		c-0.2,0-0.3-0.1-0.4-0.2c-0.1-0.1-0.2-0.3-0.2-0.5c0-0.2,0-0.4,0-0.5c0.1-0.2,0.2-0.3,0.3-0.4c0.2-0.1,0.4-0.2,0.7-0.1
		C15.6,2.2,15.8,2.3,15.9,2.5z"/>
	<path class="st0" d="M7.6,15.1c0.1,0,0.2,0.1,0.3,0.1c0.1,0,0.2,0,0.3-0.1c0.1,0,0.2-0.1,0.3-0.2c0.1-0.1,0.1-0.2,0.2-0.3
		c0.1-0.2,0.1-0.5,0-0.7c-0.1-0.2-0.2-0.4-0.4-0.5c-0.1,0-0.2-0.1-0.3-0.1c-0.1,0-0.2,0-0.3,0.1c-0.1,0-0.2,0.1-0.3,0.2
		c-0.1,0.1-0.1,0.2-0.2,0.3c-0.1,0.2-0.1,0.5,0,0.7C7.3,14.8,7.4,15,7.6,15.1L7.6,15.1z"/>
	<path class="st0" d="M6.4,15c0.1-0.2,0.1-0.5,0-0.7c-0.1-0.2-0.2-0.4-0.4-0.5c-0.1,0-0.2-0.1-0.3-0.1c-0.1,0-0.2,0-0.3,0.1
		c-0.1,0-0.2,0.1-0.3,0.2c-0.1,0.1-0.1,0.2-0.2,0.3c-0.1,0.2-0.1,0.5,0,0.7c0.1,0.2,0.2,0.4,0.4,0.5c0.1,0,0.2,0.1,0.3,0.1
		c0.1,0,0.2,0,0.3-0.1c0.1,0,0.2-0.1,0.3-0.2C6.2,15.2,6.3,15.1,6.4,15L6.4,15z"/>
	<path class="st0" d="M6.5,12.4c0.1,0,0.2,0.1,0.3,0.1c0.1,0,0.2,0,0.3-0.1c0.1,0,0.2-0.1,0.3-0.2c0.1-0.1,0.1-0.2,0.2-0.3
		c0.1-0.2,0.1-0.5,0-0.7c-0.1-0.2-0.2-0.4-0.4-0.5c-0.1,0-0.2-0.1-0.3-0.1c-0.1,0-0.2,0-0.3,0.1c-0.1,0-0.2,0.1-0.3,0.2
		c-0.1,0.1-0.1,0.2-0.2,0.3c-0.1,0.2-0.1,0.5,0,0.7C6.1,12.1,6.3,12.3,6.5,12.4z"/>
	<path class="st0" d="M47.1,24.6c0,0.2-0.1,0.4-0.1,0.5c-0.1,0.1-0.2,0.3-0.4,0.3c-0.2,0.1-0.3,0.1-0.5,0.1c-0.2,0-0.3-0.1-0.4-0.2
		c-0.1-0.1-0.2-0.3-0.2-0.5c0-0.2,0-0.4,0-0.5c0.1-0.2,0.2-0.3,0.3-0.4c0.1-0.1,0.3-0.2,0.5-0.2c0.2,0,0.5,0.1,0.6,0.3
		C47,24.1,47.1,24.3,47.1,24.6z"/>
	<path class="st0" d="M49.7,26.1c0,0.2-0.1,0.4-0.1,0.5c-0.1,0.1-0.2,0.3-0.4,0.3C49,27,48.8,27.1,48.6,27c-0.2,0-0.3-0.1-0.4-0.2
		c-0.1-0.1-0.2-0.3-0.2-0.5c0-0.2,0-0.4,0-0.5c0.1-0.2,0.2-0.3,0.3-0.4c0.1-0.1,0.3-0.2,0.5-0.2c0.2,0,0.5,0.1,0.6,0.3
		C49.6,25.7,49.7,25.9,49.7,26.1z"/>
	<path class="st0" d="M49.7,23c0,0.2-0.1,0.4-0.1,0.5c-0.1,0.1-0.2,0.3-0.4,0.3c-0.2,0.1-0.3,0.1-0.5,0.1c-0.2,0-0.3-0.1-0.4-0.2
		c-0.1-0.1-0.2-0.3-0.2-0.5c0-0.2,0-0.4,0-0.5c0.1-0.2,0.2-0.3,0.3-0.4c0.1-0.1,0.3-0.2,0.5-0.2c0.2,0,0.5,0.1,0.6,0.3
		C49.6,22.5,49.7,22.8,49.7,23z"/>
	<path class="st0" d="M38.4,5.4c0.1,0.1,0.3,0.2,0.3,0.4c0.1,0.2,0.1,0.3,0,0.5c0,0.2-0.1,0.3-0.2,0.5C38.4,6.9,38.2,7,38.1,7
		c-0.2,0-0.3,0-0.5-0.1c-0.2-0.1-0.3-0.2-0.4-0.3C37.1,6.5,37,6.3,37,6.1c0-0.2,0.1-0.4,0.1-0.5c0.1-0.2,0.3-0.3,0.6-0.4
		C38,5.2,38.2,5.3,38.4,5.4z"/>
	<path class="st0" d="M41,4.1c0.1,0.1,0.3,0.2,0.3,0.4c0.1,0.2,0.1,0.3,0,0.5c0,0.2-0.1,0.3-0.2,0.5s-0.3,0.2-0.4,0.2
		c-0.2,0-0.3,0-0.5-0.1c-0.2-0.1-0.3-0.2-0.4-0.3c-0.1-0.1-0.1-0.3-0.1-0.5c0-0.2,0.1-0.4,0.1-0.5C39.9,4.2,39.9,4.1,40,4
		c0.1-0.1,0.2-0.1,0.3-0.1c0.1,0,0.2,0,0.3,0C40.8,3.9,40.9,4,41,4.1z"/>
	<path class="st0" d="M38.4,2.3c0.1,0.1,0.3,0.2,0.3,0.4c0.1,0.2,0.1,0.3,0,0.5c0,0.2-0.1,0.3-0.2,0.5c-0.1,0.1-0.3,0.2-0.4,0.2
		c-0.2,0-0.3,0-0.5-0.1c-0.2-0.1-0.3-0.2-0.4-0.3C37.1,3.3,37,3.2,37,3c0-0.2,0.1-0.4,0.1-0.5c0.1-0.1,0.1-0.2,0.2-0.2
		c0.1-0.1,0.2-0.1,0.3-0.1c0.1,0,0.2,0,0.3,0C38.2,2.1,38.3,2.2,38.4,2.3z"/>
	<path class="st0" d="M48.3,14.2c0-0.1-0.1-0.2-0.2-0.3c-0.1-0.1-0.2-0.1-0.3-0.2c-0.1,0-0.2-0.1-0.3-0.1c-0.1,0-0.2,0-0.3,0.1
		c-0.2,0.1-0.4,0.3-0.4,0.5c-0.1,0.2-0.1,0.5,0,0.7c0,0.1,0.1,0.2,0.2,0.3c0.1,0.1,0.2,0.1,0.3,0.2c0.1,0,0.2,0.1,0.3,0.1
		c0.1,0,0.2,0,0.3-0.1c0.2-0.1,0.4-0.3,0.4-0.5C48.4,14.7,48.4,14.4,48.3,14.2z"/>
	<path class="st0" d="M46.6,12.4c0.2-0.1,0.4-0.3,0.4-0.5c0.1-0.2,0.1-0.5,0-0.7c0-0.1-0.1-0.2-0.2-0.3c-0.1-0.1-0.2-0.1-0.3-0.2
		c-0.1,0-0.2-0.1-0.3-0.1s-0.2,0-0.3,0.1c-0.2,0.1-0.4,0.3-0.4,0.5c-0.1,0.2-0.1,0.5,0,0.7c0,0.1,0.1,0.2,0.2,0.3
		c0.1,0.1,0.2,0.1,0.3,0.2c0.1,0,0.2,0.1,0.3,0.1C46.4,12.5,46.5,12.4,46.6,12.4z"/>
	<path class="st1" d="M24.7,31v12.3c0,0,0.1,9.7,3.1,13.7c0.3,0.4,0.7,0.8,1.1,1.1c0,0,1.1,1,2.1-0.3l1.6-2.3c0,0,0.4-1-0.8-1.6
		c0,0-2.4-2-3.3-7.1c0,0-0.6-11.4-0.2-15.7"/>
	<path class="st2" d="M42.7,35.7c-0.1,0-10.4,0.8-11.3,10.7c0,0.1,0,0.2,0,0.4c0,0.1,0.1,0.2,0.2,0.3c0.1,0.1,0.3,0.2,0.4,0.3
		c0.2,0.1,0.3,0.1,0.5,0c1.5,0,9.2-0.5,11-10.6c0-0.1,0-0.3,0-0.4c0-0.1-0.1-0.3-0.2-0.4c-0.1-0.1-0.2-0.2-0.3-0.2
		C42.9,35.7,42.8,35.7,42.7,35.7L42.7,35.7z"/>
	<path class="st2" d="M10.9,35.8c-0.1,0-0.3,0-0.4,0.1c-0.1,0.1-0.2,0.1-0.3,0.2c-0.1,0.1-0.2,0.2-0.2,0.4c0,0.1,0,0.3,0,0.4
		c1.9,10.1,9.5,10.6,11,10.6c0.2,0,0.3,0,0.5,0c0.2-0.1,0.3-0.2,0.4-0.3c0.1-0.1,0.1-0.2,0.2-0.3c0-0.1,0-0.2,0-0.4
		C21.3,36.6,11,35.8,10.9,35.8z"/>
	<path class="st2" d="M32.2,24.8c0,0,4.9-2.1,9.7-0.9"/>
	<path class="st1" d="M48.1,28.7c-0.6,0.3-1.3,0.4-1.9,0.4c-0.7,0-1.3-0.2-1.9-0.5c-0.6-0.3-1.1-0.8-1.5-1.3
		c-0.4-0.5-0.7-1.2-0.8-1.8c-0.1-0.7-0.1-1.4,0-2c0.2-0.7,0.5-1.3,0.9-1.8c0.4-0.5,0.9-1,1.5-1.3c0.6-0.3,1.3-0.4,1.9-0.5
		c0.2,0,0.4,0,0.5,0"/>
	<path class="st2" d="M31.3,22.2l9.7-6"/>
	<path class="st1" d="M47.6,17.5c-0.5,0.4-1,0.8-1.6,1c-0.6,0.2-1.2,0.3-1.9,0.2s-1.2-0.3-1.8-0.6c-0.5-0.3-1-0.8-1.3-1.4
		c-0.3-0.5-0.6-1.2-0.6-1.8c-0.1-0.6,0-1.3,0.2-1.9c0.2-0.6,0.5-1.2,1-1.6c0.4-0.5,1-0.8,1.6-1.1c0.2-0.1,0.3-0.1,0.5-0.2"/>
	<path class="st1" d="M28.5,19.8l7.2-10"/>
	<path class="st1" d="M42.2,6.7c-0.1,0.6-0.3,1.3-0.7,1.8c-0.3,0.5-0.8,1-1.3,1.3c-0.5,0.3-1.1,0.5-1.8,0.6c-0.6,0.1-1.3,0-1.9-0.2
		C36,10,35.4,9.7,35,9.2c-0.4-0.5-0.8-1-1-1.6c-0.2-0.6-0.3-1.3-0.2-1.9c0.1-0.6,0.3-1.3,0.6-1.8c0.1-0.2,0.2-0.3,0.3-0.4"/>
	<path class="st1" d="M27,19.2V8.6"/>
	<path class="st1" d="M30.6,2.9c0.2,0.6,0.2,1.3,0.1,1.9c-0.1,0.6-0.3,1.3-0.7,1.8c-0.4,0.5-0.8,1-1.4,1.3c-0.5,0.3-1.1,0.5-1.8,0.6
		c-0.6,0.1-1.3,0-1.9-0.3c-0.6-0.2-1.1-0.6-1.6-1c-0.4-0.5-0.8-1-1-1.6c-0.2-0.6-0.3-1.3-0.2-1.9c0-0.2,0-0.3,0.1-0.5"/>
	<path class="st1" d="M24.5,20.1L17.4,9.7"/>
	<path class="st1" d="M17.9,2.7c0.5,0.4,0.8,1,1.1,1.6c0.2,0.6,0.4,1.2,0.3,1.9c0,0.6-0.2,1.3-0.5,1.9c-0.3,0.6-0.7,1.1-1.2,1.5
		c-0.5,0.4-1.1,0.7-1.7,0.8c-0.6,0.1-1.3,0.1-1.9,0c-0.6-0.2-1.2-0.5-1.7-0.9c-0.5-0.4-0.9-0.9-1.1-1.5c-0.1-0.2-0.1-0.3-0.2-0.5"/>
	<path class="st1" d="M21.9,22.2l-9.7-6"/>
	<path class="st1" d="M8.8,9.9c0.6,0.1,1.3,0.3,1.8,0.7c0.5,0.4,1,0.9,1.3,1.4c0.3,0.6,0.5,1.2,0.6,1.9c0.1,0.7,0,1.3-0.3,2
		c-0.2,0.6-0.6,1.2-1.1,1.6c-0.5,0.4-1.1,0.8-1.7,1c-0.6,0.2-1.3,0.2-1.9,0.1c-0.6-0.1-1.2-0.4-1.8-0.8"/>
	<path class="st1" d="M20.9,24.8c0,0-5.8-1.9-9.7-0.8"/>
	<path class="st1" d="M5.7,20.3c0.6-0.2,1.2-0.3,1.9-0.2c0.6,0.1,1.2,0.3,1.8,0.7c0.5,0.4,1,0.8,1.3,1.4c0.3,0.6,0.5,1.2,0.6,1.8
		c0.1,0.6,0,1.3-0.2,1.9c-0.2,0.6-0.5,1.2-1,1.6c-0.4,0.5-1,0.8-1.6,1c-0.6,0.2-1.2,0.3-1.9,0.2c-0.2,0-0.3,0-0.5-0.1"/>
	<path class="st2" d="M26.6,29.5c2.1,0,3.9-1.8,3.9-4c0-2.2-1.7-4-3.9-4c-2.1,0-3.9,1.8-3.9,4C22.7,27.7,24.4,29.5,26.6,29.5z"/>
	<path class="st0" d="M44.8,14.1c0-0.1-0.1-0.2-0.2-0.3c-0.1-0.1-0.2-0.1-0.3-0.2c-0.1,0-0.2-0.1-0.3-0.1c-0.1,0-0.2,0-0.3,0.1
		c-0.2,0.1-0.4,0.3-0.4,0.5s-0.1,0.5,0,0.7c0,0.1,0.1,0.2,0.2,0.3c0.1,0.1,0.2,0.1,0.3,0.2c0.1,0,0.2,0.1,0.3,0.1
		c0.1,0,0.2,0,0.3-0.1c0.2-0.1,0.4-0.3,0.4-0.5C44.9,14.5,44.9,14.3,44.8,14.1z"/>
</g>
</svg>
