<?xml version="1.0" encoding="utf-8"?>
<!-- Generator: Adobe Illustrator 23.1.0, SVG Export Plug-In . SVG Version: 6.00 Build 0)  -->
<svg version="1.1" id="Google_alt" xmlns="http://www.w3.org/2000/svg" xmlns:xlink="http://www.w3.org/1999/xlink" x="0px" y="0px"
	 viewBox="0 0 420 420" style="enable-background:new 0 0 420 420;" xml:space="preserve">
<title></title>
<path d="M325.1,114.9c0,11.6-9.4,21.1-21.1,21.1c-11.6,0-21.1-9.4-21.1-21.1c0-11.6,9.4-21.1,21.1-21.1c0,0,0,0,0,0
	C315.7,93.9,325.1,103.3,325.1,114.9z M392,210l0,0.3l-1.2,76.4c-0.6,57.3-46.9,103.5-104.2,104.2L210,392l-0.3,0l-76.4-1.2
	c-57.3-0.6-103.5-46.9-104.2-104.2L28,210l0-0.3l1.2-76.4C29.8,76.1,76.1,29.8,133.4,29.2L210,28l0.3,0l76.4,1.2
	c57.3,0.6,103.5,46.9,104.2,104.2L392,210z M358.1,210l-1.2-76.1C356.5,95,325,63.5,286.1,63.1L210,61.9l-76.1,1.2
	C95,63.5,63.5,95,63.1,133.9L61.9,210l1.2,76.1c0.4,38.9,31.9,70.4,70.8,70.8l76.1,1.2l76.1-1.2c38.9-0.4,70.4-31.9,70.8-70.8
	L358.1,210z M303.5,210c0,51.6-41.8,93.5-93.5,93.5s-93.5-41.8-93.5-93.5s41.8-93.5,93.5-93.5c0,0,0,0,0,0
	C261.6,116.6,303.4,158.4,303.5,210z M269.6,210c0-32.9-26.7-59.6-59.6-59.6s-59.6,26.7-59.6,59.6s26.7,59.6,59.6,59.6c0,0,0,0,0,0
	C242.9,269.5,269.5,242.9,269.6,210L269.6,210z"/>
</svg>
