<svg width="80" height="80" viewBox="0 0 80 80" fill="none" xmlns="http://www.w3.org/2000/svg">
<path d="M32.3647 71.1106C21.1789 71.1106 12.178 62.0163 12.178 50.9239C12.178 47.7866 12.9063 44.6494 14.3815 41.8296L14.4936 41.7175L32.3647 10.457L50.3479 41.8296C51.8045 44.6494 52.5515 47.7866 52.5515 50.9239C52.5515 62.0163 43.5692 71.1106 32.3647 71.1106ZM18.0417 43.7157C16.8839 46.0126 16.361 48.4215 16.361 50.9239C16.361 59.7007 23.4758 66.9276 32.3647 66.9276C41.2536 66.9276 48.3685 59.7194 48.3685 50.9239C48.3685 48.4215 47.8456 46.0126 46.6878 43.7157L32.3647 18.823L18.0417 43.7157Z" fill="#C41135"/>
<path d="M58.5085 31.3726C52.7569 31.3726 48.051 26.6667 48.051 20.915C48.051 19.2344 48.4619 17.6657 49.2088 16.2092L49.3209 16.0971L58.5272 0L67.8269 16.2092C68.5552 17.6657 68.9847 19.2344 68.9847 20.915C68.9661 26.6667 64.2602 31.3726 58.5085 31.3726ZM52.869 18.0952C52.4581 19.0289 52.234 19.9813 52.234 20.915C52.234 24.3698 55.0538 27.1895 58.5085 27.1895C61.9633 27.1895 64.7831 24.3698 64.7831 20.915C64.7831 19.9813 64.5776 19.0289 64.1481 18.0952L58.5085 8.36601L52.869 18.0952Z" fill="#C41135"/>
<path d="M31.9539 63.9956V59.8126C35.2965 59.8126 38.4338 58.1319 40.2078 55.2188L43.7559 57.4223C41.2536 61.5866 36.7718 63.9956 31.9539 63.9956Z" fill="#C41135"/>
</svg>
