<?xml version="1.0" encoding="utf-8"?>
<!-- Generator: Adobe Illustrator 23.1.0, SVG Export Plug-In . SVG Version: 6.00 Build 0)  -->
<svg version="1.1" id="Layer_1" xmlns="http://www.w3.org/2000/svg" xmlns:xlink="http://www.w3.org/1999/xlink" x="0px" y="0px"
	 viewBox="0 0 100 100" style="enable-background:new 0 0 100 100;" xml:space="preserve">
<g id="color_x5F_fill">
	<path d="M35.5,96.3c2.8-2.5,3.7-7.4,4.7-10.9c0.9-3.2,3.1-12.1,3.5-15.3c3.2,6.6,11.2,7.4,17.9,7c10-0.6,20.3-7.9,24.2-17
		c3.6-8.2,6.1-18.1,5.3-27c-0.7-6.9-4.1-15.4-9.1-20.3C78.1,9,73,6.1,68.4,3.8c-5.8-2.8-13.7-3-19.9-2.5c-3.8,0.3-7.3,0.9-10.9,2.1
		c-3.2,1.1-6,3.1-9.1,4.6c-2.9,1.4-5.4,2.9-7.4,5.1c-2.2,2.4-4.4,5.3-6.4,7.8c-2.3,3-3.3,6.7-4.7,10.4C8.7,34.7,8.5,38.9,9,42.5
		c1,6.4,3.1,12,7.9,16.5c1.7,1.6,5.1,5.4,7.4,3.4c2.3-1.9,2.4-7.3,1.1-9.6c-1.4-2.4-3.8-4.4-4.2-7.3c-0.9-8.6,1.7-17.8,7.2-24.4
		c9.1-11,28-12.8,39.3-4.4c4.7,3.5,7.8,8.9,8.3,14.8c0.6,6,0.9,13.2-1.5,18.9c-1.6,3.7-3.8,7.5-6.2,10.7c-2.5,3.3-6.6,5.5-10.8,5.6
		c-5.7,0-7.1-3.6-10.6-7.2c1.1-2.1,1.6-5.8,2.1-8.3c0.7-3.5,1.6-6.3,2.8-9.6c1.7-4.6,2.5-11.6-2-14.9c-5-3.6-12.3,0.1-15.1,4.8
		c-1.7,2.9-1.8,6.5-1.7,9.8c0.1,3.2,1.2,6.3,1,9.5c-0.1,3.1-1.5,6-1.9,9c-0.6,3.7-1.1,7.2-2.1,10.8c-1.8,6.6-6.6,20.3-4.3,26.1
		C27.5,101.2,33.9,97.7,35.5,96.3z"/>
</g>
<g id="offset_x5F_print_x5F_outline">
</g>
</svg>
