<?xml version="1.0" encoding="utf-8"?>
<!-- Generator: Adobe Illustrator 23.1.0, SVG Export Plug-In . SVG Version: 6.00 Build 0)  -->
<svg version="1.1" id="Layer_1" xmlns="http://www.w3.org/2000/svg" xmlns:xlink="http://www.w3.org/1999/xlink" x="0px" y="0px"
	 viewBox="0 0 55 80" style="enable-background:new 0 0 55 80;" xml:space="preserve">
<style type="text/css">
	.st0{fill:#C41135;}
</style>
<path class="st0" d="M32.3,80l-6-13.2l-6,13.2H32.3z"/>
<path class="st0" d="M28,57.4L55,0h-5.4L23.4,55.7L28,57.4z"/>
<path class="st0" d="M23.3,46.9L45.4,0h-5.4L18.7,45.2L23.3,46.9z"/>
<path class="st0" d="M18.7,36.5L35.8,0h-5.4L14.1,34.7L18.7,36.5z"/>
<path class="st0" d="M14,26L26.2,0h-5.4L9.4,24.2L14,26z"/>
<path class="st0" d="M9.3,15.5L16.6,0h-5.5L4.7,13.7L9.3,15.5z"/>
<path class="st0" d="M4.6,5L7,0H1.5L0,3.2L4.6,5z"/>
</svg>
