<?xml version="1.0" encoding="utf-8"?>
<!-- Generator: Adobe Illustrator 23.1.0, SVG Export Plug-In . SVG Version: 6.00 Build 0)  -->
<svg version="1.1" xmlns="http://www.w3.org/2000/svg" xmlns:xlink="http://www.w3.org/1999/xlink" x="0px" y="0px"
	 viewBox="0 0 116 116" style="enable-background:new 0 0 116 116;" xml:space="preserve">
<style type="text/css">
	.st0{fill:#C41135;}
</style>
<g id="Layer_1">
	<path class="st0" d="M58.8,57.4l-0.7,0.5l0.7,0l1.1,0.3c-0.2,0-1.5,1.3,0.3-0.3l-0.7-0.9l0.1-0.2l0.3-0.7L58.8,57.4l0.1,1
		L58.8,57.4l-0.1-1.5l0-0.8l-0.1-28.9C56.3-3.4,34.2,0.7,34.2,0.7s21.9,30.5,23.1,55.9l0.8,0.6L37,35C15.3,15.9,2.4,35,2.4,35
		s34.8,4.2,52.9,21.2l1.6,1.5l0.4-0.3H28C-0.3,59.8,3.6,82.7,3.6,82.7s27.5-22.6,51.9-23.9l2.5-0.4l-0.2-0.6l-21.2,22
		c-18.4,22.5,0,35.8,0,35.8s4-36.1,20.4-54.9l0.9-1.4l-0.2,29.8c2.3,29.4,24.4,25.3,24.4,25.3S60.5,86,59.2,60.7l-0.2-1.6l20.4,21.1
		c21.7,19.1,34.5,0,34.5,0S79.2,76.1,61,59L58.8,57.4z"/>
</g>
<g id="Layer_2">
	<g>
		<path class="st0" d="M58.4,57.9l0.4,0.6l21.3-22.8C98,13,78.3,1.2,78.3,1.2s-4.1,37.2-20.1,56.3L58.4,57.9z"/>
		<path class="st0" d="M58.4,57.5l0.6,1l31.2-1.7c29.3-3.9,24-25.8,24-25.8S86.9,54.3,61.7,56.9L58.4,57.5z"/>
	</g>
</g>
<g id="Layer_3">
</g>
</svg>
