<svg width="41" height="42" viewBox="0 0 41 42" fill="none" xmlns="http://www.w3.org/2000/svg">
<path fill-rule="evenodd" clip-rule="evenodd" d="M15.0105 34.9149C13.6147 36.9147 12.3061 38.7867 10.9995 40.7137C9.62918 39.6554 8.29499 38.6235 6.94593 37.6048C8.261 35.6756 9.56332 33.7904 10.9251 31.8149C8.74538 32.0949 6.70586 32.3573 4.57924 32.6373C4.46026 31.4775 4.33067 30.3464 4.16708 29.169C5.04025 29.0632 5.83694 28.9419 6.65275 28.8317C8.86436 28.534 11.1248 28.2628 13.3577 27.9431C13.5 27.9255 13.704 27.8153 13.7953 27.6896C14.7513 26.2983 15.7329 24.9026 16.7038 23.4739C16.725 23.4474 16.7505 23.3725 16.8142 23.26C15.9453 22.9579 15.104 22.6735 14.2733 22.3935C13.5234 22.1355 12.7734 21.8908 12.0277 21.6064C11.7494 21.5226 11.5518 21.549 11.299 21.7078C8.79212 23.1696 6.28521 24.6248 3.74218 26.069C3.61259 26.166 3.45962 26.2255 3.28754 26.3005C2.76491 25.3039 2.22954 24.3051 1.66867 23.26C3.52336 22.1796 5.34405 21.1345 7.2986 20.0012C5.07424 19.2538 2.97949 18.524 0.83374 17.7919C1.35637 16.1118 1.84501 14.4758 2.38038 12.7803C4.50488 13.4969 6.59964 14.2245 8.84524 14.9896C7.90621 12.9038 7.02454 10.9128 6.1195 8.89311C7.14351 8.3904 8.11228 7.90974 9.16179 7.41585C9.25951 7.63413 9.34661 7.83478 9.4231 8.03762C10.6234 10.7276 11.8429 13.4043 13.0093 16.0942C13.1431 16.361 13.3046 16.5043 13.5786 16.6057C15.0615 17.104 16.5402 17.6156 18.0295 18.1227C18.1357 18.158 18.2483 18.2109 18.3885 18.2285V16.2243C18.3885 15.1483 18.3885 14.0591 18.4012 12.9567C18.4097 12.6193 18.2865 12.401 18.0719 12.1872C15.9474 10.1146 13.8208 8.00676 11.7048 5.91655C11.6156 5.84158 11.554 5.77543 11.4095 5.69826C12.2147 4.80088 12.9689 3.96744 13.7528 3.10093C15.2697 4.61788 16.7951 6.09293 18.3757 7.67162V0.591797H23.4023V7.68484C25.0382 6.09293 26.5423 4.62008 28.1017 3.10093C28.8559 3.93658 29.5846 4.79427 30.4705 5.74236C30.3069 5.84378 30.1412 5.87906 30.0541 5.9871C27.9381 8.05967 25.8434 10.1367 23.7295 12.207C23.5149 12.4033 23.4044 12.6061 23.4044 12.9148C23.4384 14.5155 23.4044 16.0942 23.4044 17.6817V18.2417C23.8846 18.0896 24.3095 17.9529 24.7153 17.7964C25.8901 17.4105 27.0671 17.0092 28.2377 16.6057C28.516 16.544 28.6583 16.361 28.7943 16.1162C30.0244 13.3469 31.246 10.5931 32.4909 7.83698C32.5419 7.70028 32.629 7.57901 32.6928 7.41806C33.687 7.91195 34.677 8.39261 35.701 8.89532C34.8066 10.8951 33.9228 12.8883 32.9923 14.9918C35.1784 14.2267 37.2604 13.5013 39.4444 12.7825C39.967 14.4494 40.4684 16.0942 40.9911 17.7941C38.8666 18.524 36.7591 19.2339 34.539 20.0034C36.4574 21.1235 38.2845 22.1818 40.1434 23.2622C39.5953 24.2985 39.0854 25.2907 38.5288 26.327C37.8298 25.9279 37.1415 25.5222 36.4765 25.1496C34.4837 24.0163 32.5058 22.8455 30.5385 21.7078C30.3154 21.6064 30.0244 21.5711 29.8056 21.6416C28.3651 22.1047 26.9269 22.6118 25.4864 23.0858C25.3441 23.1608 25.1826 23.2005 24.9978 23.2865C25.2039 23.6238 25.41 23.9171 25.6224 24.2015C26.4021 25.3392 27.1903 26.4703 28.0082 27.6212C28.1145 27.791 28.3248 27.9277 28.4969 27.9453C31.4223 28.3488 34.3074 28.7148 37.2243 29.1183C37.3433 29.136 37.4814 29.1712 37.6322 29.1977C37.526 30.331 37.3837 31.4555 37.2413 32.6395C35.1466 32.3859 33.0773 32.0971 30.8997 31.8171C32.2487 33.7772 33.5468 35.6624 34.8789 37.5674C33.5256 38.6257 32.2062 39.6311 30.8126 40.7159C29.506 38.8131 28.2079 36.9147 26.8228 34.9171C26.4064 37.1969 26.0006 39.3379 25.6267 41.5163C24.4879 41.2892 23.4108 41.0929 22.3401 40.8526C22.6269 39.3401 22.8967 37.8209 23.1623 36.3525C23.4448 34.7077 23.7698 33.0364 24.0673 31.3982C24.0843 31.2152 24.0843 30.9925 23.9993 30.8425C22.9965 29.3609 21.981 27.9299 20.9315 26.3865C20.8041 26.5563 20.6957 26.6665 20.6192 26.801C19.7206 28.0864 18.8623 29.3587 17.9551 30.6287C17.7575 30.9131 17.7278 31.1799 17.7915 31.4996C18.3481 34.5643 18.9175 37.6798 19.472 40.7358C19.472 40.7358 19.4507 40.7975 19.4507 40.8548C18.414 41.0952 17.3475 41.2914 16.2364 41.5185C15.8157 39.3555 15.4397 37.208 15.0105 34.9149Z" fill="#C41135"/>
</svg>
