<?xml version="1.0" encoding="utf-8"?>
<!-- Generator: Adobe Illustrator 23.1.0, SVG Export Plug-In . SVG Version: 6.00 Build 0)  -->
<svg version="1.1" id="Layer_1" xmlns="http://www.w3.org/2000/svg" xmlns:xlink="http://www.w3.org/1999/xlink" x="0px" y="0px"
	 viewBox="0 0 150 150" style="enable-background:new 0 0 150 150;" xml:space="preserve">
<style type="text/css">
	.st0{fill:#C41135;}
</style>
<path class="st0" d="M74.8,144c-20.6,0-40.2-10.3-52.4-27.6l1.3-1c11.9,16.8,31,26.9,51.1,26.9V144z"/>
<path class="st0" d="M72.1,150c-15.6,0-30.8-6.1-42.4-17.3l1-1.2c14,13.6,33.7,19.5,52.5,15.8l0.3,1.6C79.8,149.6,75.9,150,72.1,150
	z"/>
<path class="st0" d="M135.5,112.5l-1.4-0.9c9.9-18.2,10.8-40.3,2.5-59.3l1.5-0.7C146.6,71.1,145.6,93.9,135.5,112.5z"/>
<path class="st0" d="M142.3,46c-0.3,0.5-0.6,1-1,1.5c7.5,15,9,32.7,3.7,48.9l1.5,0.5C152,80,150.3,61.5,142.3,46z"/>
<path class="st0" d="M9.7,47.8l-1.5-0.6C15,27,30.9,11.3,50.6,5.1l0.5,1.6C31.8,12.8,16.4,28.1,9.7,47.8z"/>
<path class="st0" d="M1.5,54.2L0,54C3,33.8,15.2,16.1,32.6,6.7l0.7,1.4C16.3,17.3,4.5,34.6,1.5,54.2z"/>
</svg>
