<?xml version="1.0" encoding="utf-8"?>
<!-- Generator: Adobe Illustrator 23.1.0, SVG Export Plug-In . SVG Version: 6.00 Build 0)  -->
<svg version="1.1" id="Layer_1" xmlns="http://www.w3.org/2000/svg" xmlns:xlink="http://www.w3.org/1999/xlink" x="0px" y="0px"
	 viewBox="0 0 1922 92" style="enable-background:new 0 0 1922 92;" xml:space="preserve">
<style type="text/css">
	.st0{clip-path:url(#SVGID_2_);}
	.st1{fill:#E9E9E9;}
</style>
<g>
	<defs>
		<rect id="SVGID_1_" x="-4" y="-8" width="1925" height="100"/>
	</defs>
	<clipPath id="SVGID_2_">
		<use xlink:href="#SVGID_1_"  style="overflow:visible;"/>
	</clipPath>
	<g class="st0">
		<path class="st1" d="M1786.3,78.7c-0.5-1,0.8,0,3.7,0.7l-6.8-1.1C1784,77.7,1784.2,76.6,1786.3,78.7z"/>
		<path class="st1" d="M1780,77.8l3.1,0.5C1782.6,78.6,1781.8,78.7,1780,77.8z"/>
		<path class="st1" d="M1785.9,80.3l6,1.2c-1.3,0.8-6.7,1-4.7,1.6C1780.9,82.5,1782.2,81.6,1785.9,80.3z"/>
		<path class="st1" d="M1761.3,75.8c-4.1-1.2-12.3-2.5-4.3-4.3C1759.9,73,1755.3,74,1761.3,75.8z"/>
		<path class="st1" d="M1790,76.5l-13.3-2.7l2.2,0.1L1790,76.5z"/>
		<path class="st1" d="M8.9,78.3l-6.4,1l4.2-1.7L8.9,78.3z"/>
		<path class="st1" d="M1795.4,76.4c11.6,0.5,9.9,2.9-1.7,2.4C1797.1,78.1,1801.5,77.6,1795.4,76.4z"/>
		<path class="st1" d="M1917.1,78.2c2.9-0.2,1.8,1.9,2.2,2.3C1914.6,80,1917.2,77.7,1917.1,78.2z"/>
		<path class="st1" d="M1807.1,81.1c-0.9,0-2.2,0-4.4,0.1c1.4-1.4-5.1-1.2,5.5-0.4C1807.6,80.9,1807.5,81,1807.1,81.1z"/>
		<path class="st1" d="M1870.9,74.4l-6.9-2.1l6.1,1.2L1870.9,74.4z"/>
		<path class="st1" d="M1750.4,79.2l-6.8-1.3C1749.6,77.8,1750.7,78.4,1750.4,79.2z"/>
		<path class="st1" d="M1849.9,72.9l1.3-0.8l3.5,2.8c-9.5-0.5-21.9-2.3-28.5-1.4C1830.2,70.1,1842.1,74.1,1849.9,72.9z"/>
		<path class="st1" d="M1807.1,81.1C1811.8,81.2,1804.1,82.3,1807.1,81.1L1807.1,81.1z"/>
		<path class="st1" d="M1832.4,70.1c-2-0.6-8.9,0.9-8.6-0.2l4.6-1L1832.4,70.1z"/>
		<path class="st1" d="M1747.8,82.1c-0.3-0.8,2.1-2,2.6-2.9l4.4,0.9C1752.5,80.6,1748.2,81.1,1747.8,82.1z"/>
		<path class="st1" d="M1634.7,80.7l-4-1.1l3.4-0.8L1634.7,80.7z"/>
		<path class="st1" d="M1628.4,72c0.5,1.1-1.8,0.2-4.5-0.1C1625.4,72.1,1627,72.1,1628.4,72z"/>
		<path class="st1" d="M1705,81.9c2.9,1.5-3.9,2.5-0.8,3.3c-4.7-0.3-8.6-1.5-12.3-2.6C1695.7,83.3,1699.8,83.1,1705,81.9z"/>
		<path class="st1" d="M1650.6,81.2l-6.6-3.2l5.1,0.9L1650.6,81.2z"/>
		<path class="st1" d="M1606.8,80.7l-6.9-0.6c3.4,0.1,4.5-0.4,6.3-0.8C1606,79.9,1604.7,80.7,1606.8,80.7z"/>
		<path class="st1" d="M1563.6,78c2.2-0.5,1.4,2.6,2.7,1.7C1568.9,82.3,1551.1,76.7,1563.6,78z"/>
		<path class="st1" d="M1729.5,78.3L1729.5,78.3c-2.9,0.1-5,0.1-5.7,0.2C1724.4,78.4,1726.3,78.4,1729.5,78.3z"/>
		<path class="st1" d="M1732.8,78.3c-0.3,0-0.4,0-0.6,0C1732.4,78.1,1732.5,78,1732.8,78.3z"/>
		<path class="st1" d="M1686,81.1c1.9,0.3,3.9,0.9,6,1.6C1690,82.3,1688.1,81.9,1686,81.1z"/>
		<path class="st1" d="M1736,75.7l-2.6,0.2l-0.9-0.9L1736,75.7z"/>
		<path class="st1" d="M1732.1,78.3c-0.5,0.4-1.6,1.6-5.3,2.1l2.7-2.1C1730.3,78.3,1731.2,78.3,1732.1,78.3z"/>
		<path class="st1" d="M1743.7,77.1l-7.7-1.5l7.2-0.5C1743.1,75.7,1741.8,76.5,1743.7,77.1z"/>
		<path class="st1" d="M1725.9,84l-6.8-2.6l3,0.9L1725.9,84z"/>
		<path class="st1" d="M1711.8,78.9c-1.6-0.3-2.9-0.8-4.2-1.3c1.9,0.2,3.7,0.4,5.2,0.7C1712.4,78.5,1712,78.7,1711.8,78.9z"/>
		<path class="st1" d="M1713.5,78.5c-0.3,0-0.5-0.1-0.6-0.1C1713.2,78.2,1713.6,78.1,1713.5,78.5z"/>
		<path class="st1" d="M1711.8,78.9c0.1,0.1,0.3,0.1,0.4,0.1C1711.3,79.5,1711.3,79.3,1711.8,78.9z"/>
		<path class="st1" d="M1701,76.9c3.1-0.4,5,0.1,6.7,0.8c-2.2-0.2-4.7-0.4-7.3-0.4C1700.1,77,1700.1,76.8,1701,76.9z"/>
		<path class="st1" d="M1698.2,79.1c-3-0.9-6.4-1-10.3-1.2c4.2-0.4,8.3-0.6,12.4-0.6C1700.8,77.9,1702.7,79.1,1698.2,79.1z"/>
		<path class="st1" d="M1613.2,72.8c0.5-2,4.8-1.3,9.7-0.9c-0.3,0-0.5-0.1-0.8,0C1623.4,74.7,1618.3,73.8,1613.2,72.8z"/>
		<path class="st1" d="M1574.1,79.7C1577.2,79.8,1574.6,79.9,1574.1,79.7L1574.1,79.7z"/>
		<path class="st1" d="M1578.8,78.7c-1.2,0.2-2.5,0.4-4.1,0.6C1575.4,79.1,1576.7,78.9,1578.8,78.7z"/>
		<path class="st1" d="M1574.1,79.7c-1-0.1-2.4-0.1-4.4-0.1c1.8,0,3.5-0.1,5.1-0.3C1574.1,79.5,1573.8,79.6,1574.1,79.7z"/>
		<path class="st1" d="M1650.4,77.9l0.7-0.4l0.1,0.4H1650.4z"/>
		<path class="st1" d="M1578.1,79.7c1.2-0.1,2-0.1,2.8-0.2C1581.4,79.9,1581,80.1,1578.1,79.7z"/>
		<path class="st1" d="M1675.5,80.1c1.6-0.4,3.4-0.8,5.4-1.2C1679.3,79.6,1676,80.6,1675.5,80.1z"/>
		<path class="st1" d="M1481.2,77.9c-4.3,0.8-7.7,1.2-10.7,1.3C1475.7,78,1479.8,76.2,1481.2,77.9z"/>
		<path class="st1" d="M1267.3,78.5c-4.9,1.8-10.4,4.7-9.9,2.4l1.6-2.1C1262.4,79.2,1265,79,1267.3,78.5z"/>
		<path class="st1" d="M1737.6,72.9c0,0.2-0.3,0.3-0.4,0.4C1737.1,73.3,1737.2,73.2,1737.6,72.9z"/>
		<path class="st1" d="M1664.4,77.3l2.9,0.3c-3.3,0.3-5.6,1.1-10,2.6c-4.8-0.9-5.9-1.6-6.1-2.3l14.3-0.3L1664.4,77.3z"/>
		<path class="st1" d="M1680.5,77.6c-2.4-2.1-9.4-3-5.1-5.3c8.6,0.2,6,1.8,11.1,2.7c-13.7-0.5,3.9,1.2-6,2.3
			c2.7,0.4,5.2,0.5,7.4,0.6c-2.5,0.2-4.8,0.5-7,1c0.1-0.1,0.1-0.1,0.3-0.2h0.1v-0.1c0.5-0.2,0.8-0.4,0-0.3c0,0-0.1,0-0.3,0
			C1681,78.1,1680.8,77.9,1680.5,77.6c-4.1,0.4-0.7,0.5,0.5,0.8c0.1,0.1,0.3,0.2,0.3,0.3l-0.1,0.1l-13.8-1.2
			C1670.3,77.3,1674,77.3,1680.5,77.6z"/>
		<path class="st1" d="M1711.8,72.4l-11.5-1l5.8-1.8l-0.3,1.1C1712.4,70.2,1711,71.5,1711.8,72.4z"/>
		<path class="st1" d="M1588.2,70.2c0.3,0.5,0.8,0.9,1.3,1C1588.8,71,1588.3,70.7,1588.2,70.2z"/>
		<path class="st1" d="M32.3,75.6c1.4,0.2,3.6,0.2,5.9,0.2C37.1,75.9,35.4,75.9,32.3,75.6z"/>
		<path class="st1" d="M800.8,77.2c-2-0.4-2.9-0.8-2.9-1.3C800.2,76.3,801.4,76.7,800.8,77.2z"/>
		<path class="st1" d="M1458.3,79.3c0.8-0.2,1.6-0.3,2.2-0.5c3.1,0.4,6.3,0.7,10.1,0.5C1466.7,80.1,1462.4,80.7,1458.3,79.3z"/>
		<path class="st1" d="M1925,71.7h-171.3c1.2,0.5,1.3,1-2.2,1.6l-1.1-0.3c-4.3,0.6-9.7,2.3-11.2,3.2c1.6-1.6,3-2.9,6.2-4.6h-85.3
			c0.9,2.6-2.5,6.6-6.7,9.2c-0.3-0.9-0.3-1.6-7.2-2.8c2.4-1.1,15.5-2.5,9.6-4.3c-9.2-1-7.5,0.6-12,1.7c2.3-1.5-2.7-2.5-6.5-3.9h-19
			l-0.3,0.4l-0.4-0.4h-21.7c0.8,0.1,1.6,0.1,2.1,0.3c-1.2-0.1-3.2-0.1-5-0.3h-5.1c-2.3,0.1-4.4,0.2-5.3,0h-10.9c2.1,1,8,1.6,3.4,2.3
			c7,1.5,14.9,3.9,24.7,2.7l1.9-3c-0.3,0.9-6.5,1.8-9.3,0.9c4.1,1.3,15.3-4.1,19.7-0.2l-6.9,2.1c7,1.5,15.8,4.7,24.6,3.8
			c-4,3-2.1-0.3-8.3,3.2c5.3-4.4-22.4,0.2-13.7-4.4c-6.5,4-11.1,1.7-19.5,5.1c0.3-1,3-1.9-4.4-1.4c-0.3-0.3-1-0.6-1.5-0.9
			c-0.3,0.1-0.3,0.1-0.5,0.1l0.4-0.1c-0.3-0.2-0.3-0.2,0.3,0c1.7-0.4,3.1-1,3.8-1.5c-3.8-2.3-15.4-2.2-19.4-3.4
			c-4.3,0.5,1.8,1.2-0.5,2.2l-5.9-1.7c-0.5,2.2-11.5,3.7-1.3,5l-9.2,0.1c-5.4,1.2-12.9,1.7-17.6,0.8c-4.4,0.5-11-2.5-7.2-0.7
			l-14.5-1.4l-0.1,0.5c-14.3,0.3-29.5-3.6-45.9,0.3c-4.8-0.5-9.7-1.2-17.7-0.6l-1.7,1.9c-6.2-0.6-18.5,1.9-21.2,0
			c-6.6,5.1-30,1.1-40.9,2l-0.4-2.5c-7.5,0.2-14.7-0.5-24.1-1.6l0.7-2.2c-8.2-1.8-20.7,1.6-33.4,1.4c0.9,0.8,4.2,0.6,6.3,0.1
			c-15.1,5-31.9-3.7-45.6,0c-3.4-0.8-5.9-0.5-8.3,0c0.3,0,0.6,0.1,0.8,0.1c-0.3,0.1-0.8,0.1-1.3,0.1c-1.6,0.4-3.1,0.8-4.8,1.1
			c1.4-0.5,2.7-1,4-1.1c-2.7-0.1-6.7-0.3-10.6-0.9l-1.7,2.3c-0.3,0-0.5-0.1-0.9-0.1c-3.9,0.9-3.1-1.1-1-2.9
			c-1.9-0.4-3.8-0.9-5.2-1.5c-3.2,3.9-10.3-1.3-14.6,2.8c-2.6-2-19.7-1.5-21.9-5.7c-0.1,0.5-1.3,0.8,0.9,0.9
			c-4.4,0.4-8.8,0.9-12.7-0.3l-1.8,3l-9.6-4.1c-5.8,1.9-8.3,2.9-2.5,5.2c-14-3.5-11.4-1.3-23.1-4.8l0.5,1.9c-4.1,0-11-2.7-13.5-1
			c-9.6,3.7-46.8,0.5-71.1,3.9c4.7-5.7-11.4,2.6-12.3-1.8c-1.4,1.4-4.8,2.1-0.9,3.3c-12.4-1.4-18.6,2.1-27.2-1.6
			c-1.4,1.4,2.6,2,1.4,2.8c-1-0.3-4-1.2-5.3-0.4c-1.2,0.8,1.8,1.1,3.9,1.7c-12.7-0.2-14-4.4-15-8.3c-6.3,1.9-9.6,1.6-14.2-1
			c-2.2,1.3-6,2.7,1.9,3.1c-4.4,0.2-27,1.9-27.5-1.3c-1.3,0.8-6.1,0.2-7.2-0.2c-10,0.2-10.9,0.5-20.6,0.2l2.7-0.5
			c-3.9-3.8-8.2-0.8-16.1-1.3l0.3,0.4c-18.1,2.7-7.8-1.4-25.6,1.8l1-2.3c-1.7-5.1-15.8,2.9-26.1,1l3.8-1.4
			c-5.7-1.7-15.8,6.9-21.5,7.5c-1.2,0.5,1.9,0.8,3.7,1.1c-14.9,3-2.1-3.1-13.1-3.8c-2.1,1.6,2.7,4.3-4.8,4.5
			c-3.6,1.4-21.5-5.4-31.6-2.2c2.2-1.3,4.4-2.5-0.7-3.5c-7.9-0.5-21.3,4.9-28.4,0.8c-1,0.4-1.3,0.7-1.4,1c-5.9-1-19.5-1.7-23.2-4
			c-5.6,8.2-37.4-3.9-37.2,3.6l-18.5-0.4l0.5,0.8c-11.8,0.5-16-1.3-20.2-3.2c-2.7,0.5-0.7,1.3-0.5,1.6c-17.2,1.5-19,1.2-33.5-2.6
			l-1.4,2.5c-4-1.4-25,3.8-41.9,1c0.1,0.3,0.5,0.8,1.8,1.1c-19-2.9-45.6,6.8-52.6-2.1l-12.6-2.2c11.5-0.5,5.6-2.2,3.5-3.7h-9.8
			c-1.4,0.6-1.3,1.3,1.9,1.5l1.2-0.5c3,4.7-20.2,1.7-19.8,4.8c-31.9-0.3-63.2,2.3-93.2,2.5l3.5-3.6l-10.5,0.2
			c-2.7,0.8-3.6,2.8,3.9,2.7c-4,2-12.6-1.7-12.8-2.5c-14.6,1.5,5.7,4.2,1.3,4.3l-6.1-0.3l1.3-0.4c-4.9-1.5-5.3-3.1-14.4-2.8
			c-5.6,0.7-2.8,2.2-5,2.3c0,0.3-0.8,0.4-3.5,0.1l-13.2,0.3l5.3-2.9c-5.8-1.4-12.4,0.2-6.3-3c-8.9,5-49.1,1.8-54.7,3.3
			c-8.1-2.1-16.2-2.1-26.2-1.8c2.6-0.6,4-3.8-4.5-3.4c3.1,6.6-15.9,2.8-22.9,7.6c6.3-3.1-24.4-0.8-14.7-5.2c-7.1,0.5-0.4,2.5-5.8,4
			c-17.2-2.6-37.8,1.6-59,0.8c-0.4-0.9,3.2-2.2-1.3-3.5l-11.2,4.3c-4.1-0.4-3.9-5-11.5-2c1.2-0.8,2.7-1.8-0.1-2.1
			C142.2,80.7,99,73.1,56.9,81c5.7-1.7,1.8-1.9-2.5-1.9c2.8-0.4-0.1-2.1,0.4-3.3l-17.6,3.3c-3.2-3.3-18.9-0.2-20.7-3.3l5.6,0.5
			c-2.8-1.4-1.9-2.9,0.1-4.6H-2v-449.5h405.5l-1.4-0.4c2.3-0.5,2.5-1.1,3.8-1.9l0.1,2.3h35c-2.7-0.4-5.6-0.8-7.9-1.3
			c1.9-3,14-0.5,20,0.7c0-4.1-10.5-8.5-24.8-10.4c-11.4-1-4.9,2.7-7,2.1c-21.5,0.7-18.2-7.2-36.1-4.3c-7,2.7-0.3,5.3-1.8,7.2
			c9.3,1,14.2-1.7,20.6-1.6l-7.8,1.3c3,0.9,9.2,1.5,12.5,0.8c-5.9,2.4-36.2,0.5-52.7,2.7c-3-0.9-8-1.8-5.6-2.9l5.2,0.4
			c4.8-2.1-9.8-2.9-3.2-3.9c-7-1.5-14.9-3.9-24.7-2.7l-1.9,3c0.3-0.9,6.5-1.8,9.3-0.9c-4.1-1.4-15.3,4.1-19.7,0.1l6.8-2.1
			c-7-1.5-15.8-4.7-24.6-3.8c4-3,2.1,0.3,8.3-3.2c-5.4,4.4,22.4-0.2,13.7,4.4c6.5-4,11.1-1.7,19.4-5.2c-0.3,1-2.8,1.9,4.4,1.4
			c0.4,0.3,1.2,0.7,1.7,0.9c0.3,0,0.3,0,0.5-0.1l-0.4,0.2c0.3,0.1,0.3,0.2-0.3,0c-1.7,0.4-3.1,1-3.6,1.5c3.6,2.3,15.3,2.2,19.3,3.4
			c4.3-0.4-1.8-1.1,0.5-2.2l5.9,1.7c0.5-2.2,11.5-3.6,1.3-5l9.2-0.1c5.4-1.3,12.9-1.7,17.6-0.8c4.4-0.4,11,2.5,7.2,0.8l14.5,1.4
			l0.1-0.5c14.4-0.3,29.5,3.7,45.9-0.4c4.8,0.6,9.7,1.3,17.8,0.7l1.6-2c6.2,0.7,18.6-1.8,21.2,0.1c6.7-5.1,30-1.1,40.9-2l0.5,2.5
			c7.5-0.2,14.6,0.5,23.9,1.6l-0.6,2.2c8,1.8,20.7-1.6,33.4-1.4c-0.9-0.8-4.1-0.6-6.3-0.1c15.1-4.9,31.9,3.7,45.6,0
			c3.4,0.8,5.9,0.5,8.3,0c-0.3,0-0.5,0-0.8-0.1c0.3,0,0.8,0,1.3,0c1.6-0.4,3.1-0.8,4.8-1.2c-1.4,0.5-2.7,1-4,1.2
			c2.7,0,6.7,0.3,10.6,0.9l1.7-2.3c0.4,0,0.5,0.1,0.9,0.1c3.9-0.9,3.1,1.1,1,2.9c2.1,0.4,3.9,0.9,5.2,1.5c3.1-3.9,10.3,1.3,14.6-2.8
			c2.6,2,19.7,1.5,21.8,5.7c0.1-0.5,1.3-0.8-0.9-0.9c4.4-0.4,8.8-0.9,12.7,0.2l1.9-3l9.6,4.1c5.7-1.9,8.2-2.9,2.3-5.3
			c14,3.6,11.4,1.4,23.2,4.9l-0.5-2c4.1,0.1,11,2.7,13.4,1.1c9.6-3.7,46.9-0.5,71.1-3.9c-4.7,5.7,11.4-2.6,12.3,1.9
			c1.4-1.4,4.8-2.1,0.9-3.3c12.4,1.4,18.6-2.1,27.2,1.6c1.4-1.4-2.7-2-1.4-2.8c1,0.3,4,1.2,5.3,0.4c1.2-0.8-1.8-1.1-3.7-1.7
			c12.7,0.2,13.8,4.4,14.7,8.3c6.5-1.9,9.7-1.6,14.4,1c2.2-1.3,5.9-2.6-1.9-3c4.4-0.2,27-1.9,27.4,1.3c1.4-0.8,6.2-0.2,7.4,0.1
			c9.9-0.2,10.9-0.4,20.6-0.2l-2.6,0.5c3.7,3.8,8,0.9,15.9,1.3l-0.3-0.4c18.1-2.7,7.8,1.3,25.6-1.8l-0.9,2.3c1.6,5.1,15.6-3,26-1
			l-3.7,1.4c5.7,1.7,15.8-6.9,21.5-7.6c1.3-0.4-1.9-0.7-3.6-1c14.8-3,1.8,3.1,12.9,3.8c2.1-1.6-2.6-4.3,4.8-4.5
			c3.8-1.4,21.6,5.4,31.7,2.2c-2.2,1.3-4.4,2.6,0.8,3.5c7.8,0.5,21.2-4.8,28.3-0.8c0.9-0.3,1.4-0.6,1.4-1c6,1,19.5,1.7,23.1,3.9
			c5.6-8.2,37.4,4,37.2-3.5l18.5,0.4l-0.5-0.8c11.8-0.5,16,1.3,20.2,3.1c2.7-0.5,0.8-1.2,0.5-1.6c17.3-1.5,19-1.2,33.5,2.6l1.4-2.5
			c4,1.4,25.1-3.8,41.9-1c-0.1-0.3-0.5-0.8-1.8-1.1c19,2.8,45.7-6.8,52.6,2.1l12.5,2.2c-16.3,0.7,2.5,3.9-4.3,5.3
			c6.5,0.5,16.5-2.7,8.7-3.2l-1.2,0.5c-3-4.7,20.2-1.7,19.8-4.9c31.9,0.3,63.2-2.3,93.1-2.5l-3.4,3.6l10.5-0.2
			c2.7-0.8,3.6-2.8-3.9-2.7c4-2,12.5,1.7,12.8,2.5c14.6-1.5-5.7-4.2-1.3-4.3l6.1,0.3l-1.3,0.4c4.9,1.5,5.3,3,14.4,2.8
			c5.7-0.7,2.8-2.2,5-2.3c0-0.3,0.8-0.4,3.5-0.1l13.2-0.3l-5.3,2.8c5.8,1.4,12.4-0.1,6.3,3.1c8.9-5,49.1-1.8,54.6-3.3
			c8.3,2.1,16.3,2,26.4,1.8c-2.6,0.6-4,3.8,4.7,3.4c-3.2-6.6,15.8-2.8,22.8-7.6c-6.3,3.2,24.4,0.8,14.8,5.3c7.2-0.5,0.4-2.5,5.8-4
			c17.2,2.6,37.8-1.7,59-0.8c0.4,0.9-3.2,2.2,1.4,3.5l11.1-4.3c4.1,0.4,3.9,5,11.5,2c-1.2,0.7-2.7,1.8,0.1,2.1
			c41.5-4.3,84.7,3.4,126.8-4.5c-5.7,1.6-2,1.9,2.4,1.9c-2.8,0.4,0.1,2.1-0.5,3.3l17.7-3.3c3.2,3.3,18.9,0.2,20.8,3.3l-5.7-0.5
			c6.7,3.3-7.2,7.4-9,11.6h28.8V71.7z M399,75.8l2.1-0.7C396.4,74.5,397.7,75.1,399,75.8z M371.4-397.5c0,0.1,0.1,0.1,0.3,0.1
			C376.7-398.3,374.9-397.9,371.4-397.5z M434-382.4c-1.8,0.6-2.3,1-2.1,1.3h8.6C439.1-381.7,437.1-382.4,434-382.4z M485.9-388.2
			c0.4,0.9-1.2,2-2,2.5c-14.9,0.3-22.8,1.8-36.6,1.8c-1.2,0.7-6.4,1.5-5.9,2.7H501C500.1-383.6,491.9-387.4,485.9-388.2z
			 M548.2-392.7c-1.2,0.3-17.1,3.6-20.9,5.5c-3.1,1.8,0.4,4,2.7,6h19.4C550.8-385.7,550.3-390.9,548.2-392.7z M584.1-382.8
			c-0.9,0.3-1.2,1-1,1.7h15.9C594.5-382.3,589.4-383.1,584.1-382.8z M605.1-393l-2.6,1.6l-10.2-1.9c4.3,2.9,14.1,8.1,22.9,12.2h13.8
			C623.5-385.5,614.6-391.5,605.1-393z M637.2-384.9c0.8,0.5,1.8,2.2,2,3.8h12.7C648.1-383.1,644.5-385.1,637.2-384.9z M679.2-382
			c0.7,0.2,1,0.5,1.3,0.9h0.7L679.2-382z M691.1-382.6c0.3,0.3,0.3,0.8,0.3,1.5h4.4C694.5-382,693-382.6,691.1-382.6z M713.5-381.9
			c-0.7,0.3-1.2,0.5-1.7,0.8h2.9C714.4-381.6,714.1-381.8,713.5-381.9z M720-390.4c1.3,2.2-1,6-0.9,9.3h9.8l0.8-1.3l1.3,1.3h5.6
			L720-390.4z M742.4-382.2c0,0.1,0.1,0.5,0.3,1.1h1C743.1-381.4,742.7-381.8,742.4-382.2z M830-385.6c3,1.6,2.6,2.9,1.9,4.5h21.8
			C847.1-383.1,839.7-384.9,830-385.6z M878.2-381.1h5c0.4-0.1,0.8-0.2,1.2-0.3C882.6-381.7,880.4-381.6,878.2-381.1z M894.6-385.5
			c2.5-1.1,4.7-2.2,6.1-2.6l-12.8-1.7c-1.6,0.5-0.3,1.6,1.8,2.9c-0.9-0.3-1.7-0.5-2.3-0.8c-4.6,1.2-2.2,3,1.2,4.7
			c1.4-0.6,3-1.3,4.6-1.9c1.9,1.2,3.8,2.5,4.7,3.8h8.3C904.2-382.6,899.3-384.2,894.6-385.5z M1022.5,68.4h-12.7l12.8,1.7
			C1023.7,69.7,1023.5,69.1,1022.5,68.4z M1190.3,68.4h-3.7l4.1,2.3C1190.3,70,1190.1,69.2,1190.3,68.4z M1309.6,68.4h-17.3
			c4,2.2,8.6,4.1,13.3,4.9l2.6-1.6l10.3,1.8C1316.4,72.1,1313.2,70.3,1309.6,68.4z M1373,68.4l-0.1,1.6l-0.5-1.6h-11.7
			c0.3,2,0.8,3.7,2,4.5c0.9-0.2,12.3-2.7,18.1-4.5H1373z M1424.7,68.4h-0.1C1424.6,68.4,1424.6,68.4,1424.7,68.4L1424.7,68.4z
			 M1539.4,77.7c-0.1,0-0.3,0-0.3-0.1C1533.9,78.5,1535.7,78.2,1539.4,77.7z M1470.1-382c0.4,0.3,1,0.5,1.8,0.9h15.6
			C1482.8-382.3,1477.3-383.2,1470.1-382z M1511.6-395.6l-2.1,0.6C1514.2-394.2,1512.9-394.8,1511.6-395.6z M1526.2,68.4
			c-2.1,0.3-4,0.7-6.3,0.6l3.8-0.6h-27.1c-0.1,0.1,0,0.1-0.1,0.2l-2.2-0.2h-15.9c4.4,1.7,10.3,3.2,17.1,4c11.6,1,5.1-2.7,7.1-2.1
			c21.6-0.8,18.4,7.3,36.4,4.3c6-2.2,2.1-4.4,1.7-6.2H1526.2z M1535.1-382.8c-1.9,0-3.8,0.8-5.7,1.7h18.7
			C1545.7-382.3,1539.1-383.2,1535.1-382.8z M1570.8-382.3c2,0.4,2.5,0.8,2.4,1.2h6.6C1578-381.7,1575.6-382.1,1570.8-382.3z
			 M1586.8-381.2L1586.8-381.2L1586.8-381.2z M1750.3,68.4h-6c0.9,0.3,2,1,4.8,0.8C1750.5,68.9,1750.5,68.6,1750.3,68.4z"/>
	</g>
</g>
</svg>
