<?xml version="1.0" encoding="utf-8"?>
<!-- Generator: Adobe Illustrator 23.1.0, SVG Export Plug-In . SVG Version: 6.00 Build 0)  -->
<svg version="1.1" id="Layer_1" xmlns="http://www.w3.org/2000/svg" xmlns:xlink="http://www.w3.org/1999/xlink" x="0px" y="0px"
	 viewBox="0 0 1922 95.7" style="enable-background:new 0 0 1922 95.7;" xml:space="preserve">
<style type="text/css">
	.st0{clip-path:url(#SVGID_2_);}
	.st1{fill:#E9E9E9;}
</style>
<g>
	<defs>
		<rect id="SVGID_1_" x="1" width="1922" height="100"/>
	</defs>
	<clipPath id="SVGID_2_">
		<use xlink:href="#SVGID_1_"  style="overflow:visible;"/>
	</clipPath>
	<g class="st0">
		<path class="st1" d="M135.5,13.3c0.5,1-0.8,0-3.6-0.7l6.8,1.1C137.8,14.3,137.6,15.4,135.5,13.3z"/>
		<path class="st1" d="M141.8,14.2l-3.1-0.5C139.2,13.4,140,13.3,141.8,14.2z"/>
		<path class="st1" d="M135.9,11.6l-6-1.2c1.3-0.8,6.6-1,4.7-1.6C140.9,9.5,139.6,10.3,135.9,11.6z"/>
		<path class="st1" d="M160.4,16.2c4,1.2,12.3,2.5,4.3,4.3C161.8,19,166.4,18,160.4,16.2z"/>
		<path class="st1" d="M131.8,15.4l13.3,2.7l-2.2-0.1L131.8,15.4z"/>
		<path class="st1" d="M1910.1,13.6l6.4-1l-4.2,1.7L1910.1,13.6z"/>
		<path class="st1" d="M126.4,15.6c-11.6-0.5-9.9-2.9,1.7-2.4C124.7,13.9,120.3,14.4,126.4,15.6z"/>
		<path class="st1" d="M4.9,13.7c-2.9,0.2-1.8-1.9-2.2-2.3C7.4,12,4.8,14.2,4.9,13.7z"/>
		<path class="st1" d="M114.7,10.9c0.9,0,2.2,0,4.4-0.1c-1.4,1.4,5.1,1.2-5.5,0.4C114.2,11.1,114.3,11,114.7,10.9z"/>
		<path class="st1" d="M51,17.6l6.9,2.1l-6.1-1.2L51,17.6z"/>
		<path class="st1" d="M171.3,12.8l6.8,1.3C172.1,14.2,171.1,13.6,171.3,12.8z"/>
		<path class="st1" d="M72,19.1l-1.3,0.8L67.2,17c9.5,0.5,21.9,2.3,28.5,1.4C91.7,21.9,79.8,17.8,72,19.1z"/>
		<path class="st1" d="M114.7,10.9C110,10.8,117.7,9.7,114.7,10.9L114.7,10.9z"/>
		<path class="st1" d="M89.4,21.9c2,0.6,8.8-0.9,8.6,0.2l-4.5,1L89.4,21.9z"/>
		<path class="st1" d="M174,9.8c0.3,0.8-2.1,2-2.6,2.9l-4.4-0.9C169.3,11.4,173.6,10.9,174,9.8z"/>
		<path class="st1" d="M286.8,11.3l4,1.1l-3.4,0.8L286.8,11.3z"/>
		<path class="st1" d="M293.1,20c-0.5-1.1,1.8-0.2,4.5,0.1C296.1,19.9,294.5,19.8,293.1,20z"/>
		<path class="st1" d="M216.7,10.1c-2.9-1.5,3.9-2.5,0.8-3.3c4.7,0.3,8.6,1.5,12.2,2.6C225.9,8.7,221.9,8.9,216.7,10.1z"/>
		<path class="st1" d="M271,10.8l6.6,3.2l-5.1-0.9L271,10.8z"/>
		<path class="st1" d="M314.7,11.2l6.9,0.6c-3.4-0.1-4.5,0.4-6.2,0.8C315.5,12.1,316.8,11.3,314.7,11.2z"/>
		<path class="st1" d="M357.8,14c-2.2,0.5-1.4-2.6-2.7-1.7C352.6,9.7,370.3,15.3,357.8,14z"/>
		<path class="st1" d="M192.2,13.7L192.2,13.7c2.9-0.1,4.9-0.1,5.7-0.2C197.3,13.6,195.4,13.6,192.2,13.7z"/>
		<path class="st1" d="M188.9,13.7c0.3,0,0.4,0,0.6,0C189.3,13.9,189.2,14,188.9,13.7z"/>
		<path class="st1" d="M235.7,10.9c-1.9-0.3-3.9-0.9-6-1.6C231.6,9.7,233.6,10.1,235.7,10.9z"/>
		<path class="st1" d="M185.7,16.3l2.6-0.2l0.9,0.9L185.7,16.3z"/>
		<path class="st1" d="M189.6,13.7c0.5-0.4,1.6-1.6,5.3-2.1l-2.7,2.1C191.4,13.6,190.5,13.7,189.6,13.7z"/>
		<path class="st1" d="M178,14.8l7.7,1.5l-7.1,0.5C178.6,16.3,179.9,15.4,178,14.8z"/>
		<path class="st1" d="M195.8,8l6.8,2.6l-3-0.9L195.8,8z"/>
		<path class="st1" d="M209.9,13.1c1.6,0.3,2.9,0.8,4.2,1.3c-1.9-0.2-3.6-0.4-5.2-0.7C209.2,13.5,209.6,13.3,209.9,13.1z"/>
		<path class="st1" d="M208.2,13.5c0.3,0,0.5,0.1,0.6,0.1C208.5,13.8,208.1,13.9,208.2,13.5z"/>
		<path class="st1" d="M209.9,13.1c-0.1-0.1-0.3-0.1-0.4-0.1C210.4,12.5,210.4,12.7,209.9,13.1z"/>
		<path class="st1" d="M220.7,15.1c-3.1,0.4-4.9-0.1-6.6-0.8c2.2,0.2,4.7,0.4,7.3,0.4C221.6,15,221.6,15.2,220.7,15.1z"/>
		<path class="st1" d="M223.4,12.9c3,0.9,6.4,1,10.3,1.2c-4.2,0.4-8.3,0.6-12.4,0.6C220.8,14,219,12.8,223.4,12.9z"/>
		<path class="st1" d="M308.3,19.1c-0.5,2-4.8,1.3-9.6,0.9c0.3,0,0.5,0.1,0.8,0C298.2,17.3,303.3,18.2,308.3,19.1z"/>
		<path class="st1" d="M347.4,12.3C344.3,12.2,346.9,12.1,347.4,12.3L347.4,12.3z"/>
		<path class="st1" d="M342.7,13.3c1.2-0.2,2.5-0.4,4-0.6C346.1,12.8,344.8,13,342.7,13.3z"/>
		<path class="st1" d="M347.4,12.3c1,0.1,2.4,0.1,4.4,0.1c-1.8,0-3.5,0.1-5.1,0.3C347.4,12.5,347.6,12.4,347.4,12.3z"/>
		<path class="st1" d="M271.2,14l-0.7,0.4l-0.1-0.4H271.2z"/>
		<path class="st1" d="M343.3,12.3c-1.2,0.1-2,0.1-2.7,0.2C340.1,12.1,340.5,11.9,343.3,12.3z"/>
		<path class="st1" d="M246.1,11.9c-1.6,0.4-3.4,0.8-5.3,1.2C242.3,12.4,245.6,11.4,246.1,11.9z"/>
		<path class="st1" d="M440.1,14c4.3-0.8,7.7-1.2,10.7-1.3C445.6,14,441.5,15.8,440.1,14z"/>
		<path class="st1" d="M653.6,13.5c4.9-1.9,10.4-4.7,9.9-2.4l-1.6,2.1C658.6,12.8,656,13,653.6,13.5z"/>
		<path class="st1" d="M184.1,19c0-0.2,0.3-0.3,0.4-0.4C184.6,18.6,184.5,18.8,184.1,19z"/>
		<path class="st1" d="M257.2,14.6l-2.9-0.3c3.2-0.3,5.6-1.1,10-2.6c4.8,0.9,5.9,1.6,6.1,2.3l-14.3,0.3L257.2,14.6z"/>
		<path class="st1" d="M241.1,14.4c2.4,2.1,9.4,3.1,5.1,5.3c-8.6-0.2-6-1.8-11.1-2.7c13.7,0.5-3.9-1.2,6-2.3
			c-2.7-0.4-5.2-0.5-7.4-0.6c2.5-0.2,4.8-0.5,7-1c-0.1,0.1-0.1,0.1-0.3,0.2h-0.1v0.1c-0.5,0.2-0.8,0.4,0,0.3c0,0,0.1,0,0.3,0
			C240.6,13.9,240.9,14.1,241.1,14.4c4.1-0.4,0.7-0.5-0.5-0.8c-0.1-0.1-0.3-0.2-0.3-0.3l0.1-0.1l13.8,1.1
			C251.3,14.7,247.7,14.6,241.1,14.4z"/>
		<path class="st1" d="M209.9,19.6l11.5,1l-5.8,1.8l0.3-1.1C209.2,21.8,210.7,20.5,209.9,19.6z"/>
		<path class="st1" d="M333.3,21.8c-0.3-0.5-0.8-0.9-1.3-1C332.7,21,333.2,21.3,333.3,21.8z"/>
		<path class="st1" d="M1886.8,16.4c-1.4-0.2-3.6-0.2-5.8-0.2C1881.9,16,1883.6,16,1886.8,16.4z"/>
		<path class="st1" d="M1119.4,14.7c2,0.4,2.9,0.8,2.9,1.3C1120.1,15.7,1118.9,15.3,1119.4,14.7z"/>
		<path class="st1" d="M463,12.7c-0.8,0.2-1.6,0.3-2.2,0.5c-3.1-0.4-6.3-0.6-10-0.5C454.6,11.8,458.9,11.2,463,12.7z"/>
		<path class="st1" d="M-3,20.3h171c-1.2-0.5-1.3-1,2.2-1.6l1.1,0.3c4.3-0.6,9.7-2.3,11.2-3.2c-1.6,1.6-3,2.9-6.2,4.6h85.2
			c-0.9-2.6,2.5-6.6,6.7-9.2c0.3,0.9,0.3,1.6,7.2,2.8c-2.4,1.1-15.5,2.5-9.5,4.3c9.2,1,7.5-0.7,12-1.7c-2.3,1.5,2.7,2.5,6.5,3.9h19
			l0.3-0.4l0.4,0.4h21.7c-0.8-0.1-1.6-0.1-2.1-0.3c1.2,0.1,3.2,0.1,5,0.3h5c2.3-0.1,4.4-0.2,5.3,0h10.9c-2.1-1-8-1.6-3.4-2.3
			c-7-1.5-14.8-3.9-24.7-2.7l-1.9,3c0.3-0.9,6.5-1.8,9.3-0.9c-4.1-1.3-15.2,4.1-19.6,0.2l6.9-2.1c-7-1.5-15.8-4.7-24.5-3.8
			c4-3,2.1,0.3,8.3-3.2c-5.3,4.4,22.3-0.2,13.7,4.4c6.4-4,11.1-1.7,19.5-5.1c-0.3,1-3,1.9,4.4,1.4c0.3,0.3,1,0.6,1.6,0.9
			c0.3-0.1,0.3-0.1,0.5-0.1l-0.4,0.1c0.3,0.2,0.3,0.2-0.3,0c-1.7,0.4-3.1,1-3.7,1.5c3.7,2.3,15.4,2.2,19.4,3.4
			c4.3-0.5-1.8-1.2,0.5-2.2l5.9,1.7c0.5-2.2,11.5-3.7,1.3-5l9.2-0.1c5.4-1.2,12.9-1.7,17.6-0.8c4.4-0.5,11,2.5,7.2,0.7l14.5,1.4
			l0.1-0.6c14.3-0.3,29.4,3.7,45.8-0.3c4.8,0.5,9.7,1.2,17.7,0.6l1.7-1.9c6.2,0.6,18.5-1.9,21.2,0c6.6-5.1,30-1.1,40.8-2l0.4,2.5
			c7.5-0.2,14.7,0.5,24,1.6l-0.7,2.2c8.1,1.8,20.6-1.6,33.3-1.4c-0.9-0.8-4.1-0.6-6.3-0.1c15.1-5,31.9,3.6,45.6,0
			c3.4,0.8,5.9,0.5,8.3,0c-0.3,0-0.6-0.1-0.8-0.1c0.3-0.1,0.8-0.1,1.3-0.1c1.6-0.4,3.1-0.8,4.8-1.1c-1.4,0.5-2.7,1-4,1.1
			c2.7,0.1,6.7,0.3,10.6,0.9l1.7-2.3c0.3,0,0.5,0.1,0.9,0.1c3.9-0.9,3.1,1.2,1,2.9c1.9,0.4,3.8,0.9,5.2,1.5
			c3.2-3.9,10.3,1.3,14.6-2.8c2.6,2,19.6,1.5,21.8,5.7c0.1-0.5,1.3-0.8-0.9-0.9c4.4-0.4,8.8-0.9,12.6,0.3l1.8-3.1l9.5,4.1
			c5.8-1.8,8.3-2.9,2.5-5.2c13.9,3.5,11.4,1.3,23.1,4.8l-0.5-1.9c4.1,0,11,2.7,13.4,1c9.6-3.7,46.7-0.5,71-3.9
			c-4.7,5.7,11.4-2.6,12.3,1.9c1.4-1.4,4.8-2.1,0.9-3.3c12.4,1.4,18.6-2.1,27.1,1.6c1.4-1.4-2.6-2-1.4-2.8c1,0.3,4,1.2,5.3,0.4
			c1.2-0.8-1.8-1.1-3.9-1.7c12.6,0.2,13.9,4.4,15,8.3c6.3-1.9,9.5-1.6,14.2,1c2.2-1.3,5.9-2.7-1.9-3.1c4.4-0.2,27-1.9,27.5,1.3
			c1.3-0.8,6.1-0.2,7.2,0.2c10-0.2,10.9-0.5,20.5-0.2l-2.7,0.5c3.9,3.8,8.1,0.8,16,1.3l-0.3-0.4c18.1-2.7,7.7,1.4,25.6-1.8l-1,2.3
			c1.7,5.1,15.7-2.9,26.1-1l-3.8,1.4c5.7,1.7,15.7-6.9,21.4-7.5c1.2-0.5-1.9-0.8-3.7-1.1c14.8-3,2.1,3.1,13,3.8
			c2.1-1.6-2.7-4.3,4.8-4.5c3.6-1.4,21.5,5.4,31.6,2.2c-2.2,1.3-4.4,2.6,0.7,3.5c7.9,0.5,21.3-4.9,28.4-0.8c1-0.4,1.3-0.7,1.4-1
			c5.9,1,19.5,1.7,23.1,4c5.5-8.2,37.3,3.9,37.2-3.6l18.5,0.4l-0.5-0.8c11.8-0.5,16,1.3,20.1,3.2c2.7-0.5,0.6-1.3,0.5-1.6
			c17.2-1.5,19-1.2,33.4,2.6l1.4-2.5c4,1.4,24.9-3.8,41.8-1c-0.1-0.3-0.5-0.8-1.8-1.1c19,2.9,45.6-6.7,52.5,2.1l12.5,2.2
			c-11.5,0.5-5.6,2.2-3.5,3.7h9.8c1.4-0.6,1.3-1.3-1.9-1.5l-1.2,0.5c-3-4.7,20.1-1.7,19.8-4.8c31.9,0.3,63.1-2.3,93.1-2.5l-3.5,3.6
			l10.5-0.2c2.7-0.8,3.6-2.8-3.9-2.7c4-2,12.5,1.7,12.8,2.5c14.6-1.5-5.7-4.2-1.3-4.3l6.1,0.3l-1.3,0.4c4.9,1.5,5.3,3,14.3,2.8
			c5.6-0.7,2.8-2.2,5-2.3c0-0.3,0.8-0.4,3.5-0.1l13.2-0.3l-5.3,2.9c5.8,1.4,12.4-0.2,6.3,3.1c8.9-5,49.1-1.8,54.6-3.3
			c8.1,2.1,16.1,2.1,26.2,1.8c-2.6,0.6-4,3.8,4.5,3.4c-3.1-6.6,15.9-2.8,22.8-7.6c-6.3,3.1,24.4,0.8,14.7,5.2c7.1-0.5,0.4-2.5,5.8-4
			c17.2,2.6,37.7-1.6,58.9-0.8c0.4,0.9-3.2,2.2,1.3,3.5l11.2-4.3c4.1,0.4,3.9,5,11.5,2c-1.2,0.8-2.7,1.9,0.1,2.1
			c41.4-4.2,84.5,3.4,126.6-4.5c-5.7,1.7-1.8,1.9,2.5,1.9c-2.8,0.4,0.1,2.1-0.4,3.3l17.5-3.3c3.2,3.3,18.8,0.2,20.6,3.3l-5.5-0.5
			c2.8,1.4,1.9,2.9-0.1,4.6h24.3v449.5h-404.8l1.4,0.4c-2.3,0.5-2.5,1.1-3.8,1.9l-0.1-2.3h-35c2.7,0.4,5.5,0.8,7.9,1.3
			c-2,3-13.9,0.5-20-0.6c0,4.1,10.5,8.5,24.8,10.4c11.4,1,4.9-2.7,7-2.1c21.4-0.7,18.2,7.2,36,4.3c7-2.7,0.3-5.3,1.8-7.2
			c-9.3-1-14.2,1.7-20.5,1.6l7.7-1.3c-3-0.9-9.1-1.5-12.5-0.8c5.9-2.4,36.1-0.5,52.7-2.7c3,0.9,8,1.8,5.6,2.9l-5.2-0.4
			c-4.8,2.1,9.8,2.9,3.2,3.9c7,1.5,14.9,3.9,24.7,2.7l1.9-3c-0.3,0.9-6.5,1.8-9.3,0.9c4.1,1.4,15.2-4.1,19.6-0.1l-6.8,2.1
			c7,1.5,15.8,4.7,24.5,3.8c-4,3-2.1-0.3-8.3,3.2c5.4-4.4-22.3,0.2-13.7-4.4c-6.4,4-11.1,1.7-19.4,5.2c0.3-1,2.8-1.9-4.4-1.4
			c-0.4-0.3-1.2-0.6-1.7-0.9c-0.3,0-0.3,0-0.5,0.1l0.4-0.2c-0.3-0.1-0.3-0.2,0.3,0c1.7-0.4,3.1-1,3.6-1.5
			c-3.6-2.3-15.2-2.2-19.2-3.4c-4.3,0.4,1.8,1.2-0.5,2.2l-5.9-1.7c-0.5,2.2-11.5,3.6-1.3,5l-9.2,0.1c-5.4,1.3-12.9,1.7-17.6,0.8
			c-4.4,0.4-11-2.5-7.2-0.8l-14.5-1.4l-0.1,0.5c-14.3,0.3-29.4-3.6-45.8,0.4c-4.8-0.6-9.7-1.3-17.8-0.6l-1.6,2
			c-6.2-0.7-18.6,1.9-21.2-0.1c-6.7,5.1-30,1.1-40.8,2l-0.5-2.5c-7.5,0.2-14.6-0.5-23.9-1.6l0.6-2.2c-8-1.8-20.7,1.6-33.3,1.4
			c0.9,0.8,4.1,0.6,6.3,0.1c-15.1,5-31.9-3.6-45.6,0c-3.4-0.8-5.9-0.5-8.3,0c0.3,0.1,0.5,0.1,0.8,0.1c-0.3,0-0.8,0-1.3,0
			c-1.6,0.4-3.1,0.8-4.8,1.2c1.4-0.5,2.7-1,4-1.2c-2.7,0-6.7-0.3-10.6-0.9l-1.7,2.3c-0.4,0-0.5-0.1-0.9-0.1c-3.9,0.9-3.1-1.1-1-2.9
			c-2.1-0.4-3.9-0.9-5.2-1.5c-3.1,3.9-10.3-1.3-14.6,2.8c-2.6-2-19.6-1.5-21.8-5.7c-0.1,0.5-1.3,0.8,0.9,0.9
			c-4.4,0.4-8.8,0.9-12.6-0.2l-1.9,3l-9.6-4.1c-5.7,1.8-8.1,2.9-2.3,5.3c-13.9-3.6-11.4-1.4-23.1-4.9l0.5,2
			c-4.1-0.1-11-2.7-13.4-1.1c-9.6,3.7-46.9,0.5-71,3.9c4.6-5.7-11.4,2.6-12.3-1.9c-1.4,1.4-4.8,2.1-0.9,3.3
			c-12.4-1.4-18.6,2.1-27.1-1.6c-1.4,1.4,2.7,2,1.4,2.8c-1-0.3-4-1.2-5.3-0.4c-1.2,0.8,1.8,1.1,3.7,1.7c-12.6-0.2-13.8-4.4-14.7-8.3
			c-6.5,1.9-9.7,1.6-14.3-1c-2.2,1.3-5.9,2.6,1.9,3c-4.4,0.2-27,1.9-27.4-1.3c-1.4,0.8-6.2,0.2-7.4-0.1c-9.9,0.2-10.8,0.4-20.5,0.2
			l2.6-0.5c-3.7-3.8-8-0.9-15.9-1.3l0.3,0.4c-18.1,2.7-7.7-1.3-25.6,1.8l0.9-2.3c-1.6-5.1-15.6,3-25.9,1l3.7-1.4
			c-5.7-1.7-15.7,6.9-21.4,7.6c-1.3,0.4,1.9,0.7,3.6,1c-14.7,3-1.8-3.1-12.9-3.8c-2.1,1.6,2.6,4.3-4.8,4.5
			c-3.8,1.4-21.6-5.4-31.6-2.2c2.2-1.3,4.4-2.6-0.8-3.5c-7.7-0.5-21.2,4.8-28.3,0.8c-0.9,0.3-1.4,0.6-1.4,1
			c-5.9-1-19.5-1.7-23.1-3.9c-5.6,8.2-37.3-4-37.2,3.5l-18.5-0.4l0.5,0.8c-11.7,0.5-16-1.3-20.1-3.1c-2.7,0.5-0.8,1.2-0.5,1.6
			c-17.3,1.5-19,1.2-33.4-2.6l-1.4,2.5c-4-1.4-25,3.8-41.8,1c0.1,0.3,0.5,0.8,1.8,1.1c-19-2.8-45.6,6.8-52.6-2.1l-12.5-2.2
			c16.3-0.7-2.5-3.9,4.3-5.3c-6.5-0.5-16.5,2.7-8.6,3.2l1.2-0.5c3,4.7-20.1,1.7-19.8,4.8c-31.9-0.3-63.1,2.3-92.9,2.5l3.4-3.6
			l-10.5,0.2c-2.7,0.8-3.6,2.8,3.9,2.7c-4,2-12.5-1.7-12.8-2.5c-14.6,1.5,5.7,4.2,1.3,4.3l-6.1-0.3l1.3-0.4c-4.9-1.5-5.3-3-14.3-2.8
			c-5.7,0.7-2.8,2.2-5,2.3c0,0.3-0.8,0.4-3.5,0.1l-13.2,0.3l5.3-2.8c-5.8-1.4-12.4,0.1-6.3-3.1c-8.9,5-49.1,1.8-54.5,3.3
			c-8.3-2.1-16.3-2-26.3-1.8c2.6-0.6,4-3.8-4.6-3.4c3.2,6.6-15.7,2.8-22.7,7.6c6.3-3.2-24.4-0.8-14.7-5.3c-7.2,0.5-0.4,2.4-5.8,4
			c-17.2-2.6-37.7,1.7-58.9,0.8c-0.4-0.9,3.2-2.2-1.4-3.5l-11.1,4.3c-4.1-0.4-3.9-5-11.5-2c1.2-0.7,2.7-1.9-0.1-2.1
			c-41.4,4.3-84.6-3.4-126.6,4.5c5.7-1.6,1.9-1.9-2.4-1.9c2.8-0.4-0.1-2.1,0.5-3.3l-17.7,3.3c-3.2-3.3-18.8-0.2-20.8-3.3l5.7,0.5
			c-6.7-3.3,7.2-7.3,9-11.6H-3V20.3z M1520.6,16.2l-2.1,0.6C1523.2,17.5,1521.9,16.9,1520.6,16.2z M1548.2,489.5
			c0-0.1-0.1-0.1-0.3-0.1C1542.9,490.3,1544.7,489.9,1548.2,489.5z M1485.7,474.4c1.8-0.6,2.3-1,2.1-1.3h-8.6
			C1480.6,473.7,1482.6,474.3,1485.7,474.4z M1433.9,480.2c-0.4-0.9,1.2-2,2-2.5c14.8-0.3,22.8-1.8,36.6-1.9
			c1.2-0.7,6.4-1.5,5.9-2.7h-59.5C1419.7,475.6,1427.9,479.4,1433.9,480.2z M1371.6,484.6c1.2-0.3,17.1-3.6,20.8-5.5
			c3.1-1.8-0.4-4-2.7-6.1h-19.4C1369,477.7,1369.6,482.8,1371.6,484.6z M1335.8,474.8c0.9-0.3,1.2-1,1-1.7H1321
			C1325.4,474.3,1330.5,475,1335.8,474.8z M1314.9,485l2.6-1.6l10.2,1.9c-4.3-2.9-14.1-8.1-22.9-12.2h-13.8
			C1296.5,477.4,1305.4,483.4,1314.9,485z M1282.8,476.9c-0.8-0.5-1.8-2.2-1.9-3.8h-12.6C1271.9,475,1275.6,477.1,1282.8,476.9z
			 M1240.9,474c-0.7-0.2-1-0.5-1.3-0.9h-0.7L1240.9,474z M1228.9,474.6c-0.3-0.3-0.3-0.8-0.3-1.5h-4.4
			C1225.5,474,1227.1,474.6,1228.9,474.6z M1206.7,473.8c0.7-0.3,1.2-0.5,1.7-0.8h-2.9C1205.8,473.5,1206,473.8,1206.7,473.8z
			 M1200.2,482.4c-1.3-2.2,1-6,0.9-9.3h-9.8l-0.8,1.3l-1.3-1.3h-5.6L1200.2,482.4z M1177.8,474.2c0-0.1-0.1-0.5-0.3-1.1h-1
			C1177.1,473.4,1177.5,473.8,1177.8,474.2z M1090.3,477.6c-3-1.6-2.6-2.9-1.9-4.5h-21.8C1073.2,475.1,1080.6,476.8,1090.3,477.6z
			 M1042.2,473.1h-4.9c-0.4,0.1-0.8,0.2-1.2,0.3C1037.8,473.6,1040,473.5,1042.2,473.1z M1025.8,477.5c-2.5,1.1-4.7,2.2-6.1,2.6
			l12.8,1.7c1.6-0.5,0.3-1.6-1.8-2.9c0.9,0.3,1.7,0.5,2.3,0.8c4.6-1.2,2.2-3-1.2-4.7c-1.4,0.6-3,1.3-4.6,1.9
			c-1.9-1.2-3.8-2.5-4.7-3.8h-8.3C1016.2,474.6,1021.1,476.1,1025.8,477.5z M898.1,23.6h12.6l-12.8-1.7
			C896.9,22.2,897.1,22.8,898.1,23.6z M730.6,23.6h3.6l-4-2.3C730.6,22,730.7,22.7,730.6,23.6z M611.5,23.6h17.3
			c-4-2.2-8.6-4.1-13.3-4.9l-2.6,1.6l-10.3-1.8C604.7,19.8,607.8,21.6,611.5,23.6z M548.2,23.6l0.1-1.6l0.5,1.6h11.7
			c-0.3-2-0.8-3.7-1.9-4.5c-0.9,0.2-12.2,2.7-18.1,4.5H548.2z M496.5,23.6h0.1C496.6,23.6,496.6,23.6,496.5,23.6L496.5,23.6z
			 M382,14.2c0.1,0.1,0.3,0.1,0.3,0.1C387.5,13.4,385.7,13.8,382,14.2z M451.2,474c-0.4-0.3-1-0.5-1.8-0.9h-15.6
			C438.5,474.3,444,475.2,451.2,474z M409.8,487.5l2.1-0.6C407.2,486.2,408.5,486.8,409.8,487.5z M395.2,23.6c2.1-0.3,4-0.6,6.2-0.6
			l-3.8,0.6h27.1c0.1-0.1,0-0.1,0.1-0.2l2.2,0.2H443c-4.4-1.7-10.3-3.2-17.1-4c-11.6-1-5.1,2.7-7,2.1c-21.6,0.8-18.3-7.3-36.3-4.3
			c-6,2.2-2.1,4.4-1.7,6.2H395.2z M386.3,474.8c1.9,0,3.8-0.8,5.7-1.7h-18.6C375.8,474.2,382.3,475.2,386.3,474.8z M350.7,474.3
			c-2-0.4-2.5-0.8-2.4-1.2h-6.6C343.5,473.7,345.8,474.1,350.7,474.3z M334.6,473.1L334.6,473.1L334.6,473.1z M171.5,23.6h6
			c-0.9-0.3-2-1-4.8-0.8C171.2,23.1,171.2,23.4,171.5,23.6z"/>
	</g>
</g>
</svg>
