<?xml version="1.0" encoding="utf-8"?>
<!-- Generator: Adobe Illustrator 23.1.0, SVG Export Plug-In . SVG Version: 6.00 Build 0)  -->
<svg version="1.1" xmlns="http://www.w3.org/2000/svg" xmlns:xlink="http://www.w3.org/1999/xlink" x="0px" y="0px"
	 viewBox="0 0 512 512" style="enable-background:new 0 0 512 512;" xml:space="preserve">
<g id="Layer_2">
</g>
<g id="Layer_1">
	<path d="M476.4,144.9c-5.3-19.9-20.9-35.6-40.7-40.9C399.8,94.3,256,94.3,256,94.3s-143.8,0-179.7,9.7c-19.8,5.3-35.4,21-40.7,40.9
		C26,181,26,256.3,26,256.3s0,75.3,9.6,111.4c5.3,19.9,20.9,35,40.7,40.3c35.9,9.7,179.7,9.7,179.7,9.7s143.8,0,179.7-9.7
		c19.8-5.3,35.4-20.4,40.7-40.3c9.6-36.1,9.6-111.4,9.6-111.4S486,181,476.4,144.9z M209,324.7V187.9l120.2,68.4L209,324.7z"/>
</g>
</svg>
