<svg width="369" height="244" viewBox="0 0 369 244" fill="none" xmlns="http://www.w3.org/2000/svg">
<path d="M232.092 0.22606L230.846 0L229.59 0.219793L0.869141 40.2636V171.728L229.59 233.157L230.519 233.409L231.863 233.77C231.879 233.826 231.895 233.873 231.904 233.923L368.384 201.254L368.387 24.9551L232.092 0.22606ZM229.59 230.563L3.36887 169.809V42.3629L229.59 2.75874V230.563ZM365.886 199.281L232.098 231.304V2.75955L365.894 27.0358L365.886 199.281Z" fill="#333333"/>
<path d="M302.254 209.535L305.965 208.668L308.464 208.084L363.478 195.255V34.4608L241.635 17.5977V223.676L299.754 210.119L302.254 209.535ZM315.19 30.3018L360.97 36.6377V44.1009L315.19 38.8701V30.3018ZM315.19 41.385L360.97 46.6158V81.9407L315.19 81.4603V41.385ZM315.19 83.9663L360.97 84.4467V92.6693H315.19V83.9663ZM315.19 95.1693H360.97V135.58L315.19 138.252V95.1693ZM315.19 140.762L360.97 138.09V142.777L315.19 147.255V140.762ZM315.19 149.763L360.97 145.286V180.316L315.19 189.063V149.763ZM315.19 191.609L360.97 182.855L360.973 193.273L315.193 203.951L315.19 191.609ZM308.464 192.893V29.374L312.697 29.958V204.529L308.464 205.515V192.893ZM302.254 194.083V28.5144L305.965 29.0293V206.1L302.254 206.966V194.083ZM244.128 20.4686L299.748 28.1641V37.0996L244.128 30.7416V20.4686ZM244.128 33.2598L299.748 39.6178V81.2973L244.128 80.7165V33.2598ZM244.128 83.2222L299.748 83.8031V92.6662L244.128 92.6631V83.2222ZM244.128 95.1654H299.748V139.15L244.128 142.397V95.1654ZM244.128 144.908L299.748 141.662V148.755L244.128 154.189V144.908ZM244.128 156.701L299.748 151.27V192.011L244.128 202.643V156.701ZM244.128 205.182L299.748 194.553V207.545L244.128 220.519V205.182Z" fill="#333333"/>
<path d="M150.156 202.953L213.82 219.816L215.39 220.237V16.5371L203.953 18.2232L201.453 18.5937L186.534 20.7946L184.035 21.1651L168.292 23.4854L165.793 23.8559L151.092 26.0254L148.593 26.3959L135.384 28.3457L132.885 28.7162L117.742 30.9516L115.243 31.3221L98.7492 33.7585L96.2499 34.129L84.0864 35.9249L81.5872 36.2954L69.3546 38.1008L66.8554 38.4713L56.9433 39.9312L54.444 40.3017L43.7 41.8873H42.3343V42.0914L6.23049 47.4164L5.16614 47.5765V164.557L148.607 202.557L150.156 202.953ZM203.953 20.7541L212.888 19.4323V216.983L203.953 214.613V20.7541ZM186.533 23.3256L201.453 21.1246V213.965L186.533 210.009V23.3256ZM168.285 26.0164L184.028 23.6961V209.351L168.285 205.182V26.0164ZM151.086 28.5532L165.786 26.3837V204.507L151.086 200.617V28.5532ZM12.1785 163.82L7.64159 162.62V49.7147L12.1785 49.046V163.82ZM20.6052 166.049L14.6743 164.482V48.683L20.6052 47.8071V166.049ZM31.9866 169.069L23.1041 166.715V47.435L31.9866 46.1257V169.069ZM42.3102 171.801L34.4891 169.726V45.752L42.3102 44.5966V171.801ZM54.4231 175.007L44.8092 172.46L44.8123 44.2347L54.4262 42.8156L54.4231 175.007ZM66.8373 178.297L56.9252 175.672V42.4473L66.8373 40.9873V178.297ZM81.5752 182.203L69.3426 178.963V40.6177L81.5752 38.8124V182.203ZM96.2344 186.084L84.0709 182.859V38.4376L96.2344 36.6416V186.084ZM115.227 191.117L98.7333 186.749V36.2753L115.227 33.8452V191.117ZM132.872 195.785L117.729 191.776V33.4733L132.872 31.2441V195.785ZM135.374 30.8677L148.583 28.9179V199.944L135.374 196.45V30.8677Z" fill="#333333"/>
<path d="M74.0589 211.711L80.1727 206.924C80.3474 206.921 80.5437 206.93 80.7616 206.951C80.9912 206.976 81.1871 207.01 81.3493 207.053C81.6159 207.125 81.8541 207.233 82.0641 207.376C82.2772 207.508 82.4357 207.681 82.5397 207.895C82.6436 208.11 82.6504 208.385 82.5601 208.721L81.1261 214.057L82.6732 214.473C82.6977 214.567 82.7172 214.702 82.7315 214.88C82.7459 215.058 82.7297 215.234 82.683 215.408C82.5989 215.721 82.4613 215.932 82.2702 216.042C82.079 216.153 81.8676 216.176 81.6358 216.114L80.6449 215.848L80.0237 218.16C79.9247 218.158 79.7779 218.15 79.5831 218.135C79.3883 218.12 79.1983 218.087 79.0128 218.037C78.642 217.938 78.3678 217.802 78.1904 217.63C78.016 217.446 77.9802 217.164 78.083 216.781L78.4894 215.269L73.935 214.045C73.766 213.888 73.64 213.686 73.557 213.44C73.474 213.194 73.4729 212.92 73.5539 212.619C73.5975 212.457 73.66 212.294 73.7415 212.129C73.8261 211.953 73.9319 211.814 74.0589 211.711ZM79.0574 213.502L80.2379 209.178L80.2032 209.168L76.0675 212.698L79.0574 213.502ZM87.3752 220.415C86.5176 220.185 85.8072 219.776 85.2441 219.19C84.6956 218.595 84.3465 217.837 84.1968 216.914C84.047 215.992 84.1372 214.916 84.4673 213.688C84.8067 212.425 85.2825 211.44 85.8945 210.735C86.5065 210.03 87.1957 209.569 87.9622 209.352C88.7433 209.127 89.5395 209.124 90.3507 209.342C91.1619 209.56 91.8491 209.962 92.4123 210.548C92.9755 211.134 93.3451 211.886 93.5211 212.803C93.6971 213.72 93.617 214.805 93.2807 216.056C92.9506 217.285 92.4838 218.259 91.8802 218.979C91.2883 219.702 90.606 220.183 89.8333 220.423C89.0637 220.651 88.2444 220.649 87.3752 220.415ZM87.8563 218.624C88.5517 218.811 89.1746 218.643 89.7252 218.12C90.2789 217.586 90.7224 216.698 91.0556 215.458C91.2829 214.612 91.3728 213.885 91.3253 213.275C91.2893 212.669 91.1391 212.188 90.8747 211.831C90.6218 211.477 90.2868 211.244 89.8696 211.132C89.4408 211.017 89.0268 211.055 88.6276 211.246C88.2315 211.425 87.8659 211.768 87.531 212.275C87.1993 212.769 86.9197 213.44 86.6924 214.286C86.3592 215.526 86.2981 216.516 86.5093 217.256C86.7236 217.985 87.1726 218.441 87.8563 218.624ZM100.823 219.127L98.6024 218.511L99.9524 213.488C100.052 213.117 100.234 212.855 100.499 212.702C100.778 212.541 101.103 212.511 101.474 212.61C101.683 212.666 101.881 212.738 102.069 212.826C102.256 212.914 102.386 212.986 102.458 213.042L100.823 219.127ZM99.7331 219.02L100.219 217.212L105.417 218.609C105.45 218.717 105.469 218.853 105.475 219.016C105.492 219.182 105.476 219.358 105.426 219.544C105.342 219.856 105.203 220.074 105.009 220.196C104.829 220.309 104.618 220.333 104.374 220.267L99.7331 219.02ZM100.979 214.453L101.474 212.61L107.245 214.161C107.29 214.273 107.314 214.416 107.316 214.59C107.322 214.753 107.3 214.928 107.251 215.113C107.166 215.426 107.027 215.643 106.833 215.765C106.65 215.89 106.437 215.92 106.194 215.854L100.979 214.453ZM98.9481 217.225L101.208 217.832L99.7038 223.43C99.6049 223.428 99.4522 223.418 99.2459 223.4C99.0395 223.382 98.8321 223.344 98.6235 223.288C98.1831 223.17 97.892 223.005 97.7502 222.793C97.6083 222.581 97.5888 222.284 97.6916 221.901L98.9481 217.225ZM107.653 222.36L107.964 220.785L112.77 221.349C112.851 220.911 112.782 220.495 112.565 220.101C112.351 219.696 111.966 219.418 111.409 219.269C110.818 219.11 110.277 219.182 109.786 219.485C109.294 219.788 108.942 220.314 108.728 221.064L108.528 222.017C108.427 222.76 108.562 223.368 108.932 223.841C109.317 224.304 109.863 224.631 110.57 224.821C111.057 224.952 111.527 225.004 111.982 224.977C112.439 224.938 112.812 224.871 113.099 224.774C113.236 224.91 113.335 225.073 113.396 225.264C113.457 225.454 113.462 225.642 113.412 225.827C113.331 226.129 113.126 226.359 112.797 226.519C112.472 226.668 112.062 226.738 111.567 226.729C111.084 226.724 110.552 226.643 109.973 226.487C109.069 226.244 108.315 225.862 107.71 225.339C107.116 224.819 106.711 224.176 106.495 223.409C106.293 222.634 106.323 221.76 106.584 220.787C106.777 220.068 107.056 219.472 107.419 218.998C107.786 218.512 108.207 218.147 108.683 217.902C109.162 217.646 109.668 217.496 110.201 217.453C110.746 217.413 111.297 217.468 111.853 217.617C112.618 217.823 113.248 218.16 113.744 218.629C114.242 219.086 114.58 219.63 114.758 220.262C114.937 220.894 114.931 221.563 114.741 222.27C114.654 222.595 114.501 222.815 114.284 222.93C114.078 223.049 113.818 223.091 113.504 223.056L107.653 222.36ZM116.955 224.86L117.267 223.284L122.073 223.849C122.153 223.411 122.085 222.995 121.868 222.601C121.654 222.196 121.269 221.918 120.712 221.769C120.121 221.61 119.58 221.682 119.089 221.985C118.597 222.287 118.244 222.814 118.03 223.564L117.83 224.517C117.73 225.26 117.865 225.868 118.235 226.34C118.62 226.804 119.166 227.131 119.873 227.321C120.359 227.452 120.83 227.504 121.285 227.477C121.742 227.438 122.115 227.37 122.402 227.274C122.539 227.41 122.638 227.573 122.699 227.763C122.759 227.954 122.765 228.142 122.715 228.327C122.634 228.628 122.429 228.859 122.1 229.019C121.775 229.168 121.364 229.238 120.87 229.229C120.387 229.223 119.855 229.143 119.276 228.987C118.372 228.744 117.617 228.361 117.012 227.838C116.419 227.319 116.014 226.675 115.797 225.909C115.596 225.134 115.625 224.26 115.887 223.286C116.08 222.568 116.358 221.972 116.722 221.498C117.088 221.012 117.51 220.647 117.985 220.402C118.464 220.146 118.971 219.996 119.504 219.953C120.049 219.913 120.6 219.968 121.156 220.117C121.921 220.323 122.551 220.66 123.046 221.128C123.545 221.585 123.883 222.13 124.061 222.762C124.239 223.394 124.233 224.063 124.044 224.77C123.956 225.094 123.804 225.314 123.587 225.43C123.381 225.549 123.121 225.591 122.807 225.556L116.955 224.86ZM125.727 225.521L127.9 226.104L127.354 228.138C127.254 228.509 127.292 228.805 127.469 229.027C127.657 229.251 127.954 229.418 128.36 229.527C128.545 229.577 128.748 229.607 128.969 229.616C129.205 229.617 129.406 229.609 129.572 229.592C129.64 229.71 129.684 229.846 129.705 230C129.74 230.146 129.735 230.306 129.688 230.48C129.594 230.828 129.36 231.076 128.985 231.223C128.613 231.359 128.079 231.334 127.384 231.147C126.468 230.901 125.798 230.504 125.374 229.955C124.965 229.398 124.888 228.644 125.143 227.693L125.727 225.521ZM127.52 224.12L127.983 222.399L131.39 223.314C131.426 223.411 131.447 223.541 131.453 223.704C131.459 223.867 131.437 224.042 131.387 224.227C131.309 224.517 131.18 224.718 131.001 224.831C130.824 224.933 130.62 224.953 130.388 224.891L127.52 224.12ZM127.774 226.574L125.601 225.99L127.287 219.715C127.386 219.716 127.527 219.723 127.711 219.735C127.905 219.75 128.107 219.786 128.316 219.842C128.721 219.951 128.996 220.105 129.141 220.306C129.298 220.51 129.325 220.803 129.222 221.185L127.774 226.574Z" fill="#C41135"/>
<path d="M137.083 227.604L195.182 243.288" stroke="#333333"/>
<path d="M9.41138 191.475L67.0391 209.035" stroke="#333333"/>
</svg>
