<svg width="302" height="206" viewBox="0 0 302 206" fill="none" xmlns="http://www.w3.org/2000/svg">
<path d="M190.613 0.18453L189.596 0L188.571 0.179414L1.86914 32.8666V140.179L188.571 190.323L189.329 190.528L190.426 190.823C190.439 190.869 190.452 190.907 190.46 190.948L301.867 164.281L301.869 20.3705L190.613 0.18453ZM188.571 188.205L3.90963 138.613V34.5803L188.571 2.25192V188.205ZM299.827 162.671L190.618 188.81V2.25258L299.833 22.069L299.827 162.671Z" fill="#333333"/>
<path d="M247.885 171.041L250.914 170.333L252.954 169.857L297.862 159.384V28.1303L198.402 14.3652V182.584L245.845 171.518L247.885 171.041ZM258.444 24.7354L295.814 29.9074V35.9995L258.444 31.7297V24.7354ZM258.444 33.7825L295.814 38.0523V66.8875L258.444 66.4954V33.7825ZM258.444 68.541L295.814 68.9332V75.6451H258.444V68.541ZM258.444 77.6859H295.814V110.673L258.444 112.854V77.6859ZM258.444 114.902L295.814 112.721V116.548L258.444 120.202V114.902ZM258.444 122.25L295.814 118.595V147.19L258.444 154.33V122.25ZM258.444 156.408L295.814 149.262L295.817 157.766L258.447 166.483L258.444 156.408ZM252.955 157.456V23.9781L256.409 24.4548V166.955L252.955 167.759V157.456ZM247.885 158.428V23.2764L250.914 23.6967V168.237L247.885 168.944V158.428ZM200.438 16.7088L245.84 22.9904V30.2844L200.438 25.0945V16.7088ZM200.438 27.15L245.84 32.34V66.3624L200.438 65.8882V27.15ZM200.438 67.9336L245.84 68.4078V75.6427L200.438 75.6401V67.9336ZM200.438 77.6827H245.84V113.587L200.438 116.237V77.6827ZM200.438 118.287L245.84 115.637V121.427L200.438 125.863V118.287ZM200.438 127.914L245.84 123.48V156.736L200.438 165.415V127.914ZM200.438 167.487L245.84 158.812V169.417L200.438 180.007V167.487Z" fill="#333333"/>
<path d="M123.73 165.667L175.698 179.432L176.98 179.775V13.498L167.643 14.8744L165.603 15.1768L153.424 16.9734L151.384 17.2758L138.534 19.1698L136.494 19.4722L124.494 21.2432L122.454 21.5456L111.672 23.1372L109.632 23.4396L97.2706 25.2644L95.2305 25.5668L81.7671 27.5556L79.7271 27.858L69.7982 29.324L67.7581 29.6265L57.7728 31.1002L55.7327 31.4026L47.6416 32.5943L45.6015 32.8968L36.8313 34.1911H35.7165V34.3577L6.24547 38.7044L5.37665 38.8351V134.325L122.465 165.344L123.73 165.667ZM167.643 16.9404L174.937 15.8614V177.119L167.643 175.184V16.9404ZM153.424 19.0394L165.603 17.2427V174.656L153.424 171.427V19.0394ZM138.528 21.2358L151.379 19.3418V170.889L138.528 167.486V21.2358ZM124.489 23.3066L136.489 21.5357V166.935L124.489 163.76V23.3066ZM11.1007 133.723L7.39733 132.744V40.5805L11.1007 40.0346V133.723ZM17.9793 135.542L13.138 134.264V39.7383L17.9793 39.0233V135.542ZM27.2698 138.008L20.0192 136.086V38.7195L27.2698 37.6508V138.008ZM35.6968 140.238L29.3126 138.544V37.3457L35.6968 36.4026V140.238ZM45.5844 142.854L37.7367 140.776L37.7392 36.1072L45.5869 34.9488L45.5844 142.854ZM55.7179 145.54L47.6268 143.398V34.6481L55.7179 33.4564V145.54ZM67.7483 148.729L57.763 146.084V33.1547L67.7483 31.681V148.729ZM79.7144 151.896L69.7855 149.264V31.3751L79.7144 29.9091V151.896ZM95.2175 156.005L81.7542 152.44V29.61L95.2175 27.6264V156.005ZM109.621 159.816L97.26 156.543V27.3228L109.621 25.5031V159.816ZM111.664 25.1959L122.446 23.6043V163.211L111.664 160.358V25.1959Z" fill="#333333"/>
<path d="M65.2694 169.236C65.3535 168.923 65.5541 168.685 65.8714 168.521C66.2002 168.361 66.6135 168.28 67.1113 168.277C67.6122 168.262 68.1524 168.333 68.7319 168.489C69.5663 168.713 70.23 169.04 70.7231 169.471C71.231 169.893 71.5717 170.383 71.7453 170.939C71.9221 171.483 71.9279 172.063 71.7629 172.677C71.5947 173.303 71.2574 173.864 70.7509 174.362C70.2444 174.859 69.5184 175.342 68.5729 175.808L65.4244 177.329L70.0831 178.581C70.1192 178.678 70.1402 178.808 70.1461 178.971C70.152 179.134 70.13 179.308 70.0802 179.494C69.9992 179.795 69.869 180.002 69.6894 180.115C69.513 180.217 69.3031 180.235 69.0597 180.17L62.9755 178.535C62.8244 178.358 62.7231 178.157 62.6717 177.932C62.6235 177.695 62.6336 177.449 62.7021 177.194C62.78 176.904 62.9049 176.671 63.0768 176.493C63.2635 176.307 63.4566 176.167 63.6562 176.071L67.0975 174.293C67.9022 173.888 68.4776 173.527 68.8237 173.21C69.173 172.882 69.3974 172.532 69.4971 172.161C69.6123 171.732 69.5477 171.348 69.3033 171.009C69.062 170.659 68.6401 170.402 68.0375 170.24C67.5507 170.11 67.0943 170.074 66.6683 170.134C66.2454 170.181 65.8831 170.258 65.5814 170.363C65.4557 170.23 65.3567 170.067 65.2844 169.873C65.2121 169.68 65.2071 169.467 65.2694 169.236ZM75.7129 182.237C74.8553 182.007 74.145 181.599 73.5818 181.012C73.0333 180.418 72.6842 179.659 72.5345 178.737C72.3848 177.814 72.4749 176.739 72.805 175.51C73.1445 174.247 73.6202 173.263 74.2322 172.557C74.8442 171.852 75.5334 171.391 76.2999 171.175C77.081 170.95 77.8772 170.946 78.6884 171.164C79.4997 171.382 80.1869 171.784 80.75 172.37C81.3132 172.957 81.6828 173.708 81.8588 174.625C82.0348 175.543 81.9547 176.627 81.6184 177.879C81.2883 179.107 80.8215 180.081 80.2179 180.801C79.626 181.524 78.9437 182.006 78.171 182.245C77.4014 182.474 76.5821 182.471 75.7129 182.237ZM76.194 180.447C76.8894 180.634 77.5123 180.466 78.0629 179.943C78.6166 179.408 79.0601 178.521 79.3933 177.281C79.6206 176.435 79.7105 175.707 79.663 175.098C79.6271 174.492 79.4769 174.01 79.2124 173.653C78.9595 173.3 78.6245 173.067 78.2073 172.955C77.7785 172.839 77.3645 172.877 76.9653 173.068C76.5692 173.248 76.2037 173.59 75.8688 174.097C75.537 174.592 75.2574 175.262 75.0301 176.108C74.6969 177.348 74.6359 178.338 74.847 179.078C75.0613 179.807 75.5103 180.263 76.194 180.447ZM89.1605 180.949L86.9402 180.334L88.2901 175.31C88.3898 174.939 88.5719 174.677 88.8366 174.525C89.1159 174.364 89.441 174.333 89.8119 174.433C90.0205 174.489 90.2186 174.561 90.4063 174.648C90.5939 174.736 90.7237 174.808 90.7955 174.865L89.1605 180.949ZM88.0708 180.843L88.5566 179.035L93.7543 180.431C93.7873 180.54 93.8067 180.675 93.8126 180.838C93.8301 181.005 93.8139 181.18 93.7641 181.366C93.68 181.679 93.5408 181.896 93.3466 182.018C93.167 182.131 92.9556 182.155 92.7122 182.09L88.0708 180.843ZM89.3167 176.275L89.8119 174.433L95.5831 175.984C95.6278 176.095 95.6515 176.238 95.6542 176.413C95.6601 176.576 95.6381 176.75 95.5883 176.936C95.5042 177.248 95.365 177.466 95.1708 177.588C94.9881 177.712 94.7751 177.742 94.5317 177.677L89.3167 176.275ZM87.2858 179.047L89.5457 179.655L88.0415 185.252C87.9426 185.25 87.79 185.24 87.5836 185.222C87.3772 185.204 87.1698 185.167 86.9612 185.111C86.5208 184.992 86.2297 184.827 86.0879 184.615C85.946 184.403 85.9265 184.106 86.0293 183.723L87.2858 179.047ZM95.9903 184.182L96.3018 182.607L101.108 183.172C101.188 182.733 101.12 182.317 100.903 181.924C100.689 181.518 100.303 181.241 99.7472 181.091C99.1561 180.932 98.6149 181.004 98.1235 181.307C97.6321 181.61 97.2793 182.137 97.0653 182.887L96.8652 183.839C96.7649 184.583 96.8998 185.191 97.2699 185.663C97.6547 186.127 98.2006 186.454 98.9075 186.643C99.3943 186.774 99.8649 186.826 100.319 186.799C100.777 186.761 101.15 186.693 101.436 186.596C101.574 186.732 101.673 186.896 101.734 187.086C101.794 187.276 101.8 187.464 101.75 187.65C101.669 187.951 101.464 188.182 101.135 188.342C100.809 188.49 100.399 188.56 99.9045 188.552C99.4214 188.546 98.8901 188.465 98.3107 188.31C97.4068 188.067 96.6523 187.684 96.0473 187.161C95.4538 186.641 95.0489 185.998 94.8323 185.232C94.6305 184.457 94.6604 183.582 94.922 182.609C95.1151 181.89 95.3933 181.294 95.7568 180.82C96.1233 180.335 96.5445 179.97 97.0204 179.725C97.4993 179.468 98.0055 179.318 98.539 179.275C99.084 179.235 99.6347 179.29 100.191 179.44C100.956 179.645 101.586 179.982 102.081 180.451C102.58 180.908 102.918 181.452 103.096 182.084C103.274 182.716 103.268 183.386 103.078 184.092C102.991 184.417 102.839 184.637 102.622 184.753C102.416 184.871 102.156 184.913 101.842 184.879L95.9903 184.182ZM105.293 186.682L105.605 185.107L110.411 185.671C110.491 185.233 110.423 184.817 110.206 184.423C109.991 184.018 109.606 183.74 109.05 183.591C108.459 183.432 107.918 183.504 107.426 183.807C106.935 184.11 106.582 184.636 106.368 185.387L106.168 186.339C106.068 187.083 106.203 187.69 106.573 188.163C106.958 188.626 107.503 188.953 108.21 189.143C108.697 189.274 109.168 189.326 109.622 189.299C110.08 189.26 110.452 189.193 110.739 189.096C110.877 189.232 110.976 189.396 111.036 189.586C111.097 189.776 111.102 189.964 111.053 190.149C110.972 190.451 110.767 190.681 110.438 190.842C110.112 190.99 109.702 191.06 109.207 191.051C108.724 191.046 108.193 190.965 107.613 190.809C106.71 190.567 105.955 190.184 105.35 189.661C104.757 189.141 104.352 188.498 104.135 187.731C103.933 186.956 103.963 186.082 104.225 185.109C104.418 184.39 104.696 183.794 105.06 183.32C105.426 182.835 105.847 182.469 106.323 182.225C106.802 181.968 107.308 181.818 107.842 181.775C108.387 181.735 108.937 181.79 109.494 181.94C110.259 182.145 110.889 182.482 111.384 182.951C111.883 183.408 112.221 183.952 112.399 184.584C112.577 185.216 112.571 185.885 112.381 186.592C112.294 186.917 112.142 187.137 111.924 187.252C111.718 187.371 111.459 187.413 111.145 187.378L105.293 186.682ZM114.065 187.343L116.238 187.927L115.691 189.961C115.592 190.332 115.63 190.628 115.807 190.849C115.995 191.074 116.292 191.24 116.697 191.349C116.883 191.399 117.086 191.429 117.307 191.439C117.543 191.44 117.744 191.432 117.91 191.414C117.978 191.532 118.022 191.668 118.043 191.823C118.078 191.969 118.072 192.129 118.026 192.303C117.932 192.65 117.698 192.898 117.323 193.046C116.951 193.182 116.417 193.156 115.722 192.97C114.806 192.724 114.136 192.326 113.712 191.777C113.303 191.22 113.226 190.466 113.481 189.516L114.065 187.343ZM115.858 185.942L116.32 184.221L119.727 185.137C119.764 185.233 119.785 185.363 119.79 185.527C119.796 185.69 119.774 185.864 119.725 186.049C119.647 186.339 119.518 186.541 119.338 186.654C119.162 186.756 118.958 186.775 118.726 186.713L115.858 185.942ZM116.112 188.396L113.939 187.812L115.625 181.537C115.724 181.539 115.865 181.545 116.048 181.557C116.243 181.572 116.445 181.608 116.653 181.664C117.059 181.773 117.334 181.928 117.479 182.128C117.636 182.332 117.663 182.625 117.56 183.007L116.112 188.396Z" fill="#C41135"/>
<path d="M126.083 189.604L184.182 205.288" stroke="#333333"/>
<path d="M0.411377 154.475L58.0391 172.035" stroke="#333333"/>
</svg>
