<?xml version="1.0" encoding="utf-8"?>
<!-- Generator: Adobe Illustrator 23.1.0, SVG Export Plug-In . SVG Version: 6.00 Build 0)  -->
<svg version="1.1" id="Layer_1" xmlns="http://www.w3.org/2000/svg" xmlns:xlink="http://www.w3.org/1999/xlink" x="0px" y="0px"
	 viewBox="0 0 302 161" style="enable-background:new 0 0 302 161;" xml:space="preserve">
<style type="text/css">
	.st0{fill:#333333;}
</style>
<path class="st0" d="M274.9,101.1L302,89.4V64.7l-139.9-60L0,74.3v24.5l24.4,10.5l12.8-5.6l17.8,7.7v11.1l29.4,12.7l12.8-5.6
	l15.2,6.6v11.1l27.7,11.9l26.3-11.3v-11.4l22.6-9.7l13.2,5.8l35-15.1V106l25.6-11.1l-0.3,0.8L274.9,101.1z M275.5,98.9l-10.8-4.7
	l10.8-4.7V98.9z M162.1,7.3l0.2,0.1l136,58.3l-22.7,9.8l-0.2-0.1L139.8,16.9L162.1,7.3z M136.8,18.1l0.2,0.1l135.6,58.5l-25.1,10.8
	l-0.2-0.1L111.6,28.9L136.8,18.1z M108.7,30.2l0.2,0.1l135.7,58.5l-23.2,10l-137.5-58L108.7,30.2z M82.3,41.5l-0.4,1l136.6,57.6
	l-24.7,10.6l-0.2-0.1L57.7,52L82.3,41.5z M54.8,53.3l0.2,0.1L190.9,112l-23.1,10l-0.2-0.1L31,63.5L54.8,53.3z M23.9,107v-9l10.4,4.5
	L23.9,107z M83.9,132.9v-9.1l10.5,4.5L83.9,132.9z M114.8,145.8v-11.1l-33.2-14.3v11.1L57.4,121v-11.1L21.6,94.5v11.1L2.3,97.3v-20
	L138.7,136l0.3,20.2L114.8,145.8z M139.9,134l-0.2-0.1L3.6,75.3L28,64.8l0.2,0.1l136.6,58.3L139.9,134z M202.8,130.2l-10.8-4.7
	l10.8-4.7V130.2z M234.9,104.4v11.4l-29.8,12.9v-11.4L164.2,135v11.4l-22.9,9.9L141,136l158.7-68.4v20.3l-21.9,9.4V85.9L234.9,104.4
	z"/>
</svg>
