<?xml version="1.0" encoding="utf-8"?>
<!-- Generator: Adobe Illustrator 23.1.0, SVG Export Plug-In . SVG Version: 6.00 Build 0)  -->
<svg version="1.1" id="Layer_1" xmlns="http://www.w3.org/2000/svg" xmlns:xlink="http://www.w3.org/1999/xlink" x="0px" y="0px"
	 viewBox="0 0 230 238" style="enable-background:new 0 0 230 238;" xml:space="preserve">
<style type="text/css">
	.st0{fill:none;stroke:#333333;stroke-miterlimit:10;}
	.st1{fill:#333333;}
	.st2{fill:none;stroke:#333333;}
</style>
<path class="st0" d="M29.3,212.5c-0.4,0.6-1.8-0.1-2.6-0.2c-0.8-0.1-1.6,0.1-1.7,1l0.4,1l1-0.3l0.1,0.8h1l0.1,0.6h0.8
	c0,0,0.1,0.7,2.6,0.9c2.5,0.1,4.4,0.3,4.4,0.3s1.2,1,3.2,1c5.1,0,7.1,0.4,9.7,0.4c2.6,0,4.7-0.1,10.9-0.6c6.2-0.4,17.7-2.5,21.7-2.2
	c4,0.2,8.1-1.9,9.9-1.8c1.8,0.1,6.1-0.9,9.1-0.3c3,0.6,7.7,1.2,12.3,0.1c4.7-1.1,10.3,0.4,14.7,0.6c4.4,0.1,15.8,0.1,18.7-0.3
	c2.9-0.4,4.1,0.2,6.2-0.1c2.2-0.3,8.3-0.1,12.3,0.1c4.1,0.2,6.2,0.2,10.2-0.4c4-0.7,9.9-0.9,13.9-1.4c4-0.6,4.1-0.4,5-1.2
	c1-0.8,2.6,0,4.7-0.7c2-0.7,3.8-1.3,5.9-1.2c2,0.1,4.1,0,4.1,0s-0.1-0.9-1.9-2.9s-3.4-2.2-4.6-1.7c-1.2,0.6-0.2-1.2-1.9-2.1
	c-1.7-0.9-4.9,0.2-5.7-1.2s1.3-2.8,0.2-6.8c-1.3-5.4-3-5.2-3.5-6.5c-0.4-1.2,1.2-2.7,0.7-7.4s-0.1-6-0.8-8.1s0-2.9-1-6
	s-1.6-3.3-1.3-4.5c0.2-1.1,1-2.1,0.6-6.6s-1.4-7.1-1.4-9.1s1.1-2.7,0.5-7.9s0.2-6.7,0-11.5s0.2-7.5-0.5-12.4s0.2-5.2-0.7-11.5
	c-1-6.2-1-10.3-1.9-16.1c-1-5.8-1.3-8.8-1.9-11.6c-0.6-2.8-4.7-6.9-4.6-7.7c0.1-0.8,6.5-7.5,9.6-12c3.1-4.6,3.8-5.8,5.9-7.7
	c2-1.9,4.7-7.7,6.8-10.1c2.2-2.5,4.7-9.6,6.5-12.5s4-9.1,4.3-10.8c-0.2-3-1.3-4-1.3-4c-0.6-0.1-1.7,0.2-1.7,0.2l-1.7-1L205,9.2
	l-1.6-1l-1.4,0l-1.6-1l-1.6,0.1l-1.6-1l-1.7,0.2l-1.7-0.9L192.3,6l-1.7-0.8l-1.7,0.4L187.2,5l-1.7,0.6L184.1,5l-1.4,0.6l-1.4-0.4
	l-1.4,0.7l-1.4-0.4l-1.4,0.8L175.7,6l-1.4,0.8l-1.4-0.3L171.2,7l-1.4-0.3l-1.4,0.7L167,7l-1.4,0.6L164,6.7l-2.4,0.1l-2.4-0.9
	l-2.4,0.2l-2.4-0.9L152,5.5l-2.4-0.8L147.2,5l-2.4-0.8l-2.4,0.3L140.1,4l-2.4,0.4l-2.4-0.7l-2.4,0.4l-2.5-0.7L127.9,4l-2.3-0.6
	L123.3,4L121,3.5l-2.3,0.6l-2.3-0.4l-2.3,0.7L111.8,4l-2.3,0.6L107.2,4l-2.3,0.6L102.6,4l-2.3,0.6l-3.4-0.3l-2.3,0.4L92.3,4L90,4.4
	l-2.3-0.6l-2.3,0.7l-2.3-0.3L80.8,5L79,4.6l-2.3,0.9l-2.3-0.2l-2.3,0.9L69.9,6l-2.3,0.8l-2.3-0.4l-2,0.4L61,6.1l-2.3,0.3l-2.4-0.9
	L54,5.6l-2.3-1.1h-2.3l-2.3-1.1H45l-2.3-1.1l-2.4,0.1l-2.4-0.9l-2.4,0.3l-2.4-0.7l-2.4,0.6l-2.4-0.6L26,1.9l-2.4-0.3
	c0,0,0,2.3-0.5,4.5c-1.3,5.8-1.1,5.1,0.6,10.4c1.7,5.2,2.8,8,6,18.9c3.2,10.8,3,10.3,5.3,13.3s1.8,4,2.9,7.9c1,4,1.3,5.6,3.2,9.4
	c1.9,3.8,3.2,4.8,0.1,10.7c-3.1,5.9-4.5,12.1-4.8,13.5c-0.2,1.3,0.7,6.8,0.8,12.8c0.1,6.1,1.3,6.7,1,8.1c-0.8,4.2,0.4,5.3-0.1,8.8
	c-0.6,4.3,0.4,7.8,0,12.7c-0.4,4.9,0,9,0.4,10.5c0.4,1.6-0.4,2.3-0.5,6.2s-0.2,8.6-0.1,12.5c0.1,4,0.7,5.9,1.2,8s-0.1,2.3,0.5,4.1
	s-0.2,6.6-0.7,9.7c-0.6,3.1-2.4,2-3.8,8.7c-2.4,10.4-0.7,8.9-1.3,10.4c-0.6,1.4-1.1,7.1-1.8,8C31.2,211.6,30.4,210.6,29.3,212.5z"/>
<path class="st1" d="M183.5,58.6c0,0-0.1,0.3-0.4,0.8c-0.2,0.6-0.6,1.2-1.1,2s-1.1,1.8-1.8,2.8c-0.4,0.4-0.7,1-1.1,1.6
	c-0.1,0.2-0.4,0.6-0.5,0.8c0,0.2-0.1,0.6-0.1,0.9c0,1.2,0.5,2.5,1,3.6s0.8,2.1,1.1,3c0.2,0.9,0.5,1.7,0.6,2.2
	c0.1,0.6,0.1,0.9,0.1,0.9s-0.4-1.2-1-3c-0.4-0.9-0.7-1.9-1.2-3s-1-2.3-1-3.6c0-0.3,0-0.6,0.1-1c0.1-0.3,0.4-0.6,0.5-0.9
	c0.4-0.6,0.7-1,1.1-1.6c0.7-1,1.3-1.9,1.8-2.8c0.5-0.8,0.8-1.6,1.2-2C183.3,58.8,183.5,58.6,183.5,58.6z"/>
<path class="st1" d="M26.6,213.4c0,0,0-0.1,0-0.3c0.1-0.1,0.2-0.1,0.4,0c0.1,0.1,0.2,0.1,0.4,0.2c0.6,0.4,1.2,1.1,1.9,1.7
	c0.7,0.6,1.7,0.8,2.3,1c0.7,0.1,1.2,0.2,1.2,0.2v0.2c0,0-0.5,0-1.2-0.1s-1.7-0.4-2.4-1c-0.8-0.6-1.4-1.2-1.9-1.7
	c-0.2-0.2-0.5-0.4-0.6-0.3L26.6,213.4L26.6,213.4z"/>
<path class="st1" d="M206.6,16.7c0,0,0.6,0.2,1.2,0.3c0.6,0.2,1.2,0.4,1.2,0.4c0.1,0,0.1,0.1,0.1,0.2s-0.1,0.1-0.2,0.1
	c0,0-0.6-0.2-1.2-0.6C207.2,16.9,206.6,16.7,206.6,16.7z"/>
<path class="st1" d="M175.9,15.4c0,0,0.5,0,1.3-0.1s1.9-0.2,3.4-0.2c2.8-0.2,6.5-0.3,10.2-0.2s7.4,0.3,10.2,0.7
	c1.3,0.2,2.5,0.4,3.4,0.7c0.7,0.2,1.2,0.3,1.2,0.3s-0.5-0.1-1.2-0.2c-0.4-0.1-0.8-0.1-1.4-0.2c-0.6-0.1-1.2-0.1-1.9-0.2
	c-2.8-0.3-6.5-0.6-10.2-0.7c-3.7-0.1-7.4,0-10.2,0.1C177.7,15.2,175.9,15.4,175.9,15.4z"/>
<path class="st1" d="M126.8,14.9c0,0,2.9,0.1,7.1,0.2c4.2,0.2,9.9,0.4,15.6,0.7C155,16,160.8,16.1,165,16c2.2,0,3.8-0.1,5.1-0.2
	c1.2-0.1,1.9-0.1,1.9-0.1s-0.7,0.1-1.9,0.2c-1.2,0.1-3,0.3-5.1,0.4c-4.3,0.1-9.9,0-15.6-0.2c-5.6-0.2-11.4-0.4-15.6-0.8
	C129.7,15.1,126.8,14.9,126.8,14.9z"/>
<path class="st1" d="M60.8,15.4c0,0,1-0.1,2.5-0.2c1.7-0.1,4-0.2,6.8-0.4c5.6-0.3,13.1-0.7,20.6-0.9c7.5-0.1,15,0,20.6,0.2
	c1.4,0,2.6,0.1,3.8,0.2c1.2,0.1,2.2,0.1,3,0.1c1.7,0.1,2.5,0.2,2.5,0.2s-1,0-2.5,0c-1.7,0-4-0.1-6.8-0.2c-5.6-0.2-13.1-0.3-20.6-0.2
	c-7.4,0.1-15,0.6-20.6,0.8C64.6,15.1,60.8,15.4,60.8,15.4z"/>
<path class="st1" d="M30.4,11.9c0,0,1.8,0.1,4.3,0.3c2.6,0.2,6,0.9,9.5,1.4c3.5,0.6,6.8,1.1,9.5,1.3c1.3,0.1,2.4,0.2,3.1,0.3
	c0.7,0.1,1.2,0.1,1.2,0.1s-0.5,0-1.2,0s-1.8,0-3.1-0.1c-2.6-0.2-6-0.8-9.5-1.3c-3.5-0.6-6.8-1.1-9.5-1.6c-1.3-0.2-2.4-0.3-3.1-0.4
	C30.9,11.9,30.4,11.9,30.4,11.9z"/>
<path class="st1" d="M23.5,11.5c0,0,1.3,0,2.6,0.1c1.3,0,2.6,0.1,2.6,0.1s-1.3,0-2.6,0c-1.3,0-2.6,0.1-2.6,0.1
	c-0.1,0-0.1-0.1-0.1-0.1C23.3,11.6,23.5,11.5,23.5,11.5z"/>
<path class="st1" d="M207.4,16.1c0,0,0.5,0.1,1,0.3c0.5,0.1,1,0.3,1,0.3c0.1,0,0.1,0.1,0.1,0.2s-0.1,0.1-0.2,0.1c0,0-0.5-0.2-1-0.4
	C207.7,16.4,207.4,16.1,207.4,16.1z"/>
<path class="st1" d="M174.7,14.6c0,0,0.5-0.1,1.3-0.1c0.8-0.1,2-0.2,3.5-0.3c2.9-0.2,6.8-0.3,10.7-0.2c1.9,0,4,0.1,5.7,0.2
	c1.8,0.1,3.5,0.3,4.9,0.6c1.4,0.2,2.6,0.4,3.5,0.7c0.8,0.2,1.3,0.3,1.3,0.3s-0.5-0.1-1.3-0.2c-0.4-0.1-1-0.1-1.6-0.2
	c-0.6-0.1-1.2-0.2-1.9-0.3c-1.4-0.2-3.1-0.4-4.9-0.6c-1.8-0.1-3.7-0.2-5.7-0.2c-3.8-0.1-7.8,0.1-10.7,0.2
	C176.6,14.3,174.7,14.6,174.7,14.6z"/>
<path class="st1" d="M128.2,13.8c0,0,2.6,0.1,6.6,0.2c4,0.1,9.1,0.4,14.4,0.7c5.3,0.2,10.4,0.4,14.4,0.4c1.9,0,3.6,0,4.8,0
	s1.8-0.1,1.8-0.1s-0.1,0-0.5,0.1c-0.4,0-0.7,0.1-1.3,0.1c-1.2,0.1-2.8,0.2-4.8,0.2c-4,0-9.2-0.2-14.4-0.4
	c-5.3-0.2-10.4-0.4-14.4-0.8C130.7,14,128.2,13.8,128.2,13.8z"/>
<path class="st1" d="M59.2,14.3c0,0,4.1-0.2,10.1-0.6c6-0.3,14-0.8,22-1c2,0,4.1-0.1,6-0.1c2,0,4,0.1,5.9,0.1s3.7,0.1,5.4,0.1
	c1.7,0,3.4,0,4.9,0.1c3,0.1,5.5,0.2,7.3,0.3s2.8,0.2,2.8,0.2s-1,0-2.8,0s-4.3-0.1-7.3-0.2c-1.6-0.1-3.1-0.1-4.9-0.1
	c-1.7,0-3.6-0.1-5.4-0.1c-1.9,0-3.8-0.1-5.7-0.1c-2,0-4,0-6,0.1c-8.1,0.2-16.2,0.7-22.2,0.9c-3,0.1-5.5,0.2-7.3,0.2
	C60.2,14.3,59.2,14.3,59.2,14.3z"/>
<path class="st1" d="M28.6,10.7c0,0,1.7,0,4.3,0.3c2.6,0.2,6,0.8,9.5,1.3c3.4,0.6,6.8,1.2,9.3,1.6c2.5,0.3,4.3,0.6,4.3,0.6
	s-0.5,0-1.2,0s-1.8-0.1-3.1-0.2c-2.6-0.3-6-0.9-9.5-1.4c-3.4-0.6-6.8-1.1-9.3-1.4C30.3,10.9,28.6,10.7,28.6,10.7z"/>
<path class="st1" d="M23.7,10.4c0,0,0.8,0,1.6,0.1c0.8,0,1.6,0.1,1.6,0.1s-0.8,0-1.6,0.1c-0.8,0-1.6,0.1-1.6,0.1
	c-0.1,0-0.1,0-0.1-0.1S23.6,10.4,23.7,10.4z"/>
<path class="st1" d="M205.7,14.8c0,0,1,0.2,1.8,0.6c1,0.3,1.8,0.6,1.8,0.6c0.1,0,0.1,0.1,0.1,0.2s-0.1,0.1-0.2,0.1
	c0,0-0.8-0.3-1.8-0.8C206.5,15.1,205.7,14.8,205.7,14.8z"/>
<path class="st1" d="M175.9,13.5c0,0,1.8-0.2,4.4-0.4c2.6-0.2,6.2-0.3,9.8-0.2s7.1,0.3,9.7,0.8c1.3,0.2,2.4,0.4,3.1,0.6
	c0.7,0.2,1.2,0.3,1.2,0.3s-0.5-0.1-1.2-0.2c-0.7-0.1-1.9-0.3-3.1-0.4c-2.6-0.3-6.1-0.7-9.7-0.7c-3.6-0.1-7.1,0-9.7,0.1
	C177.7,13.5,175.9,13.5,175.9,13.5z"/>
<path class="st1" d="M127.7,12.7c0,0,2.8,0.1,7.1,0.2c4.2,0.1,9.8,0.4,15.4,0.8s11.3,0.7,15.4,0.6c2.2,0,3.8-0.1,5-0.2
	c1.2-0.1,1.9-0.1,1.9-0.1s-0.7,0.1-1.9,0.2c-1.2,0.1-3,0.3-5,0.3c-4.2,0-9.8-0.3-15.4-0.7c-5.6-0.3-11.3-0.6-15.4-0.8
	C130.5,12.9,127.7,12.7,127.7,12.7z"/>
<path class="st1" d="M63.1,13.2c0,0,3.7-0.2,9.3-0.4c5.6-0.3,13.1-0.8,20.5-0.9c3.7-0.1,7.4,0,11,0c3.5,0.1,6.7,0.1,9.6,0.1
	c2.8,0.1,5.1,0.2,6.7,0.2c1.7,0.1,2.5,0.1,2.5,0.1s-1,0-2.5,0c-1.7,0-4-0.1-6.7-0.1c-2.8-0.1-6.1-0.1-9.6-0.1
	c-3.5-0.1-7.2-0.1-10.9,0c-7.4,0.1-14.8,0.7-20.5,0.9c-2.8,0.1-5.1,0.2-6.7,0.2C64,13.2,63.1,13.2,63.1,13.2z"/>
<path class="st1" d="M29.6,9.7c0,0,2,0.1,4.9,0.4c3,0.3,6.8,1,10.8,1.7c3.8,0.7,7.8,1.3,10.8,1.4c1.4,0.1,2.8,0.1,3.6,0.1
	s1.3,0,1.3,0s-0.5,0-1.3,0.1c-0.8,0-2.2,0.1-3.6,0c-3-0.2-6.8-0.8-10.8-1.4c-3.8-0.7-7.8-1.3-10.7-1.8C33.1,10,32,9.9,31,9.8
	C30,9.8,29.6,9.7,29.6,9.7z"/>
<path class="st1" d="M23.8,9.4c0,0,1.1,0,2.2,0s2.2,0.1,2.2,0.1S27,9.6,26,9.7c-1.1,0-2.2,0-2.2,0c-0.1,0-0.1,0-0.1-0.1
	C23.7,9.4,23.7,9.4,23.8,9.4z"/>
<path class="st1" d="M207.6,14.7l1.8,0.6c0.1,0,0.1,0.1,0.1,0.2s-0.1,0.1-0.2,0.1L207.6,14.7z"/>
<path class="st1" d="M173.6,12.9c0,0,0.5-0.1,1.3-0.2c0.8-0.1,2-0.2,3.6-0.4c3-0.3,6.9-0.4,10.9-0.3c4,0.1,7.9,0.4,10.9,0.9
	c1.4,0.2,2.6,0.6,3.5,0.8c0.8,0.2,1.3,0.3,1.3,0.3s-0.5-0.1-1.3-0.2c-0.5-0.1-1-0.1-1.6-0.2c-0.6-0.1-1.3-0.2-2-0.3
	c-2.9-0.4-6.8-0.9-10.8-0.9c-4-0.1-7.9,0.1-10.9,0.2c-1.4,0.1-2.8,0.2-3.6,0.3C174.1,12.8,173.6,12.9,173.6,12.9z"/>
<path class="st1" d="M129.3,11.6c0,0,2.6,0,6.6,0.2c1.9,0.1,4.3,0.2,6.7,0.3c2.5,0.1,5,0.2,7.7,0.4c5.3,0.3,10.4,0.8,14.4,0.8
	c1.9,0,3.6,0,4.8,0c1.2-0.1,1.8-0.1,1.8-0.1s-0.6,0.1-1.8,0.2c-1.2,0.1-2.8,0.2-4.8,0.2c-4-0.1-9.2-0.4-14.4-0.8
	c-2.6-0.2-5.3-0.3-7.7-0.4c-2.5-0.1-4.8-0.2-6.7-0.3C131.9,11.8,129.3,11.6,129.3,11.6z"/>
<path class="st1" d="M59.2,12.5c0,0,1.1,0,2.9-0.1c1.8,0,4.3-0.1,7.4-0.3c6.1-0.3,14.4-0.9,22.6-1.1c4.1-0.1,8.3-0.1,12.1,0
	c3.8,0,7.4,0,10.5,0.1s5.6,0.2,7.4,0.2c1.8,0.1,2.9,0.1,2.9,0.1s-1.1,0-2.9,0s-4.3-0.1-7.4-0.1c-3.1-0.1-6.7-0.1-10.5-0.1
	s-8-0.1-12.1,0c-8.3,0.2-16.4,0.9-22.6,1.1c-3.1,0.1-5.6,0.2-7.4,0.2C60.2,12.5,59.2,12.5,59.2,12.5z"/>
<path class="st1" d="M28.8,8.7c0,0,1.7,0,4.3,0.3c2.6,0.2,6,0.8,9.5,1.3c3.4,0.6,6.8,1.2,9.3,1.6c2.5,0.3,4.3,0.6,4.3,0.6
	s-0.5,0-1.2,0s-1.8-0.1-3.1-0.3c-2.5-0.3-6-0.9-9.3-1.6c-3.4-0.7-6.8-1.1-9.3-1.4C32,9,30.9,9,30.2,8.9C29.2,8.7,28.8,8.7,28.8,8.7z
	"/>
<path class="st1" d="M24,8.4c0,0,0.8,0,1.7,0.1c0.8,0,1.7,0,1.7,0s-0.8,0-1.7,0S24,8.7,24,8.7c-0.1,0-0.1,0-0.1-0.1
	C23.8,8.4,23.9,8.4,24,8.4z"/>
<path class="st1" d="M205.2,13.2c0,0,0.2,0.1,0.7,0.2c0.4,0.1,1,0.2,1.4,0.4c1.1,0.3,2,0.7,2,0.7c0.1,0,0.1,0.1,0.1,0.2
	c0,0.1-0.1,0.1-0.2,0.1c0,0-1.1-0.4-2-0.8c-0.5-0.2-1.1-0.4-1.4-0.6C205.4,13.3,205.2,13.2,205.2,13.2z"/>
<path class="st1" d="M178,11.4c0,0,0.4,0,1.1-0.1c0.7-0.1,1.7-0.1,2.9-0.2c2.4-0.2,5.5-0.2,8.7-0.1c3.2,0.1,6.3,0.4,8.7,0.9
	c1.2,0.2,2.2,0.4,2.9,0.6c0.7,0.2,1.1,0.3,1.1,0.3s-1.6-0.2-4-0.6c-1.2-0.2-2.5-0.3-4.1-0.4c-1.4-0.1-3.1-0.2-4.7-0.3
	c-3.1-0.1-6.3-0.1-8.7,0C179.6,11.4,178,11.4,178,11.4z"/>
<path class="st1" d="M129.4,10.3c0,0,2.9,0.1,7.1,0.2c2.2,0.1,4.5,0.2,7.2,0.3c2.6,0.1,5.5,0.3,8.3,0.6c5.6,0.4,11.3,1,15.4,0.9
	c2.2,0,3.8-0.2,5.1-0.3c1.2-0.1,1.9-0.1,1.9-0.1s-0.7,0.1-1.9,0.2c-1.2,0.1-3,0.4-5.1,0.4c-4.2,0.1-9.8-0.4-15.4-0.9
	c-2.8-0.2-5.6-0.4-8.3-0.6c-2.6-0.1-5.1-0.2-7.2-0.3C132.2,10.6,129.4,10.3,129.4,10.3z"/>
<path class="st1" d="M61.3,11.3c0,0,1,0,2.6-0.1c1.7-0.1,4.2-0.2,7.1-0.3c5.9-0.3,13.6-0.8,21.4-1c4-0.1,7.8,0,11.5,0
	s7.1,0,10.1,0.1c2.9,0.1,5.4,0.1,7.1,0.2c1.7,0.1,2.6,0.1,2.6,0.1s-1,0-2.6,0c-1.7,0-4.2,0-7.1,0c-2.9-0.1-6.3,0-9.9-0.1
	c-3.7,0-7.5-0.1-11.5,0c-7.8,0.1-15.6,0.7-21.4,0.9c-2.9,0.1-5.4,0.2-7.1,0.2C62.2,11.3,61.3,11.3,61.3,11.3z"/>
<path class="st1" d="M28.2,7.6c0,0,0.5,0,1.3,0s2,0.1,3.5,0.2c2.9,0.2,6.7,0.9,10.5,1.7c3.8,0.7,7.5,1.3,10.4,1.7
	c1.4,0.1,2.6,0.2,3.5,0.2c0.8,0,1.3,0,1.3,0s-0.5,0-1.3,0.1c-0.8,0-2,0-3.5-0.1c-2.9-0.3-6.7-1-10.5-1.7C39.6,9,35.9,8.3,33,8
	c-1.4-0.2-2.6-0.3-3.5-0.3C28.7,7.6,28.2,7.6,28.2,7.6z"/>
<path class="st1" d="M24.2,7.3c0,0,0.5,0,1.1,0c0.5,0,1.1,0.1,1.1,0.1s-0.5,0-1.1,0.1c-0.5,0-1.1,0.1-1.1,0.1c-0.1,0-0.1,0-0.1-0.1
	C24,7.4,24,7.3,24.2,7.3z"/>
<path class="st1" d="M205.3,12.4c0,0,1.1,0.3,2,0.6c1.1,0.3,2,0.7,2,0.7c0.1,0,0.1,0.1,0.1,0.2c0,0.1-0.1,0.1-0.2,0.1
	c0,0-1-0.4-2-0.8C206.4,12.8,205.3,12.4,205.3,12.4z"/>
<path class="st1" d="M174.4,11c0,0,0.5-0.1,1.2-0.2c0.8-0.1,1.9-0.2,3.2-0.4c2.6-0.3,6.3-0.4,9.9-0.3c3.6,0.1,7.2,0.4,9.9,0.9
	c1.3,0.2,2.4,0.4,3.2,0.7c0.7,0.2,1.2,0.3,1.2,0.3s-0.5-0.1-1.2-0.2c-0.7-0.1-1.9-0.3-3.2-0.6c-2.6-0.4-6.2-0.8-9.8-0.9
	c-3.6-0.1-7.2,0-9.9,0.2c-1.3,0.1-2.5,0.2-3.2,0.3C174.8,11,174.4,11,174.4,11z"/>
<path class="st1" d="M130,9.2c0,0,2.6,0,6.5,0.2c1.9,0.1,4.2,0.1,6.6,0.2c1.2,0,2.5,0.1,3.7,0.2c1.3,0.1,2.5,0.2,3.8,0.3
	c5.1,0.4,10.3,1.1,14.1,1.2c1.9,0.1,3.6,0.1,4.7,0c1.1,0,1.8-0.1,1.8-0.1s-0.6,0.1-1.8,0.2c-1.1,0.1-2.8,0.2-4.7,0.1
	c-4-0.1-9-0.7-14.1-1.2c-1.3-0.1-2.6-0.2-3.8-0.3c-1.3-0.1-2.5-0.2-3.7-0.2c-2.4-0.1-4.7-0.2-6.6-0.3C132.5,9.4,130,9.2,130,9.2z"/>
<path class="st1" d="M61.2,10.6c0,0,1.1,0,2.9-0.1c1.8-0.1,4.3-0.2,7.4-0.3C77.6,9.8,85.9,9.2,94,9c4.1-0.1,8.3,0,12.1,0
	c3.8,0,7.4,0,10.5,0.1s5.6,0.1,7.4,0.1c1.8,0.1,2.9,0.1,2.9,0.1s-1.1,0-2.9,0s-4.3,0-7.4,0s-6.7-0.1-10.5-0.1s-7.9,0-12.1,0
	c-8.3,0.1-16.4,0.9-22.5,1.1c-3.1,0.1-5.6,0.2-7.4,0.2C62.2,10.6,61.2,10.6,61.2,10.6z"/>
<path class="st1" d="M29.9,6.5c0,0,1.8,0,4.3,0.3c2.6,0.2,6,0.8,9.5,1.4C47,9,50.5,9.6,53,10c1.3,0.2,2.4,0.3,3.1,0.4
	c0.7,0.1,1.2,0.1,1.2,0.1s-0.5,0-1.2,0s-1.8-0.1-3.1-0.2c-2.6-0.3-6-1-9.5-1.6C40.1,8,36.7,7.5,34,7.1c-1.2-0.1-2.3-0.2-3-0.2
	C30.4,6.7,29.9,6.5,29.9,6.5z"/>
<path class="st1" d="M24.3,6.3c0,0,0.2,0,0.7,0c0.4,0,1,0,1.6,0.1c1.1,0,2.2,0.1,2.2,0.1s-1.1,0-2.2,0c-0.6,0-1.1,0-1.6,0
	c-0.4,0-0.7,0-0.7,0c-0.1,0-0.1,0-0.1-0.1C24.2,6.3,24.3,6.3,24.3,6.3z"/>
<path class="st1" d="M203,11c0,0,1.7,0.4,3.4,0.9c1.7,0.6,3.2,1,3.2,1c0.1,0,0.1,0.1,0.1,0.2c0,0.1-0.1,0.1-0.2,0.1
	c0,0-1.6-0.6-3.2-1.1C204.7,11.6,203,11,203,11z"/>
<path class="st1" d="M178.7,9.6c0,0,0.4,0,1-0.1s1.4-0.1,2.5-0.2c2.2-0.1,4.9-0.2,7.8-0.1c2.9,0.1,5.6,0.4,7.7,0.8
	c1.1,0.2,1.9,0.3,2.5,0.4c0.6,0.1,1,0.2,1,0.2s-0.4,0-1-0.1s-1.4-0.2-2.5-0.3c-2-0.3-4.9-0.6-7.7-0.8c-2.8-0.1-5.6-0.1-7.7,0
	C180.1,9.6,178.7,9.6,178.7,9.6z"/>
<path class="st1" d="M129.1,8c0,0,2.9,0,7.1,0.2c2.2,0.1,4.7,0.2,7.3,0.3s5.5,0.4,8.3,0.7c2.9,0.3,5.6,0.7,8.3,0.9
	c2.6,0.2,5.1,0.4,7.3,0.4s3.8-0.1,5.1-0.2c1.2-0.1,1.9-0.1,1.9-0.1s-0.7,0.1-1.9,0.2c-1.2,0.1-3,0.3-5.1,0.3s-4.7-0.1-7.3-0.4
	c-2.6-0.2-5.5-0.6-8.3-0.9c-2.9-0.3-5.6-0.7-8.3-0.8c-2.6-0.1-5.1-0.2-7.3-0.3C131.9,8.2,129.1,8,129.1,8z"/>
<path class="st1" d="M68.6,9.3c0,0,3.5-0.2,8.7-0.7c5.3-0.4,12.2-0.9,19.3-0.9c6.9,0,14-0.1,19.3,0c2.6,0,4.8,0.1,6.3,0.1
	c1.6,0,2.4,0.1,2.4,0.1s-0.8,0-2.4,0s-3.7,0-6.3,0c-5.3,0-12.2,0-19.3,0c-6.9,0-14,0.6-19.2,0.9c-2.6,0.1-4.8,0.3-6.3,0.3
	C69.4,9.3,68.6,9.3,68.6,9.3z"/>
<path class="st1" d="M28,5.4c0,0,0.6,0,1.6,0s2.4,0.1,4.1,0.3c3.3,0.4,7.8,1.2,12.3,2s8.9,1.7,12.3,1.7c1.7,0.1,3.1,0.1,4.1,0.1
	S64,9.6,64,9.6s-0.6,0.1-1.6,0.1s-2.4,0.1-4.1,0C54.8,9.7,50.4,8.8,46,8c-4.4-0.9-8.9-1.6-12.2-2c-1.7-0.2-3.1-0.3-4.1-0.4
	C28.6,5.5,28,5.4,28,5.4z"/>
<path class="st1" d="M24.5,5.3c0,0,0.5,0,1.1,0c0.5,0,1.1,0.1,1.1,0.1s-0.5,0-1.1,0.1c-0.5,0-1.1,0.1-1.1,0.1c-0.1,0-0.1,0-0.1-0.1
	S24.4,5.3,24.5,5.3z"/>
<path class="st1" d="M205.2,10.9l4.4,1.3c0.1,0,0.1,0.1,0.1,0.2s-0.1,0.1-0.2,0.1L205.2,10.9z"/>
<path class="st1" d="M177.4,8.8c0,0,0.4,0,1-0.1s1.6-0.2,2.6-0.3c2.2-0.2,5.1-0.2,8-0.1c3,0.1,5.9,0.4,8,0.8c1.1,0.2,2,0.3,2.6,0.6
	c0.6,0.2,1,0.2,1,0.2s-0.4,0-1-0.1S198,9.6,197,9.5c-2.2-0.3-5-0.7-8-0.8c-2.9-0.1-5.9-0.1-8,0c-1.1,0-2,0.1-2.6,0.2
	C177.8,8.8,177.4,8.8,177.4,8.8z"/>
<path class="st1" d="M130,6.9c0,0,2.6,0,6.5,0.2c1.9,0.1,4.2,0.1,6.7,0.2c1.2,0,2.5,0.1,3.7,0.2c1.3,0.1,2.5,0.2,3.8,0.4
	c5.1,0.7,10.3,1.4,14.2,1.6c1.9,0.1,3.6,0.1,4.7,0.1c1.1,0,1.8,0,1.8,0s-0.6,0.1-1.8,0.2c-1.1,0.1-2.8,0.1-4.7,0
	c-4-0.2-9.1-1-14.2-1.6c-1.3-0.1-2.6-0.3-3.8-0.4c-1.3-0.1-2.5-0.2-3.7-0.2c-2.4-0.1-4.7-0.2-6.7-0.3C132.5,7,130,6.9,130,6.9z"/>
<path class="st1" d="M63.2,8.7c0,0,1-0.1,2.8-0.1c1.8-0.1,4.2-0.2,7.2-0.4c6-0.4,14-1.1,21.9-1.2c8-0.1,16-0.1,22-0.1
	c3,0,5.5,0.1,7.3,0.1s2.8,0.1,2.8,0.1s-1,0-2.8,0.1c-1.8,0-4.2,0-7.3,0.1c-6,0-14,0-22,0.1S79.2,8.2,73.2,8.5
	c-3,0.2-5.5,0.3-7.2,0.3C64.3,8.7,63.2,8.7,63.2,8.7z"/>
<path class="st1" d="M30.4,4.5c0,0,0.5,0,1.3,0.1c0.8,0,2,0.1,3.5,0.3c2.9,0.3,6.6,1,10.3,1.7S52.9,8,55.8,8.4
	c1.4,0.2,2.6,0.2,3.5,0.3s1.3,0.1,1.3,0.1s-0.5,0-1.3,0s-2,0-3.5-0.1c-2.9-0.3-6.6-1-10.3-1.8S38,5.6,35.2,5.1
	c-1.4-0.2-2.6-0.3-3.5-0.4C30.9,4.5,30.4,4.5,30.4,4.5z"/>
<path class="st1" d="M24.6,4.3c0,0,0.2,0,0.6,0s0.8,0,1.3,0.1c1,0.1,1.9,0.1,1.9,0.1s-1,0-1.9,0c-0.5,0-1,0-1.3,0s-0.6,0-0.6,0
	c-0.1,0-0.1,0-0.1-0.1S24.6,4.3,24.6,4.3z"/>
<path class="st1" d="M202,9.2c0,0,1.9,0.6,4,1.1c1,0.2,1.9,0.6,2.6,0.8c0.7,0.2,1.2,0.3,1.2,0.3c0.1,0,0.1,0.1,0.1,0.2
	c0,0.1-0.1,0.1-0.2,0.1c0,0-0.5-0.2-1.2-0.4s-1.7-0.6-2.6-0.9C203.9,9.8,202,9.2,202,9.2z"/>
<path class="st1" d="M176.9,7.9c0,0,1.3-0.2,3.4-0.3c2-0.2,4.8-0.3,7.5-0.2c2.8,0.1,5.4,0.3,7.4,0.7c2,0.3,3.4,0.7,3.4,0.7
	s-1.3-0.1-3.4-0.4c-2-0.3-4.7-0.6-7.4-0.7c-2.8-0.1-5.4,0-7.4,0.1C178.3,7.9,176.9,7.9,176.9,7.9z"/>
<path class="st1" d="M129.4,5.7c0,0,2.9,0,7.1,0.1c2.2,0,4.7,0.1,7.3,0.3c2.6,0.2,5.5,0.6,8.3,1s5.6,0.9,8.3,1.1
	c2.6,0.3,5.1,0.6,7.2,0.6c2.2,0,4-0.1,5.1-0.1c1.2,0,1.9-0.1,1.9-0.1s-0.7,0.1-1.9,0.2c-1.2,0.1-3,0.3-5.1,0.3
	c-2.2,0-4.7-0.2-7.3-0.6c-2.6-0.3-5.4-0.8-8.3-1.2c-2.8-0.4-5.6-0.8-8.3-1s-5.1-0.3-7.3-0.4C132.2,5.8,129.4,5.7,129.4,5.7z"/>
<path class="st1" d="M69.2,7.3c0,0,3.5-0.3,8.7-0.8c5.3-0.4,12.3-0.9,19.3-0.9c7.1-0.1,14.1-0.1,19.4-0.2c2.6,0,4.8,0,6.3,0
	c1.6,0,2.4,0,2.4,0s-0.8,0-2.4,0.1c-1.6,0-3.7,0.1-6.3,0.1c-5.3,0-12.3,0.1-19.4,0.1c-3.5,0-7.1,0.1-10.3,0.3
	c-3.2,0.2-6.3,0.3-9,0.6c-2.6,0.2-4.8,0.3-6.3,0.4C70.1,7.3,69.2,7.3,69.2,7.3z"/>
<path class="st1" d="M29.3,3.4c0,0,0.6,0,1.6,0s2.4,0.1,4.2,0.3c3.5,0.3,8,1.2,12.5,2.1c2.3,0.4,4.5,0.9,6.6,1.2
	c1.1,0.1,2.2,0.3,3.1,0.3c1,0,1.9,0.1,2.8,0.1c3.5,0,5.7,0.1,5.7,0.1S63.4,7.8,60,7.8c-0.8,0-1.8-0.1-2.8-0.1s-2-0.2-3.1-0.3
	c-2.2-0.3-4.4-0.8-6.7-1.2S42.9,5.3,40.8,5c-2.2-0.3-4.1-0.7-5.9-0.9c-1.7-0.2-3.1-0.3-4.2-0.4C29.9,3.4,29.3,3.4,29.3,3.4z"/>
<path class="st1" d="M24.9,3.3c0,0,0.8,0,1.7,0c0.8,0,1.7,0.1,1.7,0.1s-0.8,0-1.7,0c-0.8,0-1.7,0.1-1.7,0.1c-0.1,0-0.1,0-0.1-0.1
	S24.8,3.3,24.9,3.3z"/>
<path class="st1" d="M26.7,15c0,0-0.1-0.1-0.2-0.3s-0.2-0.7,0-1.1c0.1-0.1,0.1-0.2,0.4-0.3c0.1,0,0.1-0.1,0.2-0.1h0.1
	c0,0,0.1,0,0.2,0.1c0.1,0.2,0.2,0.4,0.4,0.8c0.2,0.6,0.4,1.2,0.4,1.8c0.1,1.2,0,2.5,0.2,3.3c0.1,0.4,0.2,0.8,0.2,1
	c0.1,0.2,0.1,0.4,0.1,0.4s-0.1-0.1-0.2-0.3c-0.1-0.2-0.4-0.6-0.5-1c-0.2-0.9-0.2-2.1-0.2-3.3c0-0.6-0.1-1.2-0.4-1.7
	c-0.1-0.2-0.2-0.6-0.4-0.7c0,0,0,0-0.1,0h-0.1c-0.1,0-0.1,0.1-0.2,0.2c-0.2,0.3-0.1,0.8-0.1,1C26.6,14.8,26.7,15,26.7,15z"/>
<path class="st1" d="M138.9,25.3c0,0,0.5-0.8,1.2-1.9c0.8-1.1,1.9-2.5,3.2-3.8c0.6-0.7,1.3-1.2,2-1.8c0.4-0.2,0.7-0.4,1.1-0.7
	c0.4-0.2,0.7-0.3,1.1-0.4c0.1,0,0.5,0,0.6,0.2c0,0.2,0,0.3,0,0.4c0,0.2,0,0.4-0.1,0.7c0,0.3-0.1,0.6-0.1,0.6s0-0.2,0-0.6
	c0-0.2,0-0.4,0-0.7c0-0.1,0-0.3,0-0.3c0-0.1-0.1-0.1-0.2-0.1c-0.4,0-0.6,0.2-1,0.4c-0.4,0.2-0.7,0.4-1,0.7c-0.7,0.6-1.3,1.1-2,1.8
	c-1.3,1.2-2.5,2.7-3.4,3.7C139.5,24.6,138.9,25.3,138.9,25.3z"/>
<path class="st1" d="M160.2,29.4c0,0,0.2-0.2,0.6-0.7c0.4-0.4,1-1,1.7-1.8c1.3-1.4,3.2-3.3,5.1-5.1c1-0.9,1.9-1.9,2.9-2.7
	c0.5-0.4,1-0.8,1.3-1.2c0.2-0.2,0.4-0.3,0.7-0.6c0.1,0,0.1,0,0.2,0c0.1,0,0.2,0.1,0.2,0.1c0.1,0.1,0.1,0.3,0.1,0.4
	c-0.1,0.6-0.2,0.9-0.4,1.3c-0.1,0.3-0.2,0.7-0.4,0.9c-0.2,0.6-0.4,0.8-0.4,0.8s0.1-0.3,0.2-0.9c0.1-0.2,0.2-0.6,0.4-1
	c0.1-0.3,0.2-0.8,0.4-1.2c0-0.1,0-0.2,0-0.2s0,0-0.1,0h-0.1c-0.1,0.1-0.4,0.3-0.6,0.4c-0.5,0.3-0.8,0.8-1.3,1.2
	c-1,0.9-1.9,1.8-2.9,2.7c-1.9,1.9-3.8,3.7-5.3,5.1C161.3,28.5,160.2,29.4,160.2,29.4z"/>
<path class="st1" d="M56.4,28.2c0,0-1-0.9-2.4-2.3c-1.4-1.3-3.4-3.2-5.3-5c-1-0.9-1.9-1.8-2.9-2.7c-0.5-0.4-0.8-0.9-1.3-1.2
	l-0.4-0.2L44,16.6c0,0,0,0-0.1,0s-0.2,0-0.2,0c0-0.1,0,0.1,0.1,0.2c0.6,1.9,0.7,3.1,0.7,3.1s-0.5-1.2-1.1-3v-0.2c0,0-0.1-0.2,0-0.3
	c0.2-0.1,0.4-0.1,0.5-0.1s0.2,0,0.2,0.1l0.1,0.1l0.4,0.3c0.4,0.4,0.8,0.8,1.3,1.2c1,0.9,1.9,1.8,2.9,2.7c1.9,1.8,3.8,3.7,5.3,5.1
	C55.5,27.2,56.4,28.2,56.4,28.2z"/>
<path class="st1" d="M38.9,168.5c0,0,0,0.1,0.1,0.4c0,0.1,0,0.3,0.1,0.4c0.1,0.2,0.1,0.3,0.2,0.6c0.2,0.4,0.4,0.9,0.7,1.4
	c0.4,0.6,0.7,1,1.2,1.4c0.8,1,1.8,1.9,2.3,2.8c0.2,0.4,0.4,0.8,0.5,1.1c0,0.2,0,0.4,0,0.4s0-0.1-0.1-0.4c-0.1-0.2-0.2-0.7-0.6-1
	c-0.6-0.8-1.6-1.7-2.4-2.7c-0.5-0.4-0.8-1-1.2-1.6s-0.6-1-0.8-1.4c-0.1-0.2-0.1-0.4-0.2-0.7c-0.1-0.2-0.1-0.3-0.1-0.4
	c0-0.2-0.1-0.4-0.1-0.4L38.9,168.5L38.9,168.5z"/>
<path class="st1" d="M189,159.3c0,0,0,0.1-0.1,0.4c0,0.2-0.1,0.7-0.4,1.1c-0.4,0.9-1.2,2-2,3.1c-0.4,0.6-0.8,1-1.2,1.6
	c-0.4,0.4-0.6,1-0.8,1.4c-0.1,0.2-0.1,0.4-0.1,0.7c0,0.2-0.1,0.3-0.1,0.4c0,0.3,0,0.4,0,0.4s0-0.1-0.1-0.4c0-0.1,0-0.3,0-0.6
	c0-0.2,0.1-0.4,0.1-0.7c0.2-1,1.1-2.1,1.9-3.1c0.8-1,1.6-2.1,1.9-3c0.1-0.2,0.1-0.4,0.2-0.6c0.1-0.2,0.1-0.3,0.1-0.4
	c0.1-0.2,0.1-0.4,0.1-0.4h0.5V159.3z"/>
<path class="st1" d="M191.6,184.4c0,0,0,0.1-0.1,0.3s-0.2,0.7-0.4,1c-0.4,0.8-1.1,1.8-1.8,2.7c-0.4,0.4-0.7,1-1,1.4
	c-0.4,0.4-0.6,0.9-0.7,1.3c-0.1,0.4-0.2,0.8-0.2,1s0,0.4,0,0.4s0-0.1,0-0.4c0-0.2,0-0.7,0.1-1c0.2-0.9,1-1.9,1.7-2.8
	c0.7-1,1.4-1.9,1.8-2.7c0.2-0.3,0.4-0.7,0.4-0.9C191.5,184.5,191.5,184.4,191.6,184.4L191.6,184.4z"/>
<path class="st1" d="M189,27.1c0,0,0-0.1,0.1-0.2s0.2-0.4,0.5-0.7c0.2-0.2,0.5-0.6,0.8-0.8c0.4-0.3,0.8-0.6,1.3-0.9
	c1.9-1.2,4.8-2.7,7.5-4c0.7-0.3,1.4-0.7,2-1c0.7-0.3,1.4-0.7,2.2-0.8c0.2,0,0.4-0.1,0.6,0.1s0.2,0.4,0.1,0.6c-0.1,0.3-0.2,0.7-0.4,1
	c-0.2,0.6-0.6,1.1-0.8,1.6c-1.1,1.9-2,3.1-2,3.1s0.6-1.3,1.8-3.2c0.2-0.4,0.6-1,0.8-1.6c0.2-0.4,0.7-1.4-0.1-1.2
	c-0.7,0.1-1.3,0.4-2,0.8s-1.4,0.7-2,1c-2.8,1.3-5.5,2.8-7.5,3.9c-1,0.6-1.8,1.1-2.3,1.7c-0.2,0.2-0.4,0.4-0.5,0.6H189z"/>
<path class="st1" d="M37.8,107.8c0,0,0.1,0.3,0.4,0.9c0.2,0.6,0.7,1.2,1.1,1.9c0.2,0.3,0.4,0.7,0.5,1.1c0.1,0.3,0.2,0.7,0.2,1
	s0,0.6-0.1,0.8c-0.1,0.1-0.1,0.2-0.1,0.2s0-0.1,0-0.2c0-0.2,0-0.4,0-0.7c-0.1-0.6-0.5-1.3-0.8-2c-0.4-0.7-0.8-1.3-1.1-1.9
	c-0.1-0.2-0.2-0.6-0.2-0.7c0-0.2-0.1-0.2-0.1-0.2L37.8,107.8z"/>
<path class="st1" d="M38.2,145.9c0,0,0-0.1,0.1-0.3c0-0.2,0.1-0.4,0.2-0.8c0.2-0.7,0.6-1.4,1-2.2s0.8-1.6,1.1-2.1
	c0.1-0.3,0.1-0.6,0.1-0.8s-0.1-0.3-0.1-0.3s0,0.1,0.1,0.3c0,0.2,0.1,0.4,0,0.8c-0.1,0.7-0.6,1.5-1,2.2c-0.4,0.8-0.7,1.6-1,2.2
	c-0.1,0.3-0.1,0.6-0.2,0.8c0,0.2-0.1,0.3-0.1,0.3L38.2,145.9z"/>
<path class="st1" d="M42.6,68.6c0,0,0.2,0.4,0.6,1.2c0.4,0.7,0.8,1.7,1.1,2.7c0.4,1,0.5,2.1,0.4,2.9c0,0.4-0.1,0.7-0.2,0.9
	c-0.1,0.2-0.1,0.3-0.1,0.3s0.1-0.6,0.1-1.3c0-0.8-0.1-1.8-0.5-2.8s-0.7-1.9-1.1-2.7c-0.4-0.7-0.6-1.2-0.6-1.2H42.6z"/>
<path class="st1" d="M38.8,198.5c0,0,0.1,0.3,0.2,1c0,0.3,0.1,0.7,0.4,1.1c0.1,0.4,0.4,0.8,0.7,1.2s0.7,0.9,1.3,1.1l0.4,0.2l0.5,0.2
	c0.4,0.1,0.6,0.3,1,0.4c1.3,0.4,2.9,0.8,4.3,1.2c1.6,0.3,3,0.9,4.3,1.3c0.7,0.3,1.3,0.6,1.9,0.9c0.6,0.3,1.2,0.6,1.7,0.9
	c0.5,0.3,1,0.6,1.3,0.9c0.4,0.3,0.7,0.6,1,0.8c0.5,0.4,0.7,0.7,0.7,0.7s-0.4-0.2-0.8-0.6c-0.2-0.2-0.6-0.4-1-0.7
	c-0.4-0.2-0.8-0.6-1.3-0.8c-0.5-0.3-1.1-0.6-1.7-0.9c-0.6-0.3-1.2-0.6-1.9-0.8c-1.3-0.6-2.8-1-4.3-1.3c-1.4-0.4-3-0.8-4.4-1.2
	c-0.4-0.1-0.7-0.2-1-0.4l-0.5-0.2l-0.5-0.2c-0.6-0.3-1-0.8-1.4-1.2c-0.2-0.4-0.6-0.9-0.7-1.3c-0.1-0.4-0.2-0.8-0.2-1.1
	C38.8,198.9,38.8,198.5,38.8,198.5z"/>
<path class="st1" d="M92.1,211.6c0,0,0.1,0,0.5-0.1c0.2,0,0.7-0.1,1.2,0c1,0,2.3,0.2,3.5,0.6c1.2,0.3,2.4,0.7,3.4,0.8
	c1,0.2,1.6,0.2,1.6,0.2v0.2c0,0-0.6,0-1.6-0.2s-2.2-0.6-3.4-0.8c-1.2-0.3-2.4-0.6-3.4-0.7C92.8,211.5,92.1,211.6,92.1,211.6z"/>
<path class="st1" d="M120.8,211.5c0,0-0.6,0-1.3,0c-0.8,0-1.9,0.2-2.9,0.6s-2,0.8-2.8,0.9c-0.8,0.2-1.3,0.2-1.3,0.2V213
	c0,0,0.5-0.1,1.3-0.3c0.7-0.2,1.8-0.6,2.8-0.9c1.1-0.3,2.2-0.4,3-0.4c0.4,0,0.7,0.1,1,0.1C120.7,211.5,120.8,211.5,120.8,211.5z"/>
<path class="st1" d="M142.8,212.2c0,0,0.1,0,0.4,0c0.2,0,0.6,0,1,0c0.8,0,1.8,0.2,2.8,0.4s2,0.4,2.8,0.6c0.4,0,0.7,0,0.8,0
	c0.2,0,0.4-0.1,0.4-0.1l0.1,0.2c0,0-0.1,0-0.4,0.1c-0.2,0-0.6,0-1,0c-0.8-0.1-1.8-0.3-2.8-0.6c-1-0.2-2-0.4-2.8-0.6
	C143.3,212.3,142.8,212.2,142.8,212.2z"/>
<path class="st1" d="M74.6,213.6c0,0,0.1,0,0.4,0s0.5,0,0.8,0s0.7,0,1.2,0.1s0.8,0.2,1.3,0.3c0.8,0.3,1.8,0.7,2.4,0.8
	c0.7,0.1,1.1,0.1,1.1,0.1v0.2c0,0-0.5,0-1.2-0.1s-1.6-0.6-2.4-0.8c-0.5-0.1-0.8-0.3-1.3-0.3c-0.4-0.1-0.8-0.1-1.2-0.2
	C75.1,213.6,74.6,213.6,74.6,213.6z"/>
<path class="st1" d="M35.5,216.3c0,0,1.4,0,3-0.2c0.7-0.1,1.4-0.2,2-0.3s1-0.1,1-0.1s-0.4,0.1-0.8,0.3c-0.5,0.1-1.3,0.3-2,0.4
	c-0.7,0.1-1.4,0.2-2,0.2s-1,0-1,0L35.5,216.3z"/>
<path class="st1" d="M124.5,21.8c0,0,0.1-0.2,0.2-0.7c0.1-0.4,0.4-1.1,0.7-1.9c0.2-0.3,0.4-0.8,0.8-1.2c0.2-0.2,0.6-0.2,0.8-0.1
	c0.2,0.1,0.5,0.3,0.7,0.6c0.7,0.9,1.1,2,1.2,3.1c0.1,1.1,0.1,2.2,0,3.3c-0.1,1-0.2,2-0.4,2.8c-0.2,1.7-0.6,2.7-0.6,2.7s0-0.3,0-0.8
	s0.1-1.2,0.2-2c0.2-1.7,0.6-3.9,0.4-6c-0.1-1.1-0.5-2.1-1.1-3c-0.4-0.3-0.8-0.8-1.2-0.4c-0.4,0.2-0.6,0.7-0.7,1
	c-0.4,0.8-0.6,1.4-0.8,1.9C124.7,21.6,124.5,21.8,124.5,21.8z"/>
<path class="st1" d="M84.3,22c0,0,0-0.2-0.1-0.6c-0.1-0.3-0.2-0.8-0.4-1.3c0-0.3-0.1-0.6-0.1-0.9s0-0.7,0.1-1.1s0.7-0.7,1.1-0.7
	c0.5,0,1,0.1,1.2,0.4c0.7,0.6,1.1,1.2,1.6,1.9c0.4,0.7,0.6,1.3,0.8,1.8c0.5,1.1,0.6,1.9,0.6,1.9s-0.4-0.7-0.8-1.8
	c-0.2-0.6-0.5-1.1-0.8-1.8c-0.4-0.7-0.8-1.3-1.4-1.8c-0.4-0.2-0.6-0.3-1.1-0.3c-0.4,0-0.7,0.1-0.8,0.4s-0.1,0.7-0.1,1s0,0.7,0.1,0.9
	c0.1,0.6,0.1,1,0.2,1.3C84.3,21.8,84.3,22,84.3,22z"/>
<path class="st1" d="M181,22c0,0,0.1-0.2,0.4-0.7c0.2-0.4,0.6-1,1.1-1.6c0.2-0.3,0.6-0.7,0.8-1c0.4-0.3,0.7-0.7,1.4-0.7
	c0.7,0.1,1,0.7,1.2,1.1s0.4,1,0.2,1.6c0,0.6-0.2,1.1-0.4,1.6c-0.2,0.4-0.5,0.9-0.7,1.3c-0.5,0.9-1.1,1.6-1.6,2.2
	c-1.1,1.2-1.8,2-1.8,2s0.1-0.2,0.4-0.7c0.2-0.3,0.6-0.9,1.2-1.6c0.5-0.7,1.1-1.3,1.6-2.2c0.2-0.4,0.5-0.9,0.7-1.3s0.4-0.9,0.4-1.4
	c0-0.4,0-1-0.2-1.4s-0.5-0.9-1-1c-0.5,0-0.8,0.3-1.2,0.6c-0.4,0.3-0.6,0.6-1,0.9c-0.5,0.6-1,1.1-1.2,1.6C181.1,21.8,181,22,181,22z"
	/>
<path class="st1" d="M194.3,198.6c0,0,0,0.1-0.1,0.3s-0.2,0.4-0.5,0.8c-0.5,0.6-1.1,1.2-1.8,1.9s-1.4,1.2-1.9,1.7
	c-0.2,0.2-0.2,0.6-0.2,0.8s0.1,0.3,0.1,0.3s0-0.1-0.1-0.3c0-0.1,0-0.2,0-0.3s0.1-0.3,0.1-0.4c0.4-0.7,1.1-1.2,1.8-1.9
	c0.4-0.3,0.7-0.7,1-0.9c0.4-0.3,0.6-0.7,0.7-0.9c0.2-0.2,0.4-0.4,0.5-0.7c0.1-0.2,0.1-0.2,0.1-0.2L194.3,198.6z"/>
<path class="st1" d="M200.7,202.4c0,0,0.1,0.2,0.1,0.7c0,0.4-0.2,1-0.5,1.4c-0.2,0.4-0.6,0.9-0.8,1.3c-0.2,0.3-0.1,0.7-0.1,0.7
	s0,0-0.1-0.2c0-0.1-0.1-0.3,0-0.6c0.1-0.4,0.5-0.9,0.7-1.3c0.2-0.4,0.4-1,0.4-1.3s0-0.7,0-0.7L200.7,202.4L200.7,202.4z"/>
<path class="st1" d="M196.9,206.5c0,0-0.1,0-0.2,0.1c-0.1,0-0.4,0.1-0.6,0.3c-0.4,0.3-0.8,0.9-1.1,1.4c-0.4,0.6-0.6,1.2-1,1.7
	c-0.1,0.2-0.4,0.3-0.5,0.4c-0.1,0.1-0.2,0.1-0.2,0.1l-0.1-0.2c0,0,0.1,0,0.2-0.1c0.1-0.1,0.2-0.2,0.4-0.4c0.4-0.4,0.6-1,1-1.7
	s0.7-1.2,1.3-1.6c0.2-0.1,0.5-0.2,0.6-0.2C196.8,206.5,196.9,206.5,196.9,206.5z"/>
<path class="st1" d="M33.7,201.1c0,0,0,0.1,0,0.2c0,0.1,0.1,0.2,0.2,0.4c0.2,0.4,0.6,0.9,0.8,1.4c0.4,0.6,0.6,1.1,0.7,1.6
	c0,0.4-0.1,0.8-0.1,0.8s0-0.3-0.1-0.8c-0.1-0.4-0.4-1-0.7-1.4c-0.4-0.6-0.7-1-1-1.4c-0.1-0.2-0.1-0.4-0.2-0.6c0-0.1,0-0.2,0-0.2
	H33.7z"/>
<path class="st1" d="M32.4,209.6c0,0,0,0.1,0,0.2c0,0.1,0,0.3,0,0.6c0,0.2,0.1,0.4,0.4,0.7c0.1,0.2,0.5,0.3,0.7,0.4
	c0.2,0.1,0.6,0.2,0.8,0.4c0.2,0.1,0.5,0.3,0.6,0.6c0.1,0.2,0.1,0.4,0.1,0.6c0,0.1,0,0.2,0,0.2s0-0.1,0-0.2c0-0.1,0-0.1-0.1-0.2
	c0-0.1-0.1-0.2-0.1-0.2c-0.2-0.3-0.8-0.6-1.4-0.8c-0.2-0.1-0.6-0.3-0.8-0.6c-0.2-0.2-0.4-0.6-0.4-0.8s0-0.4,0-0.6c0-0.1,0-0.2,0-0.2
	L32.4,209.6z"/>
<line class="st2" x1="84.4" y1="228.5" x2="149.2" y2="228.5"/>
<line class="st2" x1="0.1" y1="237.4" x2="94.2" y2="237.4"/>
<line class="st2" x1="135" y1="237.4" x2="229.1" y2="237.4"/>
<g>
	<path class="st1" d="M85.4,173.8h8.3c0.2,0.1,0.3,0.3,0.5,0.5c0.1,0.2,0.2,0.4,0.2,0.7c0,0.2,0,0.4-0.1,0.6c0,0.2-0.1,0.4-0.2,0.6
		l-5.6,12.5c-0.1,0-0.2,0-0.4,0c-0.1,0-0.2,0-0.3,0c-0.4,0-0.7-0.1-1-0.3s-0.4-0.5-0.4-0.8c0-0.2,0-0.5,0.1-0.7s0.2-0.5,0.4-0.8
		l4.8-10.2h-7c-0.1-0.1-0.1-0.2-0.2-0.4s-0.1-0.4-0.1-0.6c0-0.4,0.1-0.6,0.2-0.8C84.9,173.9,85.1,173.8,85.4,173.8z"/>
	<path class="st1" d="M113,181.5v5.2c0,0.3-0.1,0.6-0.2,0.8c-0.2,0.2-0.4,0.4-0.8,0.6c-0.4,0.2-0.9,0.4-1.7,0.6
		c-0.7,0.1-1.5,0.2-2.2,0.2c-1.4,0-2.7-0.3-3.9-0.8c-1.1-0.5-2-1.4-2.7-2.5s-1-2.6-1-4.3s0.3-3.1,1-4.3s1.5-2,2.7-2.6
		c1.1-0.6,2.3-0.9,3.7-0.9c0.9,0,1.7,0.1,2.4,0.3c0.7,0.2,1.2,0.5,1.6,0.8s0.6,0.7,0.6,1s-0.1,0.5-0.2,0.7s-0.3,0.4-0.5,0.5
		c-0.4-0.3-0.9-0.6-1.5-0.8s-1.3-0.4-2.2-0.4c-1,0-1.8,0.2-2.6,0.6s-1.4,1.1-1.8,1.9c-0.4,0.8-0.7,1.9-0.7,3.1
		c0,1.3,0.2,2.3,0.7,3.2c0.4,0.8,1.1,1.4,1.8,1.8s1.6,0.6,2.6,0.6c0.5,0,1,0,1.4-0.1s0.8-0.2,1-0.3v-3.9h-3.3c0-0.1-0.1-0.2-0.2-0.4
		s-0.1-0.4-0.1-0.6c0-0.4,0.1-0.6,0.2-0.8s0.4-0.3,0.6-0.3h3.9c0.3,0,0.6,0.1,0.8,0.3C112.9,180.9,113,181.2,113,181.5z"/>
	<path class="st1" d="M125,184.8c-0.1,0.1-0.3,0.2-0.5,0.3s-0.4,0.1-0.7,0.1c-0.3,0-0.6,0-0.8-0.1s-0.4-0.3-0.5-0.5
		c-0.7-1.7-1.4-3.2-1.9-4.6s-1-2.5-1.3-3.4h-0.1c0,1.1-0.1,2.2-0.2,3.2s-0.1,1.9-0.2,2.9c0,0.9-0.1,1.9-0.1,2.8c0,1-0.1,2-0.2,3.1
		c-0.1,0-0.3,0.1-0.5,0.1s-0.4,0-0.6,0c-0.4,0-0.7-0.1-0.9-0.3c-0.2-0.2-0.3-0.4-0.3-0.8c0-0.2,0-0.7,0-1.4s0.1-1.5,0.1-2.5
		c0.1-1,0.1-2,0.2-3.1s0.2-2.2,0.2-3.3c0.1-1.1,0.2-2.1,0.2-3c0.1-0.1,0.3-0.3,0.6-0.4s0.6-0.2,1-0.2c0.5,0,0.9,0.1,1.2,0.3
		s0.5,0.5,0.7,0.8c0.4,0.8,0.7,1.6,1.1,2.5s0.7,1.8,1.1,2.7s0.7,1.8,1,2.5h0.1c0.6-1.6,1.2-3.2,1.8-4.7c0.6-1.5,1.1-2.8,1.5-3.9
		c0.2-0.1,0.4-0.1,0.6-0.2s0.5-0.1,0.7-0.1c0.5,0,0.8,0.1,1.1,0.2c0.3,0.2,0.4,0.4,0.5,0.7s0.1,0.8,0.2,1.4s0.1,1.4,0.2,2.3
		s0.2,1.8,0.2,2.8s0.1,1.9,0.2,2.9c0.1,0.9,0.1,1.8,0.2,2.5c0.1,0.8,0.1,1.4,0.1,1.8c-0.2,0.1-0.3,0.2-0.5,0.2s-0.4,0.1-0.7,0.1
		s-0.6-0.1-0.8-0.2s-0.4-0.4-0.4-0.8c-0.1-1.5-0.2-2.9-0.2-4.3c-0.1-1.4-0.1-2.7-0.2-3.9s-0.1-2.1-0.2-2.9h-0.1
		c-0.3,0.8-0.7,1.9-1.2,3.2S125.7,182.7,125,184.8z"/>
	<path class="st1" d="M138.8,186.8c1,0,1.7-0.2,2.2-0.7c0.5-0.4,0.7-1,0.7-1.7c0-0.6-0.2-1.1-0.6-1.4c-0.4-0.4-1-0.7-1.7-0.9
		l-1.8-0.6c-0.7-0.2-1.3-0.5-1.9-0.9s-0.9-0.8-1.2-1.3s-0.4-1.1-0.4-1.9c0-1.3,0.5-2.3,1.4-3s2.1-1.1,3.7-1.1c0.9,0,1.6,0.1,2.3,0.3
		s1.2,0.4,1.6,0.7c0.4,0.3,0.6,0.6,0.6,1c0,0.3-0.1,0.5-0.2,0.7c-0.1,0.2-0.3,0.4-0.5,0.5c-0.4-0.3-0.9-0.6-1.5-0.8
		s-1.3-0.3-2.1-0.3c-0.9,0-1.5,0.2-2,0.5s-0.7,0.9-0.7,1.5c0,0.5,0.2,0.9,0.5,1.2s0.9,0.6,1.6,0.8l1.4,0.4c1.3,0.4,2.3,0.9,3,1.6
		c0.7,0.7,1.1,1.7,1.1,2.9c0,1.3-0.5,2.3-1.4,3.1s-2.3,1.2-4,1.2c-0.9,0-1.8-0.1-2.5-0.3s-1.3-0.5-1.7-0.8s-0.6-0.7-0.6-1.1
		c0-0.3,0.1-0.6,0.3-0.8s0.4-0.4,0.6-0.5c0.4,0.4,0.9,0.7,1.5,1S137.9,186.8,138.8,186.8z"/>
</g>
</svg>
