<?xml version="1.0" encoding="utf-8"?>
<!-- Generator: Adobe Illustrator 23.1.0, SVG Export Plug-In . SVG Version: 6.00 Build 0)  -->
<svg version="1.1" id="Layer_1" xmlns="http://www.w3.org/2000/svg" xmlns:xlink="http://www.w3.org/1999/xlink" x="0px" y="0px"
	 viewBox="0 0 234 288" style="enable-background:new 0 0 234 288;" xml:space="preserve">
<style type="text/css">
	.st0{fill:#333333;}
	.st1{fill:none;stroke:#333333;stroke-miterlimit:10;}
	.st2{fill:none;stroke:#333333;}
</style>
<path class="st0" d="M105.2,54.6v1.6h-6.6v-1.6H105.2z M102.4,56.2l0.8-1.2c1.1,0,2,0.2,2.7,0.6c0.7,0.4,1.3,0.8,1.6,1.4
	c0.4,0.6,0.6,1.3,0.6,2c0,1.5-0.5,2.5-1.6,3.2c-1,0.7-2.5,1.1-4.5,1.1c-0.4,0-0.9,0-1.3,0s-0.9-0.1-1.3-0.1C99,63,98.6,63,98.2,62.9
	c-0.7-0.2-1-0.6-1-1.1V49.5c0-0.3,0.1-0.5,0.2-0.6s0.3-0.2,0.6-0.3c0.5-0.2,1.1-0.3,1.7-0.3c0.6-0.1,1.3-0.1,2-0.1
	c1.8,0,3.2,0.3,4.2,1c1,0.6,1.5,1.6,1.5,3c0,0.7-0.2,1.3-0.5,1.9c-0.3,0.6-0.8,1-1.6,1.4c-0.7,0.3-1.7,0.5-2.9,0.5l-0.2-1.2
	c1.1,0,1.9-0.2,2.4-0.6c0.5-0.4,0.8-1.1,0.8-1.8c0-0.8-0.3-1.4-1-1.8c-0.6-0.4-1.6-0.6-2.8-0.6c-0.5,0-1,0-1.4,0.1
	c-0.4,0-0.8,0.1-1.2,0.1v11.4c0.4,0.1,0.8,0.1,1.3,0.2c0.5,0,1,0.1,1.5,0.1c1.3,0,2.3-0.2,3-0.7c0.7-0.4,1-1.1,1-2.1
	c0-0.8-0.3-1.5-0.9-2C104.5,56.5,103.6,56.2,102.4,56.2z M110.7,49.9c0-0.3,0.2-0.6,0.6-0.8c0.4-0.3,0.9-0.5,1.5-0.7s1.3-0.3,2-0.3
	c1,0,1.9,0.2,2.6,0.5s1.3,0.8,1.7,1.4s0.6,1.4,0.6,2.2c0,0.9-0.2,1.7-0.7,2.6c-0.5,0.8-1.3,1.8-2.5,2.9l-3.9,3.6h7.1
	c0.1,0.1,0.1,0.2,0.2,0.3c0,0.1,0.1,0.3,0.1,0.5c0,0.3-0.1,0.5-0.2,0.6s-0.3,0.2-0.5,0.2h-8.5c-0.2-0.1-0.3-0.2-0.4-0.4
	s-0.1-0.4-0.1-0.6c0-0.3,0-0.5,0.1-0.7s0.2-0.4,0.4-0.6l4.3-4.2c1-0.9,1.7-1.7,2-2.3c0.4-0.6,0.6-1.3,0.6-2c0-0.8-0.3-1.4-0.8-1.8
	c-0.5-0.5-1.3-0.7-2.3-0.7c-0.7,0-1.3,0.1-1.9,0.4c-0.5,0.2-1,0.5-1.4,0.8c-0.2-0.1-0.3-0.2-0.5-0.4
	C110.8,50.4,110.7,50.2,110.7,49.9z M131.6,54.6v1.6H125v-1.6H131.6z M128.9,56.2l0.8-1.2c1.1,0,2,0.2,2.7,0.6
	c0.7,0.4,1.3,0.8,1.6,1.4c0.4,0.6,0.6,1.3,0.6,2c0,1.5-0.5,2.5-1.6,3.2c-1,0.7-2.5,1.1-4.5,1.1c-0.4,0-0.9,0-1.3,0s-0.9-0.1-1.3-0.1
	s-0.8-0.1-1.2-0.2c-0.7-0.2-1-0.6-1-1.1V49.5c0-0.3,0.1-0.5,0.2-0.6s0.3-0.2,0.6-0.3c0.5-0.2,1.1-0.3,1.7-0.3c0.6-0.1,1.3-0.1,2-0.1
	c1.8,0,3.2,0.3,4.2,1c1,0.6,1.5,1.6,1.5,3c0,0.7-0.2,1.3-0.5,1.9c-0.3,0.6-0.8,1-1.6,1.4c-0.7,0.3-1.7,0.5-2.9,0.5l-0.2-1.2
	c1.1,0,1.9-0.2,2.4-0.6c0.5-0.4,0.8-1.1,0.8-1.8c0-0.8-0.3-1.4-1-1.8c-0.6-0.4-1.6-0.6-2.8-0.6c-0.5,0-1,0-1.4,0.1
	c-0.4,0-0.8,0.1-1.2,0.1v11.4c0.4,0.1,0.8,0.1,1.3,0.2c0.5,0,1,0.1,1.5,0.1c1.3,0,2.3-0.2,3-0.7c0.7-0.4,1-1.1,1-2.1
	c0-0.8-0.3-1.5-0.9-2C131,56.5,130.1,56.2,128.9,56.2z"/>
<path class="st0" d="M111.7,230.6l1.5-1c1.7,1.6,3.2,3.1,4.4,4.4c1.2,1.3,2.3,2.3,3.1,3.1c0,0.4-0.1,0.6-0.3,0.8
	c-0.2,0.2-0.4,0.3-0.7,0.3c-0.3,0-0.5-0.1-0.7-0.2c-0.2-0.2-0.4-0.3-0.6-0.6L111.7,230.6z M113.5,231.2l-1.9-0.4l7.2-7.5
	c0.4,0,0.7,0.1,0.9,0.3c0.2,0.2,0.3,0.4,0.3,0.7c0,0.2-0.1,0.4-0.2,0.6c-0.1,0.2-0.3,0.4-0.5,0.6L113.5,231.2z M110.2,229.2h2v8.8
	c-0.1,0-0.2,0.1-0.4,0.1c-0.2,0-0.3,0.1-0.5,0.1c-0.4,0-0.6-0.1-0.8-0.2c-0.2-0.1-0.3-0.4-0.3-0.7
	C110.2,237.3,110.2,229.2,110.2,229.2z M112.2,230.8h-2v-7.3c0.1,0,0.2-0.1,0.4-0.1c0.2,0,0.4-0.1,0.6-0.1c0.4,0,0.6,0.1,0.8,0.2
	c0.2,0.1,0.3,0.4,0.3,0.7v6.6H112.2z M134.6,231.1v5.2c0,0.3-0.1,0.5-0.3,0.7s-0.4,0.4-0.7,0.5c-0.4,0.2-1,0.4-1.7,0.5
	s-1.4,0.2-2.1,0.2c-1.5,0-2.8-0.3-4-0.8c-1.1-0.5-2-1.4-2.7-2.5s-1-2.5-1-4.3c0-1.7,0.3-3.1,1-4.2c0.7-1.1,1.6-2,2.7-2.5
	c1.1-0.6,2.3-0.8,3.6-0.8c0.9,0,1.7,0.1,2.4,0.3s1.2,0.4,1.6,0.7c0.4,0.3,0.6,0.6,0.6,0.9c0,0.2-0.1,0.4-0.2,0.6
	c-0.1,0.2-0.3,0.3-0.5,0.4c-0.4-0.3-0.9-0.6-1.5-0.8c-0.6-0.3-1.4-0.4-2.3-0.4c-1,0-1.9,0.2-2.7,0.7c-0.8,0.4-1.5,1.1-1.9,2
	c-0.5,0.9-0.7,2-0.7,3.3c0,1.4,0.2,2.5,0.7,3.4s1.2,1.5,2,1.9s1.8,0.6,2.9,0.6c0.6,0,1.1,0,1.6-0.1s0.9-0.2,1.2-0.4v-4.4H129
	c0-0.1-0.1-0.2-0.1-0.3s-0.1-0.3-0.1-0.5c0-0.3,0.1-0.5,0.2-0.6c0.1-0.2,0.3-0.2,0.6-0.2h4c0.3,0,0.5,0.1,0.7,0.3
	C134.5,230.6,134.6,230.8,134.6,231.1z"/>
<path class="st1" d="M9.8,260c-0.4,0.7-2.2-0.1-3.2-0.3c-1-0.1-1.9,0.1-2.1,1.2l0.4,1.2l1.2-0.4l0.1,1h1.2l0.1,0.7h1
	c0,0,0.1,0.8,3.2,1.1c3.1,0.1,5.4,0.4,5.4,0.4s1.5,1.2,4,1.2c6.3,0,8.7,0.5,11.9,0.5s5.7-0.1,13.4-0.7c7.6-0.5,21.7-3,26.6-2.7
	c4.8,0.3,10-2.3,12.2-2.2c2.2,0.1,7.5-1.1,11.1-0.4c3.7,0.7,9.4,1.5,15.1,0.1s12.6,0.5,18,0.7c5.4,0.1,19.4,0.1,22.9-0.4
	s5,0.3,7.6-0.1s10.1-0.1,15.1,0.1c5,0.3,7.6,0.3,12.5-0.5c4.8-0.8,12.2-1.1,17-1.8c4.8-0.7,5-0.5,6.2-1.5s3.2,0,5.7-0.8
	c2.5-0.8,4.7-1.6,7.2-1.5s5,0,5,0s-0.1-1.1-2.3-3.6s-4.1-2.7-5.6-2s-0.3-1.5-2.3-2.6s-6,0.3-7-1.5s1.6-3.4,0.3-8.3
	c-1.6-6.6-3.7-6.4-4.3-7.9c-0.4-1.5,1.5-3.3,0.9-9s-0.1-7.4-1-10s0-3.6-1.2-7.4c-1.2-3.8-1.9-4.1-1.6-5.5c0.3-1.4,1.2-2.6,0.7-8.1
	c-0.4-5.5-1.8-8.7-1.8-11.2s1.3-3.3,0.6-9.7s0.3-8.2,0-14.1s0.3-9.2-0.6-15.2c-0.9-6,0.3-6.4-0.9-14.1c-1.2-7.6-1.2-12.6-2.3-19.7
	c-1.2-7.1-1.6-10.8-2.3-14.2c-0.7-3.4-5.7-8.5-5.6-9.4c0.1-1,7.9-9.2,11.7-14.8c3.8-5.6,4.7-7.1,7.2-9.4S217,48,219.6,45
	s5.7-11.7,7.9-15.3s4.8-11.2,5.3-13.2c-0.3-3.7-1.6-4.9-1.6-4.9c-0.7-0.1-2.1,0.3-2.1,0.3l-2.1-1.2l-1.9,0.1l-1.9-1.2l-1.9,0.1
	l-1.9-1.2l-1.9,0.1l-1.9-1.2l-2.1,0.3l-2.1-1.1L209.3,7l-2.1-1l-2.1,0.5L203,5.7l-2.1,0.7l-1.8-0.7l-1.8,0.7L196,5.8l-1.8,0.8
	l-1.8-0.5l-1.8,1L189,6.6l-1.8,1l-1.8-0.4l-1.8,1l-1.8-0.4L180,8.6L178.4,8l-1.8,0.7l-1.8-1l-2.9,0.1L169,6.7L166.1,7l-2.9-1.1
	l-2.9,0.4l-2.9-1l-2.9,0.4l-2.9-1l-2.9,0.4l-2.9-0.8L142.6,5l-2.9-0.8l-2.9,0.5l-3.1-0.8l-3.1,0.7l-2.8-0.7L125,4.6l-2.8-0.7
	l-2.8,0.7L116.6,4l-2.8,0.8L111,4.3L108.3,5l-2.8-0.7L102.7,5l-2.8-0.7L97.1,5L93,4.6l-2.8,0.5l-2.8-0.8l-2.8,0.5l-2.8-0.7L79.1,5
	l-2.8-0.4l-2.8,1l-2.8-0.3l-2.8,1.1l-2.8-0.3l-2.8,1.1l-2.8-0.3l-2.8,1L54,7.3l-2.5,0.5L48.7,7l-2.8,0.4L43,6.3l-2.8,0.1L37.4,5
	h-2.8l-2.8-1.4H29l-2.8-1.4l-2.9,0.1l-2.9-1.1l-2.9,0.4l-3-0.6l-2.9,0.7L8.7,1l-3,0.8L2.8,1.4c0,0,0,2.9-0.6,5.5
	C0.6,14,0.9,13.2,2.9,19.6s3.4,9.8,7.3,23.2c4,13.2,3.7,12.6,6.5,16.3s2.2,4.9,3.5,9.7c1.2,4.9,1.6,6.8,4,11.5
	c2.3,4.6,4,5.9,0.1,13.1c-3.8,7.2-5.6,14.9-5.9,16.5s0.9,8.3,1,15.7c0.1,7.5,1.6,8.2,1.2,10c-1,5.2,0.4,6.6-0.1,10.8
	c-0.7,5.3,0.4,9.6,0,15.6s0,11.1,0.4,12.8c0.4,1.9-0.4,2.9-0.6,7.6c-0.1,4.8-0.3,10.5-0.1,15.3c0.1,4.9,0.9,7.2,1.5,9.8
	s-0.1,2.9,0.6,5.1s-0.3,8.1-0.9,11.9c-0.7,3.8-2.9,2.5-4.7,10.7c-2.9,12.7-0.9,10.9-1.6,12.7c-0.7,1.8-1.3,8.7-2.2,9.8
	C12.2,258.9,11.2,257.6,9.8,260z"/>
<path class="st0" d="M198.8,71.3c0,0-0.1,0.4-0.4,1c-0.3,0.7-0.7,1.5-1.3,2.5s-1.3,2.2-2.2,3.4c-0.4,0.5-0.9,1.2-1.3,1.9
	c-0.1,0.3-0.4,0.7-0.6,1c0,0.3-0.1,0.7-0.1,1.1c0,1.5,0.6,3,1.2,4.4c0.6,1.4,1,2.6,1.3,3.7s0.6,2,0.7,2.7c0.1,0.7,0.1,1.1,0.1,1.1
	s-0.4-1.5-1.2-3.7c-0.4-1.1-0.9-2.3-1.5-3.7c-0.6-1.4-1.2-2.9-1.2-4.4c0-0.4,0-0.7,0.1-1.2c0.1-0.4,0.4-0.7,0.6-1.1
	c0.4-0.7,0.9-1.2,1.3-1.9c0.9-1.2,1.6-2.3,2.2-3.4c0.6-1,1-1.9,1.5-2.5C198.5,71.6,198.8,71.3,198.8,71.3z"/>
<path class="st0" d="M6.5,261c0,0,0-0.1,0-0.4c0.1-0.1,0.3-0.1,0.4,0s0.3,0.1,0.4,0.3c0.7,0.5,1.5,1.4,2.3,2c0.9,0.7,2.1,1,2.8,1.2
	c0.9,0.1,1.5,0.3,1.5,0.3v0.3c0,0-0.6,0-1.5-0.1s-2.1-0.5-2.9-1.2c-1-0.7-1.8-1.5-2.3-2C6.9,261.1,6.6,260.9,6.5,261L6.5,261z"/>
<path class="st0" d="M227.1,20c0,0,0.7,0.3,1.5,0.4c0.7,0.3,1.5,0.5,1.5,0.5c0.1,0,0.1,0.1,0.1,0.3c0,0.1-0.1,0.1-0.3,0.1
	c0,0-0.7-0.3-1.5-0.7C227.8,20.3,227.1,20,227.1,20z"/>
<path class="st0" d="M189.4,18.3c0,0,0.6,0,1.6-0.1s2.3-0.3,4.1-0.3c3.4-0.3,7.9-0.4,12.5-0.3c4.5,0.1,9.1,0.4,12.5,0.8
	c1.6,0.3,3.1,0.5,4.1,0.8c0.9,0.3,1.5,0.4,1.5,0.4s-0.6-0.1-1.5-0.3c-0.4-0.1-1-0.1-1.8-0.3c-0.7-0.1-1.5-0.1-2.3-0.3
	c-3.4-0.4-7.9-0.7-12.5-0.8c-4.5-0.1-9.1,0-12.5,0.1C191.6,18.2,189.4,18.3,189.4,18.3z"/>
<path class="st0" d="M129.3,17.8c0,0,3.5,0.1,8.7,0.3c5.1,0.3,12.2,0.5,19.1,0.8c6.9,0.3,13.9,0.4,19.1,0.3c2.6,0,4.7-0.1,6.3-0.3
	c1.5-0.1,2.3-0.1,2.3-0.1s-0.9,0.1-2.3,0.3c-1.5,0.1-3.7,0.4-6.3,0.5c-5.3,0.1-12.2,0-19.1-0.3c-6.9-0.3-13.9-0.5-19.1-1
	C132.8,18.1,129.3,17.8,129.3,17.8z"/>
<path class="st0" d="M48.4,18.3c0,0,1.2-0.1,3.1-0.3c2.1-0.1,4.8-0.3,8.4-0.5c6.9-0.4,16-0.8,25.2-1.1c9.2-0.1,18.3,0,25.2,0.3
	c1.8,0,3.2,0.1,4.7,0.3c1.5,0.1,2.6,0.1,3.7,0.1c2.1,0.1,3.1,0.3,3.1,0.3s-1.2,0-3.1,0c-2.1,0-4.8-0.1-8.4-0.3
	c-6.9-0.3-16-0.4-25.2-0.3c-9.1,0.1-18.3,0.7-25.2,1C53.1,18.1,48.4,18.3,48.4,18.3z"/>
<path class="st0" d="M11.2,14.1c0,0,2.2,0.1,5.3,0.4c3.2,0.3,7.3,1.1,11.6,1.8c4.3,0.7,8.4,1.4,11.6,1.6c1.6,0.1,2.9,0.3,3.8,0.4
	c0.9,0.1,1.5,0.1,1.5,0.1s-0.6,0-1.5,0s-2.2,0-3.8-0.1c-3.2-0.3-7.3-1-11.6-1.6c-4.3-0.7-8.4-1.4-11.6-1.9c-1.6-0.3-2.9-0.4-3.8-0.5
	C11.7,14.1,11.2,14.1,11.2,14.1z"/>
<path class="st0" d="M2.6,13.6c0,0,1.6,0,3.2,0.1c1.6,0,3.2,0.1,3.2,0.1s-1.6,0-3.2,0s-3.2,0.1-3.2,0.1c-0.1,0-0.1-0.1-0.1-0.1
	C2.5,13.7,2.6,13.6,2.6,13.6z"/>
<path class="st0" d="M228,19.3c0,0,0.6,0.1,1.2,0.4c0.6,0.1,1.2,0.4,1.2,0.4c0.1,0,0.1,0.1,0.1,0.3s-0.1,0.1-0.3,0.1
	c0,0-0.6-0.3-1.2-0.5C228.4,19.6,228,19.3,228,19.3z"/>
<path class="st0" d="M187.9,17.4c0,0,0.6-0.1,1.6-0.1c1-0.1,2.5-0.3,4.3-0.4c3.5-0.3,8.4-0.4,13.1-0.3c2.3,0,4.8,0.1,7,0.3
	c2.2,0.1,4.3,0.4,6,0.7c1.8,0.3,3.2,0.5,4.3,0.8c1,0.3,1.6,0.4,1.6,0.4s-0.6-0.1-1.6-0.3c-0.4-0.1-1.2-0.1-1.9-0.3
	c-0.7-0.1-1.5-0.3-2.3-0.4c-1.8-0.3-3.8-0.5-6-0.7c-2.2-0.1-4.5-0.3-7-0.3c-4.7-0.1-9.5,0.1-13.1,0.3
	C190.3,17.1,187.9,17.4,187.9,17.4z"/>
<path class="st0" d="M131,16.4c0,0,3.2,0.1,8.1,0.3c4.8,0.1,11.2,0.5,17.6,0.8c6.5,0.3,12.8,0.5,17.6,0.5c2.3,0,4.4,0,5.9,0
	s2.2-0.1,2.2-0.1s-0.1,0-0.6,0.1c-0.4,0-0.9,0.1-1.6,0.1c-1.5,0.1-3.4,0.3-5.9,0.3c-4.8,0-11.3-0.3-17.6-0.5
	c-6.5-0.3-12.8-0.5-17.6-1C134.1,16.7,131,16.4,131,16.4z"/>
<path class="st0" d="M46.5,17.1c0,0,5-0.3,12.3-0.7s17.2-1,27-1.2c2.5,0,5-0.1,7.3-0.1c2.5,0,4.8,0.1,7.2,0.1c2.3,0,4.5,0.1,6.6,0.1
	s4.1,0,6,0.1c3.7,0.1,6.7,0.3,8.9,0.4c2.2,0.1,3.4,0.3,3.4,0.3s-1.2,0-3.4,0c-2.2,0-5.3-0.1-8.9-0.3c-1.9-0.1-3.8-0.1-6-0.1
	c-2.1,0-4.4-0.1-6.6-0.1c-2.3,0-4.7-0.1-7-0.1c-2.5,0-4.8,0-7.3,0.1c-10,0.3-19.8,0.8-27.1,1.1C55.2,16.8,52.2,17,50,17
	C47.7,17.1,46.5,17.1,46.5,17.1z"/>
<path class="st0" d="M9,12.6c0,0,2.1,0,5.3,0.4c3.2,0.3,7.3,1,11.6,1.6c4.1,0.7,8.4,1.5,11.4,1.9c3.1,0.4,5.3,0.7,5.3,0.7
	s-0.6,0-1.5,0s-2.2-0.1-3.8-0.3c-3.2-0.4-7.3-1.1-11.6-1.8c-4.1-0.7-8.4-1.4-11.4-1.8C11,12.9,9,12.6,9,12.6z"/>
<path class="st0" d="M2.9,12.3c0,0,1,0,1.9,0.1c1,0,1.9,0.1,1.9,0.1s-1,0-1.9,0.1c-1,0-1.9,0.1-1.9,0.1c-0.1,0-0.1,0-0.1-0.1
	C2.8,12.5,2.8,12.3,2.9,12.3z"/>
<path class="st0" d="M225.9,17.7c0,0,1.2,0.3,2.2,0.7c1.2,0.4,2.2,0.7,2.2,0.7c0.1,0,0.1,0.1,0.1,0.3c0,0.1-0.1,0.1-0.3,0.1
	c0,0-1-0.4-2.2-1C227,18.1,225.9,17.7,225.9,17.7z"/>
<path class="st0" d="M189.4,16c0,0,2.2-0.3,5.4-0.5c3.2-0.3,7.6-0.4,12-0.3c4.4,0.1,8.7,0.4,11.9,1c1.6,0.3,2.9,0.5,3.8,0.7
	c0.9,0.3,1.5,0.4,1.5,0.4s-0.6-0.1-1.5-0.3c-0.9-0.1-2.3-0.4-3.8-0.5c-3.2-0.4-7.5-0.8-11.9-0.8c-4.4-0.1-8.7,0-11.9,0.1
	C191.6,16,189.4,16,189.4,16z"/>
<path class="st0" d="M130.4,15.1c0,0,3.4,0.1,8.7,0.3c5.1,0.1,12,0.5,18.9,1c6.9,0.4,13.8,0.8,18.9,0.7c2.6,0,4.7-0.1,6.2-0.3
	c1.5-0.1,2.3-0.1,2.3-0.1s-0.9,0.1-2.3,0.3c-1.5,0.1-3.7,0.4-6.2,0.4c-5.1,0-12-0.4-18.9-0.8s-13.8-0.7-18.9-1
	C133.8,15.3,130.4,15.1,130.4,15.1z"/>
<path class="st0" d="M51.2,15.8c0,0,4.5-0.3,11.4-0.5c6.9-0.4,16-1,25.1-1.1c4.5-0.1,9.1,0,13.5,0c4.3,0.1,8.2,0.1,11.7,0.1
	c3.4,0.1,6.3,0.3,8.2,0.3c2.1,0.1,3.1,0.1,3.1,0.1s-1.2,0-3.1,0c-2.1,0-4.8-0.1-8.2-0.1c-3.4-0.1-7.5-0.1-11.7-0.1
	c-4.3-0.1-8.8-0.1-13.4,0c-9.1,0.1-18.2,0.8-25.1,1.1c-3.4,0.1-6.3,0.3-8.2,0.3C52.4,15.8,51.2,15.8,51.2,15.8z"/>
<path class="st0" d="M10.1,11.4c0,0,2.5,0.1,6,0.5c3.7,0.4,8.4,1.2,13.2,2c4.7,0.8,9.5,1.6,13.2,1.8c1.8,0.1,3.4,0.1,4.4,0.1
	s1.6,0,1.6,0S48,15.9,47,16c-1,0-2.6,0.1-4.4,0c-3.7-0.3-8.4-1-13.2-1.8c-4.7-0.8-9.5-1.6-13.1-2.2c-1.8-0.3-3.2-0.4-4.4-0.5
	C10.7,11.5,10.1,11.4,10.1,11.4z"/>
<path class="st0" d="M3.1,11.1c0,0,1.3,0,2.6,0s2.6,0.1,2.6,0.1s-1.3,0-2.6,0.1c-1.3,0-2.6,0-2.6,0c-0.1,0-0.1,0-0.1-0.1
	C2.9,11.1,2.9,11.1,3.1,11.1z"/>
<path class="st0" d="M228.3,17.5l2.2,0.7c0.1,0,0.1,0.1,0.1,0.3c0,0.1-0.1,0.1-0.3,0.1L228.3,17.5z"/>
<path class="st0" d="M186.6,15.3c0,0,0.6-0.1,1.6-0.3c1-0.1,2.5-0.3,4.4-0.5c3.7-0.4,8.5-0.5,13.4-0.4c4.8,0.1,9.7,0.5,13.4,1.1
	c1.8,0.3,3.2,0.7,4.3,1c1,0.3,1.6,0.4,1.6,0.4s-0.6-0.1-1.6-0.3c-0.6-0.1-1.2-0.1-1.9-0.3c-0.7-0.1-1.6-0.3-2.5-0.4
	c-3.5-0.5-8.4-1.1-13.2-1.1c-4.8-0.1-9.7,0.1-13.4,0.3c-1.8,0.1-3.4,0.3-4.4,0.4C187.2,15.2,186.6,15.3,186.6,15.3z"/>
<path class="st0" d="M132.3,13.7c0,0,3.2,0,8.1,0.3c2.3,0.1,5.3,0.3,8.2,0.4c3.1,0.1,6.2,0.3,9.4,0.5c6.5,0.4,12.8,1,17.6,1
	c2.3,0,4.4,0,5.9,0c1.5-0.1,2.2-0.1,2.2-0.1s-0.7,0.1-2.2,0.3c-1.5,0.1-3.4,0.3-5.9,0.3c-4.8-0.1-11.3-0.5-17.6-1
	c-3.2-0.3-6.5-0.4-9.4-0.5c-3.1-0.1-5.9-0.3-8.2-0.4C135.6,14,132.3,13.7,132.3,13.7z"/>
<path class="st0" d="M46.5,14.8c0,0,1.3,0,3.5-0.1c2.2,0,5.3-0.1,9.1-0.4c7.5-0.4,17.6-1.1,27.7-1.4c5-0.1,10.1-0.1,14.8,0
	c4.7,0,9.1,0,12.9,0.1s6.9,0.3,9.1,0.3c2.2,0.1,3.5,0.1,3.5,0.1s-1.3,0-3.5,0s-5.3-0.1-9.1-0.1c-3.8-0.1-8.2-0.1-12.9-0.1
	c-4.7,0-9.8-0.1-14.8,0c-10.1,0.3-20.1,1.1-27.7,1.4c-3.8,0.1-6.9,0.3-9.1,0.3C47.7,14.8,46.5,14.8,46.5,14.8z"/>
<path class="st0" d="M9.2,10.1c0,0,2.1,0,5.3,0.4c3.2,0.3,7.3,1,11.6,1.6c4.1,0.7,8.4,1.5,11.4,1.9c3.1,0.4,5.3,0.7,5.3,0.7
	s-0.6,0-1.5,0s-2.2-0.1-3.8-0.4c-3.1-0.4-7.3-1.1-11.4-1.9c-4.1-0.8-8.4-1.4-11.4-1.8c-1.6-0.3-2.9-0.3-3.8-0.4
	C9.7,10.1,9.2,10.1,9.2,10.1z"/>
<path class="st0" d="M3.4,9.9c0,0,1,0,2.1,0.1c1,0,2.1,0,2.1,0s-1,0-2.1,0s-2.1,0.1-2.1,0.1c-0.1,0-0.1,0-0.1-0.1
	C3.1,9.9,3.2,9.9,3.4,9.9z"/>
<path class="st0" d="M225.3,15.8c0,0,0.3,0.1,0.9,0.3c0.4,0.1,1.2,0.3,1.8,0.5c1.3,0.4,2.5,0.8,2.5,0.8c0.1,0,0.1,0.1,0.1,0.3
	s-0.1,0.1-0.3,0.1c0,0-1.3-0.5-2.5-1c-0.6-0.3-1.3-0.5-1.8-0.7C225.6,15.9,225.3,15.8,225.3,15.8z"/>
<path class="st0" d="M192,13.6c0,0,0.4,0,1.3-0.1c0.9-0.1,2.1-0.1,3.5-0.3c2.9-0.3,6.7-0.3,10.7-0.1c4,0.1,7.8,0.5,10.7,1.1
	c1.5,0.3,2.6,0.5,3.5,0.7c0.9,0.3,1.3,0.4,1.3,0.4s-1.9-0.3-4.8-0.7c-1.5-0.3-3.1-0.4-5-0.5c-1.8-0.1-3.8-0.3-5.7-0.4
	c-3.8-0.1-7.8-0.1-10.7,0C193.9,13.6,192,13.6,192,13.6z"/>
<path class="st0" d="M132.5,12.2c0,0,3.5,0.1,8.7,0.3c2.6,0.1,5.6,0.3,8.8,0.4c3.2,0.1,6.7,0.4,10.1,0.7c6.9,0.5,13.8,1.2,18.9,1.1
	c2.6,0,4.7-0.3,6.3-0.4c1.5-0.1,2.3-0.1,2.3-0.1s-0.9,0.1-2.3,0.3c-1.5,0.1-3.7,0.5-6.3,0.5c-5.1,0.1-12-0.5-18.9-1.1
	c-3.4-0.3-6.9-0.5-10.1-0.7c-3.2-0.1-6.3-0.3-8.8-0.4C135.9,12.5,132.5,12.2,132.5,12.2z"/>
<path class="st0" d="M49,13.4c0,0,1.2,0,3.2-0.1c2.1-0.1,5.1-0.3,8.7-0.4c7.2-0.4,16.7-1,26.3-1.2c4.8-0.1,9.5,0,14.1,0
	c4.5,0,8.7,0,12.3,0.1c3.5,0.1,6.6,0.1,8.7,0.3c2.1,0.1,3.2,0.1,3.2,0.1s-1.2,0-3.2,0c-2.1,0-5.1,0-8.7,0c-3.5-0.1-7.8,0-12.2-0.1
	c-4.5,0-9.2-0.1-14.1,0c-9.5,0.1-19.1,0.8-26.3,1.1c-3.5,0.1-6.6,0.3-8.7,0.3C50.2,13.4,49,13.4,49,13.4z"/>
<path class="st0" d="M8.5,8.8c0,0,0.6,0,1.6,0s2.5,0.1,4.3,0.3c3.5,0.3,8.2,1.1,12.9,2c4.7,0.8,9.2,1.6,12.8,2
	c1.8,0.1,3.2,0.3,4.3,0.3c1,0,1.6,0,1.6,0s-0.6,0-1.6,0.1c-1,0-2.5,0-4.3-0.1c-3.5-0.4-8.2-1.2-12.9-2s-9.2-1.6-12.8-2
	C12.6,9.1,11.2,9,10.1,9C9.1,8.8,8.5,8.8,8.5,8.8z"/>
<path class="st0" d="M3.5,8.5c0,0,0.6,0,1.3,0c0.6,0,1.3,0.1,1.3,0.1s-0.6,0-1.3,0.1c-0.6,0-1.3,0.1-1.3,0.1c-0.1,0-0.1,0-0.1-0.1
	C3.4,8.6,3.4,8.5,3.5,8.5z"/>
<path class="st0" d="M225.5,14.8c0,0,1.3,0.4,2.5,0.7c1.3,0.4,2.5,0.8,2.5,0.8c0.1,0,0.1,0.1,0.1,0.3s-0.1,0.1-0.3,0.1
	c0,0-1.2-0.5-2.5-1C226.8,15.2,225.5,14.8,225.5,14.8z"/>
<path class="st0" d="M187.6,13c0,0,0.6-0.1,1.5-0.3c1-0.1,2.3-0.3,4-0.5c3.2-0.4,7.8-0.5,12.2-0.4s8.8,0.5,12.2,1.1
	c1.6,0.3,2.9,0.5,4,0.8c0.9,0.3,1.5,0.4,1.5,0.4s-0.6-0.1-1.5-0.3c-0.9-0.1-2.3-0.4-4-0.7c-3.2-0.5-7.6-1-12-1.1s-8.8,0-12.2,0.3
	c-1.6,0.1-3.1,0.3-4,0.4C188.1,13,187.6,13,187.6,13z"/>
<path class="st0" d="M133.2,10.8c0,0,3.2,0,7.9,0.3c2.3,0.1,5.1,0.1,8.1,0.3c1.5,0,3.1,0.1,4.5,0.3c1.6,0.1,3.1,0.3,4.7,0.4
	c6.3,0.5,12.6,1.4,17.3,1.5c2.3,0.1,4.4,0.1,5.7,0c1.3,0,2.2-0.1,2.2-0.1s-0.7,0.1-2.2,0.3c-1.3,0.1-3.4,0.3-5.7,0.1
	c-4.8-0.1-11-0.8-17.3-1.5c-1.6-0.1-3.2-0.3-4.7-0.4c-1.6-0.1-3.1-0.3-4.5-0.3c-2.9-0.1-5.7-0.3-8.1-0.4
	C136.3,11.1,133.2,10.8,133.2,10.8z"/>
<path class="st0" d="M48.9,12.5c0,0,1.3,0,3.5-0.1s5.3-0.3,9.1-0.4c7.5-0.5,17.6-1.2,27.6-1.5c5-0.1,10.1,0,14.8,0
	c4.7,0,9.1,0,12.9,0.1s6.9,0.1,9.1,0.1c2.2,0.1,3.5,0.1,3.5,0.1s-1.3,0-3.5,0s-5.3,0-9.1,0c-3.8,0-8.2-0.1-12.9-0.1
	c-4.7,0-9.7,0-14.8,0C79,10.8,69,11.8,61.5,12.1c-3.8,0.1-6.9,0.3-9.1,0.3C50.2,12.5,48.9,12.5,48.9,12.5z"/>
<path class="st0" d="M10.6,7.6c0,0,2.2,0,5.3,0.4c3.2,0.3,7.3,1,11.6,1.8c4.1,0.8,8.4,1.5,11.4,2c1.6,0.3,2.9,0.4,3.8,0.5
	c0.9,0.1,1.5,0.1,1.5,0.1s-0.6,0-1.5,0s-2.2-0.1-3.8-0.3c-3.2-0.4-7.3-1.2-11.6-1.9c-4.1-0.8-8.4-1.5-11.6-1.9
	C14.1,8.1,12.8,8,11.9,8C11.2,7.7,10.6,7.6,10.6,7.6z"/>
<path class="st0" d="M3.7,7.3c0,0,0.3,0,0.9,0c0.4,0,1.2,0,1.9,0.1c1.3,0,2.6,0.1,2.6,0.1s-1.3,0-2.6,0c-0.7,0-1.3,0-1.9,0
	c-0.4,0-0.9,0-0.9,0C3.6,7.5,3.6,7.5,3.7,7.3C3.6,7.3,3.7,7.3,3.7,7.3z"/>
<path class="st0" d="M222.7,13c0,0,2.1,0.5,4.1,1.1c2.1,0.7,4,1.2,4,1.2c0.1,0,0.1,0.1,0.1,0.3c0,0.1-0.1,0.1-0.3,0.1
	c0,0-1.9-0.7-4-1.4C224.8,13.7,222.7,13,222.7,13z"/>
<path class="st0" d="M192.9,11.2c0,0,0.4,0,1.2-0.1c0.7-0.1,1.8-0.1,3.1-0.3c2.6-0.1,6-0.3,9.5-0.1c3.5,0.1,6.9,0.5,9.4,1
	c1.3,0.3,2.3,0.4,3.1,0.5c0.7,0.1,1.2,0.3,1.2,0.3s-0.4,0-1.2-0.1c-0.7-0.1-1.8-0.3-3.1-0.4c-2.5-0.4-6-0.7-9.4-1
	c-3.4-0.1-6.9-0.1-9.4,0C194.5,11.2,192.9,11.2,192.9,11.2z"/>
<path class="st0" d="M132,9.3c0,0,3.5,0,8.7,0.3c2.6,0.1,5.7,0.3,8.9,0.4c3.2,0.1,6.7,0.5,10.1,0.8c3.5,0.4,6.9,0.8,10.1,1.1
	c3.2,0.3,6.3,0.5,8.9,0.5c2.6,0,4.7-0.1,6.3-0.3c1.5-0.1,2.3-0.1,2.3-0.1s-0.9,0.1-2.3,0.3c-1.5,0.1-3.7,0.4-6.3,0.4
	s-5.7-0.1-8.9-0.5c-3.2-0.3-6.7-0.7-10.1-1.1c-3.5-0.4-6.9-0.8-10.1-1c-3.2-0.1-6.3-0.3-8.9-0.4C135.6,9.6,132,9.3,132,9.3z"/>
<path class="st0" d="M58,11c0,0,4.3-0.3,10.7-0.8c6.5-0.5,15-1.1,23.6-1.1c8.5,0,17.2-0.1,23.6,0c3.2,0,5.9,0.1,7.8,0.1
	s2.9,0.1,2.9,0.1s-1,0-2.9,0s-4.5,0-7.8,0c-6.5,0-15,0-23.6,0c-8.5,0-17.2,0.7-23.5,1.1c-3.2,0.1-5.9,0.4-7.8,0.4C59,11,58,11,58,11
	z"/>
<path class="st0" d="M8.2,6.2c0,0,0.7,0,1.9,0s2.9,0.1,5,0.4C19.2,7,24.8,8,30.2,8.9s10.9,2,15.1,2c2.1,0.1,3.8,0.1,5,0.1
	s1.9,0.1,1.9,0.1s-0.7,0.1-1.9,0.1s-2.9,0.1-5,0c-4.3,0-9.7-1.1-15.1-2c-5.4-1.1-10.9-1.9-15-2.5c-2.1-0.3-3.8-0.4-5-0.5
	C9,6.3,8.2,6.2,8.2,6.2z"/>
<path class="st0" d="M4,6.1c0,0,0.6,0,1.3,0c0.6,0,1.3,0.1,1.3,0.1S6,6.2,5.3,6.3C4.7,6.3,4,6.5,4,6.5c-0.1,0-0.1,0-0.1-0.1
	C3.8,6.2,3.8,6.1,4,6.1z"/>
<path class="st0" d="M225.3,12.9l5.4,1.6c0.1,0,0.1,0.1,0.1,0.3c0,0.1-0.1,0.1-0.3,0.1L225.3,12.9z"/>
<path class="st0" d="M191.3,10.3c0,0,0.4,0,1.2-0.1c0.7-0.1,1.9-0.3,3.2-0.4c2.6-0.3,6.3-0.3,9.8-0.1c3.7,0.1,7.2,0.5,9.8,1
	c1.3,0.3,2.5,0.4,3.2,0.7s1.2,0.3,1.2,0.3s-0.4,0-1.2-0.1c-0.7-0.1-1.9-0.3-3.2-0.4c-2.6-0.4-6.2-0.8-9.8-1c-3.5-0.1-7.2-0.1-9.8,0
	c-1.3,0-2.5,0.1-3.2,0.3C191.7,10.3,191.3,10.3,191.3,10.3z"/>
<path class="st0" d="M133.2,8c0,0,3.2,0,7.9,0.3c2.3,0.1,5.1,0.1,8.2,0.3c1.5,0,3.1,0.1,4.5,0.3c1.6,0.1,3.1,0.3,4.7,0.5
	c6.3,0.8,12.6,1.8,17.5,1.9c2.3,0.1,4.4,0.1,5.7,0.1s2.2,0,2.2,0s-0.7,0.1-2.2,0.3c-1.3,0.1-3.4,0.1-5.7,0
	c-4.8-0.3-11.1-1.2-17.5-1.9c-1.6-0.1-3.2-0.4-4.7-0.5c-1.6-0.1-3.1-0.3-4.5-0.3c-2.9-0.1-5.7-0.3-8.2-0.4
	C136.3,8.1,133.2,8,133.2,8z"/>
<path class="st0" d="M51.4,10.1c0,0,1.2-0.1,3.4-0.1c2.2-0.1,5.1-0.3,8.8-0.5C70.9,8.9,80.7,8.1,90.4,8c9.8-0.1,19.7-0.1,27-0.1
	c3.7,0,6.7,0.1,8.9,0.1c2.2,0,3.4,0.1,3.4,0.1s-1.2,0-3.4,0.1c-2.2,0-5.1,0-8.9,0.1c-7.3,0-17.2,0-27,0.1s-19.5,1-26.8,1.4
	c-3.7,0.3-6.7,0.4-8.8,0.4C52.7,10.1,51.4,10.1,51.4,10.1z"/>
<path class="st0" d="M11.2,5.1c0,0,0.6,0,1.6,0.1c1,0,2.5,0.1,4.3,0.4c3.5,0.4,8.1,1.2,12.6,2s9.1,1.8,12.6,2.2
	c1.8,0.3,3.2,0.3,4.3,0.4c1,0.1,1.6,0.1,1.6,0.1s-0.6,0-1.6,0s-2.5,0-4.3-0.1C38.8,9.8,34.2,9,29.7,8S20.4,6.5,17,5.9
	c-1.8-0.3-3.2-0.4-4.3-0.5C11.7,5.1,11.2,5.1,11.2,5.1z"/>
<path class="st0" d="M4.1,4.8c0,0,0.3,0,0.7,0c0.4,0,1,0,1.6,0.1C7.6,5,8.7,5,8.7,5S7.5,5,6.4,5C5.8,5,5.2,5,4.8,5S4.1,5,4.1,5
	C4,5.1,4,5.1,4,5S4.1,4.8,4.1,4.8z"/>
<path class="st0" d="M221.4,10.8c0,0,2.3,0.7,4.8,1.4c1.2,0.3,2.3,0.7,3.2,1s1.5,0.4,1.5,0.4c0.1,0,0.1,0.1,0.1,0.3
	c0,0.1-0.1,0.1-0.3,0.1c0,0-0.6-0.3-1.5-0.5s-2.1-0.7-3.2-1.1C223.7,11.5,221.4,10.8,221.4,10.8z"/>
<path class="st0" d="M190.7,9.2c0,0,1.6-0.3,4.1-0.4c2.5-0.3,5.9-0.4,9.2-0.3c3.4,0.1,6.6,0.4,9.1,0.8s4.1,0.8,4.1,0.8
	s-1.6-0.1-4.1-0.5s-5.7-0.7-9.1-0.8c-3.4-0.1-6.6,0-9.1,0.1C192.3,9.2,190.7,9.2,190.7,9.2z"/>
<path class="st0" d="M132.5,6.5c0,0,3.5,0,8.7,0.1c2.6,0,5.7,0.1,8.9,0.4s6.7,0.7,10.1,1.2c3.4,0.5,6.9,1.1,10.1,1.4
	c3.2,0.4,6.3,0.7,8.8,0.7c2.6,0,4.8-0.1,6.3-0.1s2.3-0.1,2.3-0.1s-0.9,0.1-2.3,0.3c-1.5,0.1-3.7,0.4-6.3,0.4s-5.7-0.3-8.9-0.7
	s-6.6-1-10.1-1.5c-3.4-0.5-6.9-1-10.1-1.2c-3.2-0.3-6.3-0.4-8.9-0.5C135.9,6.6,132.5,6.5,132.5,6.5z"/>
<path class="st0" d="M58.7,8.5c0,0,4.3-0.4,10.7-1c6.5-0.5,15.1-1,23.6-1c8.7-0.1,17.3-0.1,23.8-0.3c3.2,0,5.9,0,7.8,0s2.9,0,2.9,0
	s-1,0-2.9,0.1c-1.9,0-4.5,0.1-7.8,0.1c-6.5,0-15.1,0.1-23.8,0.1c-4.3,0-8.7,0.1-12.6,0.4c-4,0.3-7.8,0.4-11,0.7
	c-3.2,0.3-5.9,0.4-7.8,0.5C59.9,8.5,58.7,8.5,58.7,8.5z"/>
<path class="st0" d="M9.8,3.7c0,0,0.7,0,1.9,0s2.9,0.1,5.1,0.4c4.3,0.4,9.8,1.5,15.3,2.6c2.8,0.5,5.6,1.1,8.1,1.5
	c1.3,0.1,2.6,0.4,3.8,0.4s2.3,0.1,3.4,0.1c4.3,0,7,0.1,7,0.1s-2.8,0.1-7,0.1c-1,0-2.2-0.1-3.4-0.1s-2.5-0.3-3.8-0.4
	c-2.6-0.4-5.4-1-8.2-1.5s-5.6-1.1-8.1-1.5c-2.6-0.4-5-0.8-7.2-1.1c-2.1-0.3-3.8-0.4-5.1-0.5C10.6,3.7,9.8,3.7,9.8,3.7z"/>
<path class="st0" d="M4.4,3.6c0,0,1,0,2.1,0s2.1,0.1,2.1,0.1s-1,0-2.1,0S4.4,3.9,4.4,3.9c-0.1,0-0.1,0-0.1-0.1S4.3,3.6,4.4,3.6z"/>
<path class="st0" d="M6.6,17.9c0,0-0.1-0.1-0.3-0.4c-0.1-0.3-0.3-0.8,0-1.4c0.1-0.1,0.1-0.3,0.4-0.4c0.1,0,0.1-0.1,0.3-0.1h0.1
	c0,0,0.1,0,0.3,0.1c0.1,0.3,0.3,0.5,0.4,1c0.3,0.7,0.4,1.5,0.4,2.2c0.1,1.5,0,3,0.3,4.1c0.1,0.5,0.3,1,0.3,1.2
	c0.1,0.3,0.1,0.5,0.1,0.5s0.1-0.1-0.1-0.3c-0.1-0.3-0.4-0.7-0.6-1.2C7.9,22,7.9,20.5,7.9,19c0-0.7-0.1-1.5-0.4-2
	c-0.1-0.3-0.3-0.7-0.4-0.8c0,0,0,0-0.1,0H6.8c-0.1,0-0.1,0.1-0.3,0.3c-0.3,0.4-0.1,1-0.1,1.2C6.5,17.7,6.6,17.9,6.6,17.9z"/>
<path class="st0" d="M144.1,30.5c0,0,0.6-1,1.5-2.3c1-1.4,2.3-3,4-4.6c0.7-0.8,1.6-1.5,2.5-2.2c0.4-0.3,0.9-0.5,1.3-0.8
	c0.4-0.3,0.9-0.4,1.3-0.5c0.1,0,0.6,0,0.7,0.3c0,0.3,0,0.4,0,0.5c0,0.3,0,0.5-0.1,0.8c0,0.4-0.1,0.7-0.1,0.7s0-0.3,0-0.7
	c0-0.3,0-0.5,0-0.8c0-0.1,0-0.4,0-0.4c0-0.1-0.1-0.1-0.3-0.1c-0.4,0-0.7,0.3-1.2,0.5c-0.4,0.3-0.9,0.5-1.2,0.8
	c-0.9,0.7-1.6,1.4-2.5,2.2c-1.6,1.5-3.1,3.3-4.1,4.5C144.8,29.7,144.1,30.5,144.1,30.5z"/>
<path class="st0" d="M170.2,35.6c0,0,0.3-0.3,0.7-0.8s1.2-1.2,2.1-2.2c1.6-1.8,4-4.1,6.3-6.3c1.2-1.1,2.3-2.3,3.5-3.3
	c0.6-0.5,1.2-1,1.6-1.5c0.3-0.3,0.4-0.4,0.9-0.7c0.1,0,0.1,0,0.3,0c0.1,0,0.3,0.1,0.3,0.1c0.1,0.1,0.1,0.4,0.1,0.5
	c-0.1,0.7-0.3,1.1-0.4,1.6c-0.1,0.4-0.3,0.8-0.4,1.1c-0.3,0.7-0.4,1-0.4,1s0.1-0.4,0.3-1.1c0.1-0.3,0.3-0.7,0.4-1.2
	c0.1-0.4,0.3-1,0.4-1.5c0-0.1,0-0.3,0-0.3s0,0-0.1,0h-0.1c-0.1,0.1-0.4,0.4-0.7,0.5c-0.6,0.4-1,1-1.6,1.5c-1.2,1.1-2.3,2.2-3.5,3.3
	c-2.3,2.3-4.7,4.5-6.5,6.3C171.5,34.5,170.2,35.6,170.2,35.6z"/>
<path class="st0" d="M43,34.1c0,0-1.2-1.1-2.9-2.9c-1.8-1.6-4.1-4-6.5-6.1c-1.2-1.1-2.3-2.2-3.5-3.3c-0.6-0.5-1-1.1-1.6-1.5L28,20
	l-0.1-0.1c0,0,0,0-0.1,0s-0.3,0-0.3,0c0-0.1,0,0.1,0.1,0.3c0.7,2.3,0.9,3.8,0.9,3.8s-0.6-1.5-1.3-3.7V20c0,0-0.1-0.3,0-0.4
	c0.3-0.1,0.4-0.1,0.6-0.1s0.3,0,0.3,0.1l0.1,0.1l0.4,0.4c0.4,0.5,1,1,1.6,1.5c1.2,1.1,2.3,2.2,3.5,3.3c2.3,2.2,4.7,4.5,6.5,6.3
	C42,32.8,43,34.1,43,34.1z"/>
<path class="st0" d="M21.6,206c0,0,0,0.1,0.1,0.5c0,0.1,0,0.4,0.1,0.5c0.1,0.3,0.1,0.4,0.3,0.7c0.3,0.5,0.4,1.1,0.9,1.8
	c0.4,0.7,0.9,1.2,1.5,1.8c1,1.2,2.2,2.3,2.8,3.4c0.3,0.5,0.4,1,0.6,1.4c0,0.3,0,0.5,0,0.5s0-0.1-0.1-0.5c-0.1-0.3-0.3-0.8-0.7-1.2
	c-0.7-1-1.9-2-2.9-3.3c-0.6-0.5-1-1.2-1.5-1.9c-0.4-0.7-0.7-1.2-1-1.8c-0.1-0.3-0.1-0.5-0.3-0.8c-0.1-0.3-0.1-0.4-0.1-0.5
	c0-0.3-0.1-0.5-0.1-0.5L21.6,206L21.6,206z"/>
<path class="st0" d="M205.5,194.7c0,0,0,0.1-0.1,0.5c0,0.3-0.1,0.8-0.4,1.4c-0.4,1.1-1.5,2.5-2.5,3.8c-0.4,0.7-1,1.2-1.5,1.9
	c-0.4,0.5-0.7,1.2-1,1.8c-0.1,0.3-0.1,0.5-0.1,0.8s-0.1,0.4-0.1,0.5c0,0.4,0,0.5,0,0.5s0-0.1-0.1-0.5c0-0.1,0-0.4,0-0.7
	s0.1-0.5,0.1-0.8c0.3-1.2,1.3-2.6,2.3-3.8s1.9-2.6,2.3-3.7c0.1-0.3,0.1-0.5,0.3-0.7c0.1-0.3,0.1-0.4,0.1-0.5
	c0.1-0.3,0.1-0.5,0.1-0.5H205.5z"/>
<path class="st0" d="M208.6,225.5c0,0,0,0.1-0.1,0.4c-0.1,0.3-0.3,0.8-0.4,1.2c-0.4,1-1.3,2.2-2.2,3.3c-0.4,0.5-0.9,1.2-1.2,1.8
	c-0.4,0.5-0.7,1.1-0.9,1.6c-0.1,0.5-0.3,1-0.3,1.2c0,0.3,0,0.5,0,0.5s0-0.1,0-0.5c0-0.3,0-0.8,0.1-1.2c0.3-1.1,1.2-2.3,2.1-3.4
	c0.9-1.2,1.8-2.3,2.2-3.3c0.3-0.4,0.4-0.8,0.4-1.1c0.1-0.3,0.1-0.4,0.1-0.4L208.6,225.5z"/>
<path class="st0" d="M205.5,32.7c0,0,0-0.1,0.1-0.3c0.1-0.1,0.3-0.5,0.6-0.8s0.6-0.7,1-1c0.4-0.4,1-0.7,1.6-1.1
	c2.3-1.5,5.9-3.3,9.2-4.9c0.9-0.4,1.8-0.8,2.5-1.2c0.9-0.4,1.8-0.8,2.6-1c0.3,0,0.4-0.1,0.7,0.1c0.3,0.3,0.3,0.5,0.1,0.7
	c-0.1,0.4-0.3,0.8-0.4,1.2c-0.3,0.7-0.7,1.4-1,1.9c-1.3,2.3-2.5,3.8-2.5,3.8s0.7-1.6,2.2-4c0.3-0.5,0.7-1.2,1-1.9
	c0.3-0.5,0.9-1.8-0.1-1.5c-0.9,0.1-1.6,0.5-2.5,1c-0.9,0.4-1.8,0.8-2.5,1.2c-3.4,1.6-6.7,3.4-9.2,4.8c-1.2,0.7-2.2,1.4-2.8,2
	c-0.3,0.3-0.4,0.5-0.6,0.7L205.5,32.7z"/>
<path class="st0" d="M20.2,131.6c0,0,0.1,0.4,0.4,1.1s0.9,1.5,1.3,2.3c0.3,0.4,0.4,0.8,0.6,1.4c0.1,0.4,0.3,0.8,0.3,1.2s0,0.7-0.1,1
	c-0.1,0.1-0.1,0.3-0.1,0.3s0-0.1,0-0.3c0-0.3,0-0.5,0-0.8c-0.1-0.7-0.6-1.6-1-2.5c-0.4-0.8-1-1.6-1.3-2.3c-0.1-0.3-0.3-0.7-0.3-0.8
	c0-0.3-0.1-0.3-0.1-0.3L20.2,131.6z"/>
<path class="st0" d="M20.7,178.3c0,0,0-0.1,0.1-0.4c0-0.3,0.1-0.5,0.3-1c0.3-0.8,0.7-1.8,1.2-2.7c0.4-1,1-1.9,1.3-2.6
	c0.1-0.4,0.1-0.7,0.1-1s-0.1-0.4-0.1-0.4s0,0.1,0.1,0.4c0,0.3,0.1,0.5,0,1c-0.1,0.8-0.7,1.8-1.2,2.7c-0.4,1-0.9,1.9-1.2,2.7
	c-0.1,0.4-0.1,0.7-0.3,1c0,0.3-0.1,0.4-0.1,0.4L20.7,178.3z"/>
<path class="st0" d="M26.1,83.6c0,0,0.3,0.5,0.7,1.5c0.4,0.8,1,2,1.3,3.3c0.4,1.2,0.6,2.6,0.4,3.6c0,0.5-0.1,0.8-0.3,1.1
	c-0.1,0.3-0.1,0.4-0.1,0.4s0.1-0.7,0.1-1.6c0-1-0.1-2.2-0.6-3.4c-0.4-1.2-0.9-2.3-1.3-3.3c-0.4-0.8-0.7-1.5-0.7-1.5L26.1,83.6
	L26.1,83.6z"/>
<path class="st0" d="M21.4,242.7c0,0,0.1,0.4,0.3,1.2c0,0.4,0.1,0.8,0.4,1.4c0.1,0.5,0.4,1,0.9,1.5c0.4,0.5,0.9,1.1,1.6,1.4l0.4,0.3
	l0.6,0.3c0.4,0.1,0.7,0.4,1.2,0.5c1.6,0.5,3.5,1,5.3,1.5c1.9,0.4,3.7,1.1,5.3,1.6c0.9,0.4,1.6,0.7,2.3,1.1c0.7,0.4,1.5,0.7,2.1,1.1
	c0.6,0.4,1.2,0.7,1.6,1.1c0.4,0.4,0.9,0.7,1.2,1c0.6,0.5,0.9,0.8,0.9,0.8s-0.4-0.3-1-0.7c-0.3-0.3-0.7-0.5-1.2-0.8
	c-0.4-0.3-1-0.7-1.6-1c-0.6-0.4-1.3-0.7-2.1-1.1c-0.7-0.4-1.5-0.7-2.3-1c-1.6-0.7-3.4-1.2-5.3-1.6c-1.8-0.5-3.7-1-5.4-1.5
	c-0.4-0.1-0.9-0.3-1.2-0.5l-0.6-0.3l-0.6-0.3c-0.7-0.4-1.2-1-1.8-1.5c-0.3-0.5-0.7-1.1-0.9-1.6c-0.1-0.5-0.3-1-0.3-1.4
	C21.4,243.3,21.4,242.7,21.4,242.7z"/>
<path class="st0" d="M86.7,258.9c0,0,0.1,0,0.6-0.1c0.3,0,0.9-0.1,1.5,0c1.2,0,2.8,0.3,4.3,0.7c1.5,0.4,2.9,0.8,4.1,1
	c1.2,0.3,1.9,0.3,1.9,0.3v0.3c0,0-0.7,0-1.9-0.3c-1.2-0.3-2.6-0.7-4.1-1c-1.5-0.4-2.9-0.7-4.1-0.8C87.6,258.7,86.7,258.9,86.7,258.9
	z"/>
<path class="st0" d="M121.9,258.7c0,0-0.7,0-1.6,0c-1,0-2.3,0.3-3.5,0.7c-1.2,0.4-2.5,1-3.4,1.1c-1,0.3-1.6,0.3-1.6,0.3v-0.3
	c0,0,0.6-0.1,1.6-0.4c0.9-0.3,2.2-0.7,3.4-1.1c1.3-0.4,2.6-0.5,3.7-0.5c0.4,0,0.9,0.1,1.2,0.1C121.8,258.7,121.9,258.7,121.9,258.7z
	"/>
<path class="st0" d="M148.9,259.5c0,0,0.1,0,0.4,0c0.3,0,0.7,0,1.2,0c1,0,2.2,0.3,3.4,0.5c1.2,0.3,2.5,0.5,3.4,0.7c0.4,0,0.9,0,1,0
	c0.3,0,0.4-0.1,0.4-0.1l0.1,0.3c0,0-0.1,0-0.4,0.1c-0.3,0-0.7,0-1.2,0c-1-0.1-2.2-0.4-3.4-0.7c-1.2-0.3-2.5-0.5-3.4-0.7
	C149.5,259.7,148.9,259.5,148.9,259.5z"/>
<path class="st0" d="M65.3,261.3c0,0,0.1,0,0.4,0s0.6,0,1,0s0.9,0,1.5,0.1s1,0.3,1.6,0.4c1,0.4,2.2,0.8,2.9,1
	c0.9,0.1,1.3,0.1,1.3,0.1v0.3c0,0-0.6,0-1.5-0.1s-1.9-0.7-2.9-1c-0.6-0.1-1-0.4-1.6-0.4c-0.4-0.1-1-0.1-1.5-0.3
	C65.9,261.3,65.3,261.3,65.3,261.3z"/>
<path class="st0" d="M17.5,264.6c0,0,1.8,0,3.7-0.3c0.9-0.1,1.8-0.3,2.5-0.4s1.2-0.1,1.2-0.1s-0.4,0.1-1,0.4
	c-0.6,0.1-1.6,0.4-2.5,0.5s-1.8,0.3-2.5,0.3s-1.2,0-1.2,0L17.5,264.6z"/>
<path class="st0" d="M126.5,26.3c0,0,0.1-0.3,0.3-0.8c0.1-0.5,0.4-1.4,0.9-2.3c0.3-0.4,0.4-1,1-1.5c0.3-0.3,0.7-0.3,1-0.1
	c0.3,0.1,0.6,0.4,0.9,0.7c0.9,1.1,1.3,2.5,1.5,3.8c0.1,1.4,0.1,2.7,0,4.1c-0.1,1.2-0.3,2.5-0.4,3.4c-0.3,2-0.7,3.3-0.7,3.3
	s0-0.4,0-1c0-0.5,0.1-1.5,0.3-2.5c0.3-2,0.7-4.8,0.4-7.4c-0.1-1.4-0.6-2.6-1.3-3.7c-0.4-0.4-1-1-1.5-0.5c-0.4,0.3-0.7,0.8-0.9,1.2
	c-0.4,1-0.7,1.8-1,2.3C126.8,26,126.5,26.3,126.5,26.3z"/>
<path class="st0" d="M77.2,26.5c0,0,0-0.3-0.1-0.7c-0.1-0.4-0.3-1-0.4-1.6c0-0.4-0.1-0.7-0.1-1.1s0-0.8,0.1-1.4
	c0.1-0.5,0.9-0.8,1.3-0.8c0.6,0,1.2,0.1,1.5,0.5c0.9,0.7,1.3,1.5,1.9,2.3c0.4,0.8,0.7,1.6,1,2.2c0.6,1.4,0.7,2.3,0.7,2.3
	s-0.4-0.8-1-2.2c-0.3-0.7-0.6-1.4-1-2.2c-0.4-0.8-1-1.6-1.8-2.2c-0.4-0.3-0.7-0.4-1.3-0.4c-0.4,0-0.9,0.1-1,0.5s-0.1,0.8-0.1,1.2
	c0,0.4,0,0.8,0.1,1.1c0.1,0.7,0.1,1.2,0.3,1.6C77.2,26.3,77.2,26.5,77.2,26.5z"/>
<path class="st0" d="M195.7,26.5c0,0,0.1-0.3,0.4-0.8c0.3-0.5,0.7-1.2,1.3-1.9c0.3-0.4,0.7-0.8,1-1.2c0.4-0.4,0.9-0.8,1.8-0.8
	c0.9,0.1,1.2,0.8,1.5,1.4c0.3,0.5,0.4,1.2,0.3,1.9c0,0.7-0.3,1.4-0.4,1.9c-0.3,0.5-0.6,1.1-0.9,1.6c-0.6,1.1-1.3,1.9-1.9,2.7
	c-1.3,1.5-2.2,2.5-2.2,2.5s0.1-0.3,0.4-0.8c0.3-0.4,0.7-1.1,1.5-1.9c0.6-0.8,1.3-1.6,1.9-2.7c0.3-0.5,0.6-1.1,0.9-1.6
	c0.3-0.5,0.4-1.1,0.4-1.8c0-0.5,0-1.2-0.3-1.8c-0.3-0.5-0.6-1.1-1.2-1.2c-0.6,0-1,0.4-1.5,0.7c-0.4,0.4-0.7,0.7-1.2,1.1
	c-0.6,0.7-1.2,1.4-1.5,1.9C195.9,26.3,195.7,26.5,195.7,26.5z"/>
<path class="st0" d="M212,242.9c0,0,0,0.1-0.1,0.4c-0.1,0.3-0.3,0.5-0.6,1c-0.6,0.7-1.3,1.5-2.2,2.3s-1.8,1.5-2.3,2
	c-0.3,0.3-0.3,0.7-0.3,1s0.1,0.4,0.1,0.4s0-0.1-0.1-0.4c0-0.1,0-0.3,0-0.4c0-0.1,0.1-0.4,0.1-0.5c0.4-0.8,1.3-1.5,2.2-2.3
	c0.4-0.4,0.9-0.8,1.2-1.1c0.4-0.4,0.7-0.8,0.9-1.1c0.3-0.3,0.4-0.5,0.6-0.8c0.1-0.3,0.1-0.3,0.1-0.3L212,242.9z"/>
<path class="st0" d="M219.8,247.5c0,0,0.1,0.3,0.1,0.8s-0.3,1.2-0.6,1.8c-0.3,0.5-0.7,1.1-1,1.6c-0.3,0.4-0.1,0.8-0.1,0.8
	s0,0-0.1-0.3c0-0.1-0.1-0.4,0-0.7c0.1-0.5,0.6-1.1,0.9-1.6c0.3-0.5,0.4-1.2,0.4-1.6c0-0.4,0-0.8,0-0.8H219.8z"/>
<path class="st0" d="M215.2,252.6c0,0-0.1,0-0.3,0.1c-0.1,0-0.4,0.1-0.7,0.4c-0.4,0.4-1,1.1-1.3,1.8c-0.4,0.7-0.7,1.5-1.2,2
	c-0.1,0.3-0.4,0.4-0.6,0.5c-0.1,0.1-0.3,0.1-0.3,0.1l-0.1-0.3c0,0,0.1,0,0.3-0.1c0.1-0.1,0.3-0.3,0.4-0.5c0.4-0.5,0.7-1.2,1.2-2
	c0.4-0.8,0.9-1.5,1.6-1.9c0.3-0.1,0.6-0.3,0.7-0.3C215.1,252.6,215.2,252.6,215.2,252.6z"/>
<path class="st0" d="M15.3,245.9c0,0,0,0.1,0,0.3c0,0.1,0.1,0.3,0.3,0.5c0.3,0.5,0.7,1.1,1,1.8c0.4,0.7,0.7,1.4,0.9,1.9
	c0,0.5-0.1,1-0.1,1s0-0.4-0.1-1s-0.4-1.2-0.9-1.8c-0.4-0.7-0.9-1.2-1.2-1.8c-0.1-0.3-0.1-0.5-0.3-0.7c0-0.1,0-0.3,0-0.3h0.4V245.9z"
	/>
<path class="st0" d="M13.6,256.4c0,0,0,0.1,0,0.3c0,0.1,0,0.4,0,0.7c0,0.3,0.1,0.5,0.4,0.8c0.1,0.3,0.6,0.4,0.9,0.5
	c0.3,0.1,0.7,0.3,1,0.5c0.3,0.1,0.6,0.4,0.7,0.7c0.1,0.3,0.1,0.5,0.1,0.7c0,0.1,0,0.3,0,0.3s0-0.1,0-0.3c0-0.1,0-0.1-0.1-0.3
	c0-0.1-0.1-0.3-0.1-0.3c-0.3-0.4-1-0.7-1.8-1c-0.3-0.1-0.7-0.4-1-0.7c-0.3-0.3-0.4-0.7-0.4-1s0-0.5,0-0.7c0-0.1,0-0.3,0-0.3
	L13.6,256.4z"/>
<line class="st2" x1="86.4" y1="278.5" x2="151.1" y2="278.5"/>
<line class="st2" x1="2.1" y1="287.4" x2="96.1" y2="287.4"/>
<line class="st2" x1="136.9" y1="287.4" x2="231" y2="287.4"/>
<g>
	<path class="st0" d="M96.5,223.7l-0.6,1.4l-0.4,4.5c0.3-0.1,0.7-0.3,1.1-0.4c0.5-0.1,1-0.2,1.5-0.2c1,0,1.8,0.2,2.6,0.5
		c0.8,0.4,1.4,0.9,1.8,1.6c0.5,0.7,0.7,1.6,0.7,2.6c0,0.9-0.2,1.8-0.6,2.5s-1,1.3-1.8,1.7s-1.8,0.6-3,0.6c-0.9,0-1.7-0.1-2.4-0.3
		s-1.2-0.5-1.6-0.8s-0.6-0.6-0.6-0.9c0-0.3,0.1-0.5,0.3-0.7c0.2-0.2,0.3-0.3,0.5-0.4c0.4,0.3,0.8,0.6,1.5,0.9
		c0.6,0.3,1.4,0.5,2.3,0.5c1.1,0,2-0.3,2.6-0.9s0.9-1.4,0.9-2.3c0-1-0.3-1.7-0.9-2.3s-1.4-0.8-2.4-0.8c-0.6,0-1.1,0.1-1.5,0.3
		c-0.5,0.2-0.9,0.4-1.3,0.6c-0.4,0-0.8-0.2-1-0.4c-0.3-0.2-0.4-0.5-0.4-0.9c0-0.1,0-0.2,0-0.4s0-0.3,0-0.4l0.4-4.6
		c0-0.3,0.1-0.6,0.3-0.8c0.2-0.2,0.4-0.3,0.8-0.3L96.5,223.7L96.5,223.7z M95.5,225.3v-1.6h7c0,0.1,0.1,0.2,0.1,0.3s0.1,0.3,0.1,0.5
		c0,0.3-0.1,0.5-0.2,0.6c-0.1,0.2-0.3,0.2-0.6,0.2H95.5z"/>
</g>
</svg>
