<?xml version="1.0" encoding="utf-8"?>
<!-- Generator: Adobe Illustrator 23.1.0, SVG Export Plug-In . SVG Version: 6.00 Build 0)  -->
<svg version="1.1" id="Layer_2" xmlns="http://www.w3.org/2000/svg" xmlns:xlink="http://www.w3.org/1999/xlink" x="0px" y="0px"
	 viewBox="0 0 234 288" style="enable-background:new 0 0 234 288;" xml:space="preserve">
<style type="text/css">
	.st0{fill:none;stroke:#333333;stroke-miterlimit:10;}
	.st1{fill:#333333;stroke:#333333;}
	.st2{stroke:#333333;}
	.st3{fill:none;stroke:#333333;stroke-width:0.25;stroke-miterlimit:10;}
	.st4{fill:none;stroke:#333333;}
	.st5{fill:#333333;}
</style>
<g>
	<path class="st0" d="M34.2,54.9v200.5c0,0.6,0.2,1.1,0.9,1.4c5.8,3,11.6,4.9,16.9,7.3l0.9,0.9c6.9,3,13.8,5.8,22.5,9.3
		c0.2,0.1,0.7,0.1,1.1,0l115.4-38.9c0.2-0.1,0.5-0.5,0.5-0.7V44.8l16-12.4l5.4-6.2l-0.2-1.1l-7.9,1.2v-0.7l-34.3-8.7l-18.1,16.2
		L120.7,1.9L21.2,17.2l-1.1,0.2l2.3,11.2l3.1,7.5l-2.1-0.5l-0.1,0.9l6.3,8c1.7,4.4,1.4,4.2,0.7,4.4L34.2,54.9z"/>
	<path class="st1" d="M75.9,63c0,0,0.1,0.7,0.1,2.3c0,1.6,0,3.8,0,6.8c0,5.8,0,14,0,24c0,19.9,0,46.2,0,72.7s0,52.9,0,72.7
		c0,10,0,18.1,0,24c0,2.8,0,5.2,0,6.8s-0.1,2.3-0.1,2.3s-0.1-0.7-0.1-2.3s0-3.8,0-6.8c0-5.8,0-14,0-24c0-19.9,0-46.2,0-72.7
		s0-52.9,0-72.7c0-10,0-18.1,0-24c0-2.8,0-5.2,0-6.8C75.8,63.8,75.9,63,75.9,63z"/>
	<path class="st0" d="M25.3,36.1l33.3,7.6c0,0,6.2,8.9,8.5,11.8c2.5,3.1,5.4,3.1,5.4,3.1l3.6,5L90,50.4l8.6-6.3l36.8-5.8
		c2-0.2,3.9-0.7,5.8-1.5l5.5-2.1h0.1l28-4.4c0.1,0,0.4,0,0.4,0l1.2,0.5c0.6,0.2,1.4,0.5,2.1,0.2l27.4-4.4"/>
	<path class="st2" d="M75.1,64.9c0,0-0.6,0-1.7-0.2c-1.1-0.2-2.6-0.6-4.6-1.1c-3.7-0.9-8.7-2.1-13.8-3.3c-5-1.2-10-2.5-13.8-3.3
		c-1.8-0.5-3.3-0.9-4.6-1.1c-1.1-0.2-1.7-0.6-1.7-0.6s0.6,0,1.7,0.2c1.1,0.2,2.6,0.6,4.6,1.1c3.7,0.9,8.7,2.1,13.8,3.3
		c5,1.2,10,2.5,13.8,3.3c1.8,0.5,3.3,0.7,4.6,1.1C74.5,64.5,75.1,64.9,75.1,64.9z"/>
	<path class="st2" d="M76.8,64.8c0,0,1.7-0.5,4.9-1.1c3.1-0.6,7.6-1.4,13-2.3c10.7-1.8,25-4.3,39.4-6.8c14.3-2.5,28.7-4.9,39.5-6.8
		c5.4-0.9,9.8-1.7,13-2.3c3.8-0.7,6.2-0.7,6.2-0.7s-3,0.6-6.2,1.2c-3.1,0.6-7.6,1.4-13,2.3c-10.7,1.8-25,4.3-39.5,6.8
		c-14.3,2.5-28.7,4.9-39.4,6.8c-5.4,0.9-9.8,1.7-13,2.3C78.6,64.5,76.8,64.8,76.8,64.8z"/>
	<path class="st3" d="M52,262.4l1.2,1.2c0,0,13,6,22.3,8.9"/>
	<path class="st3" d="M52.2,264.1l-1.8-2.3"/>
	<path class="st3" d="M35,255.3l40.3,17.3"/>
	<line class="st4" x1="75.9" y1="286.9" x2="151.7" y2="262.1"/>
	<line class="st4" x1="116.5" y1="267.2" x2="192.3" y2="242.4"/>
	<line class="st4" x1="43.5" y1="274.1" x2="76.3" y2="286.9"/>
	<line class="st4" x1="33.9" y1="263.5" x2="59.5" y2="274.1"/>
</g>
<g>
	<path class="st5" d="M84.1,254.5l-1.7,0.6l0-6.4l-2.1,1.8c-0.1,0-0.3-0.1-0.4-0.2c-0.1-0.1-0.2-0.3-0.2-0.6c0-0.5,0.3-1,0.8-1.4
		l2.3-2l0.4-0.1c0.3-0.1,0.5-0.1,0.7,0.1c0.2,0.1,0.3,0.4,0.3,0.8L84.1,254.5z M82.4,253.8l1.7-0.6l0,5.5c-0.1,0.1-0.2,0.1-0.3,0.2
		s-0.3,0.2-0.5,0.2c-0.3,0.1-0.6,0.1-0.7,0c-0.2-0.1-0.2-0.3-0.2-0.7L82.4,253.8z"/>
	<path class="st5" d="M86.9,245.1l6.1-2.2c0.1,0,0.2,0.1,0.3,0.3c0.1,0.1,0.1,0.3,0.1,0.6c0,0.2,0,0.3,0,0.5c0,0.2-0.1,0.4-0.1,0.6
		l-4.2,12.2c-0.1,0-0.2,0.1-0.3,0.1c-0.1,0-0.2,0.1-0.2,0.1c-0.3,0.1-0.5,0.1-0.7,0c-0.2-0.1-0.3-0.3-0.3-0.6c0-0.2,0-0.4,0.1-0.6
		c0.1-0.2,0.2-0.5,0.3-0.8l3.6-10.1l-5.1,1.8c0-0.1-0.1-0.2-0.1-0.3c0-0.1-0.1-0.3-0.1-0.5c0-0.3,0.1-0.6,0.2-0.8
		S86.7,245.1,86.9,245.1z"/>
	<path class="st5" d="M97.4,241.3l-0.4,1.6l-0.3,3.8c0.2-0.2,0.4-0.4,0.8-0.6c0.3-0.2,0.7-0.4,1-0.5c0.7-0.3,1.3-0.3,1.9-0.2
		s1,0.5,1.3,1c0.3,0.5,0.5,1.2,0.4,2.1c0,0.8-0.2,1.6-0.5,2.3c-0.3,0.8-0.7,1.4-1.3,2c-0.6,0.6-1.3,1-2.2,1.3
		c-0.7,0.2-1.2,0.3-1.7,0.3c-0.5,0-0.9-0.1-1.2-0.3c-0.3-0.2-0.4-0.4-0.4-0.7c0-0.3,0.1-0.5,0.2-0.8c0.1-0.2,0.3-0.4,0.4-0.6
		c0.3,0.2,0.6,0.3,1,0.4c0.4,0.1,1,0.1,1.6-0.2c0.7-0.3,1.3-0.7,1.7-1.3c0.4-0.6,0.6-1.3,0.6-2c0-0.8-0.2-1.3-0.6-1.6
		c-0.4-0.3-0.9-0.3-1.6-0.1c-0.4,0.1-0.7,0.3-1,0.6s-0.6,0.5-0.9,0.8c-0.4,0.1-0.7,0.1-0.9-0.1c-0.2-0.2-0.3-0.4-0.3-0.8
		c0-0.1,0-0.2,0-0.3c0-0.1,0-0.3,0-0.4l0.3-3.9c0-0.4,0.1-0.7,0.3-1c0.2-0.3,0.4-0.5,0.7-0.6L97.4,241.3z M96.5,243.4l0-1.8l4.9-1.7
		c0,0.1,0.1,0.2,0.1,0.3s0.1,0.3,0.1,0.5c0,0.3-0.1,0.5-0.2,0.7s-0.3,0.3-0.5,0.4L96.5,243.4z"/>
	<path class="st5" d="M108.6,244l-0.5,0.6l-3.3,6.9c-0.1,0-0.1,0.1-0.2,0.1c-0.1,0-0.1,0.1-0.2,0.1c-0.3,0.1-0.6,0.1-0.7,0
		c-0.2-0.1-0.3-0.3-0.3-0.6c0-0.2,0-0.5,0.1-0.7c0.1-0.2,0.2-0.5,0.4-0.8l3-5.8l0.7-0.9l3-6.3c0.1,0,0.1-0.1,0.2-0.1
		c0.1,0,0.2-0.1,0.3-0.1c0.3-0.1,0.5-0.1,0.7,0c0.2,0.1,0.2,0.3,0.2,0.6c0,0.2,0,0.4-0.1,0.6c-0.1,0.2-0.2,0.5-0.3,0.7
		c-0.5,0.9-0.9,1.9-1.4,2.8C109.7,242.1,109.2,243,108.6,244z M107.2,244.6l-0.3,0l-3.4-4.5c0.1-0.3,0.2-0.6,0.4-0.9
		s0.4-0.5,0.7-0.6c0.2-0.1,0.4-0.1,0.6,0c0.2,0.1,0.3,0.3,0.5,0.5l2.6,3.7l0.5,0.3l3.5,4.7c0,0.3-0.2,0.6-0.3,0.8
		c-0.2,0.3-0.4,0.4-0.7,0.5c-0.2,0.1-0.4,0.1-0.5,0c-0.1-0.1-0.3-0.2-0.5-0.5L107.2,244.6z"/>
	<path class="st5" d="M117.5,242.7l-1.7,0.6l0-6.4l-2.1,1.8c-0.1,0-0.3-0.1-0.4-0.2c-0.1-0.1-0.2-0.3-0.2-0.6c0-0.5,0.3-1,0.8-1.4
		l2.3-2l0.4-0.1c0.3-0.1,0.5-0.1,0.7,0.1c0.2,0.1,0.3,0.4,0.3,0.8L117.5,242.7z M115.7,242l1.7-0.6l0,5.5c-0.1,0.1-0.2,0.1-0.3,0.2
		c-0.1,0.1-0.3,0.2-0.5,0.2c-0.3,0.1-0.6,0.1-0.7,0c-0.2-0.1-0.2-0.3-0.2-0.7L115.7,242z"/>
	<path class="st5" d="M120.2,233.2l6.1-2.2c0.1,0,0.2,0.1,0.3,0.3c0.1,0.1,0.1,0.3,0.1,0.6c0,0.2,0,0.3,0,0.5c0,0.2-0.1,0.4-0.1,0.6
		l-4.2,12.2c-0.1,0-0.2,0.1-0.3,0.1c-0.1,0-0.2,0.1-0.2,0.1c-0.3,0.1-0.5,0.1-0.7,0s-0.3-0.3-0.3-0.6c0-0.2,0-0.4,0.1-0.6
		c0.1-0.2,0.2-0.5,0.3-0.8l3.6-10.1l-5.1,1.8c0-0.1-0.1-0.2-0.1-0.3c0-0.1-0.1-0.3-0.1-0.5c0-0.3,0.1-0.6,0.2-0.8
		S120,233.3,120.2,233.2z"/>
	<path class="st5" d="M130.7,229.5l-0.4,1.6l-0.3,3.8c0.2-0.2,0.5-0.4,0.8-0.6s0.7-0.4,1-0.5c0.7-0.2,1.3-0.3,1.9-0.2
		c0.5,0.1,1,0.5,1.3,1c0.3,0.5,0.5,1.2,0.4,2.1c0,0.8-0.2,1.6-0.5,2.3c-0.3,0.8-0.7,1.4-1.3,2c-0.6,0.6-1.3,1-2.2,1.3
		c-0.7,0.2-1.2,0.3-1.7,0.3c-0.5,0-0.9-0.1-1.2-0.3c-0.3-0.2-0.4-0.4-0.4-0.7c0-0.3,0.1-0.5,0.2-0.8c0.1-0.2,0.3-0.4,0.4-0.6
		c0.3,0.2,0.6,0.3,1,0.4c0.4,0.1,1,0.1,1.6-0.2c0.7-0.3,1.3-0.7,1.7-1.3c0.4-0.6,0.6-1.3,0.6-2c0-0.8-0.2-1.3-0.6-1.6
		c-0.4-0.3-0.9-0.3-1.6-0.1c-0.4,0.1-0.7,0.3-1,0.6c-0.3,0.2-0.6,0.5-0.9,0.8c-0.4,0.1-0.7,0.1-0.9-0.1c-0.2-0.2-0.3-0.4-0.3-0.8
		c0-0.1,0-0.2,0-0.3c0-0.1,0-0.3,0-0.4l0.3-3.9c0-0.4,0.1-0.7,0.3-1c0.2-0.3,0.4-0.5,0.7-0.6L130.7,229.5z M129.8,231.6l0-1.8
		l4.9-1.7c0,0.1,0.1,0.2,0.1,0.3c0,0.1,0.1,0.3,0.1,0.5c0,0.3-0.1,0.5-0.2,0.7s-0.3,0.3-0.5,0.4L129.8,231.6z"/>
	<path class="st5" d="M149.4,229.5l0,4.5c0,0.3-0.1,0.6-0.2,0.8c-0.1,0.2-0.3,0.5-0.6,0.7c-0.3,0.3-0.7,0.6-1.2,0.9
		s-1.1,0.6-1.6,0.8c-1.1,0.4-2,0.5-2.8,0.3c-0.8-0.2-1.5-0.7-1.9-1.5c-0.5-0.8-0.7-2-0.7-3.5c0-1.5,0.3-2.8,0.7-4
		c0.5-1.2,1.1-2.1,1.9-2.9c0.8-0.8,1.7-1.3,2.7-1.7c0.7-0.2,1.2-0.4,1.7-0.4c0.5,0,0.9,0.1,1.2,0.3c0.3,0.2,0.4,0.4,0.4,0.7
		c0,0.2-0.1,0.4-0.2,0.6c-0.1,0.2-0.2,0.4-0.4,0.5c-0.3-0.1-0.7-0.2-1.1-0.3c-0.4-0.1-0.9,0-1.6,0.2c-0.7,0.2-1.3,0.7-1.9,1.2
		c-0.6,0.6-1,1.3-1.3,2.1s-0.5,1.8-0.5,2.8c0,1.1,0.2,2,0.5,2.6c0.3,0.6,0.8,1,1.3,1.1c0.6,0.1,1.2,0.1,1.9-0.2
		c0.4-0.1,0.7-0.3,1-0.5c0.3-0.2,0.6-0.4,0.7-0.5l0-3.4l-2.4,0.9c0-0.1-0.1-0.2-0.1-0.3c0-0.1-0.1-0.3-0.1-0.5
		c0-0.3,0.1-0.6,0.2-0.8c0.1-0.2,0.3-0.3,0.5-0.4l2.9-1c0.2-0.1,0.4-0.1,0.6,0.1C149.3,229,149.4,229.2,149.4,229.5z"/>
	<path class="st5" d="M151.7,229.3l1.7-0.4l0,5.3c-0.1,0.1-0.2,0.1-0.3,0.2c-0.1,0.1-0.3,0.2-0.5,0.2c-0.3,0.1-0.6,0.1-0.7,0
		c-0.2-0.1-0.2-0.3-0.2-0.7L151.7,229.3z M153.4,226.5l0,3.1l-1.7,0.6l0-3.1c0-0.3,0.1-0.6,0.2-0.9c0.1-0.3,0.3-0.5,0.5-0.8
		c0.3-0.4,0.7-0.7,1.3-1.1c0.5-0.3,1.1-0.6,1.7-0.9c1-0.3,1.5-0.2,1.5,0.5c0,0.2,0,0.3-0.1,0.5c0,0.2-0.1,0.3-0.2,0.4
		c-0.1,0-0.3,0-0.4,0.1c-0.2,0-0.4,0.1-0.5,0.2c-0.5,0.2-0.9,0.4-1.3,0.6C154,225.9,153.7,226.2,153.4,226.5z"/>
	<path class="st5" d="M161.1,231.7c-1.1,0.4-2,0.4-2.6,0.1c-0.6-0.3-0.9-1-0.9-2c0-0.9,0.3-1.7,0.8-2.4c0.5-0.7,1.2-1.2,2.1-1.6
		l2.4-1.1l0-0.5c0-0.6-0.2-1-0.5-1.2c-0.3-0.2-0.8-0.2-1.3,0c-0.5,0.2-0.9,0.4-1.3,0.7s-0.8,0.6-1.1,0.9c-0.1-0.1-0.2-0.2-0.3-0.3
		c-0.1-0.1-0.1-0.3-0.1-0.4c0-0.4,0.2-0.8,0.6-1.2c0.3-0.3,0.7-0.6,1.1-0.8c0.4-0.2,0.8-0.4,1.3-0.6c1-0.4,1.9-0.4,2.5,0
		c0.6,0.3,0.9,1.1,0.9,2.3l0,4.9c0,0.3-0.1,0.6-0.2,0.8c-0.1,0.2-0.3,0.4-0.5,0.7c-0.3,0.3-0.7,0.6-1.1,0.9
		C162.2,231.3,161.7,231.5,161.1,231.7z M161.1,230.1c0.4-0.1,0.8-0.3,1.1-0.5s0.5-0.4,0.6-0.5l0-2.7l-1.9,0.9
		c-0.5,0.2-0.9,0.5-1.2,0.9c-0.3,0.3-0.4,0.7-0.4,1.2c0,0.5,0.1,0.8,0.4,0.9C160.1,230.3,160.5,230.3,161.1,230.1z"/>
	<path class="st5" d="M166.8,224l1.7-0.6l0,5.4c-0.1,0.1-0.2,0.1-0.3,0.2c-0.1,0.1-0.3,0.2-0.5,0.2c-0.3,0.1-0.6,0.1-0.7,0
		c-0.2-0.1-0.2-0.3-0.2-0.7L166.8,224z M173.5,220.3l0,2.4l-1.7,0.6l0-2.2c0-0.6-0.1-1-0.4-1.2c-0.3-0.2-0.7-0.2-1.2,0
		c-0.3,0.1-0.6,0.3-0.9,0.5c-0.3,0.2-0.5,0.5-0.7,0.7l0,3.4l-1.7,0.6l0-3.4c0-0.3,0.1-0.6,0.2-0.8c0.1-0.2,0.3-0.5,0.5-0.8
		c0.3-0.4,0.7-0.7,1.2-1.1c0.5-0.4,1-0.6,1.5-0.8c0.6-0.2,1.1-0.3,1.5-0.2c0.5,0,0.8,0.2,1,0.5c0.1,0.1,0.1,0.1,0.2,0.2
		c0.1,0.1,0.1,0.1,0.2,0.2c0.1,0.1,0.2,0.3,0.2,0.6C173.5,219.7,173.5,220,173.5,220.3z M171.8,222.2l1.7-0.6l0,5.4
		c-0.1,0.1-0.2,0.1-0.3,0.2c-0.1,0.1-0.3,0.2-0.5,0.2c-0.3,0.1-0.6,0.1-0.7,0c-0.2-0.1-0.2-0.3-0.2-0.7L171.8,222.2z M178.5,218.6
		l0,2.3l-1.7,0.6l0-2.2c0-0.6-0.1-1-0.4-1.2c-0.3-0.2-0.7-0.2-1.1,0c-0.4,0.1-0.7,0.3-1,0.6c-0.3,0.3-0.6,0.6-0.9,1.1l-0.8-1.1
		c0.3-0.5,0.7-0.9,1.2-1.3c0.5-0.4,1-0.8,1.7-1c0.6-0.2,1.1-0.3,1.6-0.2c0.5,0.1,0.8,0.3,1.1,0.7
		C178.3,217.3,178.5,217.9,178.5,218.6z M176.7,220.5l1.7-0.6l0,5.4c-0.1,0.1-0.2,0.1-0.3,0.2c-0.1,0.1-0.3,0.2-0.5,0.2
		c-0.3,0.1-0.6,0.1-0.7,0c-0.2-0.1-0.2-0.3-0.2-0.7L176.7,220.5z"/>
	<path class="st5" d="M186.7,219.7c0,0.9-0.3,1.8-0.9,2.5c-0.6,0.7-1.4,1.3-2.4,1.6c-0.9,0.3-1.6,0.4-2.2,0.3
		c-0.6-0.1-0.8-0.4-0.8-0.9c0-0.2,0-0.4,0.1-0.6c0.1-0.2,0.2-0.4,0.3-0.5c0.3,0.1,0.7,0.2,1.1,0.3c0.4,0.1,0.9,0,1.4-0.2
		c1.1-0.4,1.6-1,1.6-1.8c0-0.3-0.1-0.6-0.3-0.8c-0.2-0.2-0.5-0.2-0.8-0.2l-1.2,0.1c-0.8,0.1-1.3-0.1-1.7-0.4
		c-0.4-0.3-0.5-0.9-0.5-1.6c0-0.8,0.3-1.6,0.8-2.3c0.5-0.7,1.3-1.3,2.3-1.7c0.5-0.2,1-0.3,1.4-0.3c0.4,0,0.7,0.1,1,0.2
		c0.2,0.1,0.3,0.4,0.3,0.7c0,0.2,0,0.4-0.1,0.6c-0.1,0.2-0.2,0.4-0.3,0.5c-0.1-0.1-0.3-0.1-0.5-0.2c-0.2,0-0.5-0.1-0.8,0
		c-0.3,0-0.6,0.1-0.9,0.2c-0.5,0.2-0.9,0.4-1.1,0.7c-0.3,0.3-0.4,0.7-0.4,1c0,0.3,0.1,0.5,0.2,0.6c0.2,0.1,0.4,0.2,0.8,0.2l1-0.1
		c0.8,0,1.5,0.1,1.9,0.5C186.5,218.3,186.7,218.9,186.7,219.7z"/>
</g>
</svg>
