<?xml version="1.0" encoding="utf-8"?>
<!-- Generator: Adobe Illustrator 23.1.0, SVG Export Plug-In . SVG Version: 6.00 Build 0)  -->
<svg version="1.1" id="Layer_1" xmlns="http://www.w3.org/2000/svg" xmlns:xlink="http://www.w3.org/1999/xlink" x="0px" y="0px"
	 viewBox="0 0 250 300" style="enable-background:new 0 0 250 300;" xml:space="preserve">
<style type="text/css">
	.st0{fill:none;stroke:#333333;stroke-miterlimit:10;}
	.st1{stroke:#333333;stroke-width:0.63;}
	.st2{enable-background:new    ;}
	.st3{fill:#333333;}
</style>
<path class="st0" d="M249.4,34.9c0,9-12.4,17.2-32.6,23.4c-22.7,6.9-55.4,11.2-91.8,11.2s-69-4.3-91.7-11.2
	c-4.6-1.4-8.8-2.9-12.5-4.5c-0.1,0-0.1-0.1-0.1-0.1c-0.5-0.2-1-0.4-1.4-0.7c-0.2-0.1-0.5-0.2-0.7-0.3c-0.4-0.2-0.7-0.3-1.1-0.5
	c-0.3-0.2-0.6-0.3-0.9-0.4c-0.1,0-0.1-0.1-0.1-0.1c-0.3-0.2-0.6-0.3-0.9-0.4c-0.3-0.2-0.6-0.3-1-0.5c-0.3-0.1-0.5-0.3-0.7-0.4h-0.1
	c-0.2-0.1-0.5-0.3-0.7-0.4c-0.3-0.2-0.5-0.3-0.8-0.4c-0.2-0.1-0.4-0.2-0.6-0.3c-6.2-4-10-8.2-10.8-12.8c-0.1-0.3-0.1-0.7-0.1-1v-0.6
	c0-19.1,55.7-34.6,124.3-34.6S249.4,15.8,249.4,34.9L249.4,34.9z"/>
<path class="st1" d="M249.8,80.6c-0.1-0.3-0.1-0.6-0.2-1h-0.3v0.1c0.3,0.1,0.3,0.2,0,0.2c0,0.1-0.1,0.7,0,0.8v2.2
	c-0.6,4.9-4.9,9.6-12.7,14c-21.1,11.9-63.8,19.2-111.3,19.2s-91.2-7.7-111.8-19.5C5.7,92.1,1.6,87.3,1.2,82.4V37.3
	c0,0,0.1,0,0.1,0.1c-0.1-0.2-0.2-0.4-0.2-0.6v-0.3l-0.4,0.1v45.9c0.3,5,4.5,10,12.5,14.6c21,12.1,64,19.6,112.1,19.6
	s90.4-7.4,111.6-19.3c8-4.5,12.4-9.3,13-14.5L249.8,80.6L249.8,80.6z"/>
<path class="st0" d="M249.5,34.7l-0.1,45.8"/>
<path class="st0" d="M249.3,116.8v147.1c0,1.7-0.2,3.3-0.6,4.8c-2.4,6.3-10.8,12.1-23.6,17c-2.6,1-5.3,1.9-8.3,2.8
	c-22.7,6.9-55.4,11.2-91.8,11.2s-69.1-4.4-91.8-11.2c-2.9-0.9-5.7-1.8-8.2-2.8c-14.7-5.5-23.7-12.4-24.3-19.8
	c0,1.3-0.1-0.6-0.1-11.6l0.1-137.5c0-8.9,5.3-16.5,12.9-19.9c20.1,11.6,62.7,19.5,112,19.5s91.1-7.9,111.5-19.3
	C244.3,100.6,249.3,108.1,249.3,116.8L249.3,116.8z"/>
<path class="st0" d="M232.8,249.9v-47.6"/>
<path class="st0" d="M221.3,263v-30"/>
<g class="st2">
	<path class="st3" d="M68.4,259.5c0-0.4,0.2-0.7,0.7-1.1s1.1-0.6,1.9-0.9c0.8-0.2,1.6-0.3,2.6-0.3c1.3,0,2.4,0.2,3.3,0.7
		c0.9,0.4,1.6,1,2.2,1.8c0.5,0.8,0.8,1.7,0.8,2.8c0,1.1-0.3,2.2-0.9,3.3c-0.6,1.1-1.7,2.3-3.2,3.7l-4.9,4.6h9
		c0.1,0.1,0.2,0.2,0.2,0.4c0.1,0.2,0.1,0.4,0.1,0.6c0,0.3-0.1,0.6-0.3,0.8c-0.2,0.2-0.4,0.3-0.7,0.3H68.5c-0.2-0.1-0.4-0.3-0.5-0.5
		s-0.2-0.4-0.2-0.7c0-0.3,0.1-0.6,0.2-0.9s0.3-0.5,0.5-0.7L74,268c1.3-1.2,2.1-2.2,2.6-3s0.7-1.6,0.7-2.5s-0.3-1.7-1-2.3
		c-0.6-0.6-1.6-0.9-2.9-0.9c-0.9,0-1.7,0.2-2.4,0.5c-0.7,0.3-1.3,0.6-1.7,1c-0.2-0.1-0.4-0.3-0.6-0.5
		C68.5,260,68.4,259.8,68.4,259.5z"/>
	<path class="st3" d="M90.9,276.2c-1.5,0-2.8-0.4-3.9-1.1s-2-1.8-2.6-3.3s-0.9-3.3-0.9-5.6c0-2.4,0.4-4.3,1.1-5.8
		c0.7-1.4,1.6-2.5,2.8-3.1s2.3-1,3.6-1c1.3,0,2.5,0.3,3.6,1s2.1,1.7,2.8,3.2c0.7,1.5,1,3.4,1,5.7c0,2.2-0.3,4.1-0.9,5.5
		s-1.5,2.6-2.6,3.3C93.6,275.8,92.3,276.2,90.9,276.2z M95.8,266.3c0-1.9-0.2-3.4-0.7-4.5c-0.4-1.1-1-2-1.8-2.5
		c-0.7-0.5-1.5-0.8-2.4-0.8s-1.7,0.3-2.4,0.8c-0.7,0.5-1.3,1.4-1.8,2.5c-0.4,1.1-0.7,2.6-0.7,4.4c0,2.5,0.4,4.4,1.3,5.8
		c0.9,1.3,2,2,3.6,2c1.5,0,2.7-0.7,3.6-2C95.3,270.7,95.8,268.8,95.8,266.3z"/>
	<path class="st3" d="M108.8,276.2c-1.5,0-2.8-0.4-3.9-1.1s-2-1.8-2.6-3.3s-0.9-3.3-0.9-5.6c0-2.4,0.4-4.3,1.1-5.8
		c0.7-1.4,1.6-2.5,2.8-3.1s2.3-1,3.6-1c1.3,0,2.5,0.3,3.6,1s2.1,1.7,2.8,3.2c0.7,1.5,1,3.4,1,5.7c0,2.2-0.3,4.1-0.9,5.5
		s-1.5,2.6-2.6,3.3C111.6,275.8,110.3,276.2,108.8,276.2z M113.7,266.3c0-1.9-0.2-3.4-0.7-4.5c-0.4-1.1-1-2-1.8-2.5
		c-0.7-0.5-1.5-0.8-2.4-0.8s-1.7,0.3-2.4,0.8c-0.7,0.5-1.3,1.4-1.8,2.5c-0.4,1.1-0.7,2.6-0.7,4.4c0,2.5,0.4,4.4,1.3,5.8
		c0.9,1.3,2,2,3.6,2c1.5,0,2.7-0.7,3.6-2C113.3,270.7,113.7,268.8,113.7,266.3z"/>
	<path class="st3" d="M142,266.8v6.8c-0.5,0.4-0.6,0.7-0.9,1c-0.2,0.3-0.5,0.5-1,0.7c-0.5,0.3-1.2,0.5-2.2,0.7
		c-0.9,0.2-1.8,0.3-2.8,0.3c-1.9,0-3.7-0.4-5.2-1.1s-2.7-1.8-3.5-3.3s-1.3-3.3-1.3-5.6c0-2.2,0.4-4.1,1.3-5.6s2-2.6,3.5-3.3
		c1.4-0.7,3-1.1,4.7-1.1c1.2,0,2.2,0.1,3.1,0.4c0.9,0.3,1.6,0.6,2.1,0.9c0.5,0.4,0.8,0.8,0.8,1.2c0,0.3-0.1,0.5-0.3,0.7
		s-0.4,0.4-0.6,0.5c-0.6-0.4-1.2-0.7-2-1s-1.8-0.5-3-0.5c-1.3,0-2.5,0.3-3.6,0.9s-1.9,1.5-2.5,2.6c-0.6,1.2-0.9,2.6-0.9,4.3
		c0,1.8,0.3,3.3,1,4.4c0.6,1.1,1.5,2,2.6,2.5s2.4,0.8,3.7,0.8c0.8,0,1.5-0.1,2.1-0.2c0.7-0.1,1.2-0.3,1.6-0.5V268h-4.8
		c-0.1-0.5-0.1-0.6-0.2-0.8s-0.1-0.4-0.1-0.6c0-0.4,0.1-0.6,0.3-0.8c0.2-0.2,0.4-0.3,0.7,0.2h5.2c0.4-0.5,0.7-0.4,1-0.2
		C141.3,266.1,141.5,266.4,142,266.8z"/>
	<path class="st3" d="M156.9,270.8c-0.1,0.1-0.3,0.2-0.6,0.3c-0.2,0.1-0.5,0.1-0.8,0.1s-0.6-0.1-0.9-0.2c-0.3-0.1-0.4-0.3-0.5-0.5
		c-1.1-2.3-2.1-4.5-2.9-6.4c-0.8-1.9-2-5.2-2-5.2h-0.1c-0.1,1.5-0.1,2.9-0.2,4.3c-0.1,1.3-0.1,2.6-0.2,3.8c-0.1,1.2-0.2,2.5-0.2,3.8
		c-0.1,1.3-0.2,2.7-0.3,4.1c-0.1,0-0.3,0.1-0.5,0.1s-0.4,0.1-0.6,0.1c-0.4,0-0.8-0.1-0.9-0.3c-0.2-0.2-0.3-0.5-0.3-0.8
		c0-0.2,0-0.8,0.1-1.7c0.1-0.9,0.1-2,0.2-3.2c0.1-1.3,0.2-2.6,0.3-4.1s0.2-2.9,0.3-4.3s0.2-2.7,0.3-3.8c0.2-0.1,0.4-0.3,0.7-0.4
		s0.7-0.2,1-0.2c0.5,0,0.9,0.1,1.2,0.3c0.3,0.2,0.6,0.5,0.8,0.9c0.5,1,1.1,2.2,1.6,3.4c0.5,1.2,1,2.4,1.6,3.7c0.5,1.2,1,2.4,1.5,3.4
		h0.3c0.9-2.2,1.8-4.3,2.7-6.3s1.6-3.7,2.3-5.1c0.2-0.1,0.4-0.2,0.7-0.2c0.3-0.1,0.6-0.1,0.8-0.1c0.5,0,0.8,0.1,1.1,0.2
		c0.3,0.2,0.5,0.4,0.5,0.8c0.1,0.3,0.2,0.9,0.3,1.8c0.1,0.8,0.2,1.8,0.3,3c0.1,1.1,0.2,2.3,0.3,3.6c0.1,1.2,0.2,2.5,0.3,3.7
		s0.2,2.3,0.2,3.3c0.1,1,0.1,1.7,0.1,2.3c-0.2,0.1-0.4,0.2-0.6,0.3c-0.2,0.1-0.4,0.1-0.7,0.1s-0.6-0.1-0.8-0.2
		c-0.2-0.2-0.4-0.4-0.4-0.8c-0.1-2-0.2-3.9-0.4-5.9c-0.1-1.9-0.2-3.7-0.3-5.3c-0.1-1.6-0.2-2.9-0.2-4h-0.1c0,0-1.1,3-1.9,4.8
		C159.2,265.6,158.2,268,156.9,270.8z"/>
	<path class="st3" d="M175.5,274.1c1.4,0,2.5-0.3,3.2-1c0.7-0.6,1.1-1.5,1.1-2.5c0-0.9-0.3-1.6-0.8-2.1c-0.6-0.6-1.4-1-2.6-1.3
		l-2.7-0.8c-0.9-0.3-1.6-0.6-2.3-1c-0.6-0.4-1.1-1-1.5-1.6c-0.3-0.6-0.5-1.4-0.5-2.2c0-1.6,0.6-2.9,1.8-3.8s2.7-1.4,4.7-1.4
		c1.1,0,2.1,0.1,3,0.4c0.9,0.2,1.6,0.5,2.1,0.9s0.8,0.8,0.8,1.2c0,0.3-0.1,0.5-0.2,0.7c-0.1,0.2-0.3,0.4-0.6,0.5
		c-0.5-0.4-1.2-0.8-2.1-1.1c-0.9-0.3-1.9-0.5-2.9-0.5c-1.2,0-2.2,0.3-2.9,0.8s-1.1,1.3-1.1,2.2c0,0.7,0.3,1.3,0.8,1.8
		s1.3,0.9,2.5,1.2l1.9,0.6c1.7,0.5,3,1.1,3.9,2c1,0.9,1.4,2.1,1.4,3.6c0,1.7-0.6,3-1.8,4s-2.9,1.5-5.1,1.5c-1.3,0-2.4-0.1-3.3-0.4
		c-1-0.3-1.7-0.6-2.2-1.1c-0.5-0.4-0.8-0.9-0.8-1.3s0.1-0.7,0.3-0.9c0.2-0.2,0.5-0.4,0.8-0.5c0.5,0.5,1.2,0.9,2,1.4
		C173.1,273.8,174.2,274.1,175.5,274.1z"/>
</g>
</svg>
