<?xml version="1.0" encoding="utf-8"?>
<!-- Generator: Adobe Illustrator 23.1.0, SVG Export Plug-In . SVG Version: 6.00 Build 0)  -->
<svg version="1.1" xmlns="http://www.w3.org/2000/svg" xmlns:xlink="http://www.w3.org/1999/xlink" x="0px" y="0px"
	 viewBox="0 0 234 288" style="enable-background:new 0 0 234 288;" xml:space="preserve">
<style type="text/css">
	.st0{display:none;}
	.st1{display:inline;}
	.st2{clip-path:url(#SVGID_2_);}
	.st3{fill:#FFFFFF;stroke:#333333;stroke-miterlimit:10;}
	.st4{fill:#333333;stroke:#333333;}
	.st5{fill:none;stroke:#333333;stroke-miterlimit:10;}
	.st6{stroke:#333333;}
	.st7{fill:none;stroke:#333333;stroke-width:0.25;stroke-miterlimit:10;}
	.st8{fill:none;stroke:#333333;}
	.st9{fill:#333333;}
</style>
<g id="Layer_1" class="st0">
	<g class="st1">
		<g>
			<g>
				<g>
					<defs>
						<rect id="SVGID_1_" x="19" y="-44" width="196" height="330"/>
					</defs>
					<clipPath id="SVGID_2_">
						<use xlink:href="#SVGID_1_"  style="overflow:visible;"/>
					</clipPath>
					<g class="st2">
						<path class="st3" d="M34.6,65.4v199.7c0,0.6,0.3,1.1,0.9,1.4c5.8,2.9,11.5,4.9,16.8,7.2l0.9,0.9c6.9,2.9,13.7,5.8,22.5,9.3
							c0.3,0.2,0.8,0.2,1.1,0l114.9-38.7c0.3-0.2,0.5-0.5,0.5-0.8V55.3L208,42.9l5.3-6.1l-0.3-1.1l-7.8,1.2v-0.8L171,27.5l-18,16.2
							l-32.4-31.2l-99,15.3l-1.1,0.3l2.3,11.2l3.1,7.5l-2.1-0.5l-0.2,0.9l6.3,7.9c1.7,4.4,1.4,4.1,0.8,4.4L34.6,65.4z"/>
						<path class="st4" d="M76.1,73.5c0,0,0.2,0.8,0.2,2.4s0,3.8,0,6.8c0,5.8,0,14,0,23.9c0,19.8,0,46,0,72.4s0,52.6,0,72.4
							c0,9.9,0,18.1,0,23.9c0,2.8,0,5.2,0,6.8c0,1.6-0.2,2.4-0.2,2.4s-0.1-1-0.1-2.5c0-1.6,0-3.8,0-6.8c0-5.8,0-14,0-23.9
							c0-19.8,0-46,0-72.4s0-52.6,0-72.4c0-9.9,0-18.1,0-23.9c0-2.8,0-5.2,0-6.8S76.1,73.5,76.1,73.5z"/>
						<path class="st5" d="M25.6,46.6l33.2,7.6c0,0,6.1,8.9,8.4,11.8c2.4,3.1,5.3,3.1,5.3,3.1l3.5,5l13.9-13.3l8.6-6.3l36.7-5.8
							c2-0.3,4-0.8,5.8-1.5l5.5-2.1h0.2l28-4.4c0.2,0,0.3,0,0.3,0l1.2,0.5c0.6,0.3,1.4,0.5,2.1,0.3l27.3-4.4"/>
						<path class="st6" d="M75.2,75.3c0,0-0.6,0-1.7-0.3s-2.6-0.6-4.6-1.1c-3.7-0.9-8.7-2.1-13.7-3.4c-5-1.2-9.9-2.4-13.7-3.4
							c-1.8-0.5-3.4-0.9-4.6-1.1c-1.1-0.3-1.7-0.6-1.7-0.6s0.6,0,1.7,0.3c1.1,0.3,2.6,0.6,4.6,1.1c3.7,0.9,8.7,2.1,13.7,3.4
							s9.9,2.4,13.7,3.4c1.8,0.5,3.4,0.8,4.6,1.1C74.6,75,75.2,75.3,75.2,75.3z"/>
						<path class="st6" d="M76.9,75.2c0,0,1.7-0.5,4.9-1.1c3.1-0.6,7.6-1.4,13-2.3c10.7-1.8,24.9-4.3,39.3-6.7
							c14.2-2.4,28.6-4.9,39.3-6.7c5.3-0.9,9.8-1.7,13-2.3c3.8-0.8,6.1-0.8,6.1-0.8s-2.9,0.6-6.1,1.2c-3.1,0.6-7.6,1.4-13,2.3
							c-10.7,1.8-24.9,4.3-39.3,6.7c-14.2,2.4-28.6,4.9-39.3,6.7c-5.3,0.9-9.8,1.7-13,2.3C78.7,75,76.9,75.2,76.9,75.2z"/>
						<path class="st7" d="M52.2,272.1l1.2,1.2c0,0,13,6,22.2,8.9"/>
						<path class="st7" d="M52.5,273.8l-1.8-2.3"/>
						<path class="st7" d="M35.3,264.9l40.2,17.3"/>
						<line class="st8" x1="76.4" y1="295.9" x2="151.8" y2="271.1"/>
						<line class="st8" x1="116.8" y1="276.3" x2="192.2" y2="251.5"/>
						<line class="st8" x1="43.9" y1="283.2" x2="76.7" y2="295.9"/>
						<line class="st8" x1="34.4" y1="272.7" x2="59.9" y2="283.2"/>
					</g>
				</g>
			</g>
		</g>
	</g>
	<g class="st1">
		<g>
			<path class="st9" d="M91.5,253.3c-0.1-0.3,0-0.7,0.2-1c0.2-0.4,0.6-0.7,1.1-1.1c0.5-0.4,1.1-0.6,1.8-0.9c1-0.3,1.9-0.4,2.7-0.3
				c0.8,0.1,1.5,0.4,2,0.8c0.6,0.5,1,1.1,1.2,1.8c0.3,0.8,0.3,1.7,0.1,2.6c-0.2,0.9-0.7,2-1.4,3.2l-2.4,4.2l6.2-2
				c0.1,0.1,0.2,0.2,0.3,0.3c0.1,0.1,0.2,0.3,0.3,0.5c0.1,0.3,0.1,0.6,0,0.8s-0.3,0.3-0.5,0.4l-7.7,2.5c-0.2-0.1-0.4-0.2-0.6-0.4
				c-0.2-0.2-0.3-0.4-0.4-0.6c-0.1-0.3-0.1-0.6-0.1-0.8c0-0.3,0.1-0.5,0.3-0.7l2.6-4.7c0.6-1.1,1-1.9,1.2-2.6c0.2-0.6,0.1-1.2,0-1.8
				c-0.2-0.6-0.6-1-1.1-1.3c-0.6-0.3-1.3-0.2-2.2,0c-0.6,0.2-1.2,0.5-1.6,0.9s-0.8,0.7-1,1.1c-0.2,0-0.4-0.1-0.6-0.2
				C91.7,253.8,91.5,253.6,91.5,253.3z"/>
			<path class="st9" d="M111.5,260.3c-1.1,0.3-2.1,0.4-3,0.1c-1-0.3-1.8-0.8-2.6-1.7c-0.8-0.9-1.4-2.1-1.9-3.7
				c-0.5-1.6-0.7-3-0.5-4.2s0.6-2.1,1.2-2.9c0.7-0.7,1.5-1.3,2.4-1.6c1-0.3,1.9-0.3,2.9-0.1s1.9,0.8,2.7,1.6c0.8,0.9,1.5,2.1,2,3.7
				c0.5,1.5,0.7,2.9,0.6,4.1c-0.1,1.2-0.5,2.2-1.2,2.9C113.4,259.4,112.5,260,111.5,260.3z M110.9,258.5c1-0.3,1.6-1,1.9-2
				c0.3-1.1,0.1-2.4-0.4-4.1c-0.4-1.2-0.8-2.1-1.3-2.8s-1.1-1.1-1.6-1.3s-1.2-0.2-1.7,0c-0.6,0.2-1.1,0.5-1.4,1
				c-0.4,0.5-0.5,1.2-0.6,2c0,0.8,0.1,1.9,0.5,3c0.5,1.7,1.2,2.8,2,3.5C109,258.6,109.9,258.8,110.9,258.5z"/>
			<path class="st9" d="M124.4,256.2c-1.1,0.3-2.1,0.4-3,0.1c-1-0.3-1.8-0.8-2.6-1.7c-0.8-0.9-1.4-2.1-1.9-3.7
				c-0.5-1.6-0.7-3-0.5-4.2s0.6-2.1,1.2-2.9c0.7-0.7,1.5-1.3,2.4-1.6c1-0.3,1.9-0.3,2.9-0.1s1.9,0.8,2.7,1.6c0.8,0.9,1.5,2.1,2,3.7
				c0.5,1.5,0.7,2.9,0.6,4.1c-0.1,1.2-0.5,2.2-1.2,2.9S125.4,255.8,124.4,256.2z M123.8,254.3c1-0.3,1.6-1,1.9-2
				c0.3-1.1,0.1-2.4-0.4-4.1c-0.4-1.2-0.8-2.1-1.4-2.8s-1.1-1.1-1.6-1.3c-0.6-0.2-1.2-0.2-1.7,0c-0.6,0.2-1.1,0.5-1.4,1
				c-0.4,0.5-0.5,1.2-0.6,2c0,0.8,0.1,1.9,0.5,3c0.5,1.7,1.2,2.8,2,3.6C121.9,254.5,122.8,254.7,123.8,254.3z"/>
			<path class="st9" d="M145.8,242l1.5,4.7c0.1,0.3,0.1,0.6,0,0.8s-0.3,0.5-0.5,0.8c-0.3,0.3-0.8,0.7-1.4,1c-0.6,0.3-1.3,0.6-2,0.8
				c-1.4,0.4-2.7,0.6-3.9,0.4c-1.2-0.1-2.3-0.6-3.2-1.5s-1.6-2.1-2.2-3.6c-0.5-1.5-0.6-2.9-0.3-4.2c0.3-1.2,0.9-2.3,1.7-3.1
				c0.9-0.9,1.9-1.5,3.2-1.9c0.8-0.3,1.6-0.4,2.3-0.4s1.3,0.1,1.7,0.2c0.4,0.2,0.7,0.4,0.8,0.7c0.1,0.2,0.1,0.5,0,0.7
				s-0.2,0.4-0.3,0.6c-0.5-0.1-1-0.2-1.6-0.3c-0.6,0-1.3,0.1-2.1,0.3c-0.9,0.3-1.6,0.7-2.2,1.3c-0.6,0.6-1,1.4-1.1,2.3
				c-0.2,0.9-0.1,1.9,0.3,3c0.4,1.2,0.9,2.1,1.5,2.7c0.7,0.6,1.4,1,2.2,1.1s1.7,0,2.6-0.2c0.5-0.2,0.9-0.3,1.3-0.5
				c0.4-0.2,0.7-0.4,0.9-0.6l-1.1-3.6l-3.1,1c-0.1-0.1-0.2-0.2-0.3-0.3s-0.2-0.3-0.2-0.5c-0.1-0.3-0.1-0.6,0-0.8s0.3-0.3,0.5-0.4
				l3.7-1.2c0.3-0.1,0.6-0.1,0.8,0.1S145.7,241.7,145.8,242z"/>
			<path class="st9" d="M157.9,241.4c-0.1,0.1-0.2,0.3-0.4,0.4c-0.2,0.1-0.4,0.2-0.6,0.3c-0.3,0.1-0.6,0.1-0.8,0.1s-0.4-0.1-0.6-0.3
				c-1.2-1.3-2.2-2.5-3.1-3.6c-0.9-1.1-1.6-2-2.2-2.7h-0.1c0.3,1.1,0.5,2,0.8,2.9c0.2,0.9,0.5,1.8,0.7,2.6s0.5,1.7,0.7,2.6
				s0.5,1.8,0.7,2.9c-0.1,0.1-0.2,0.2-0.4,0.3s-0.4,0.2-0.5,0.2c-0.4,0.1-0.7,0.1-0.9,0s-0.4-0.3-0.5-0.6c-0.1-0.2-0.2-0.7-0.4-1.3
				s-0.4-1.4-0.6-2.3c-0.2-0.9-0.5-1.9-0.7-2.9s-0.5-2-0.7-3s-0.5-1.9-0.6-2.7c0.1-0.2,0.2-0.4,0.4-0.6c0.2-0.2,0.5-0.4,0.9-0.5
				s0.8-0.2,1.2-0.1s0.6,0.3,0.9,0.5c0.6,0.6,1.1,1.2,1.7,1.9c0.6,0.7,1.2,1.4,1.8,2.1c0.6,0.7,1.1,1.4,1.7,2h0.1
				c0.1-1.6,0.2-3.3,0.4-4.8s0.2-2.9,0.3-3.9c0.1-0.1,0.3-0.2,0.5-0.4c0.2-0.1,0.4-0.2,0.7-0.3c0.4-0.1,0.8-0.2,1.1-0.1
				c0.3,0.1,0.5,0.2,0.7,0.5c0.1,0.2,0.3,0.7,0.6,1.2c0.3,0.6,0.5,1.3,0.9,2c0.3,0.8,0.7,1.6,1,2.4c0.4,0.9,0.7,1.7,1,2.5
				s0.6,1.6,0.9,2.2c0.3,0.7,0.5,1.2,0.6,1.6c-0.1,0.2-0.3,0.3-0.4,0.4c-0.2,0.1-0.4,0.2-0.6,0.3c-0.3,0.1-0.6,0.1-0.8,0.1
				c-0.3-0.1-0.5-0.3-0.6-0.6c-0.5-1.3-1-2.6-1.5-3.8c-0.5-1.3-0.9-2.4-1.3-3.4c-0.4-1-0.7-1.9-1-2.6h-0.1c0,0.8-0.1,1.9-0.2,3.3
				C158.2,237.6,158.1,239.3,157.9,241.4z"/>
			<path class="st9" d="M171.5,239.1c0.9-0.3,1.5-0.7,1.9-1.2c0.3-0.5,0.4-1.1,0.2-1.7c-0.2-0.5-0.5-0.9-1-1.1
				c-0.5-0.2-1.1-0.3-1.9-0.3h-1.8c-0.7,0-1.4-0.1-2-0.2c-0.6-0.1-1.1-0.4-1.5-0.8s-0.7-0.9-0.9-1.6c-0.4-1.1-0.2-2.2,0.4-3.1
				s1.7-1.6,3.1-2.1c0.8-0.3,1.5-0.4,2.2-0.4s1.3,0,1.7,0.2c0.5,0.2,0.7,0.4,0.8,0.7c0.1,0.2,0.1,0.5,0,0.7s-0.2,0.4-0.3,0.6
				c-0.4-0.2-1-0.3-1.7-0.3s-1.4,0.1-2.1,0.3c-0.8,0.3-1.4,0.6-1.7,1.1s-0.4,1-0.3,1.5c0.1,0.5,0.4,0.8,0.8,0.9
				c0.4,0.2,1,0.3,1.8,0.2h1.4c1.3,0,2.4,0.2,3.3,0.6s1.5,1.2,1.9,2.3c0.4,1.2,0.2,2.3-0.4,3.3c-0.6,1-1.8,1.8-3.4,2.3
				c-0.9,0.3-1.7,0.4-2.4,0.5c-0.7,0-1.4-0.1-1.8-0.3s-0.8-0.5-0.9-0.8c-0.1-0.3-0.1-0.6,0-0.8c0.1-0.3,0.3-0.5,0.4-0.6
				c0.5,0.2,1,0.4,1.7,0.5C169.9,239.4,170.7,239.3,171.5,239.1z"/>
		</g>
	</g>
</g>
<g id="Layer_2">
	<g>
		<path class="st5" d="M34.2,54.9v200.5c0,0.6,0.2,1.1,0.9,1.4c5.8,3,11.6,4.9,16.9,7.3l0.9,0.9c6.9,3,13.8,5.8,22.5,9.3
			c0.2,0.1,0.7,0.1,1.1,0l115.4-38.9c0.2-0.1,0.5-0.5,0.5-0.7V44.8l16-12.4l5.4-6.2l-0.2-1.1l-7.9,1.2v-0.7l-34.3-8.7l-18.1,16.2
			L120.7,1.9L21.2,17.2l-1.1,0.2l2.3,11.2l3.1,7.5l-2.1-0.5l-0.1,0.9l6.3,8c1.7,4.4,1.4,4.2,0.7,4.4L34.2,54.9z"/>
		<path class="st4" d="M75.9,63c0,0,0.1,0.7,0.1,2.3c0,1.6,0,3.8,0,6.8c0,5.8,0,14,0,24c0,19.9,0,46.2,0,72.7s0,52.9,0,72.7
			c0,10,0,18.1,0,24c0,2.8,0,5.2,0,6.8s-0.1,2.3-0.1,2.3s-0.1-0.7-0.1-2.3s0-3.8,0-6.8c0-5.8,0-14,0-24c0-19.9,0-46.2,0-72.7
			s0-52.9,0-72.7c0-10,0-18.1,0-24c0-2.8,0-5.2,0-6.8C75.8,63.8,75.9,63,75.9,63z"/>
		<path class="st5" d="M25.3,36.1l33.3,7.6c0,0,6.2,8.9,8.5,11.8c2.5,3.1,5.4,3.1,5.4,3.1l3.6,5L90,50.4l8.6-6.3l36.8-5.8
			c2-0.2,3.9-0.7,5.8-1.5l5.5-2.1h0.1l28-4.4c0.1,0,0.4,0,0.4,0l1.2,0.5c0.6,0.2,1.4,0.5,2.1,0.2l27.4-4.4"/>
		<path class="st6" d="M75.1,64.9c0,0-0.6,0-1.7-0.2c-1.1-0.2-2.6-0.6-4.6-1.1c-3.7-0.9-8.7-2.1-13.8-3.3c-5-1.2-10-2.5-13.8-3.3
			c-1.8-0.5-3.3-0.9-4.6-1.1c-1.1-0.2-1.7-0.6-1.7-0.6s0.6,0,1.7,0.2c1.1,0.2,2.6,0.6,4.6,1.1c3.7,0.9,8.7,2.1,13.8,3.3
			c5,1.2,10,2.5,13.8,3.3c1.8,0.5,3.3,0.7,4.6,1.1C74.5,64.5,75.1,64.9,75.1,64.9z"/>
		<path class="st6" d="M76.8,64.8c0,0,1.7-0.5,4.9-1.1c3.1-0.6,7.6-1.4,13-2.3c10.7-1.8,25-4.3,39.4-6.8c14.3-2.5,28.7-4.9,39.5-6.8
			c5.4-0.9,9.8-1.7,13-2.3c3.8-0.7,6.2-0.7,6.2-0.7s-3,0.6-6.2,1.2c-3.1,0.6-7.6,1.4-13,2.3c-10.7,1.8-25,4.3-39.5,6.8
			c-14.3,2.5-28.7,4.9-39.4,6.8c-5.4,0.9-9.8,1.7-13,2.3C78.6,64.5,76.8,64.8,76.8,64.8z"/>
		<path class="st7" d="M52,262.4l1.2,1.2c0,0,13,6,22.3,8.9"/>
		<path class="st7" d="M52.2,264.1l-1.8-2.3"/>
		<path class="st7" d="M35,255.3l40.3,17.3"/>
		<line class="st8" x1="75.9" y1="286.9" x2="151.7" y2="262.1"/>
		<line class="st8" x1="116.5" y1="267.2" x2="192.3" y2="242.4"/>
		<line class="st8" x1="43.5" y1="274.1" x2="76.3" y2="286.9"/>
		<line class="st8" x1="33.9" y1="263.5" x2="59.5" y2="274.1"/>
	</g>
	<g>
		<path class="st9" d="M87.2,245.2c0-0.3,0.2-0.7,0.6-1c0.3-0.4,0.8-0.7,1.4-1.1c0.6-0.4,1.2-0.6,1.9-0.9c1-0.3,1.8-0.4,2.4-0.3
			c0.6,0.1,1.1,0.4,1.4,0.8c0.3,0.4,0.4,1,0.4,1.8c-0.1,0.8-0.3,1.6-0.8,2.5c-0.5,0.9-1.3,1.9-2.4,3.2l-3.6,4.1l6.1-2
			c0,0.1,0.1,0.2,0.1,0.3c0,0.1,0.1,0.3,0,0.5c0,0.3-0.1,0.5-0.3,0.7c-0.2,0.2-0.4,0.3-0.6,0.4l-7.5,2.5c-0.2-0.1-0.3-0.2-0.4-0.3
			c-0.1-0.2-0.1-0.4-0.1-0.6c0-0.3,0.1-0.6,0.2-0.8c0.1-0.3,0.3-0.5,0.5-0.7l3.9-4.6c0.9-1.1,1.6-1.9,1.9-2.5
			c0.4-0.6,0.6-1.2,0.6-1.7c0-0.6-0.1-1-0.5-1.3c-0.4-0.2-1-0.2-1.9,0.1c-0.6,0.2-1.2,0.5-1.7,0.9c-0.5,0.4-0.9,0.7-1.3,1.1
			c-0.2,0-0.3-0.1-0.4-0.2C87.3,245.7,87.2,245.5,87.2,245.2z"/>
		<path class="st9" d="M102,251.8c-1,0.3-1.9,0.4-2.7,0.2c-0.7-0.2-1.3-0.8-1.6-1.6c-0.4-0.9-0.5-2-0.3-3.6c0.1-1.6,0.5-3,1-4.1
			c0.6-1.1,1.3-2.1,2.1-2.8c0.8-0.7,1.7-1.3,2.6-1.6c0.9-0.3,1.8-0.4,2.5-0.2c0.7,0.2,1.3,0.7,1.7,1.6c0.4,0.8,0.5,2,0.4,3.6
			c-0.1,1.5-0.5,2.8-1,4c-0.5,1.1-1.2,2.1-2,2.9C103.9,250.9,103,251.4,102,251.8z M102.1,250c1-0.3,1.7-1,2.3-2c0.6-1,1-2.4,1.1-4
			c0.1-1.2,0-2.1-0.2-2.7c-0.2-0.6-0.5-1.1-1-1.2c-0.4-0.2-0.9-0.2-1.5,0c-0.6,0.2-1.1,0.5-1.6,1c-0.5,0.5-0.9,1.2-1.2,2
			c-0.3,0.8-0.5,1.8-0.6,3c-0.1,1.6,0,2.8,0.5,3.4C100.4,250.1,101.2,250.3,102.1,250z"/>
		<path class="st9" d="M114.5,247.6c-1,0.3-1.9,0.4-2.7,0.2c-0.7-0.2-1.3-0.8-1.6-1.6c-0.4-0.9-0.5-2-0.3-3.6c0.1-1.6,0.5-3,1-4.1
			c0.6-1.1,1.3-2.1,2.1-2.8c0.8-0.7,1.7-1.3,2.6-1.6c0.9-0.3,1.8-0.4,2.5-0.2c0.7,0.2,1.3,0.7,1.7,1.6c0.4,0.8,0.5,2,0.4,3.6
			c-0.1,1.5-0.5,2.8-1,4c-0.5,1.1-1.2,2.1-2,2.9C116.4,246.7,115.5,247.3,114.5,247.6z M114.6,245.8c1-0.3,1.7-1,2.3-2
			c0.6-1,1-2.4,1.1-4c0.1-1.2,0-2.1-0.2-2.7c-0.2-0.6-0.5-1.1-1-1.2c-0.4-0.2-0.9-0.2-1.5,0c-0.6,0.2-1.1,0.5-1.6,1
			c-0.5,0.5-0.9,1.2-1.2,2c-0.3,0.8-0.5,1.8-0.6,3c-0.1,1.6,0,2.8,0.5,3.4C113,245.9,113.7,246.1,114.6,245.8z"/>
		<path class="st9" d="M137.9,233.4l-0.4,4.6c0,0.3-0.1,0.6-0.3,0.8c-0.2,0.2-0.4,0.5-0.7,0.7c-0.4,0.3-0.9,0.6-1.6,1
			c-0.7,0.3-1.3,0.6-2,0.9c-1.3,0.4-2.5,0.6-3.5,0.5c-1-0.1-1.8-0.6-2.3-1.4c-0.5-0.8-0.7-2-0.6-3.5c0.1-1.5,0.5-2.9,1.2-4.1
			c0.7-1.2,1.6-2.2,2.6-3.1c1.1-0.8,2.2-1.5,3.4-1.9c0.8-0.3,1.5-0.4,2.2-0.5c0.6,0,1.1,0,1.4,0.2c0.3,0.2,0.5,0.4,0.4,0.7
			c0,0.2-0.1,0.5-0.2,0.7c-0.1,0.2-0.3,0.4-0.5,0.6c-0.4-0.1-0.8-0.2-1.3-0.2c-0.5,0-1.2,0.1-2,0.3c-0.9,0.3-1.7,0.7-2.4,1.3
			c-0.7,0.6-1.3,1.3-1.8,2.2c-0.5,0.9-0.7,1.8-0.8,2.9c-0.1,1.1,0,2,0.4,2.6c0.3,0.6,0.9,0.9,1.5,1.1c0.7,0.1,1.5,0,2.3-0.3
			c0.5-0.2,0.9-0.3,1.3-0.6c0.4-0.2,0.7-0.4,1-0.6l0.3-3.5l-3,1c0-0.1-0.1-0.2-0.1-0.3c0-0.1,0-0.3,0-0.5c0-0.3,0.1-0.6,0.3-0.8
			c0.2-0.2,0.4-0.3,0.6-0.4l3.6-1.2c0.3-0.1,0.5-0.1,0.7,0C137.9,232.9,137.9,233.1,137.9,233.4z"/>
		<path class="st9" d="M140.8,233l2.1-0.5l-0.4,5.4c-0.1,0.1-0.2,0.1-0.4,0.2c-0.2,0.1-0.4,0.2-0.6,0.3c-0.4,0.1-0.7,0.2-0.9,0.1
			c-0.2-0.1-0.3-0.3-0.2-0.7L140.8,233z M143.1,230.1l-0.3,3.1l-2.2,0.7l0.3-3.2c0-0.3,0.1-0.6,0.3-0.9c0.2-0.3,0.4-0.6,0.7-0.8
			c0.4-0.4,1-0.8,1.6-1.2c0.7-0.4,1.4-0.7,2.1-1c1.2-0.4,1.8-0.3,1.8,0.4c0,0.2-0.1,0.3-0.1,0.5c-0.1,0.2-0.1,0.3-0.2,0.4
			c-0.1,0-0.3,0.1-0.5,0.1c-0.2,0.1-0.4,0.1-0.7,0.2c-0.6,0.2-1.1,0.4-1.6,0.7C143.9,229.5,143.5,229.8,143.1,230.1z"/>
		<path class="st9" d="M152.2,235c-1.4,0.5-2.4,0.6-3.2,0.3c-0.7-0.3-1.1-0.9-1-2c0.1-0.9,0.4-1.8,1.1-2.5c0.7-0.7,1.5-1.3,2.7-1.8
			l3-1.3l0-0.5c0.1-0.6-0.1-1-0.5-1.2c-0.4-0.2-0.9-0.1-1.6,0.1c-0.6,0.2-1.1,0.5-1.7,0.8c-0.5,0.3-1,0.7-1.5,1
			c-0.1-0.1-0.2-0.2-0.3-0.3c-0.1-0.1-0.1-0.3-0.1-0.5c0-0.5,0.3-0.9,0.8-1.2c0.4-0.3,0.9-0.6,1.4-0.9c0.5-0.3,1.1-0.5,1.6-0.7
			c1.3-0.4,2.3-0.5,3.1-0.2s1,1.1,0.9,2.3l-0.4,5c0,0.3-0.1,0.6-0.3,0.8c-0.2,0.2-0.4,0.5-0.6,0.7c-0.4,0.3-0.9,0.7-1.5,1
			C153.6,234.5,152.9,234.8,152.2,235z M152.3,233.3c0.5-0.2,1-0.4,1.3-0.6c0.4-0.2,0.6-0.4,0.8-0.6l0.2-2.8l-2.4,1
			c-0.7,0.3-1.2,0.6-1.5,0.9c-0.4,0.4-0.5,0.8-0.6,1.2c0,0.5,0.1,0.8,0.5,0.9C151,233.6,151.6,233.6,152.3,233.3z"/>
		<path class="st9" d="M159.8,226.8l2.2-0.7l-0.5,5.5c-0.1,0.1-0.2,0.1-0.4,0.2c-0.2,0.1-0.4,0.2-0.6,0.3c-0.4,0.1-0.7,0.2-0.9,0.1
			c-0.2-0.1-0.3-0.3-0.2-0.7L159.8,226.8z M168.3,222.6l-0.2,2.4l-2.2,0.7l0.2-2.2c0.1-0.6-0.1-1-0.4-1.2c-0.3-0.2-0.8-0.2-1.4,0
			c-0.4,0.1-0.8,0.3-1.2,0.6c-0.4,0.2-0.7,0.5-0.9,0.7l-0.3,3.4l-2.2,0.7l0.3-3.5c0-0.3,0.1-0.6,0.3-0.8s0.4-0.5,0.7-0.8
			c0.4-0.4,0.9-0.8,1.6-1.2c0.6-0.4,1.3-0.7,1.9-0.9c0.7-0.2,1.3-0.3,1.9-0.3c0.6,0,1,0.2,1.2,0.5c0.1,0.1,0.2,0.1,0.2,0.2
			c0.1,0.1,0.1,0.1,0.2,0.2c0.1,0.1,0.2,0.3,0.2,0.6C168.3,222,168.3,222.3,168.3,222.6z M166,224.7l2.2-0.7l-0.5,5.5
			c-0.1,0.1-0.2,0.1-0.4,0.2c-0.2,0.1-0.4,0.2-0.6,0.3c-0.4,0.1-0.7,0.2-0.9,0.1c-0.2-0.1-0.3-0.3-0.2-0.7L166,224.7z M174.5,220.7
			l-0.2,2.3l-2.2,0.7l0.2-2.2c0.1-0.6-0.1-1-0.4-1.2c-0.3-0.2-0.8-0.2-1.4,0c-0.4,0.1-0.9,0.4-1.3,0.7s-0.8,0.7-1.2,1.1l-0.9-1.1
			c0.4-0.5,1-1,1.6-1.4s1.3-0.8,2.1-1.1c0.8-0.3,1.4-0.4,2-0.3c0.6,0,1,0.3,1.3,0.7C174.4,219.3,174.5,219.9,174.5,220.7z
			 M172.2,222.7l2.2-0.7l-0.5,5.5c-0.1,0.1-0.2,0.1-0.4,0.2c-0.2,0.1-0.4,0.2-0.6,0.3c-0.4,0.1-0.7,0.2-0.9,0.1
			c-0.2-0.1-0.3-0.3-0.2-0.7L172.2,222.7z"/>
		<path class="st9" d="M184.5,221.3c-0.1,1-0.5,1.8-1.2,2.6c-0.7,0.8-1.8,1.4-3.1,1.8c-1.1,0.4-2,0.5-2.7,0.4c-0.7-0.1-1-0.4-1-0.9
			c0-0.2,0.1-0.4,0.2-0.6c0.1-0.2,0.3-0.4,0.5-0.6c0.4,0.1,0.8,0.2,1.3,0.2s1.1,0,1.7-0.3c1.3-0.5,2.1-1.1,2.1-2
			c0-0.4-0.1-0.6-0.3-0.8c-0.2-0.1-0.5-0.2-1-0.2l-1.5,0.1c-0.9,0.1-1.6,0-2-0.3c-0.4-0.3-0.6-0.8-0.5-1.6c0.1-0.8,0.5-1.6,1.2-2.4
			c0.7-0.8,1.7-1.4,3-1.8c0.7-0.2,1.3-0.4,1.8-0.4c0.5,0,0.9,0,1.2,0.1c0.3,0.1,0.4,0.4,0.4,0.7c0,0.2-0.1,0.4-0.2,0.6
			c-0.1,0.2-0.3,0.4-0.4,0.5c-0.2-0.1-0.4-0.1-0.6-0.1c-0.3,0-0.6,0-0.9,0c-0.4,0-0.7,0.1-1.1,0.2c-0.6,0.2-1.1,0.5-1.4,0.8
			c-0.4,0.3-0.6,0.7-0.6,1.1c0,0.3,0.1,0.5,0.2,0.6c0.2,0.1,0.5,0.2,1,0.1l1.3-0.1c1-0.1,1.8,0,2.2,0.4
			C184.3,219.9,184.5,220.5,184.5,221.3z"/>
	</g>
</g>
</svg>
