<?xml version="1.0" encoding="utf-8"?>
<!-- Generator: Adobe Illustrator 23.1.0, SVG Export Plug-In . SVG Version: 6.00 Build 0)  -->
<svg version="1.1" id="Layer_2" xmlns="http://www.w3.org/2000/svg" xmlns:xlink="http://www.w3.org/1999/xlink" x="0px" y="0px"
	 viewBox="0 0 234 288" style="enable-background:new 0 0 234 288;" xml:space="preserve">
<style type="text/css">
	.st0{fill:none;stroke:#333333;stroke-miterlimit:10;}
	.st1{fill:#333333;stroke:#333333;}
	.st2{stroke:#333333;}
	.st3{fill:none;stroke:#333333;stroke-width:0.25;stroke-miterlimit:10;}
	.st4{fill:none;stroke:#333333;}
	.st5{fill:#333333;}
</style>
<g>
	<path class="st0" d="M34.2,54.9v200.5c0,0.6,0.2,1.1,0.9,1.4c5.8,3,11.6,4.9,16.9,7.3l0.9,0.9c6.9,3,13.8,5.8,22.5,9.3
		c0.2,0.1,0.7,0.1,1.1,0l115.4-38.9c0.2-0.1,0.5-0.5,0.5-0.7V44.8l16-12.4l5.4-6.2l-0.2-1.1l-7.9,1.2v-0.7l-34.3-8.7l-18.1,16.2
		L120.7,1.9L21.2,17.2l-1.1,0.2l2.3,11.2l3.1,7.5l-2.1-0.5l-0.1,0.9l6.3,8c1.7,4.4,1.4,4.2,0.7,4.4L34.2,54.9z"/>
	<path class="st1" d="M75.9,63c0,0,0.1,0.7,0.1,2.3c0,1.6,0,3.8,0,6.8c0,5.8,0,14,0,24c0,19.9,0,46.2,0,72.7s0,52.9,0,72.7
		c0,10,0,18.1,0,24c0,2.8,0,5.2,0,6.8s-0.1,2.3-0.1,2.3s-0.1-0.7-0.1-2.3s0-3.8,0-6.8c0-5.8,0-14,0-24c0-19.9,0-46.2,0-72.7
		s0-52.9,0-72.7c0-10,0-18.1,0-24c0-2.8,0-5.2,0-6.8C75.8,63.8,75.9,63,75.9,63z"/>
	<path class="st0" d="M25.3,36.1l33.3,7.6c0,0,6.2,8.9,8.5,11.8c2.5,3.1,5.4,3.1,5.4,3.1l3.6,5L90,50.4l8.6-6.3l36.8-5.8
		c2-0.2,3.9-0.7,5.8-1.5l5.5-2.1h0.1l28-4.4c0.1,0,0.4,0,0.4,0l1.2,0.5c0.6,0.2,1.4,0.5,2.1,0.2l27.4-4.4"/>
	<path class="st2" d="M75.1,64.9c0,0-0.6,0-1.7-0.2c-1.1-0.2-2.6-0.6-4.6-1.1c-3.7-0.9-8.7-2.1-13.8-3.3c-5-1.2-10-2.5-13.8-3.3
		c-1.8-0.5-3.3-0.9-4.6-1.1c-1.1-0.2-1.7-0.6-1.7-0.6s0.6,0,1.7,0.2c1.1,0.2,2.6,0.6,4.6,1.1c3.7,0.9,8.7,2.1,13.8,3.3
		c5,1.2,10,2.5,13.8,3.3c1.8,0.5,3.3,0.7,4.6,1.1C74.5,64.5,75.1,64.9,75.1,64.9z"/>
	<path class="st2" d="M76.8,64.8c0,0,1.7-0.5,4.9-1.1c3.1-0.6,7.6-1.4,13-2.3c10.7-1.8,25-4.3,39.4-6.8c14.3-2.5,28.7-4.9,39.5-6.8
		c5.4-0.9,9.8-1.7,13-2.3c3.8-0.7,6.2-0.7,6.2-0.7s-3,0.6-6.2,1.2c-3.1,0.6-7.6,1.4-13,2.3c-10.7,1.8-25,4.3-39.5,6.8
		c-14.3,2.5-28.7,4.9-39.4,6.8c-5.4,0.9-9.8,1.7-13,2.3C78.6,64.5,76.8,64.8,76.8,64.8z"/>
	<path class="st3" d="M52,262.4l1.2,1.2c0,0,13,6,22.3,8.9"/>
	<path class="st3" d="M52.2,264.1l-1.8-2.3"/>
	<path class="st3" d="M35,255.3l40.3,17.3"/>
	<line class="st4" x1="75.9" y1="286.9" x2="151.7" y2="262.1"/>
	<line class="st4" x1="116.5" y1="267.2" x2="192.3" y2="242.4"/>
	<line class="st4" x1="43.5" y1="274.1" x2="76.3" y2="286.9"/>
	<line class="st4" x1="33.9" y1="263.5" x2="59.5" y2="274.1"/>
</g>
<g>
	<path class="st5" d="M85.5,252l6.5-9.8c0.2-0.1,0.4-0.2,0.6-0.3c0.2-0.1,0.4-0.2,0.5-0.2c0.3-0.1,0.5-0.1,0.7-0.1
		c0.2,0,0.4,0.1,0.5,0.2c0.1,0.1,0.2,0.4,0.2,0.7l-0.6,7l2-0.7c0,0.1,0.1,0.2,0.1,0.3c0,0.1,0.1,0.3,0,0.5c0,0.3-0.1,0.5-0.3,0.8
		c-0.2,0.2-0.4,0.3-0.6,0.4l-1.5,0.5l-0.3,3c-0.1,0.1-0.2,0.1-0.4,0.2c-0.2,0.1-0.4,0.2-0.6,0.2c-0.4,0.1-0.6,0.2-0.8,0.1
		c-0.2-0.1-0.3-0.3-0.2-0.6l0.2-2.3l-5.9,2c-0.2,0-0.3-0.1-0.4-0.3c-0.1-0.2-0.2-0.4-0.1-0.7c0-0.2,0-0.3,0.1-0.5
		C85.4,252.3,85.4,252.2,85.5,252z M91.9,250.2l0.5-6.1l0,0l-4.7,7.5L91.9,250.2z"/>
	<path class="st5" d="M102.7,251.5c-1,0.3-1.9,0.4-2.7,0.2c-0.7-0.2-1.3-0.8-1.6-1.6c-0.4-0.9-0.5-2-0.3-3.6c0.1-1.6,0.5-3,1-4.1
		c0.6-1.1,1.3-2.1,2.1-2.8c0.8-0.7,1.7-1.3,2.6-1.6c0.9-0.3,1.8-0.4,2.5-0.2c0.7,0.2,1.3,0.7,1.7,1.6c0.4,0.8,0.5,2,0.4,3.6
		c-0.1,1.5-0.5,2.8-1,4c-0.5,1.1-1.2,2.1-2,2.9C104.7,250.6,103.7,251.2,102.7,251.5z M102.9,249.7c1-0.3,1.7-1,2.3-2
		c0.6-1,1-2.4,1.1-4c0.1-1.2,0-2.1-0.2-2.7c-0.2-0.6-0.5-1.1-1-1.2c-0.4-0.2-0.9-0.2-1.5,0c-0.6,0.2-1.1,0.5-1.6,1
		c-0.5,0.5-0.9,1.2-1.2,2c-0.3,0.8-0.5,1.8-0.6,2.9c-0.1,1.6,0,2.8,0.5,3.4C101.2,249.9,101.9,250.1,102.9,249.7z"/>
	<path class="st5" d="M115.2,247.3c-1,0.3-1.9,0.4-2.7,0.2c-0.7-0.2-1.3-0.8-1.6-1.6c-0.4-0.9-0.5-2-0.3-3.6c0.1-1.6,0.5-3,1-4.1
		s1.3-2.1,2.1-2.8c0.8-0.7,1.7-1.3,2.6-1.6c0.9-0.3,1.8-0.4,2.5-0.2c0.8,0.2,1.3,0.7,1.7,1.6c0.4,0.8,0.5,2,0.4,3.6
		c-0.1,1.5-0.5,2.8-1,4c-0.5,1.1-1.2,2.1-2,2.9C117.2,246.4,116.3,247,115.2,247.3z M115.4,245.6c1-0.3,1.7-1,2.3-2
		c0.6-1,1-2.4,1.1-4c0.1-1.2,0-2.1-0.2-2.7c-0.2-0.6-0.5-1.1-1-1.2c-0.4-0.2-0.9-0.2-1.5,0c-0.6,0.2-1.1,0.5-1.6,1s-0.9,1.2-1.2,2
		c-0.3,0.8-0.5,1.8-0.6,3c-0.1,1.6,0,2.8,0.5,3.4C113.7,245.7,114.4,245.9,115.4,245.6z"/>
	<path class="st5" d="M138.7,233.2l-0.4,4.6c0,0.3-0.1,0.6-0.3,0.8c-0.2,0.2-0.4,0.5-0.7,0.7c-0.4,0.3-0.9,0.7-1.6,1
		c-0.7,0.3-1.3,0.6-2,0.9c-1.3,0.4-2.5,0.6-3.5,0.5c-1-0.1-1.8-0.6-2.3-1.4c-0.5-0.8-0.7-2-0.6-3.5c0.1-1.5,0.5-2.9,1.2-4.1
		c0.7-1.2,1.6-2.2,2.6-3.1c1.1-0.8,2.2-1.5,3.4-1.9c0.8-0.3,1.5-0.4,2.2-0.5c0.6,0,1.1,0,1.4,0.2c0.3,0.2,0.5,0.4,0.4,0.7
		c0,0.2-0.1,0.5-0.2,0.7c-0.1,0.2-0.3,0.4-0.5,0.6c-0.4-0.1-0.8-0.2-1.3-0.2c-0.5,0-1.2,0.1-2,0.3c-0.9,0.3-1.7,0.7-2.4,1.3
		c-0.7,0.6-1.3,1.3-1.8,2.2c-0.5,0.9-0.7,1.8-0.8,2.9c-0.1,1.1,0,2,0.4,2.6c0.3,0.6,0.9,0.9,1.5,1.1c0.7,0.1,1.5,0,2.3-0.3
		c0.5-0.2,0.9-0.3,1.3-0.6c0.4-0.2,0.7-0.4,1-0.6l0.3-3.5l-3,1c0-0.1-0.1-0.2-0.1-0.3c0-0.1,0-0.3,0-0.5c0-0.3,0.1-0.6,0.3-0.8
		c0.2-0.2,0.4-0.3,0.6-0.4l3.6-1.2c0.3-0.1,0.5-0.1,0.7,0C138.6,232.7,138.7,232.9,138.7,233.2z"/>
	<path class="st5" d="M141.5,232.8l2.1-0.5l-0.4,5.4c-0.1,0.1-0.2,0.1-0.4,0.2c-0.2,0.1-0.4,0.2-0.6,0.3c-0.4,0.1-0.7,0.2-0.9,0.1
		c-0.2-0.1-0.3-0.3-0.2-0.7L141.5,232.8z M143.9,229.9l-0.3,3.1l-2.2,0.7l0.3-3.2c0-0.3,0.1-0.6,0.3-0.9c0.2-0.3,0.4-0.6,0.7-0.8
		c0.4-0.4,1-0.8,1.6-1.2c0.7-0.4,1.4-0.7,2.1-1c1.2-0.4,1.8-0.3,1.8,0.4c0,0.2-0.1,0.3-0.1,0.5c-0.1,0.2-0.1,0.3-0.2,0.4
		c-0.1,0-0.3,0.1-0.5,0.1c-0.2,0.1-0.4,0.1-0.7,0.2c-0.6,0.2-1.1,0.4-1.6,0.7C144.6,229.3,144.2,229.6,143.9,229.9z"/>
	<path class="st5" d="M152.9,234.8c-1.4,0.5-2.4,0.6-3.2,0.3c-0.7-0.3-1.1-0.9-1-2c0.1-0.9,0.4-1.8,1.1-2.5c0.7-0.7,1.5-1.3,2.7-1.8
		l3-1.3l0-0.5c0.1-0.6-0.1-1-0.5-1.2c-0.4-0.2-0.9-0.1-1.6,0.1c-0.6,0.2-1.1,0.5-1.7,0.8c-0.5,0.3-1,0.7-1.5,1
		c-0.1-0.1-0.2-0.2-0.3-0.3c-0.1-0.1-0.1-0.3-0.1-0.5c0-0.5,0.3-0.9,0.8-1.2c0.4-0.3,0.9-0.6,1.4-0.9c0.5-0.3,1.1-0.5,1.6-0.7
		c1.3-0.4,2.3-0.5,3.1-0.2c0.7,0.3,1,1.1,0.9,2.3l-0.4,5c0,0.3-0.1,0.6-0.3,0.8c-0.2,0.2-0.4,0.5-0.6,0.7c-0.4,0.3-0.9,0.7-1.5,1
		C154.3,234.2,153.7,234.5,152.9,234.8z M153.1,233.1c0.5-0.2,1-0.4,1.3-0.6c0.4-0.2,0.6-0.4,0.8-0.6l0.2-2.8l-2.4,1
		c-0.7,0.3-1.2,0.6-1.5,0.9c-0.4,0.4-0.6,0.8-0.6,1.2c0,0.5,0.1,0.8,0.5,0.9C151.7,233.4,152.3,233.3,153.1,233.1z"/>
	<path class="st5" d="M160.5,226.6l2.2-0.7l-0.5,5.5c-0.1,0.1-0.2,0.1-0.4,0.2c-0.2,0.1-0.4,0.2-0.6,0.3c-0.4,0.1-0.7,0.2-0.9,0.1
		c-0.2-0.1-0.3-0.3-0.2-0.7L160.5,226.6z M169,222.4l-0.2,2.4l-2.2,0.7l0.2-2.2c0.1-0.6-0.1-1-0.4-1.2s-0.8-0.2-1.4,0
		c-0.4,0.1-0.8,0.3-1.2,0.6c-0.4,0.3-0.7,0.5-0.9,0.7l-0.3,3.4l-2.2,0.7l0.3-3.5c0-0.3,0.1-0.6,0.3-0.8c0.1-0.2,0.4-0.5,0.7-0.8
		c0.4-0.4,0.9-0.8,1.6-1.2c0.6-0.4,1.3-0.7,1.9-0.9c0.7-0.2,1.3-0.3,1.9-0.3c0.5,0,1,0.2,1.2,0.5c0.1,0.1,0.2,0.1,0.2,0.2
		c0.1,0.1,0.1,0.1,0.2,0.2c0.1,0.1,0.2,0.3,0.2,0.6S169,222.1,169,222.4z M166.7,224.5l2.2-0.7l-0.5,5.5c-0.1,0.1-0.2,0.1-0.4,0.2
		c-0.2,0.1-0.4,0.2-0.6,0.3c-0.4,0.1-0.7,0.2-0.9,0.1c-0.2-0.1-0.3-0.3-0.2-0.7L166.7,224.5z M175.2,220.4l-0.2,2.3l-2.2,0.7
		l0.2-2.2c0.1-0.6-0.1-1-0.4-1.2c-0.3-0.2-0.8-0.2-1.4,0c-0.4,0.1-0.9,0.4-1.3,0.7s-0.8,0.7-1.2,1.1l-0.9-1.1c0.4-0.5,1-1,1.6-1.4
		c0.6-0.5,1.3-0.8,2.1-1.1c0.8-0.3,1.4-0.4,2-0.3c0.6,0,1,0.3,1.3,0.7C175.2,219,175.3,219.6,175.2,220.4z M172.9,222.4l2.2-0.7
		l-0.5,5.5c-0.1,0.1-0.2,0.1-0.4,0.2s-0.4,0.2-0.6,0.3c-0.4,0.1-0.7,0.2-0.9,0.1c-0.2-0.1-0.3-0.3-0.2-0.7L172.9,222.4z"/>
	<path class="st5" d="M185.2,221c-0.1,1-0.5,1.8-1.2,2.6c-0.7,0.8-1.8,1.4-3.1,1.8c-1.1,0.4-2,0.5-2.7,0.4c-0.7-0.1-1-0.4-1-0.9
		c0-0.2,0.1-0.4,0.2-0.7c0.1-0.2,0.3-0.4,0.5-0.6c0.4,0.1,0.8,0.2,1.3,0.2c0.5,0,1.1,0,1.7-0.3c1.3-0.5,2.1-1.1,2.1-2
		c0-0.4-0.1-0.6-0.3-0.8c-0.2-0.1-0.5-0.2-1-0.2l-1.5,0.1c-0.9,0.1-1.6,0-2-0.3c-0.4-0.3-0.6-0.9-0.5-1.6c0.1-0.8,0.5-1.6,1.2-2.4
		c0.7-0.8,1.7-1.4,3-1.8c0.7-0.2,1.3-0.4,1.8-0.4s0.9,0,1.2,0.1c0.3,0.1,0.4,0.4,0.4,0.7c0,0.2-0.1,0.4-0.2,0.6
		c-0.1,0.2-0.3,0.4-0.4,0.5c-0.2-0.1-0.4-0.1-0.6-0.1c-0.3,0-0.6,0-0.9,0s-0.7,0.1-1.1,0.2c-0.6,0.2-1.1,0.5-1.4,0.8
		c-0.4,0.3-0.6,0.7-0.6,1.1c0,0.3,0.1,0.5,0.2,0.6c0.2,0.1,0.5,0.2,1,0.1l1.3-0.1c1-0.1,1.8,0,2.2,0.4
		C185.1,219.6,185.3,220.2,185.2,221z"/>
</g>
</svg>
