<?xml version="1.0" encoding="utf-8"?>
<!-- Generator: Adobe Illustrator 23.1.0, SVG Export Plug-In . SVG Version: 6.00 Build 0)  -->
<svg version="1.1" id="Layer_1" xmlns="http://www.w3.org/2000/svg" xmlns:xlink="http://www.w3.org/1999/xlink" x="0px" y="0px"
	 viewBox="0 0 300 315" style="enable-background:new 0 0 300 315;" xml:space="preserve">
<style type="text/css">
	.st0{fill:none;stroke:#333333;stroke-miterlimit:10;}
	.st1{stroke:#333333;stroke-width:0.63;}
	.st2{fill:none;stroke:#333333;stroke-width:1.0023;stroke-miterlimit:10;}
	.st3{fill:#333333;}
	.st4{fill:none;stroke:#333333;}
</style>
<path class="st0" d="M241.2,31.1c0,6.9-9.5,13.2-24.9,17.9c-17.4,5.3-42.4,8.6-70.3,8.6c-27.8,0-52.9-3.3-70.3-8.6
	c-3.5-1.1-6.7-2.2-9.6-3.4c0,0,0,0-0.1,0c-0.4-0.2-0.8-0.3-1.1-0.5c-0.2-0.1-0.4-0.2-0.6-0.3c-0.3-0.1-0.6-0.3-0.8-0.4
	c-0.2-0.1-0.5-0.2-0.7-0.3c0,0,0,0-0.1,0c-0.2-0.1-0.5-0.2-0.7-0.3c-0.3-0.1-0.5-0.3-0.7-0.4c-0.2-0.1-0.4-0.2-0.6-0.3c0,0,0,0,0,0
	c-0.2-0.1-0.4-0.2-0.6-0.3c-0.2-0.1-0.4-0.3-0.6-0.3c-0.1-0.1-0.3-0.2-0.4-0.3c-4.8-3-7.7-6.2-8.3-9.7c0-0.3-0.1-0.5-0.1-0.8v-0.5
	c0-14.7,42.6-26.5,95.2-26.5C198.6,4.5,241.2,16.4,241.2,31.1z"/>
<path class="st1" d="M241.4,66c0-0.3-0.1-0.5-0.1-0.7h-0.3c0,0,0,0,0,0c0.2,0.1,0.3,0.1,0,0.2c0,0.1,0,0.5,0,0.6v1.7
	c-0.4,3.8-3.7,7.4-9.7,10.8c-16.2,9.1-48.9,14.7-85.2,14.7c-36.3,0-69.9-5.9-85.6-15c-6-3.4-9.1-7.1-9.4-10.9V32.9c0,0,0,0,0,0
	C51,32.8,51,32.7,51,32.5c0-0.1,0-0.1,0-0.2l-0.3,0v35.1c0.3,3.9,3.5,7.8,9.6,11.3c16.1,9.3,49,15,85.8,15
	c36.5,0,69.2-5.7,85.5-14.8c6.1-3.4,9.5-7.2,9.9-11.1L241.4,66z"/>
<path class="st0" d="M241.3,30.9l0,35.1"/>
<path class="st2" d="M240.5,93.8v172.7c0,1.3-0.1,2.5-0.4,3.7c-1.8,4.8-8.3,9.3-18.1,13c-2,0.7-4.1,1.5-6.3,2.1
	c-17.4,5.3-42.5,8.6-70.3,8.6c-27.8,0-52.9-3.3-70.3-8.6c-2.2-0.7-4.3-1.4-6.3-2.1c-11.3-4.2-18.1-9.5-18.6-15.1
	c0,1-0.1-0.4-0.1-8.9l0-165.3c0-6.8,4.1-12.6,9.9-15.3c15.4,8.9,48,15,85.8,15c37.4,0,69.8-6,85.4-14.8
	C236.6,81.4,240.5,87.1,240.5,93.8z"/>
<path class="st0" d="M227.9,255.8v-96.4"/>
<path class="st0" d="M219,265.8v-23"/>
<path class="st3" d="M130.8,259.6h-1.9v-7.3l-3.1,1.4c-0.2-0.1-0.4-0.2-0.5-0.4c-0.1-0.2-0.2-0.4-0.2-0.6c0-0.5,0.3-0.8,0.9-1.1
	l3.4-1.5h0.5c0.3,0,0.6,0.1,0.8,0.3s0.3,0.4,0.3,0.8V259.6z M128.9,258.7h1.9v6.4c-0.1,0-0.2,0.1-0.4,0.1c-0.2,0-0.3,0.1-0.5,0.1
	c-0.3,0-0.6-0.1-0.8-0.2c-0.2-0.1-0.3-0.4-0.3-0.7V258.7z M141.7,257.6l1.5-1c1.7,1.6,3.2,3.1,4.4,4.4c1.2,1.3,2.3,2.3,3.1,3.1
	c0,0.4-0.1,0.6-0.3,0.8c-0.2,0.2-0.4,0.3-0.7,0.3c-0.3,0-0.5-0.1-0.7-0.2c-0.2-0.2-0.4-0.3-0.6-0.6L141.7,257.6z M143.5,258.2
	l-1.9-0.4l7.2-7.5c0.4,0,0.7,0.1,0.9,0.3c0.2,0.2,0.3,0.4,0.3,0.7c0,0.2-0.1,0.4-0.2,0.6c-0.1,0.2-0.3,0.4-0.5,0.6L143.5,258.2z
	 M140.2,256.2h2v8.8c-0.1,0-0.2,0.1-0.4,0.1c-0.2,0-0.3,0.1-0.5,0.1c-0.4,0-0.6-0.1-0.8-0.2c-0.2-0.1-0.3-0.4-0.3-0.7V256.2z
	 M142.2,257.8h-2v-7.3c0.1,0,0.2-0.1,0.4-0.1c0.2,0,0.4-0.1,0.6-0.1c0.4,0,0.6,0.1,0.8,0.2c0.2,0.1,0.3,0.4,0.3,0.7V257.8z
	 M164.6,258.1v5.2c0,0.3-0.1,0.5-0.3,0.7c-0.2,0.2-0.4,0.4-0.7,0.5c-0.4,0.2-1,0.4-1.7,0.5c-0.7,0.1-1.4,0.2-2.1,0.2
	c-1.5,0-2.8-0.3-4-0.8c-1.1-0.5-2-1.4-2.7-2.5s-1-2.5-1-4.3c0-1.7,0.3-3.1,1-4.2c0.7-1.1,1.6-2,2.7-2.5s2.3-0.8,3.6-0.8
	c0.9,0,1.7,0.1,2.4,0.3s1.2,0.4,1.6,0.7c0.4,0.3,0.6,0.6,0.6,0.9c0,0.2-0.1,0.4-0.2,0.6c-0.1,0.2-0.3,0.3-0.5,0.4
	c-0.4-0.3-0.9-0.6-1.5-0.8c-0.6-0.3-1.4-0.4-2.3-0.4c-1,0-1.9,0.2-2.7,0.7c-0.8,0.4-1.5,1.1-1.9,2c-0.5,0.9-0.7,2-0.7,3.3
	c0,1.4,0.2,2.5,0.7,3.4c0.5,0.9,1.2,1.5,2,1.9c0.8,0.4,1.8,0.6,2.9,0.6c0.6,0,1.1,0,1.6-0.1c0.5-0.1,0.9-0.2,1.2-0.4v-4.4h-3.6
	c0-0.1-0.1-0.2-0.1-0.3c0-0.1-0.1-0.3-0.1-0.5c0-0.3,0.1-0.5,0.2-0.6c0.1-0.2,0.3-0.2,0.6-0.2h4c0.3,0,0.5,0.1,0.7,0.3
	C164.5,257.6,164.6,257.8,164.6,258.1z"/>
<path class="st3" d="M135.2,121.6v1.6h-6.6v-1.6H135.2z M132.4,123.2l0.8-1.2c1.1,0,2,0.2,2.7,0.6c0.7,0.4,1.3,0.8,1.6,1.4
	c0.4,0.6,0.6,1.3,0.6,2c0,1.5-0.5,2.5-1.6,3.2c-1,0.7-2.5,1.1-4.5,1.1c-0.4,0-0.9,0-1.3,0c-0.4,0-0.9-0.1-1.3-0.1
	c-0.4-0.1-0.8-0.1-1.2-0.2c-0.7-0.2-1-0.6-1-1.1v-12.3c0-0.3,0.1-0.5,0.2-0.6c0.1-0.1,0.3-0.2,0.6-0.3c0.5-0.2,1.1-0.3,1.7-0.3
	c0.6-0.1,1.3-0.1,2-0.1c1.8,0,3.2,0.3,4.2,1c1,0.6,1.5,1.6,1.5,3c0,0.7-0.2,1.3-0.5,1.9c-0.3,0.6-0.8,1-1.6,1.4
	c-0.7,0.3-1.7,0.5-2.9,0.5l-0.2-1.2c1.1,0,1.9-0.2,2.4-0.6c0.5-0.4,0.8-1.1,0.8-1.8c0-0.8-0.3-1.4-1-1.8c-0.6-0.4-1.6-0.6-2.8-0.6
	c-0.5,0-1,0-1.4,0.1c-0.4,0-0.8,0.1-1.2,0.1v11.4c0.4,0.1,0.8,0.1,1.3,0.2c0.5,0,1,0.1,1.5,0.1c1.3,0,2.3-0.2,3-0.7
	c0.7-0.4,1-1.1,1-2.1c0-0.8-0.3-1.5-0.9-2C134.5,123.5,133.6,123.2,132.4,123.2z M140.7,116.9c0-0.3,0.2-0.6,0.6-0.8
	c0.4-0.3,0.9-0.5,1.5-0.7c0.6-0.2,1.3-0.3,2-0.3c1,0,1.9,0.2,2.6,0.5c0.7,0.3,1.3,0.8,1.7,1.4s0.6,1.4,0.6,2.2
	c0,0.9-0.2,1.7-0.7,2.6c-0.5,0.8-1.3,1.8-2.5,2.9l-3.9,3.6h7.1c0.1,0.1,0.1,0.2,0.2,0.3c0,0.1,0.1,0.3,0.1,0.5
	c0,0.3-0.1,0.5-0.2,0.6c-0.1,0.1-0.3,0.2-0.5,0.2h-8.5c-0.2-0.1-0.3-0.2-0.4-0.4c-0.1-0.2-0.1-0.4-0.1-0.6c0-0.3,0-0.5,0.1-0.7
	c0.1-0.2,0.2-0.4,0.4-0.6l4.3-4.2c1-0.9,1.7-1.7,2-2.3c0.4-0.6,0.6-1.3,0.6-2c0-0.8-0.3-1.4-0.8-1.8c-0.5-0.5-1.3-0.7-2.3-0.7
	c-0.7,0-1.3,0.1-1.9,0.4c-0.5,0.2-1,0.5-1.4,0.8c-0.2-0.1-0.3-0.2-0.5-0.4C140.8,117.4,140.7,117.2,140.7,116.9z M161.6,121.6v1.6
	H155v-1.6H161.6z M158.9,123.2l0.8-1.2c1.1,0,2,0.2,2.7,0.6c0.7,0.4,1.3,0.8,1.6,1.4c0.4,0.6,0.6,1.3,0.6,2c0,1.5-0.5,2.5-1.6,3.2
	c-1,0.7-2.5,1.1-4.5,1.1c-0.4,0-0.9,0-1.3,0c-0.4,0-0.9-0.1-1.3-0.1c-0.4-0.1-0.8-0.1-1.2-0.2c-0.7-0.2-1-0.6-1-1.1v-12.3
	c0-0.3,0.1-0.5,0.2-0.6c0.1-0.1,0.3-0.2,0.6-0.3c0.5-0.2,1.1-0.3,1.7-0.3c0.6-0.1,1.3-0.1,2-0.1c1.8,0,3.2,0.3,4.2,1
	c1,0.6,1.5,1.6,1.5,3c0,0.7-0.2,1.3-0.5,1.9c-0.3,0.6-0.8,1-1.6,1.4c-0.7,0.3-1.7,0.5-2.9,0.5l-0.2-1.2c1.1,0,1.9-0.2,2.4-0.6
	c0.5-0.4,0.8-1.1,0.8-1.8c0-0.8-0.3-1.4-1-1.8c-0.6-0.4-1.6-0.6-2.8-0.6c-0.5,0-1,0-1.4,0.1c-0.4,0-0.8,0.1-1.2,0.1v11.4
	c0.4,0.1,0.8,0.1,1.3,0.2c0.5,0,1,0.1,1.5,0.1c1.3,0,2.3-0.2,3-0.7c0.7-0.4,1-1.1,1-2.1c0-0.8-0.3-1.5-0.9-2
	C161,123.5,160.1,123.2,158.9,123.2z"/>
<line class="st4" x1="117.4" y1="305.5" x2="182.1" y2="305.5"/>
<line class="st4" x1="33.1" y1="314.4" x2="127.1" y2="314.4"/>
<line class="st4" x1="167.9" y1="314.4" x2="262" y2="314.4"/>
</svg>
