<?xml version="1.0" encoding="utf-8"?>
<!-- Generator: Adobe Illustrator 23.1.0, SVG Export Plug-In . SVG Version: 6.00 Build 0)  -->
<svg version="1.1" xmlns="http://www.w3.org/2000/svg" xmlns:xlink="http://www.w3.org/1999/xlink" x="0px" y="0px"
	 viewBox="0 0 234 288" style="enable-background:new 0 0 234 288;" xml:space="preserve">
<style type="text/css">
	.st0{fill:none;stroke:#333333;stroke-miterlimit:10;}
	.st1{fill:#333333;stroke:#333333;}
	.st2{stroke:#333333;}
	.st3{fill:none;stroke:#333333;stroke-width:0.25;stroke-miterlimit:10;}
	.st4{fill:none;stroke:#333333;}
	.st5{fill:#333333;}
</style>
<g id="Layer_1">
</g>
<g id="Layer_2">
	<g>
		<path class="st0" d="M34.2,54.9v200.5c0,0.6,0.2,1.1,0.9,1.4c5.8,3,11.6,4.9,16.9,7.3l0.9,0.9c6.9,3,13.8,5.8,22.5,9.3
			c0.2,0.1,0.7,0.1,1.1,0l115.4-38.9c0.2-0.1,0.5-0.5,0.5-0.7V44.8l16-12.4l5.4-6.2l-0.2-1.1l-7.9,1.2v-0.7l-34.3-8.7l-18.1,16.2
			L120.7,1.9L21.2,17.2l-1.1,0.2l2.3,11.2l3.1,7.5l-2.1-0.5l-0.1,0.9l6.3,8c1.7,4.4,1.4,4.2,0.7,4.4L34.2,54.9z"/>
		<path class="st1" d="M75.9,63c0,0,0.1,0.7,0.1,2.3c0,1.6,0,3.8,0,6.8c0,5.8,0,14,0,24c0,19.9,0,46.2,0,72.7s0,52.9,0,72.7
			c0,10,0,18.1,0,24c0,2.8,0,5.2,0,6.8s-0.1,2.3-0.1,2.3s-0.1-0.7-0.1-2.3s0-3.8,0-6.8c0-5.8,0-14,0-24c0-19.9,0-46.2,0-72.7
			s0-52.9,0-72.7c0-10,0-18.1,0-24c0-2.8,0-5.2,0-6.8C75.8,63.8,75.9,63,75.9,63z"/>
		<path class="st0" d="M25.3,36.1l33.3,7.6c0,0,6.2,8.9,8.5,11.8c2.5,3.1,5.4,3.1,5.4,3.1l3.6,5L90,50.4l8.6-6.3l36.8-5.8
			c2-0.2,3.9-0.7,5.8-1.5l5.5-2.1h0.1l28-4.4c0.1,0,0.4,0,0.4,0l1.2,0.5c0.6,0.2,1.4,0.5,2.1,0.2l27.4-4.4"/>
		<path class="st2" d="M75.1,64.9c0,0-0.6,0-1.7-0.2c-1.1-0.2-2.6-0.6-4.6-1.1c-3.7-0.9-8.7-2.1-13.8-3.3c-5-1.2-10-2.5-13.8-3.3
			c-1.8-0.5-3.3-0.9-4.6-1.1c-1.1-0.2-1.7-0.6-1.7-0.6s0.6,0,1.7,0.2c1.1,0.2,2.6,0.6,4.6,1.1c3.7,0.9,8.7,2.1,13.8,3.3
			c5,1.2,10,2.5,13.8,3.3c1.8,0.5,3.3,0.7,4.6,1.1C74.5,64.5,75.1,64.9,75.1,64.9z"/>
		<path class="st2" d="M76.8,64.8c0,0,1.7-0.5,4.9-1.1c3.1-0.6,7.6-1.4,13-2.3c10.7-1.8,25-4.3,39.4-6.8c14.3-2.5,28.7-4.9,39.5-6.8
			c5.4-0.9,9.8-1.7,13-2.3c3.8-0.7,6.2-0.7,6.2-0.7s-3,0.6-6.2,1.2c-3.1,0.6-7.6,1.4-13,2.3c-10.7,1.8-25,4.3-39.5,6.8
			c-14.3,2.5-28.7,4.9-39.4,6.8c-5.4,0.9-9.8,1.7-13,2.3C78.6,64.5,76.8,64.8,76.8,64.8z"/>
		<path class="st3" d="M52,262.4l1.2,1.2c0,0,13,6,22.3,8.9"/>
		<path class="st3" d="M52.2,264.1l-1.8-2.3"/>
		<path class="st3" d="M35,255.3l40.3,17.3"/>
		<line class="st4" x1="75.9" y1="286.9" x2="151.7" y2="262.1"/>
		<line class="st4" x1="116.5" y1="267.2" x2="192.3" y2="242.4"/>
		<line class="st4" x1="43.5" y1="274.1" x2="76.3" y2="286.9"/>
		<line class="st4" x1="33.9" y1="263.5" x2="59.5" y2="274.1"/>
	</g>
	<g>
		<path class="st5" d="M86.6,244.3c0-0.3,0.2-0.7,0.5-1.1c0.4-0.4,0.9-0.8,1.5-1.1s1.3-0.7,2.1-0.9c1.1-0.4,2-0.5,2.8-0.4
			c0.8,0.1,1.4,0.3,1.8,0.8c0.4,0.4,0.6,1,0.6,1.8c0,0.8-0.2,1.7-0.7,2.6c-0.5,0.9-1.3,2-2.5,3.3l-3.8,4.3l6.9-2.3
			c0.1,0.1,0.1,0.2,0.2,0.3c0.1,0.1,0.1,0.3,0.1,0.5c0,0.3-0.1,0.6-0.3,0.8s-0.4,0.4-0.7,0.4l-8.5,2.8c-0.2-0.1-0.4-0.2-0.5-0.3
			c-0.1-0.2-0.2-0.4-0.2-0.6c0-0.3,0.1-0.6,0.2-0.8c0.1-0.3,0.3-0.5,0.5-0.8l4.1-4.8c1-1.1,1.6-2,2-2.6s0.5-1.2,0.5-1.8
			c0-0.6-0.2-1-0.7-1.3c-0.5-0.2-1.2-0.2-2.2,0.1c-0.7,0.2-1.3,0.5-1.9,0.9c-0.5,0.4-1,0.8-1.4,1.1c-0.2,0-0.4-0.1-0.5-0.2
			S86.6,244.5,86.6,244.3z"/>
		<path class="st5" d="M104.5,250.4c-1.2,0.4-2.2,0.5-3.1,0.3c-0.9-0.2-1.6-0.8-2.1-1.6s-0.7-2.1-0.7-3.6c0-1.6,0.3-3,0.8-4.2
			c0.5-1.2,1.3-2.2,2.2-2.9c0.9-0.8,1.9-1.3,2.9-1.7c1.1-0.4,2.1-0.4,3-0.2c0.9,0.2,1.6,0.7,2.2,1.5c0.5,0.8,0.8,2,0.8,3.7
			c0,1.5-0.3,2.9-0.8,4.1s-1.2,2.2-2.1,3S105.7,250,104.5,250.4z M104.5,248.6c1.1-0.4,1.9-1.1,2.5-2.1c0.6-1.1,0.9-2.4,0.9-4.1
			c0-1.2-0.2-2.1-0.5-2.8c-0.3-0.6-0.7-1.1-1.2-1.2c-0.5-0.2-1.1-0.2-1.8,0.1s-1.2,0.6-1.7,1.1c-0.5,0.5-0.9,1.2-1.2,2.1
			c-0.3,0.9-0.5,1.9-0.5,3c0,1.7,0.3,2.8,0.9,3.5C102.6,248.8,103.4,249,104.5,248.6z"/>
		<path class="st5" d="M130.6,235.2v4.7c0,0.3-0.1,0.6-0.3,0.8c-0.2,0.2-0.4,0.5-0.8,0.8c-0.4,0.3-1,0.7-1.7,1.1
			c-0.8,0.4-1.5,0.7-2.3,0.9c-1.5,0.5-2.9,0.7-4,0.6c-1.2-0.1-2.1-0.5-2.8-1.4c-0.7-0.8-1-2-1-3.6c0-1.5,0.3-2.9,1-4.2
			s1.6-2.3,2.8-3.2c1.1-0.9,2.4-1.6,3.8-2c0.9-0.3,1.8-0.5,2.5-0.5c0.7-0.1,1.3,0,1.7,0.2c0.4,0.2,0.6,0.4,0.6,0.7
			c0,0.2-0.1,0.5-0.2,0.7c-0.1,0.2-0.3,0.4-0.5,0.6c-0.4-0.1-1-0.2-1.6-0.2c-0.6,0-1.4,0.1-2.3,0.4c-1,0.3-1.9,0.8-2.7,1.5
			c-0.8,0.6-1.4,1.4-1.9,2.3c-0.5,0.9-0.7,1.9-0.7,3c0,1.2,0.2,2,0.7,2.6c0.5,0.6,1.1,0.9,1.9,1s1.7,0,2.7-0.4
			c0.5-0.2,1-0.4,1.5-0.6c0.5-0.2,0.8-0.4,1.1-0.6v-3.5l-3.4,1.1c0-0.1-0.1-0.2-0.2-0.3c-0.1-0.1-0.1-0.3-0.1-0.5
			c0-0.3,0.1-0.6,0.2-0.8c0.2-0.2,0.4-0.4,0.7-0.5l4.1-1.3c0.3-0.1,0.6-0.1,0.8,0C130.5,234.7,130.6,234.9,130.6,235.2z"/>
		<path class="st5" d="M136.4,231.6v3.2l-2.5,0.8v-3.2c0-0.3,0.1-0.7,0.2-0.9c0.2-0.3,0.4-0.6,0.8-0.9c0.5-0.4,1-0.8,1.8-1.2
			c0.7-0.4,1.5-0.8,2.4-1.1c1.4-0.5,2.1-0.3,2.1,0.4c0,0.2,0,0.3-0.1,0.5s-0.1,0.3-0.2,0.4c-0.2,0-0.4,0.1-0.6,0.1s-0.5,0.1-0.8,0.2
			c-0.7,0.2-1.3,0.5-1.8,0.8S136.8,231.3,136.4,231.6z M133.9,234.7l2.5-0.6v5.5c-0.1,0.1-0.3,0.2-0.5,0.3c-0.2,0.1-0.4,0.2-0.6,0.3
			c-0.5,0.1-0.8,0.2-1,0.1c-0.2-0.1-0.3-0.3-0.3-0.7V234.7z"/>
		<path class="st5" d="M147.5,236.3c-1.6,0.5-2.8,0.6-3.7,0.4c-0.9-0.3-1.3-0.9-1.3-2c0-1,0.4-1.8,1.1-2.5c0.7-0.7,1.7-1.4,3-1.9
			l3.4-1.4v-0.5c0-0.7-0.2-1.1-0.7-1.2c-0.5-0.1-1.1-0.1-1.9,0.2c-0.6,0.2-1.3,0.5-1.9,0.9c-0.6,0.4-1.1,0.7-1.6,1.1
			c-0.1-0.1-0.3-0.2-0.4-0.3c-0.1-0.1-0.2-0.3-0.2-0.5c0-0.5,0.3-0.9,0.8-1.3c0.4-0.3,1-0.6,1.5-0.9c0.6-0.3,1.2-0.5,1.8-0.8
			c1.5-0.5,2.7-0.6,3.6-0.3c0.9,0.3,1.3,1.1,1.3,2.3v5.1c0,0.3-0.1,0.6-0.2,0.9c-0.2,0.2-0.4,0.5-0.7,0.7c-0.4,0.3-1,0.7-1.6,1.1
			C149.1,235.7,148.3,236,147.5,236.3z M147.5,234.6c0.6-0.2,1.1-0.4,1.5-0.7c0.4-0.2,0.7-0.5,0.9-0.6v-2.8l-2.7,1.1
			c-0.7,0.3-1.3,0.6-1.7,1c-0.4,0.4-0.6,0.8-0.6,1.3c0,0.5,0.2,0.8,0.6,0.9C146,235,146.6,234.9,147.5,234.6z"/>
		<path class="st5" d="M165.1,223.2v2.5l-2.5,0.8v-2.3c0-0.7-0.2-1.1-0.6-1.2c-0.4-0.2-1-0.1-1.7,0.1c-0.5,0.1-0.9,0.4-1.3,0.6
			c-0.4,0.3-0.8,0.5-1,0.8v3.5l-2.5,0.8v-3.5c0-0.3,0.1-0.6,0.2-0.9c0.1-0.3,0.4-0.5,0.7-0.9c0.5-0.4,1-0.8,1.7-1.3
			c0.7-0.4,1.4-0.8,2.2-1c0.8-0.3,1.5-0.4,2.2-0.4c0.6,0,1.1,0.2,1.5,0.5c0.1,0,0.2,0.1,0.3,0.2c0.1,0.1,0.2,0.1,0.2,0.2
			c0.1,0.1,0.2,0.3,0.3,0.6C165.1,222.6,165.1,222.8,165.1,223.2z M155.6,227.7l2.5-0.8v5.6c-0.1,0.1-0.3,0.2-0.5,0.3
			c-0.2,0.1-0.4,0.2-0.6,0.3c-0.5,0.1-0.8,0.2-1,0.1c-0.2-0.1-0.3-0.3-0.3-0.7V227.7z M162.7,225.4l2.5-0.8v5.6
			c-0.1,0.1-0.3,0.1-0.5,0.3c-0.2,0.1-0.4,0.2-0.7,0.3c-0.5,0.1-0.8,0.2-1,0.1c-0.2-0.1-0.3-0.3-0.3-0.7V225.4z M172.2,221v2.4
			l-2.5,0.8v-2.3c0-0.7-0.2-1.1-0.6-1.2c-0.4-0.2-0.9-0.1-1.6,0.1c-0.5,0.2-1,0.4-1.5,0.8c-0.5,0.3-0.9,0.7-1.3,1.2l-1.1-1.1
			c0.5-0.5,1-1,1.7-1.5c0.7-0.5,1.5-0.9,2.4-1.2c0.9-0.3,1.6-0.4,2.3-0.4c0.7,0,1.2,0.2,1.6,0.6C172,219.5,172.2,220.1,172.2,221z
			 M169.8,223.1l2.5-0.8v5.6c-0.1,0.1-0.3,0.1-0.5,0.3c-0.2,0.1-0.4,0.2-0.7,0.3c-0.5,0.1-0.8,0.2-1,0.1c-0.2-0.1-0.3-0.3-0.3-0.7
			V223.1z"/>
		<path class="st5" d="M184,221.2c0,1-0.4,1.9-1.2,2.7c-0.8,0.8-2,1.5-3.5,2c-1.3,0.4-2.3,0.6-3.1,0.5c-0.8-0.1-1.2-0.4-1.2-0.8
			c0-0.2,0.1-0.4,0.2-0.7c0.1-0.2,0.3-0.4,0.5-0.6c0.5,0.1,1,0.2,1.6,0.2c0.6,0,1.3-0.1,2-0.3c1.5-0.5,2.3-1.2,2.3-2.1
			c0-0.4-0.1-0.6-0.4-0.8c-0.3-0.1-0.7-0.2-1.2-0.1l-1.7,0.2c-1.1,0.1-1.9,0.1-2.4-0.3c-0.5-0.3-0.8-0.8-0.8-1.6
			c0-0.8,0.4-1.7,1.2-2.5c0.8-0.8,1.9-1.5,3.3-2c0.8-0.3,1.4-0.4,2-0.5c0.6-0.1,1.1,0,1.4,0.1s0.5,0.3,0.5,0.7
			c0,0.2-0.1,0.4-0.2,0.6c-0.1,0.2-0.3,0.4-0.4,0.5c-0.2-0.1-0.5-0.1-0.8-0.1c-0.3,0-0.7,0-1.1,0c-0.4,0-0.8,0.1-1.3,0.3
			c-0.7,0.2-1.2,0.5-1.6,0.9c-0.4,0.3-0.6,0.7-0.6,1.1c0,0.3,0.1,0.5,0.3,0.6s0.6,0.2,1.1,0.1l1.5-0.2c1.2-0.1,2.1,0,2.7,0.3
			C183.7,219.8,184,220.4,184,221.2z"/>
	</g>
</g>
</svg>
