<?xml version="1.0" encoding="utf-8"?>
<!-- Generator: Adobe Illustrator 23.1.0, SVG Export Plug-In . SVG Version: 6.00 Build 0)  -->
<svg version="1.1" id="Layer_1" xmlns="http://www.w3.org/2000/svg" xmlns:xlink="http://www.w3.org/1999/xlink" x="0px" y="0px"
	 viewBox="0 0 235 455" style="enable-background:new 0 0 235 455;" xml:space="preserve">
<style type="text/css">
	.st0{fill:none;stroke:#000000;stroke-miterlimit:10;}
	.st1{fill:none;stroke:#333333;}
	.st2{fill:#333333;}
</style>
<g>
	<g>
		<path class="st0" d="M230.4,358.3c-0.4-0.4-0.7-0.9-0.7-1.4L228,213.6c0-0.4,0.1-0.7,0.2-1c4.5-7.9,2.2-14,2.2-14l-19.8-53.3
			c-0.1-0.1-0.1-0.2-0.1-0.3c-0.1-0.7-0.5-3.5-0.1-8.3c0.4-4-3.1-5.3-5.1-5.7c-0.9-0.1-1.5-1-1.5-1.8v-2.1c0-1,0.8-1.9,1.8-1.9h0.2
			c1,0,1.8-0.9,1.8-1.9l-0.3-25.9c0.5-5.1-2.9-4.5-2.9-4.5l-16.3-1c-1-0.1-1.8-0.9-1.8-1.8v-0.9l16.9-0.1
			c-0.5-29.5-10.8-49.2-32.3-68.7C159.2,9.4,142.4,4.3,130,2c-11-2.1-22.2-1.8-32.9,0.9c-51.6,12.6-61.9,51-66.5,68.3
			c-5.1,19,0.2,18.6,0.2,18.6l14.6-0.1v0.9c0,1-0.8,1.9-1.8,1.9l-14.8,0.2c-5.4-0.5-5.2,3.2-5.2,3.2l-0.7,26.4
			c-0.1,1.8,0.6,2.5,1.1,2.8c0.3,0.1,0.6,0.2,0.9,0.2c1,0,1.9,0.8,1.9,1.8v2.4c0,1-0.7,1.7-1.5,1.8c-4.8,1-4.3,5.8-4.1,6.5
			c0,0.1,0,0.1,0,0.2l0.1,8c0,0.2-0.1,0.5-0.1,0.7c-1.6,3.9-16.2,39.2-19.1,50.6c-2.6,10.1,0.9,16.2,2.1,17.8
			c0.2,0.3,0.4,0.7,0.4,1.1l-1,142.3c0,0.4-0.1,0.8-0.4,1.2c-6.1,7.9,0.2,17.3,1.1,18.5c0.1,0.1,0.1,0.2,0.2,0.3l14.5,32
			c0.1,0.1,0.1,0.4,0.1,0.6c1.2,9.9,20.1,13.5,21.5,13.7c0.1,0,0.1,0,0.1,0c1.6,0.1,32.4,3.2,53.4,4.5c21.6,1.2,54-0.2,87.6-3.4
			c30.9-2.9,33.5-15.7,33.7-17.7c0-0.2,0.1-0.4,0.1-0.6c1.5-3.2,14.3-29.8,17-37.8C235.1,363.2,231.9,359.5,230.4,358.3z M182,76.1
			L56.3,75c-12.2,0.1-11,5.2-11,5.2v1h-2.1c5.6-49.4,42.5-62.6,61.6-66.1c7.1-1.3,14.4-1.3,21.6-0.1c56.9,9.5,62.4,65.5,62.4,65.5
			h-2.4c0.3-3.4-3.5-4.1-4.2-4.3C182.2,76.1,182.1,76.1,182,76.1z"/>
		<line class="st0" x1="24.8" y1="125.2" x2="205.7" y2="125.2"/>
	</g>
	<g>
		<line class="st1" x1="88.6" y1="445.6" x2="149" y2="445.6"/>
		<line class="st1" x1="9.8" y1="453.9" x2="97.6" y2="453.9"/>
		<line class="st1" x1="135.8" y1="453.9" x2="223.6" y2="453.9"/>
	</g>
</g>
<g>
	<path class="st2" d="M69.6,397.2c0-0.3,0.2-0.6,0.6-0.9s0.9-0.5,1.5-0.7c0.6-0.2,1.3-0.3,2-0.3c1,0,1.9,0.2,2.6,0.5
		s1.3,0.8,1.7,1.5s0.6,1.4,0.6,2.2c0,0.9-0.2,1.7-0.7,2.6c-0.5,0.8-1.3,1.8-2.5,2.9l-3.9,3.6h7.1c0.1,0.1,0.1,0.2,0.2,0.3
		c0,0.1,0.1,0.3,0.1,0.5c0,0.3-0.1,0.5-0.2,0.6s-0.3,0.2-0.5,0.2h-8.5c-0.2-0.1-0.3-0.3-0.4-0.4c-0.1-0.2-0.1-0.3-0.1-0.5
		c0-0.3,0-0.5,0.1-0.7s0.2-0.4,0.4-0.6l4.3-4.2c1-0.9,1.7-1.7,2-2.3c0.4-0.6,0.6-1.3,0.6-2c0-0.8-0.3-1.4-0.8-1.8
		c-0.5-0.5-1.3-0.7-2.3-0.7c-0.7,0-1.3,0.1-1.9,0.4c-0.6,0.2-1,0.5-1.4,0.8c-0.2-0.1-0.3-0.2-0.5-0.4
		C69.7,397.6,69.6,397.4,69.6,397.2z"/>
	<path class="st2" d="M84.8,395.7l-0.6,1.4l-0.4,4.5c0.3-0.1,0.7-0.3,1.1-0.4c0.5-0.1,1-0.2,1.5-0.2c1,0,1.8,0.2,2.6,0.5
		c0.8,0.4,1.4,0.9,1.8,1.6c0.5,0.7,0.7,1.6,0.7,2.6c0,0.9-0.2,1.8-0.6,2.5s-1,1.3-1.8,1.7s-1.8,0.6-3,0.6c-0.9,0-1.7-0.1-2.4-0.3
		s-1.2-0.5-1.6-0.8s-0.6-0.6-0.6-0.9s0.1-0.5,0.3-0.7c0.2-0.2,0.3-0.3,0.5-0.4c0.4,0.3,0.8,0.6,1.5,0.9c0.6,0.3,1.4,0.5,2.3,0.5
		c1.1,0,2-0.3,2.6-0.9s0.9-1.4,0.9-2.3c0-1-0.3-1.7-0.9-2.3s-1.4-0.8-2.4-0.8c-0.6,0-1.1,0.1-1.5,0.3c-0.5,0.2-0.9,0.4-1.3,0.6
		c-0.4,0-0.8-0.2-1-0.4c-0.3-0.2-0.4-0.5-0.4-0.9c0-0.1,0-0.2,0-0.4c0-0.2,0-0.3,0-0.4l0.4-4.6c0-0.3,0.1-0.6,0.3-0.8
		c0.2-0.2,0.4-0.3,0.8-0.3L84.8,395.7L84.8,395.7z M83.8,397.3v-1.6h7c0,0.1,0.1,0.2,0.1,0.3c0,0.1,0.1,0.3,0.1,0.5
		c0,0.3-0.1,0.5-0.2,0.6c-0.1,0.1-0.3,0.2-0.6,0.2H83.8z"/>
	<path class="st2" d="M99.9,410.6c-1.1,0-2.1-0.3-3-0.8c-0.9-0.6-1.5-1.4-2-2.5s-0.7-2.5-0.7-4.3s0.3-3.3,0.8-4.4s1.2-1.9,2.1-2.4
		s1.8-0.8,2.8-0.8s1.9,0.3,2.8,0.8s1.6,1.3,2.1,2.4s0.8,2.6,0.8,4.4c0,1.7-0.2,3.1-0.7,4.2s-1.1,2-2,2.5
		C102,410.3,101,410.6,99.9,410.6z M99.9,409c1.2,0,2.1-0.5,2.8-1.5c0.7-1,1-2.5,1-4.4c0-1.4-0.2-2.6-0.5-3.4
		c-0.3-0.9-0.8-1.5-1.4-1.9s-1.2-0.6-1.9-0.6c-0.7,0-1.3,0.2-1.9,0.6s-1,1.1-1.4,1.9s-0.5,2-0.5,3.4c0,1.9,0.3,3.4,1,4.4
		C97.8,408.4,98.7,409,99.9,409z"/>
	<path class="st2" d="M125.4,403.4v5.2c0,0.3-0.1,0.5-0.3,0.7c-0.2,0.2-0.4,0.4-0.8,0.5c-0.4,0.2-1,0.4-1.7,0.5s-1.4,0.2-2.1,0.2
		c-1.5,0-2.8-0.3-3.9-0.8s-2-1.4-2.7-2.5c-0.6-1.1-1-2.5-1-4.3c0-1.7,0.3-3.1,1-4.3c0.7-1.1,1.5-2,2.7-2.5c1.1-0.6,2.3-0.8,3.6-0.8
		c0.9,0,1.7,0.1,2.4,0.3c0.7,0.2,1.2,0.4,1.6,0.7s0.6,0.6,0.6,0.9c0,0.2-0.1,0.4-0.2,0.6s-0.3,0.3-0.5,0.4c-0.4-0.3-0.9-0.6-1.5-0.8
		c-0.6-0.2-1.4-0.4-2.3-0.4c-1,0-1.9,0.2-2.7,0.7c-0.8,0.4-1.5,1.1-1.9,2c-0.5,0.9-0.7,2-0.7,3.3c0,1.4,0.2,2.5,0.7,3.4
		s1.2,1.5,2,1.9s1.8,0.6,2.9,0.6c0.6,0,1.1,0,1.6-0.1s0.9-0.2,1.2-0.4V404h-3.6c0-0.1-0.1-0.2-0.1-0.3s-0.1-0.3-0.1-0.4
		c0-0.3,0.1-0.5,0.2-0.6s0.3-0.2,0.6-0.2h4c0.3,0,0.5,0.1,0.7,0.3S125.4,403.1,125.4,403.4z"/>
	<path class="st2" d="M137.5,406.5c-0.1,0.1-0.3,0.2-0.4,0.2c-0.2,0.1-0.4,0.1-0.6,0.1c-0.3,0-0.5,0-0.7-0.1s-0.3-0.2-0.4-0.4
		c-0.8-1.8-1.6-3.4-2.2-4.9s-1.1-2.7-1.5-3.7h-0.1c0,1.2-0.1,2.3-0.2,3.4c-0.1,1-0.1,2-0.2,3c-0.1,1-0.1,2-0.2,3
		c-0.1,1-0.1,2.1-0.2,3.3c-0.1,0-0.2,0.1-0.4,0.1s-0.3,0-0.5,0c-0.4,0-0.6-0.1-0.7-0.2c-0.1-0.2-0.2-0.4-0.2-0.6s0-0.6,0.1-1.3
		c0-0.7,0.1-1.5,0.1-2.6s0.1-2.1,0.2-3.2c0.1-1.1,0.2-2.3,0.3-3.4s0.2-2.1,0.3-3c0.1-0.1,0.3-0.2,0.6-0.3c0.2-0.1,0.5-0.1,0.8-0.1
		c0.4,0,0.7,0.1,0.9,0.2s0.5,0.4,0.6,0.7c0.4,0.8,0.8,1.7,1.2,2.7s0.8,1.9,1.2,2.9s0.8,1.9,1.2,2.7h0.1c0.7-1.7,1.4-3.3,2.1-4.9
		c0.7-1.6,1.3-2.9,1.8-4c0.1-0.1,0.3-0.1,0.6-0.2c0.2,0,0.4-0.1,0.6-0.1c0.4,0,0.7,0.1,0.9,0.2s0.4,0.3,0.4,0.6
		c0.1,0.3,0.1,0.7,0.2,1.4s0.2,1.4,0.2,2.3c0.1,0.9,0.2,1.8,0.2,2.8c0.1,1,0.1,1.9,0.2,2.9c0.1,0.9,0.1,1.8,0.2,2.6
		c0.1,0.8,0.1,1.4,0.1,1.8c-0.1,0.1-0.3,0.2-0.5,0.2s-0.3,0.1-0.6,0.1c-0.2,0-0.5-0.1-0.6-0.2c-0.2-0.1-0.3-0.3-0.3-0.7
		c-0.1-1.6-0.2-3.1-0.3-4.6s-0.2-2.9-0.2-4.2c-0.1-1.3-0.1-2.3-0.2-3.1h-0.1c-0.4,0.9-0.8,2-1.4,3.4
		C139.3,402.7,138.4,404.3,137.5,406.5z"/>
	<path class="st2" d="M151.9,409c1.1,0,1.9-0.2,2.4-0.7s0.8-1.1,0.8-1.9c0-0.7-0.2-1.2-0.6-1.6s-1.1-0.8-2-1l-2.1-0.6
		c-0.7-0.2-1.3-0.5-1.8-0.8s-0.9-0.7-1.1-1.2c-0.3-0.5-0.4-1.1-0.4-1.7c0-1.2,0.4-2.2,1.3-2.9c0.9-0.7,2.1-1,3.6-1
		c0.9,0,1.6,0.1,2.3,0.3c0.7,0.2,1.2,0.4,1.6,0.7c0.4,0.3,0.6,0.6,0.6,0.9c0,0.2-0.1,0.4-0.2,0.6s-0.3,0.3-0.4,0.4
		c-0.4-0.3-0.9-0.6-1.6-0.8c-0.7-0.2-1.4-0.4-2.2-0.4c-0.9,0-1.7,0.2-2.2,0.6c-0.5,0.4-0.8,1-0.8,1.7c0,0.6,0.2,1,0.6,1.4
		c0.4,0.4,1,0.7,1.9,0.9l1.5,0.4c1.3,0.4,2.3,0.9,3,1.5c0.7,0.7,1.1,1.6,1.1,2.8c0,1.3-0.5,2.3-1.4,3.1c-0.9,0.8-2.2,1.2-3.9,1.2
		c-1,0-1.8-0.1-2.6-0.3c-0.7-0.2-1.3-0.5-1.7-0.8s-0.6-0.7-0.6-1s0.1-0.5,0.3-0.7s0.4-0.3,0.6-0.4c0.4,0.4,0.9,0.7,1.6,1
		C150.1,408.8,151,409,151.9,409z"/>
</g>
</svg>
